%TF.GenerationSoftware,KiCad,Pcbnew,(6.0.1)*%
%TF.CreationDate,2022-02-27T14:39:44+09:00*%
%TF.ProjectId,ergotonic_f24,6572676f-746f-46e6-9963-5f6632342e6b,rev?*%
%TF.SameCoordinates,Original*%
%TF.FileFunction,Soldermask,Bot*%
%TF.FilePolarity,Negative*%
%FSLAX46Y46*%
G04 Gerber Fmt 4.6, Leading zero omitted, Abs format (unit mm)*
G04 Created by KiCad (PCBNEW (6.0.1)) date 2022-02-27 14:39:44*
%MOMM*%
%LPD*%
G01*
G04 APERTURE LIST*
G04 Aperture macros list*
%AMRoundRect*
0 Rectangle with rounded corners*
0 $1 Rounding radius*
0 $2 $3 $4 $5 $6 $7 $8 $9 X,Y pos of 4 corners*
0 Add a 4 corners polygon primitive as box body*
4,1,4,$2,$3,$4,$5,$6,$7,$8,$9,$2,$3,0*
0 Add four circle primitives for the rounded corners*
1,1,$1+$1,$2,$3*
1,1,$1+$1,$4,$5*
1,1,$1+$1,$6,$7*
1,1,$1+$1,$8,$9*
0 Add four rect primitives between the rounded corners*
20,1,$1+$1,$2,$3,$4,$5,0*
20,1,$1+$1,$4,$5,$6,$7,0*
20,1,$1+$1,$6,$7,$8,$9,0*
20,1,$1+$1,$8,$9,$2,$3,0*%
%AMHorizOval*
0 Thick line with rounded ends*
0 $1 width*
0 $2 $3 position (X,Y) of the first rounded end (center of the circle)*
0 $4 $5 position (X,Y) of the second rounded end (center of the circle)*
0 Add line between two ends*
20,1,$1,$2,$3,$4,$5,0*
0 Add two circle primitives to create the rounded ends*
1,1,$1,$2,$3*
1,1,$1,$4,$5*%
%AMRotRect*
0 Rectangle, with rotation*
0 The origin of the aperture is its center*
0 $1 length*
0 $2 width*
0 $3 Rotation angle, in degrees counterclockwise*
0 Add horizontal line*
21,1,$1,$2,0,0,$3*%
G04 Aperture macros list end*
%ADD10C,1.524000*%
%ADD11C,1.900000*%
%ADD12C,4.100000*%
%ADD13C,3.000000*%
%ADD14RotRect,2.550000X2.500000X195.110000*%
%ADD15RotRect,2.550000X2.500000X188.510000*%
%ADD16RotRect,2.550000X2.500000X182.020000*%
%ADD17RotRect,2.550000X2.500000X194.390000*%
%ADD18C,1.200000*%
%ADD19HorizOval,1.700000X-0.055669X-0.396107X0.055669X0.396107X0*%
%ADD20RotRect,2.550000X2.500000X193.470000*%
%ADD21RoundRect,0.249600X0.719283X-0.168618X0.536485X0.507921X-0.719283X0.168618X-0.536485X-0.507921X0*%
%ADD22RotRect,2.550000X2.500000X176.380000*%
%ADD23RotRect,2.550000X2.500000X179.710000*%
%ADD24RotRect,2.550000X2.500000X187.620000*%
%ADD25RotRect,2.550000X2.500000X175.420000*%
%ADD26RotRect,2.550000X2.500000X190.850000*%
%ADD27C,0.600000*%
%ADD28C,2.000000*%
%ADD29RotRect,3.200000X2.000000X101.130000*%
%ADD30RotRect,2.550000X2.500000X195.120000*%
%ADD31RotRect,2.550000X2.500000X181.120000*%
%ADD32RotRect,2.550000X2.500000X172.380000*%
%ADD33RotRect,2.550000X2.500000X166.530000*%
%ADD34RotRect,2.550000X2.500000X177.980000*%
%ADD35RotRect,2.550000X2.500000X184.580000*%
%ADD36HorizOval,1.700000X-0.055669X0.396107X0.055669X-0.396107X0*%
%ADD37RotRect,2.550000X2.500000X180.290000*%
%ADD38RotRect,2.550000X2.500000X194.000000*%
%ADD39RotRect,2.550000X2.500000X181.060000*%
%ADD40RotRect,2.550000X2.500000X185.430000*%
%ADD41RotRect,2.550000X2.500000X172.430000*%
%ADD42RotRect,2.550000X2.500000X169.150000*%
%ADD43RotRect,2.550000X2.500000X183.620000*%
%ADD44RotRect,2.550000X2.500000X165.610000*%
%ADD45RotRect,3.200000X2.000000X82.000000*%
%ADD46RotRect,2.550000X2.500000X178.880000*%
%ADD47RotRect,2.550000X2.500000X190.660000*%
%ADD48RotRect,2.550000X2.500000X191.080000*%
%ADD49RotRect,2.550000X2.500000X173.450000*%
%ADD50RotRect,2.550000X2.500000X172.000000*%
%ADD51RoundRect,0.249600X0.536485X-0.507921X0.719283X0.168618X-0.536485X0.507921X-0.719283X-0.168618X0*%
%ADD52RotRect,2.550000X2.500000X174.570000*%
%ADD53RotRect,2.550000X2.500000X182.050000*%
%ADD54RotRect,2.550000X2.500000X169.340000*%
%ADD55RotRect,2.550000X2.500000X177.950000*%
%ADD56RotRect,2.550000X2.500000X168.870000*%
%ADD57RotRect,2.550000X2.500000X166.000000*%
%ADD58RotRect,2.550000X2.500000X164.890000*%
%ADD59RotRect,2.550000X2.500000X186.550000*%
%ADD60RotRect,2.550000X2.500000X188.000000*%
%ADD61RotRect,2.550000X2.500000X181.980000*%
%ADD62RotRect,2.550000X2.500000X178.020000*%
%ADD63RotRect,2.550000X2.500000X187.570000*%
%ADD64RotRect,3.200000X2.000000X98.000000*%
%ADD65RotRect,2.550000X2.500000X168.920000*%
%ADD66RotRect,3.200000X2.000000X78.870000*%
%ADD67RotRect,2.550000X2.500000X164.880000*%
%ADD68RotRect,2.550000X2.500000X191.130000*%
%ADD69RoundRect,0.249600X-0.536485X0.507921X-0.719283X-0.168618X0.536485X-0.507921X0.719283X0.168618X0*%
%ADD70RotRect,2.550000X2.500000X171.490000*%
%ADD71RotRect,2.550000X2.500000X178.940000*%
G04 APERTURE END LIST*
D10*
%TO.C,U1*%
X-138265163Y-22605464D03*
X-138618663Y-25120745D03*
X-138972163Y-27636026D03*
X-139325662Y-30151307D03*
X-139679162Y-32666587D03*
X-140032662Y-35181868D03*
X-140386161Y-37697149D03*
X-140739661Y-40212430D03*
X-141093161Y-42727711D03*
X-141446660Y-45242992D03*
X-141800160Y-47758273D03*
X-142153660Y-50273554D03*
X-157225540Y-48155339D03*
X-156872040Y-45640058D03*
X-156518540Y-43124777D03*
X-156165041Y-40609496D03*
X-155811541Y-38094215D03*
X-155458041Y-35578935D03*
X-155104542Y-33063654D03*
X-154751042Y-30548373D03*
X-154397542Y-28033092D03*
X-154044043Y-25517811D03*
X-153690543Y-23002530D03*
X-153337043Y-20487249D03*
%TD*%
D11*
%TO.C,SW26*%
X16746630Y-100690219D03*
D12*
X21651000Y-99366000D03*
D11*
X26555370Y-98041781D03*
D13*
X17310613Y-97906979D03*
X22778966Y-93799521D03*
D14*
X14148839Y-98760683D03*
X25966807Y-92938778D03*
%TD*%
D10*
%TO.C,U2*%
X153428940Y-20474334D03*
X153782440Y-22989615D03*
X154135940Y-25504896D03*
X154489439Y-28020177D03*
X154842939Y-30535458D03*
X155196439Y-33050738D03*
X155549938Y-35566019D03*
X155903438Y-38081300D03*
X156256938Y-40596581D03*
X156610437Y-43111862D03*
X156963937Y-45627143D03*
X157317437Y-48142424D03*
X142245557Y-50260638D03*
X141892057Y-47745358D03*
X141538557Y-45230077D03*
X141185058Y-42714796D03*
X140831558Y-40199515D03*
X140478058Y-37684234D03*
X140124559Y-35168953D03*
X139771059Y-32653672D03*
X139417559Y-30138391D03*
X139064060Y-27623110D03*
X138710560Y-25107829D03*
X138357060Y-22592549D03*
%TD*%
D11*
%TO.C,SW33*%
X57506069Y-60331251D03*
X47457931Y-61834749D03*
D13*
X54242286Y-55683056D03*
D12*
X52482000Y-61083000D03*
D13*
X48338074Y-59134777D03*
D15*
X45099131Y-59619418D03*
X57507931Y-55194420D03*
%TD*%
D13*
%TO.C,SW36*%
X65490837Y-33169875D03*
D11*
X74464843Y-35394938D03*
D13*
X71747360Y-30407626D03*
D12*
X69388000Y-35574000D03*
D11*
X64311157Y-35753062D03*
D16*
X62217872Y-33285313D03*
X75047308Y-30291236D03*
%TD*%
D13*
%TO.C,SW47*%
X127913290Y-66624553D03*
D12*
X132235000Y-68138000D03*
D11*
X127314377Y-69400486D03*
D13*
X133432826Y-62586134D03*
D11*
X137155623Y-66875514D03*
D17*
X124741038Y-67438459D03*
X136631230Y-61765518D03*
%TD*%
D18*
%TO.C,J1*%
X-159545971Y-26881279D03*
X-158571760Y-19949402D03*
D19*
X-162084806Y-29856900D03*
X-156742708Y-22024148D03*
X-157160228Y-24994952D03*
X-157716920Y-28956025D03*
%TD*%
D12*
%TO.C,SW38*%
X74723000Y-75120000D03*
D13*
X76009814Y-69588083D03*
D11*
X79663259Y-73936684D03*
X69782741Y-76303316D03*
D13*
X70426147Y-73537357D03*
D20*
X67241236Y-74300223D03*
X79220982Y-68818927D03*
%TD*%
D21*
%TO.C,J6*%
X27934740Y-89927460D03*
X25952344Y-82590560D03*
%TD*%
D11*
%TO.C,SW16*%
X-45317136Y-41671746D03*
D12*
X-50387000Y-41351000D03*
D13*
X-54029025Y-38575509D03*
X-47531322Y-36441509D03*
D11*
X-55456864Y-41030254D03*
D22*
X-57297491Y-38368729D03*
X-44235911Y-36649993D03*
%TD*%
D12*
%TO.C,SW5*%
X-107680000Y-26959000D03*
D11*
X-102600065Y-26984712D03*
X-112759935Y-26933288D03*
D13*
X-111477095Y-24399748D03*
X-105114320Y-21891921D03*
D23*
X-114752053Y-24383172D03*
X-101812363Y-21908634D03*
%TD*%
D12*
%TO.C,SW37*%
X71065000Y-55460000D03*
D11*
X76100140Y-54786380D03*
D13*
X66951835Y-53447645D03*
X72908950Y-50088050D03*
D11*
X66029860Y-56133620D03*
D24*
X63705755Y-53881918D03*
X76181791Y-49650197D03*
%TD*%
D13*
%TO.C,SW9*%
X-92694012Y-39788878D03*
D11*
X-84035221Y-43030643D03*
X-94162779Y-42219357D03*
D13*
X-86161468Y-37764043D03*
D12*
X-89099000Y-42625000D03*
D25*
X-95958555Y-39527367D03*
X-82870012Y-38027711D03*
%TD*%
D13*
%TO.C,SW44*%
X113466342Y-61025687D03*
D12*
X111928000Y-66492999D03*
D13*
X107707984Y-64715594D03*
D11*
X116917187Y-65536748D03*
X106938813Y-67449250D03*
D26*
X104491530Y-65332075D03*
X116709313Y-60404123D03*
%TD*%
D27*
%TO.C,mousebite3*%
X-1700000Y-65517000D03*
X-1700000Y-61917000D03*
X-1700000Y-58317000D03*
X-1700000Y-60117000D03*
X-1700000Y-62817000D03*
X-1700000Y-64617000D03*
X-1700000Y-59217000D03*
X-1700000Y-68217000D03*
X-1700000Y-67317000D03*
X-1700000Y-66417000D03*
X-1700000Y-61017000D03*
X-1700000Y-63717000D03*
%TD*%
D28*
%TO.C,RE3*%
X15517789Y-85716527D03*
X20423747Y-84751349D03*
X17970768Y-85233938D03*
D29*
X22017674Y-76794000D03*
X11028326Y-78956000D03*
D28*
X17624729Y-70524069D03*
X12718770Y-71489247D03*
%TD*%
D12*
%TO.C,SW30*%
X40041000Y-94399000D03*
D11*
X44945139Y-93073925D03*
D13*
X35700359Y-92940737D03*
X41167995Y-88832324D03*
D11*
X35136861Y-95724075D03*
D30*
X32538734Y-93794993D03*
X44355685Y-87971025D03*
%TD*%
D28*
%TO.C,SW_RESET2*%
X162176687Y-36648629D03*
X163081313Y-43085371D03*
%TD*%
D12*
%TO.C,SW45*%
X126864000Y-28321000D03*
D13*
X129304219Y-23192323D03*
X123005080Y-25855957D03*
D11*
X121784971Y-28420296D03*
X131943029Y-28221704D03*
D31*
X119730706Y-25919972D03*
X132605588Y-23127780D03*
%TD*%
D27*
%TO.C,mousebite1*%
X-1700000Y-39682000D03*
X-1700000Y-37882000D03*
X-1700000Y-38782000D03*
X-1700000Y-36082000D03*
X-1700000Y-33382000D03*
X-1700000Y-36982000D03*
X-1700000Y-32482000D03*
X-1700000Y-35182000D03*
X-1700000Y-34282000D03*
X-1700000Y-29782000D03*
X-1700000Y-31582000D03*
X-1700000Y-30682000D03*
%TD*%
D13*
%TO.C,SW13*%
X-74504545Y-52437215D03*
D11*
X-66029860Y-56133620D03*
D12*
X-71065000Y-55460000D03*
D13*
X-67873810Y-50761670D03*
D11*
X-76100140Y-54786380D03*
D32*
X-77750625Y-52002942D03*
X-64600969Y-51199523D03*
%TD*%
D11*
%TO.C,SW14*%
X-69782741Y-76303316D03*
D13*
X-71069554Y-70771398D03*
D11*
X-79663259Y-73936684D03*
D12*
X-74723000Y-75120000D03*
D13*
X-77836537Y-71762383D03*
D33*
X-81021448Y-70999517D03*
X-67858386Y-71540554D03*
%TD*%
D13*
%TO.C,SW19*%
X-28096517Y-28589688D03*
D11*
X-25737157Y-33756062D03*
X-35890843Y-33397938D03*
D13*
X-34532102Y-30904282D03*
D12*
X-30814000Y-33577000D03*
D34*
X-37805066Y-30788844D03*
X-24796569Y-28706078D03*
%TD*%
D11*
%TO.C,SW40*%
X94162779Y-42219357D03*
D13*
X85098345Y-40397343D03*
D11*
X84035221Y-43030643D03*
D12*
X89099000Y-42625000D03*
D13*
X91225246Y-37358400D03*
D35*
X81833802Y-40658855D03*
X94516702Y-37094732D03*
%TD*%
D18*
%TO.C,J4*%
X158571760Y-19949402D03*
X159545971Y-26881279D03*
D36*
X157925680Y-30441427D03*
X160901834Y-21439621D03*
X161319353Y-24410425D03*
X161876046Y-28371498D03*
%TD*%
D13*
%TO.C,SW42*%
X103857193Y-24438317D03*
D11*
X102600065Y-26984712D03*
X112759935Y-26933288D03*
D12*
X107680000Y-26959000D03*
D13*
X110194255Y-21866209D03*
D37*
X100582235Y-24454893D03*
X113496213Y-21849496D03*
%TD*%
D12*
%TO.C,SW34*%
X56373000Y-80640000D03*
D13*
X52061692Y-79097171D03*
D11*
X61302102Y-79411037D03*
X51443898Y-81868963D03*
D13*
X57608588Y-75096416D03*
D38*
X48883973Y-79889465D03*
X60812504Y-74297590D03*
%TD*%
D12*
%TO.C,SW8*%
X-88483000Y-22671000D03*
D13*
X-92339337Y-20201918D03*
X-86037412Y-17544881D03*
D11*
X-83403869Y-22577023D03*
X-93562131Y-22764977D03*
D39*
X-95613776Y-20262503D03*
X-82735977Y-17483796D03*
%TD*%
D12*
%TO.C,SW28*%
X32088000Y-53145000D03*
D13*
X34135884Y-47847437D03*
D11*
X37145204Y-52664282D03*
D13*
X28054738Y-50976937D03*
D11*
X27030796Y-53625718D03*
D40*
X24794434Y-51286849D03*
X37423066Y-47534970D03*
%TD*%
D13*
%TO.C,SW2*%
X-125199911Y-43652887D03*
D11*
X-133422726Y-47684774D03*
D12*
X-128387000Y-48354000D03*
D13*
X-131829182Y-45334218D03*
D11*
X-123351274Y-49023226D03*
D41*
X-135075639Y-44902778D03*
X-121926689Y-44087884D03*
%TD*%
D12*
%TO.C,SW7*%
X-111929000Y-66492999D03*
D11*
X-106939813Y-67449250D03*
X-116918187Y-65536748D03*
D13*
X-108478155Y-61981938D03*
X-115192764Y-63281217D03*
D42*
X-118409218Y-62664736D03*
X-105235184Y-62603501D03*
%TD*%
D11*
%TO.C,SW32*%
X45317136Y-41671746D03*
D13*
X46424229Y-39056627D03*
X52601186Y-36120763D03*
D12*
X50387000Y-41351000D03*
D11*
X55456864Y-41030254D03*
D43*
X43155764Y-39263407D03*
X55896598Y-35912278D03*
%TD*%
D13*
%TO.C,SW3*%
X-135294224Y-64730824D03*
D11*
X-137155623Y-66875514D03*
X-127314377Y-69400486D03*
D12*
X-132235000Y-68138000D03*
D13*
X-128512203Y-63848620D03*
D44*
X-138466476Y-63916918D03*
X-125313798Y-64669236D03*
%TD*%
D28*
%TO.C,RE1*%
X-158218468Y-67489078D03*
X-153267128Y-68184943D03*
X-155742798Y-67837011D03*
D45*
X-149153499Y-61189369D03*
X-160244501Y-59630631D03*
D28*
X-151249118Y-53826056D03*
X-156200458Y-53130191D03*
%TD*%
D11*
%TO.C,SW1*%
X-131943029Y-28221704D03*
D13*
X-124225189Y-23291618D03*
X-130623624Y-25707013D03*
D11*
X-121784971Y-28420296D03*
D12*
X-126864000Y-28321000D03*
D46*
X-133897998Y-25642999D03*
X-120923820Y-23356161D03*
%TD*%
D11*
%TO.C,SW41*%
X86766670Y-63420701D03*
D13*
X87544902Y-60689611D03*
D12*
X91759000Y-62481000D03*
D13*
X93315464Y-57018819D03*
D11*
X96751330Y-61541299D03*
D47*
X84326421Y-61295422D03*
X96560478Y-56408013D03*
%TD*%
D11*
%TO.C,SW29*%
X39941308Y-71927729D03*
D13*
X30728883Y-71143550D03*
X36472382Y-67430556D03*
D11*
X29970692Y-73880271D03*
D12*
X34956000Y-72904000D03*
D48*
X27514930Y-71772937D03*
X39712833Y-66795980D03*
%TD*%
D12*
%TO.C,SW6*%
X-108881000Y-46979000D03*
D13*
X-112376393Y-44020972D03*
D11*
X-103834159Y-47558477D03*
X-113927841Y-46399523D03*
D13*
X-105778103Y-42221897D03*
D49*
X-115630016Y-43647392D03*
X-102497656Y-42598557D03*
%TD*%
D11*
%TO.C,SW4*%
X-159729562Y-59703001D03*
D13*
X-158118422Y-57364470D03*
X-151476720Y-55732938D03*
D12*
X-154699000Y-60410000D03*
D11*
X-149668438Y-61116999D03*
D50*
X-161361550Y-56908678D03*
X-148206855Y-56192487D03*
%TD*%
D51*
%TO.C,J3*%
X-28269260Y-81841540D03*
X-30251656Y-89178440D03*
%TD*%
D11*
%TO.C,SW20*%
X-27030796Y-53625718D03*
D12*
X-32088000Y-53145000D03*
D11*
X-37145204Y-52664282D03*
D13*
X-35640544Y-50255859D03*
X-29078680Y-48328155D03*
D52*
X-38900847Y-49945948D03*
X-25791497Y-48640622D03*
%TD*%
D13*
%TO.C,SW15*%
X-47760345Y-16208391D03*
D11*
X-55193749Y-21557720D03*
D13*
X-54015421Y-18973915D03*
D12*
X-50117000Y-21376000D03*
D11*
X-45040251Y-21194280D03*
D53*
X-57288325Y-19091068D03*
X-44460459Y-16090273D03*
%TD*%
D13*
%TO.C,SW10*%
X-95033397Y-59280059D03*
D11*
X-96751330Y-61541299D03*
X-86766670Y-63420701D03*
D13*
X-88323134Y-57958520D03*
D12*
X-91759000Y-62481000D03*
D54*
X-98251878Y-58674247D03*
X-85078119Y-58569326D03*
%TD*%
D13*
%TO.C,SW12*%
X-66670517Y-30586688D03*
X-73106102Y-32901282D03*
D12*
X-69388000Y-35574000D03*
D11*
X-74464843Y-35394938D03*
X-64311157Y-35753062D03*
D34*
X-76379066Y-32785844D03*
X-63370569Y-30703078D03*
%TD*%
D12*
%TO.C,SW31*%
X50117000Y-21376000D03*
D11*
X55193749Y-21557720D03*
X45040251Y-21194280D03*
D13*
X46400298Y-18701336D03*
X52837094Y-16390111D03*
D55*
X43127394Y-18584184D03*
X56136981Y-16508229D03*
%TD*%
D13*
%TO.C,SW23*%
X-13050151Y-73380857D03*
D11*
X-21507454Y-76894378D03*
D13*
X-19771030Y-74647307D03*
D12*
X-16523000Y-77875000D03*
D11*
X-11538546Y-78855622D03*
D56*
X-22984433Y-74015115D03*
X-9810256Y-74018261D03*
%TD*%
D12*
%TO.C,SW18*%
X-56373000Y-80640000D03*
D13*
X-59455345Y-77253726D03*
X-52679486Y-76325379D03*
D11*
X-61302102Y-79411037D03*
X-51443898Y-81868963D03*
D57*
X-62633064Y-76461432D03*
X-49475569Y-77124205D03*
%TD*%
D12*
%TO.C,SW24*%
X-21651000Y-99366000D03*
D11*
X-16746630Y-100690219D03*
X-26555370Y-98041781D03*
D13*
X-17874596Y-95123740D03*
X-24667168Y-95920651D03*
D58*
X-27828942Y-95066947D03*
X-14686756Y-95984482D03*
%TD*%
D12*
%TO.C,SW43*%
X108881000Y-46979000D03*
D11*
X113927841Y-46399523D03*
D13*
X104806131Y-44890187D03*
D11*
X103834159Y-47558477D03*
D13*
X110824944Y-41642420D03*
D59*
X101552508Y-45263767D03*
X114105391Y-41265760D03*
%TD*%
D27*
%TO.C,mousebite4*%
X1700000Y-59217000D03*
X1700000Y-61017000D03*
X1700000Y-60117000D03*
X1700000Y-63717000D03*
X1700000Y-65517000D03*
X1700000Y-58317000D03*
X1700000Y-62817000D03*
X1700000Y-64617000D03*
X1700000Y-61917000D03*
X1700000Y-66417000D03*
X1700000Y-67317000D03*
X1700000Y-68217000D03*
%TD*%
D11*
%TO.C,SW48*%
X159729562Y-59703001D03*
D13*
X156507282Y-55025939D03*
D12*
X154699000Y-60410000D03*
D13*
X150572579Y-58424969D03*
D11*
X149668438Y-61116999D03*
D60*
X147329451Y-58880761D03*
X159777147Y-54566389D03*
%TD*%
D12*
%TO.C,SW11*%
X-69381000Y-15870000D03*
D11*
X-74457967Y-16045517D03*
D13*
X-67018034Y-10705274D03*
D11*
X-64304033Y-15694483D03*
D13*
X-73276484Y-13463154D03*
D61*
X-76549529Y-13576308D03*
X-63718005Y-10591188D03*
%TD*%
D13*
%TO.C,SW35*%
X72095001Y-10880792D03*
D11*
X74457967Y-16045517D03*
X64304033Y-15694483D03*
D12*
X69381000Y-15870000D03*
D13*
X65661033Y-13199879D03*
D62*
X62387989Y-13086725D03*
X75395029Y-10994878D03*
%TD*%
D11*
%TO.C,SW46*%
X133422726Y-47684774D03*
D13*
X130235637Y-42983661D03*
X124275593Y-46338056D03*
D12*
X128387000Y-48354000D03*
D11*
X123351274Y-49023226D03*
D63*
X121029135Y-46769496D03*
X133508859Y-42548664D03*
%TD*%
D28*
%TO.C,RE4*%
X153267128Y-68184943D03*
X158218468Y-67489078D03*
X155742798Y-67837011D03*
D64*
X160244501Y-59630631D03*
X149153499Y-61189369D03*
D28*
X156200458Y-53130191D03*
X151249118Y-53826056D03*
%TD*%
D27*
%TO.C,mousebite2*%
X1700000Y-36982000D03*
X1700000Y-31582000D03*
X1700000Y-29782000D03*
X1700000Y-39682000D03*
X1700000Y-37882000D03*
X1700000Y-36082000D03*
X1700000Y-34282000D03*
X1700000Y-38782000D03*
X1700000Y-33382000D03*
X1700000Y-35182000D03*
X1700000Y-32482000D03*
X1700000Y-30682000D03*
%TD*%
D13*
%TO.C,SW21*%
X-38206845Y-69679143D03*
X-31487075Y-68406828D03*
D11*
X-29970692Y-73880271D03*
X-39941308Y-71927729D03*
D12*
X-34956000Y-72904000D03*
D65*
X-41420799Y-69049755D03*
X-28246625Y-69041404D03*
%TD*%
D28*
%TO.C,SW_RESET1*%
X-163081313Y-43085371D03*
X-162176687Y-36648629D03*
%TD*%
%TO.C,RE2*%
X-20423747Y-84751349D03*
X-15517789Y-85716527D03*
X-17970768Y-85233938D03*
D66*
X-22017674Y-76794000D03*
X-11028326Y-78956000D03*
D28*
X-12718770Y-71489247D03*
X-17624729Y-70524069D03*
%TD*%
D11*
%TO.C,SW27*%
X35890843Y-33397938D03*
D12*
X30814000Y-33577000D03*
D11*
X25737157Y-33756062D03*
D13*
X26916837Y-31172875D03*
X33173360Y-28410626D03*
D16*
X23643872Y-31288313D03*
X36473308Y-28294236D03*
%TD*%
D11*
%TO.C,SW22*%
X-44945139Y-93073925D03*
X-35136861Y-95724075D03*
D13*
X-43056567Y-90953124D03*
D12*
X-40041000Y-94399000D03*
D13*
X-36263856Y-90157399D03*
D67*
X-46218191Y-90098869D03*
X-33076166Y-91018697D03*
%TD*%
D13*
%TO.C,SW25*%
X18034605Y-72400235D03*
X12294349Y-76118239D03*
D11*
X21507454Y-76894378D03*
X11538546Y-78855622D03*
D12*
X16523000Y-77875000D03*
D68*
X9080946Y-76750431D03*
X21274500Y-71762831D03*
%TD*%
D69*
%TO.C,J2*%
X-5066898Y-76219078D03*
X-3606186Y-70812941D03*
%TD*%
D13*
%TO.C,SW17*%
X-55874178Y-58007154D03*
D12*
X-52482000Y-61083000D03*
D13*
X-49218217Y-56434805D03*
D11*
X-47457931Y-61834749D03*
X-57506069Y-60331251D03*
D70*
X-59113120Y-57522513D03*
X-45952571Y-56923442D03*
%TD*%
D21*
%TO.C,J5*%
X3697186Y-70910941D03*
X5157898Y-76317078D03*
%TD*%
D13*
%TO.C,SW39*%
X91116542Y-17638858D03*
D11*
X83403869Y-22577023D03*
D13*
X84720641Y-20060952D03*
D11*
X93562131Y-22764977D03*
D12*
X88483000Y-22671000D03*
D71*
X81446201Y-20000366D03*
X94417977Y-17699943D03*
%TD*%
M02*
