%TF.GenerationSoftware,KiCad,Pcbnew,(6.0.1)*%
%TF.CreationDate,2022-02-27T14:39:43+09:00*%
%TF.ProjectId,ergotonic_f24,6572676f-746f-46e6-9963-5f6632342e6b,rev?*%
%TF.SameCoordinates,Original*%
%TF.FileFunction,Paste,Bot*%
%TF.FilePolarity,Positive*%
%FSLAX46Y46*%
G04 Gerber Fmt 4.6, Leading zero omitted, Abs format (unit mm)*
G04 Created by KiCad (PCBNEW (6.0.1)) date 2022-02-27 14:39:43*
%MOMM*%
%LPD*%
G01*
G04 APERTURE LIST*
G04 Aperture macros list*
%AMRotRect*
0 Rectangle, with rotation*
0 The origin of the aperture is its center*
0 $1 length*
0 $2 width*
0 $3 Rotation angle, in degrees counterclockwise*
0 Add horizontal line*
21,1,$1,$2,0,0,$3*%
G04 Aperture macros list end*
%ADD10RotRect,2.550000X2.500000X195.110000*%
%ADD11RotRect,2.550000X2.500000X188.510000*%
%ADD12RotRect,2.550000X2.500000X182.020000*%
%ADD13RotRect,2.550000X2.500000X194.390000*%
%ADD14RotRect,2.550000X2.500000X193.470000*%
%ADD15RotRect,2.550000X2.500000X176.380000*%
%ADD16RotRect,2.550000X2.500000X179.710000*%
%ADD17RotRect,2.550000X2.500000X187.620000*%
%ADD18RotRect,2.550000X2.500000X175.420000*%
%ADD19RotRect,2.550000X2.500000X190.850000*%
%ADD20RotRect,2.550000X2.500000X195.120000*%
%ADD21RotRect,2.550000X2.500000X181.120000*%
%ADD22RotRect,2.550000X2.500000X172.380000*%
%ADD23RotRect,2.550000X2.500000X166.530000*%
%ADD24RotRect,2.550000X2.500000X177.980000*%
%ADD25RotRect,2.550000X2.500000X184.580000*%
%ADD26RotRect,2.550000X2.500000X180.290000*%
%ADD27RotRect,2.550000X2.500000X194.000000*%
%ADD28RotRect,2.550000X2.500000X181.060000*%
%ADD29RotRect,2.550000X2.500000X185.430000*%
%ADD30RotRect,2.550000X2.500000X172.430000*%
%ADD31RotRect,2.550000X2.500000X169.150000*%
%ADD32RotRect,2.550000X2.500000X183.620000*%
%ADD33RotRect,2.550000X2.500000X165.610000*%
%ADD34RotRect,2.550000X2.500000X178.880000*%
%ADD35RotRect,2.550000X2.500000X190.660000*%
%ADD36RotRect,2.550000X2.500000X191.080000*%
%ADD37RotRect,2.550000X2.500000X173.450000*%
%ADD38RotRect,2.550000X2.500000X172.000000*%
%ADD39RotRect,2.550000X2.500000X174.570000*%
%ADD40RotRect,2.550000X2.500000X182.050000*%
%ADD41RotRect,2.550000X2.500000X169.340000*%
%ADD42RotRect,2.550000X2.500000X177.950000*%
%ADD43RotRect,2.550000X2.500000X168.870000*%
%ADD44RotRect,2.550000X2.500000X166.000000*%
%ADD45RotRect,2.550000X2.500000X164.890000*%
%ADD46RotRect,2.550000X2.500000X186.550000*%
%ADD47RotRect,2.550000X2.500000X188.000000*%
%ADD48RotRect,2.550000X2.500000X181.980000*%
%ADD49RotRect,2.550000X2.500000X178.020000*%
%ADD50RotRect,2.550000X2.500000X187.570000*%
%ADD51RotRect,2.550000X2.500000X168.920000*%
%ADD52RotRect,2.550000X2.500000X164.880000*%
%ADD53RotRect,2.550000X2.500000X191.130000*%
%ADD54RotRect,2.550000X2.500000X171.490000*%
%ADD55RotRect,2.550000X2.500000X178.940000*%
G04 APERTURE END LIST*
D10*
%TO.C,SW26*%
X14148839Y-98760683D03*
X25966807Y-92938778D03*
%TD*%
D11*
%TO.C,SW33*%
X45099131Y-59619418D03*
X57507931Y-55194420D03*
%TD*%
D12*
%TO.C,SW36*%
X62217872Y-33285313D03*
X75047308Y-30291236D03*
%TD*%
D13*
%TO.C,SW47*%
X124741038Y-67438459D03*
X136631230Y-61765518D03*
%TD*%
D14*
%TO.C,SW38*%
X67241236Y-74300223D03*
X79220982Y-68818927D03*
%TD*%
D15*
%TO.C,SW16*%
X-57297491Y-38368729D03*
X-44235911Y-36649993D03*
%TD*%
D16*
%TO.C,SW5*%
X-114752053Y-24383172D03*
X-101812363Y-21908634D03*
%TD*%
D17*
%TO.C,SW37*%
X63705755Y-53881918D03*
X76181791Y-49650197D03*
%TD*%
D18*
%TO.C,SW9*%
X-95958555Y-39527367D03*
X-82870012Y-38027711D03*
%TD*%
D19*
%TO.C,SW44*%
X104491530Y-65332075D03*
X116709313Y-60404123D03*
%TD*%
D20*
%TO.C,SW30*%
X32538734Y-93794993D03*
X44355685Y-87971025D03*
%TD*%
D21*
%TO.C,SW45*%
X119730706Y-25919972D03*
X132605588Y-23127780D03*
%TD*%
D22*
%TO.C,SW13*%
X-77750625Y-52002942D03*
X-64600969Y-51199523D03*
%TD*%
D23*
%TO.C,SW14*%
X-81021448Y-70999517D03*
X-67858386Y-71540554D03*
%TD*%
D24*
%TO.C,SW19*%
X-37805066Y-30788844D03*
X-24796569Y-28706078D03*
%TD*%
D25*
%TO.C,SW40*%
X81833802Y-40658855D03*
X94516702Y-37094732D03*
%TD*%
D26*
%TO.C,SW42*%
X100582235Y-24454893D03*
X113496213Y-21849496D03*
%TD*%
D27*
%TO.C,SW34*%
X48883973Y-79889465D03*
X60812504Y-74297590D03*
%TD*%
D28*
%TO.C,SW8*%
X-95613776Y-20262503D03*
X-82735977Y-17483796D03*
%TD*%
D29*
%TO.C,SW28*%
X24794434Y-51286849D03*
X37423066Y-47534970D03*
%TD*%
D30*
%TO.C,SW2*%
X-135075639Y-44902778D03*
X-121926689Y-44087884D03*
%TD*%
D31*
%TO.C,SW7*%
X-118409218Y-62664736D03*
X-105235184Y-62603501D03*
%TD*%
D32*
%TO.C,SW32*%
X43155764Y-39263407D03*
X55896598Y-35912278D03*
%TD*%
D33*
%TO.C,SW3*%
X-138466476Y-63916918D03*
X-125313798Y-64669236D03*
%TD*%
D34*
%TO.C,SW1*%
X-133897998Y-25642999D03*
X-120923820Y-23356161D03*
%TD*%
D35*
%TO.C,SW41*%
X84326421Y-61295422D03*
X96560478Y-56408013D03*
%TD*%
D36*
%TO.C,SW29*%
X27514930Y-71772937D03*
X39712833Y-66795980D03*
%TD*%
D37*
%TO.C,SW6*%
X-115630016Y-43647392D03*
X-102497656Y-42598557D03*
%TD*%
D38*
%TO.C,SW4*%
X-161361550Y-56908678D03*
X-148206855Y-56192487D03*
%TD*%
D39*
%TO.C,SW20*%
X-38900847Y-49945948D03*
X-25791497Y-48640622D03*
%TD*%
D40*
%TO.C,SW15*%
X-57288325Y-19091068D03*
X-44460459Y-16090273D03*
%TD*%
D41*
%TO.C,SW10*%
X-98251878Y-58674247D03*
X-85078119Y-58569326D03*
%TD*%
D24*
%TO.C,SW12*%
X-76379066Y-32785844D03*
X-63370569Y-30703078D03*
%TD*%
D42*
%TO.C,SW31*%
X43127394Y-18584184D03*
X56136981Y-16508229D03*
%TD*%
D43*
%TO.C,SW23*%
X-22984433Y-74015115D03*
X-9810256Y-74018261D03*
%TD*%
D44*
%TO.C,SW18*%
X-62633064Y-76461432D03*
X-49475569Y-77124205D03*
%TD*%
D45*
%TO.C,SW24*%
X-27828942Y-95066947D03*
X-14686756Y-95984482D03*
%TD*%
D46*
%TO.C,SW43*%
X101552508Y-45263767D03*
X114105391Y-41265760D03*
%TD*%
D47*
%TO.C,SW48*%
X147329451Y-58880761D03*
X159777147Y-54566389D03*
%TD*%
D48*
%TO.C,SW11*%
X-76549529Y-13576308D03*
X-63718005Y-10591188D03*
%TD*%
D49*
%TO.C,SW35*%
X62387989Y-13086725D03*
X75395029Y-10994878D03*
%TD*%
D50*
%TO.C,SW46*%
X121029135Y-46769496D03*
X133508859Y-42548664D03*
%TD*%
D51*
%TO.C,SW21*%
X-41420799Y-69049755D03*
X-28246625Y-69041404D03*
%TD*%
D12*
%TO.C,SW27*%
X23643872Y-31288313D03*
X36473308Y-28294236D03*
%TD*%
D52*
%TO.C,SW22*%
X-46218191Y-90098869D03*
X-33076166Y-91018697D03*
%TD*%
D53*
%TO.C,SW25*%
X9080946Y-76750431D03*
X21274500Y-71762831D03*
%TD*%
D54*
%TO.C,SW17*%
X-59113120Y-57522513D03*
X-45952571Y-56923442D03*
%TD*%
D55*
%TO.C,SW39*%
X81446201Y-20000366D03*
X94417977Y-17699943D03*
%TD*%
M02*
