%TF.GenerationSoftware,KiCad,Pcbnew,(6.0.1)*%
%TF.CreationDate,2022-02-27T14:39:44+09:00*%
%TF.ProjectId,ergotonic_f24,6572676f-746f-46e6-9963-5f6632342e6b,rev?*%
%TF.SameCoordinates,Original*%
%TF.FileFunction,Soldermask,Top*%
%TF.FilePolarity,Negative*%
%FSLAX46Y46*%
G04 Gerber Fmt 4.6, Leading zero omitted, Abs format (unit mm)*
G04 Created by KiCad (PCBNEW (6.0.1)) date 2022-02-27 14:39:44*
%MOMM*%
%LPD*%
G01*
G04 APERTURE LIST*
G04 Aperture macros list*
%AMRoundRect*
0 Rectangle with rounded corners*
0 $1 Rounding radius*
0 $2 $3 $4 $5 $6 $7 $8 $9 X,Y pos of 4 corners*
0 Add a 4 corners polygon primitive as box body*
4,1,4,$2,$3,$4,$5,$6,$7,$8,$9,$2,$3,0*
0 Add four circle primitives for the rounded corners*
1,1,$1+$1,$2,$3*
1,1,$1+$1,$4,$5*
1,1,$1+$1,$6,$7*
1,1,$1+$1,$8,$9*
0 Add four rect primitives between the rounded corners*
20,1,$1+$1,$2,$3,$4,$5,0*
20,1,$1+$1,$4,$5,$6,$7,0*
20,1,$1+$1,$6,$7,$8,$9,0*
20,1,$1+$1,$8,$9,$2,$3,0*%
%AMRotRect*
0 Rectangle, with rotation*
0 The origin of the aperture is its center*
0 $1 length*
0 $2 width*
0 $3 Rotation angle, in degrees counterclockwise*
0 Add horizontal line*
21,1,$1,$2,0,0,$3*%
G04 Aperture macros list end*
%ADD10RotRect,1.400000X1.000000X166.500000*%
%ADD11C,1.524000*%
%ADD12C,1.900000*%
%ADD13C,4.100000*%
%ADD14C,3.000000*%
%ADD15RotRect,1.400000X1.000000X193.500000*%
%ADD16RotRect,1.700000X1.000000X262.000000*%
%ADD17RotRect,1.700000X1.000000X285.120000*%
%ADD18RotRect,1.700000X1.000000X352.000000*%
%ADD19C,1.200000*%
%ADD20RoundRect,0.150000X0.642490X0.018219X0.564237X0.307833X-0.642490X-0.018219X-0.564237X-0.307833X0*%
%ADD21RoundRect,0.249600X0.719283X-0.168618X0.536485X0.507921X-0.719283X0.168618X-0.536485X-0.507921X0*%
%ADD22C,0.600000*%
%ADD23C,2.000000*%
%ADD24RotRect,3.200000X2.000000X101.130000*%
%ADD25RotRect,1.700000X1.000000X8.000000*%
%ADD26RotRect,1.700000X1.000000X74.880000*%
%ADD27RotRect,1.700000X1.000000X346.500000*%
%ADD28R,1.000000X1.700000*%
%ADD29RotRect,1.700000X1.000000X13.500000*%
%ADD30RotRect,3.200000X2.000000X82.000000*%
%ADD31RoundRect,0.150000X0.564237X-0.307833X0.642490X-0.018219X-0.564237X0.307833X-0.642490X0.018219X0*%
%ADD32RoundRect,0.249600X0.536485X-0.507921X0.719283X0.168618X-0.536485X0.507921X-0.719283X-0.168618X0*%
%ADD33RotRect,3.200000X2.000000X98.000000*%
%ADD34RotRect,3.200000X2.000000X78.870000*%
%ADD35RoundRect,0.150000X-0.564237X0.307833X-0.642490X0.018219X0.564237X-0.307833X0.642490X-0.018219X0*%
%ADD36RoundRect,0.249600X-0.536485X0.507921X-0.719283X-0.168618X0.536485X-0.507921X0.719283X0.168618X0*%
%ADD37RotRect,1.700000X1.000000X98.000000*%
G04 APERTURE END LIST*
D10*
%TO.C,D14*%
X-84178043Y-89662366D03*
X-87629957Y-88833634D03*
%TD*%
D11*
%TO.C,U1*%
X-138265163Y-22605464D03*
X-138618663Y-25120745D03*
X-138972163Y-27636026D03*
X-139325662Y-30151307D03*
X-139679162Y-32666587D03*
X-140032662Y-35181868D03*
X-140386161Y-37697149D03*
X-140739661Y-40212430D03*
X-141093161Y-42727711D03*
X-141446660Y-45242992D03*
X-141800160Y-47758273D03*
X-142153660Y-50273554D03*
X-157225540Y-48155339D03*
X-156872040Y-45640058D03*
X-156518540Y-43124777D03*
X-156165041Y-40609496D03*
X-155811541Y-38094215D03*
X-155458041Y-35578935D03*
X-155104542Y-33063654D03*
X-154751042Y-30548373D03*
X-154397542Y-28033092D03*
X-154044043Y-25517811D03*
X-153690543Y-23002530D03*
X-153337043Y-20487249D03*
%TD*%
D12*
%TO.C,SW26*%
X16746630Y-100690219D03*
D13*
X21651000Y-99366000D03*
D12*
X26555370Y-98041781D03*
D14*
X17310613Y-97906979D03*
X22778966Y-93799521D03*
%TD*%
D11*
%TO.C,U2*%
X153428940Y-20474334D03*
X153782440Y-22989615D03*
X154135940Y-25504896D03*
X154489439Y-28020177D03*
X154842939Y-30535458D03*
X155196439Y-33050738D03*
X155549938Y-35566019D03*
X155903438Y-38081300D03*
X156256938Y-40596581D03*
X156610437Y-43111862D03*
X156963937Y-45627143D03*
X157317437Y-48142424D03*
X142245557Y-50260638D03*
X141892057Y-47745358D03*
X141538557Y-45230077D03*
X141185058Y-42714796D03*
X140831558Y-40199515D03*
X140478058Y-37684234D03*
X140124559Y-35168953D03*
X139771059Y-32653672D03*
X139417559Y-30138391D03*
X139064060Y-27623110D03*
X138710560Y-25107829D03*
X138357060Y-22592549D03*
%TD*%
D15*
%TO.C,D28*%
X72027957Y-87419634D03*
X68576043Y-88248366D03*
%TD*%
%TO.C,D34*%
X80373957Y-90558634D03*
X76922043Y-91387366D03*
%TD*%
D16*
%TO.C,LED_7*%
X-163511538Y-51225658D03*
X-164897914Y-51030816D03*
X-164132462Y-45584342D03*
X-162746086Y-45779184D03*
%TD*%
D15*
%TO.C,D42*%
X100157957Y-78095634D03*
X96706043Y-78924366D03*
%TD*%
D12*
%TO.C,SW33*%
X57506069Y-60331251D03*
X47457931Y-61834749D03*
D14*
X54242286Y-55683056D03*
D13*
X52482000Y-61083000D03*
D14*
X48338074Y-59134777D03*
%TD*%
D17*
%TO.C,LED_11*%
X12582081Y-92915210D03*
X11230547Y-93280389D03*
X9795919Y-87970790D03*
X11147453Y-87605611D03*
%TD*%
D14*
%TO.C,SW36*%
X65490837Y-33169875D03*
D12*
X74464843Y-35394938D03*
D14*
X71747360Y-30407626D03*
D13*
X69388000Y-35574000D03*
D12*
X64311157Y-35753062D03*
%TD*%
D18*
%TO.C,LED_8*%
X124286658Y-13879538D03*
X124091816Y-15265914D03*
X118645342Y-14500462D03*
X118840184Y-13114086D03*
%TD*%
D14*
%TO.C,SW47*%
X127913290Y-66624553D03*
D13*
X132235000Y-68138000D03*
D12*
X127314377Y-69400486D03*
D14*
X133432826Y-62586134D03*
D12*
X137155623Y-66875514D03*
%TD*%
D10*
%TO.C,D24*%
X-63189043Y-94713366D03*
X-66640957Y-93884634D03*
%TD*%
D19*
%TO.C,J1*%
X-159545971Y-26881279D03*
X-158571760Y-19949402D03*
%TD*%
D10*
%TO.C,D5*%
X-96783043Y-78922366D03*
X-100234957Y-78093634D03*
%TD*%
%TO.C,D4*%
X-110933043Y-83190366D03*
X-114384957Y-82361634D03*
%TD*%
D13*
%TO.C,SW38*%
X74723000Y-75120000D03*
D14*
X76009814Y-69588083D03*
D12*
X79663259Y-73936684D03*
X69782741Y-76303316D03*
D14*
X70426147Y-73537357D03*
%TD*%
D20*
%TO.C,J6*%
X30033234Y-88013839D03*
X29772393Y-87048457D03*
X29511551Y-86083076D03*
X29250710Y-85117694D03*
X28989868Y-84152313D03*
X28729027Y-83186931D03*
D21*
X27934740Y-89927460D03*
X25952344Y-82590560D03*
%TD*%
D12*
%TO.C,SW16*%
X-45317136Y-41671746D03*
D13*
X-50387000Y-41351000D03*
D14*
X-54029025Y-38575509D03*
X-47531322Y-36441509D03*
D12*
X-55456864Y-41030254D03*
%TD*%
D13*
%TO.C,SW5*%
X-107680000Y-26959000D03*
D12*
X-102600065Y-26984712D03*
X-112759935Y-26933288D03*
D14*
X-111477095Y-24399748D03*
X-105114320Y-21891921D03*
%TD*%
D15*
%TO.C,D47*%
X108560957Y-81219634D03*
X105109043Y-82048366D03*
%TD*%
D13*
%TO.C,SW37*%
X71065000Y-55460000D03*
D12*
X76100140Y-54786380D03*
D14*
X66951835Y-53447645D03*
X72908950Y-50088050D03*
D12*
X66029860Y-56133620D03*
%TD*%
D14*
%TO.C,SW9*%
X-92694012Y-39788878D03*
D12*
X-84035221Y-43030643D03*
X-94162779Y-42219357D03*
D14*
X-86161468Y-37764043D03*
D13*
X-89099000Y-42625000D03*
%TD*%
D14*
%TO.C,SW44*%
X113466342Y-61025687D03*
D13*
X111928000Y-66492999D03*
D14*
X107707984Y-64715594D03*
D12*
X116917187Y-65536748D03*
X106938813Y-67449250D03*
%TD*%
D15*
%TO.C,D33*%
X79789957Y-88127634D03*
X76338043Y-88956366D03*
%TD*%
D22*
%TO.C,mousebite3*%
X-1700000Y-65517000D03*
X-1700000Y-61917000D03*
X-1700000Y-58317000D03*
X-1700000Y-60117000D03*
X-1700000Y-62817000D03*
X-1700000Y-64617000D03*
X-1700000Y-59217000D03*
X-1700000Y-68217000D03*
X-1700000Y-67317000D03*
X-1700000Y-66417000D03*
X-1700000Y-61017000D03*
X-1700000Y-63717000D03*
%TD*%
D15*
%TO.C,D27*%
X71444957Y-84988634D03*
X67993043Y-85817366D03*
%TD*%
D23*
%TO.C,RE3*%
X15517789Y-85716527D03*
X20423747Y-84751349D03*
X17970768Y-85233938D03*
D24*
X22017674Y-76794000D03*
X11028326Y-78956000D03*
D23*
X17624729Y-70524069D03*
X12718770Y-71489247D03*
%TD*%
D15*
%TO.C,D26*%
X66563956Y-93885634D03*
X63112042Y-94714366D03*
%TD*%
D10*
%TO.C,D10*%
X-90772043Y-85508366D03*
X-94223957Y-84679634D03*
%TD*%
D13*
%TO.C,SW30*%
X40041000Y-94399000D03*
D12*
X44945139Y-93073925D03*
D14*
X35700359Y-92940737D03*
X41167995Y-88832324D03*
D12*
X35136861Y-95724075D03*
%TD*%
D10*
%TO.C,D23*%
X-62606042Y-92282366D03*
X-66057956Y-91453634D03*
%TD*%
%TO.C,D18*%
X-77000043Y-91385366D03*
X-80451957Y-90556634D03*
%TD*%
%TO.C,D13*%
X-83594043Y-87231366D03*
X-87045957Y-86402634D03*
%TD*%
D25*
%TO.C,LED_1*%
X-53747184Y-5032086D03*
X-53552342Y-6418462D03*
X-58998816Y-7183914D03*
X-59193658Y-5797538D03*
%TD*%
D15*
%TO.C,D39*%
X92978957Y-79818634D03*
X89527043Y-80647366D03*
%TD*%
D10*
%TO.C,D1*%
X-104018043Y-77186366D03*
X-107469957Y-76357634D03*
%TD*%
D15*
%TO.C,D43*%
X100740957Y-80526634D03*
X97289043Y-81355366D03*
%TD*%
%TO.C,D32*%
X79206957Y-85696634D03*
X75755043Y-86525366D03*
%TD*%
D26*
%TO.C,LED_3*%
X-11147453Y-87501611D03*
X-9795919Y-87866790D03*
X-11230547Y-93176389D03*
X-12582081Y-92811210D03*
%TD*%
D13*
%TO.C,SW45*%
X126864000Y-28321000D03*
D14*
X129304219Y-23192323D03*
X123005080Y-25855957D03*
D12*
X121784971Y-28420296D03*
X131943029Y-28221704D03*
%TD*%
D22*
%TO.C,mousebite1*%
X-1700000Y-39682000D03*
X-1700000Y-37882000D03*
X-1700000Y-38782000D03*
X-1700000Y-36082000D03*
X-1700000Y-33382000D03*
X-1700000Y-36982000D03*
X-1700000Y-32482000D03*
X-1700000Y-35182000D03*
X-1700000Y-34282000D03*
X-1700000Y-29782000D03*
X-1700000Y-31582000D03*
X-1700000Y-30682000D03*
%TD*%
D14*
%TO.C,SW13*%
X-74504545Y-52437215D03*
D12*
X-66029860Y-56133620D03*
D13*
X-71065000Y-55460000D03*
D14*
X-67873810Y-50761670D03*
D12*
X-76100140Y-54786380D03*
%TD*%
%TO.C,SW14*%
X-69782741Y-76303316D03*
D14*
X-71069554Y-70771398D03*
D12*
X-79663259Y-73936684D03*
D13*
X-74723000Y-75120000D03*
D14*
X-77836537Y-71762383D03*
%TD*%
D18*
%TO.C,LED_9*%
X59193658Y-5919538D03*
X58998816Y-7305914D03*
X53552342Y-6540462D03*
X53747184Y-5154086D03*
%TD*%
D15*
%TO.C,D37*%
X86967957Y-86403634D03*
X83516043Y-87232366D03*
%TD*%
D27*
%TO.C,LED_5*%
X-100542571Y-85536316D03*
X-100869394Y-86897634D03*
X-106217429Y-85613684D03*
X-105890606Y-84252366D03*
%TD*%
D15*
%TO.C,D36*%
X86384957Y-83972634D03*
X82933043Y-84801366D03*
%TD*%
D14*
%TO.C,SW19*%
X-28096517Y-28589688D03*
D12*
X-25737157Y-33756062D03*
X-35890843Y-33397938D03*
D14*
X-34532102Y-30904282D03*
D13*
X-30814000Y-33577000D03*
%TD*%
D10*
%TO.C,D20*%
X-68654043Y-88247366D03*
X-72105957Y-87418634D03*
%TD*%
D12*
%TO.C,SW40*%
X94162779Y-42219357D03*
D14*
X85098345Y-40397343D03*
D12*
X84035221Y-43030643D03*
D13*
X89099000Y-42625000D03*
D14*
X91225246Y-37358400D03*
%TD*%
D10*
%TO.C,D8*%
X-89605043Y-80646366D03*
X-93056957Y-79817634D03*
%TD*%
D19*
%TO.C,J4*%
X158571760Y-19949402D03*
X159545971Y-26881279D03*
%TD*%
D14*
%TO.C,SW42*%
X103857193Y-24438317D03*
D12*
X102600065Y-26984712D03*
X112759935Y-26933288D03*
D13*
X107680000Y-26959000D03*
D14*
X110194255Y-21866209D03*
%TD*%
D10*
%TO.C,D17*%
X-76416043Y-88954366D03*
X-79867957Y-88125634D03*
%TD*%
D15*
%TO.C,D45*%
X107393957Y-76357634D03*
X103942043Y-77186366D03*
%TD*%
D13*
%TO.C,SW34*%
X56373000Y-80640000D03*
D14*
X52061692Y-79097171D03*
D12*
X61302102Y-79411037D03*
X51443898Y-81868963D03*
D14*
X57608588Y-75096416D03*
%TD*%
D28*
%TO.C,LED_2*%
X-7022000Y-36647000D03*
X-5622000Y-36647000D03*
X-5622000Y-42147000D03*
X-7022000Y-42147000D03*
%TD*%
D29*
%TO.C,LED_14*%
X156275606Y-72302366D03*
X156602429Y-73663684D03*
X151254394Y-74947634D03*
X150927571Y-73586316D03*
%TD*%
D13*
%TO.C,SW8*%
X-88483000Y-22671000D03*
D14*
X-92339337Y-20201918D03*
X-86037412Y-17544881D03*
D12*
X-83403869Y-22577023D03*
X-93562131Y-22764977D03*
%TD*%
D15*
%TO.C,D44*%
X101324957Y-82957634D03*
X97873043Y-83786366D03*
%TD*%
D13*
%TO.C,SW28*%
X32088000Y-53145000D03*
D14*
X34135884Y-47847437D03*
D12*
X37145204Y-52664282D03*
D14*
X28054738Y-50976937D03*
D12*
X27030796Y-53625718D03*
%TD*%
D10*
%TO.C,D2*%
X-104602043Y-79617366D03*
X-108053957Y-78788634D03*
%TD*%
D15*
%TO.C,D40*%
X93562957Y-82249634D03*
X90111043Y-83078366D03*
%TD*%
D10*
%TO.C,D22*%
X-69821043Y-93109366D03*
X-73272957Y-92280634D03*
%TD*%
D14*
%TO.C,SW2*%
X-125199911Y-43652887D03*
D12*
X-133422726Y-47684774D03*
D13*
X-128387000Y-48354000D03*
D14*
X-131829182Y-45334218D03*
D12*
X-123351274Y-49023226D03*
%TD*%
D15*
%TO.C,D35*%
X85800957Y-81541634D03*
X82349043Y-82370366D03*
%TD*%
D10*
%TO.C,D16*%
X-75832043Y-86523366D03*
X-79283957Y-85694634D03*
%TD*%
D13*
%TO.C,SW7*%
X-111929000Y-66492999D03*
D12*
X-106939813Y-67449250D03*
X-116918187Y-65536748D03*
D14*
X-108478155Y-61981938D03*
X-115192764Y-63281217D03*
%TD*%
D12*
%TO.C,SW32*%
X45317136Y-41671746D03*
D14*
X46424229Y-39056627D03*
X52601186Y-36120763D03*
D13*
X50387000Y-41351000D03*
D12*
X55456864Y-41030254D03*
%TD*%
D14*
%TO.C,SW3*%
X-135294224Y-64730824D03*
D12*
X-137155623Y-66875514D03*
X-127314377Y-69400486D03*
D13*
X-132235000Y-68138000D03*
D14*
X-128512203Y-63848620D03*
%TD*%
D10*
%TO.C,D21*%
X-69238043Y-90678366D03*
X-72689957Y-89849634D03*
%TD*%
D23*
%TO.C,RE1*%
X-158218468Y-67489078D03*
X-153267128Y-68184943D03*
X-155742798Y-67837011D03*
D30*
X-149153499Y-61189369D03*
X-160244501Y-59630631D03*
D23*
X-151249118Y-53826056D03*
X-156200458Y-53130191D03*
%TD*%
D10*
%TO.C,D3*%
X-105185043Y-82048366D03*
X-108636957Y-81219634D03*
%TD*%
%TO.C,D9*%
X-90189043Y-83077366D03*
X-93640957Y-82248634D03*
%TD*%
D12*
%TO.C,SW1*%
X-131943029Y-28221704D03*
D14*
X-124225189Y-23291618D03*
X-130623624Y-25707013D03*
D12*
X-121784971Y-28420296D03*
D13*
X-126864000Y-28321000D03*
%TD*%
D10*
%TO.C,D11*%
X-82547043Y-82244366D03*
X-85998957Y-81415634D03*
%TD*%
D12*
%TO.C,SW41*%
X86766670Y-63420701D03*
D14*
X87544902Y-60689611D03*
D13*
X91759000Y-62481000D03*
D14*
X93315464Y-57018819D03*
D12*
X96751330Y-61541299D03*
%TD*%
D15*
%TO.C,D48*%
X114261957Y-82470634D03*
X110810043Y-83299366D03*
%TD*%
D10*
%TO.C,D12*%
X-83011043Y-84800366D03*
X-86462957Y-83971634D03*
%TD*%
D12*
%TO.C,SW29*%
X39941308Y-71927729D03*
D14*
X30728883Y-71143550D03*
X36472382Y-67430556D03*
D12*
X29970692Y-73880271D03*
D13*
X34956000Y-72904000D03*
%TD*%
D28*
%TO.C,LED_10*%
X7022000Y-42147000D03*
X5622000Y-42147000D03*
X5622000Y-36647000D03*
X7022000Y-36647000D03*
%TD*%
D10*
%TO.C,D19*%
X-68071043Y-85816366D03*
X-71522957Y-84987634D03*
%TD*%
D13*
%TO.C,SW6*%
X-108881000Y-46979000D03*
D14*
X-112376393Y-44020972D03*
D12*
X-103834159Y-47558477D03*
X-113927841Y-46399523D03*
D14*
X-105778103Y-42221897D03*
%TD*%
D12*
%TO.C,SW4*%
X-159729562Y-59703001D03*
D14*
X-158118422Y-57364470D03*
X-151476720Y-55732938D03*
D13*
X-154699000Y-60410000D03*
D12*
X-149668438Y-61116999D03*
%TD*%
D31*
%TO.C,J3*%
X-27474973Y-88582069D03*
X-27214132Y-87616687D03*
X-26953290Y-86651306D03*
X-26692449Y-85685924D03*
X-26431607Y-84720543D03*
X-26170766Y-83755161D03*
D32*
X-28269260Y-81841540D03*
X-30251656Y-89178440D03*
%TD*%
D15*
%TO.C,D31*%
X78622957Y-83265634D03*
X75171043Y-84094366D03*
%TD*%
D12*
%TO.C,SW20*%
X-27030796Y-53625718D03*
D13*
X-32088000Y-53145000D03*
D12*
X-37145204Y-52664282D03*
D14*
X-35640544Y-50255859D03*
X-29078680Y-48328155D03*
%TD*%
%TO.C,SW15*%
X-47760345Y-16208391D03*
D12*
X-55193749Y-21557720D03*
D14*
X-54015421Y-18973915D03*
D13*
X-50117000Y-21376000D03*
D12*
X-45040251Y-21194280D03*
%TD*%
D14*
%TO.C,SW10*%
X-95033397Y-59280059D03*
D12*
X-96751330Y-61541299D03*
X-86766670Y-63420701D03*
D14*
X-88323134Y-57958520D03*
D13*
X-91759000Y-62481000D03*
%TD*%
D10*
%TO.C,D15*%
X-75249043Y-84092366D03*
X-78700957Y-83263634D03*
%TD*%
D14*
%TO.C,SW12*%
X-66670517Y-30586688D03*
X-73106102Y-32901282D03*
D13*
X-69388000Y-35574000D03*
D12*
X-74464843Y-35394938D03*
X-64311157Y-35753062D03*
%TD*%
D10*
%TO.C,D6*%
X-97367043Y-81353366D03*
X-100818957Y-80524634D03*
%TD*%
D13*
%TO.C,SW31*%
X50117000Y-21376000D03*
D12*
X55193749Y-21557720D03*
X45040251Y-21194280D03*
D14*
X46400298Y-18701336D03*
X52837094Y-16390111D03*
%TD*%
%TO.C,SW23*%
X-13050151Y-73380857D03*
D12*
X-21507454Y-76894378D03*
D14*
X-19771030Y-74647307D03*
D13*
X-16523000Y-77875000D03*
D12*
X-11538546Y-78855622D03*
%TD*%
D15*
%TO.C,D38*%
X87551957Y-88834634D03*
X84100043Y-89663366D03*
%TD*%
D13*
%TO.C,SW18*%
X-56373000Y-80640000D03*
D14*
X-59455345Y-77253726D03*
X-52679486Y-76325379D03*
D12*
X-61302102Y-79411037D03*
X-51443898Y-81868963D03*
%TD*%
D13*
%TO.C,SW24*%
X-21651000Y-99366000D03*
D12*
X-16746630Y-100690219D03*
X-26555370Y-98041781D03*
D14*
X-17874596Y-95123740D03*
X-24667168Y-95920651D03*
%TD*%
D29*
%TO.C,LED_13*%
X106105606Y-84252366D03*
X106432429Y-85613684D03*
X101084394Y-86897634D03*
X100757571Y-85536316D03*
%TD*%
D13*
%TO.C,SW43*%
X108881000Y-46979000D03*
D12*
X113927841Y-46399523D03*
D14*
X104806131Y-44890187D03*
D12*
X103834159Y-47558477D03*
D14*
X110824944Y-41642420D03*
%TD*%
D22*
%TO.C,mousebite4*%
X1700000Y-59217000D03*
X1700000Y-61017000D03*
X1700000Y-60117000D03*
X1700000Y-63717000D03*
X1700000Y-65517000D03*
X1700000Y-58317000D03*
X1700000Y-62817000D03*
X1700000Y-64617000D03*
X1700000Y-61917000D03*
X1700000Y-66417000D03*
X1700000Y-67317000D03*
X1700000Y-68217000D03*
%TD*%
D12*
%TO.C,SW48*%
X159729562Y-59703001D03*
D14*
X156507282Y-55025939D03*
D13*
X154699000Y-60410000D03*
D14*
X150572579Y-58424969D03*
D12*
X149668438Y-61116999D03*
%TD*%
D27*
%TO.C,LED_6*%
X-150656571Y-73586316D03*
X-150983394Y-74947634D03*
X-156331429Y-73663684D03*
X-156004606Y-72302366D03*
%TD*%
D13*
%TO.C,SW11*%
X-69381000Y-15870000D03*
D12*
X-74457967Y-16045517D03*
D14*
X-67018034Y-10705274D03*
D12*
X-64304033Y-15694483D03*
D14*
X-73276484Y-13463154D03*
%TD*%
D27*
%TO.C,LED_4*%
X-52237571Y-97138316D03*
X-52564394Y-98499634D03*
X-57912429Y-97215684D03*
X-57585606Y-95854366D03*
%TD*%
D14*
%TO.C,SW35*%
X72095001Y-10880792D03*
D12*
X74457967Y-16045517D03*
X64304033Y-15694483D03*
D13*
X69381000Y-15870000D03*
D14*
X65661033Y-13199879D03*
%TD*%
D12*
%TO.C,SW46*%
X133422726Y-47684774D03*
D14*
X130235637Y-42983661D03*
X124275593Y-46338056D03*
D13*
X128387000Y-48354000D03*
D12*
X123351274Y-49023226D03*
%TD*%
D23*
%TO.C,RE4*%
X153267128Y-68184943D03*
X158218468Y-67489078D03*
X155742798Y-67837011D03*
D33*
X160244501Y-59630631D03*
X149153499Y-61189369D03*
D23*
X156200458Y-53130191D03*
X151249118Y-53826056D03*
%TD*%
D22*
%TO.C,mousebite2*%
X1700000Y-36982000D03*
X1700000Y-31582000D03*
X1700000Y-29782000D03*
X1700000Y-39682000D03*
X1700000Y-37882000D03*
X1700000Y-36082000D03*
X1700000Y-34282000D03*
X1700000Y-38782000D03*
X1700000Y-33382000D03*
X1700000Y-35182000D03*
X1700000Y-32482000D03*
X1700000Y-30682000D03*
%TD*%
D10*
%TO.C,D7*%
X-97951043Y-83784366D03*
X-101402957Y-82955634D03*
%TD*%
D25*
%TO.C,LED_0*%
X-118840184Y-12994086D03*
X-118645342Y-14380462D03*
X-124091816Y-15145914D03*
X-124286658Y-13759538D03*
%TD*%
D14*
%TO.C,SW21*%
X-38206845Y-69679143D03*
X-31487075Y-68406828D03*
D12*
X-29970692Y-73880271D03*
X-39941308Y-71927729D03*
D13*
X-34956000Y-72904000D03*
%TD*%
D15*
%TO.C,D25*%
X65979957Y-91454634D03*
X62528043Y-92283366D03*
%TD*%
D23*
%TO.C,RE2*%
X-20423747Y-84751349D03*
X-15517789Y-85716527D03*
X-17970768Y-85233938D03*
D34*
X-22017674Y-76794000D03*
X-11028326Y-78956000D03*
D23*
X-12718770Y-71489247D03*
X-17624729Y-70524069D03*
%TD*%
D12*
%TO.C,SW27*%
X35890843Y-33397938D03*
D13*
X30814000Y-33577000D03*
D12*
X25737157Y-33756062D03*
D14*
X26916837Y-31172875D03*
X33173360Y-28410626D03*
%TD*%
D12*
%TO.C,SW22*%
X-44945139Y-93073925D03*
X-35136861Y-95724075D03*
D14*
X-43056567Y-90953124D03*
D13*
X-40041000Y-94399000D03*
D14*
X-36263856Y-90157399D03*
%TD*%
D15*
%TO.C,D46*%
X107976957Y-78788634D03*
X104525043Y-79617366D03*
%TD*%
D14*
%TO.C,SW25*%
X18034605Y-72400235D03*
X12294349Y-76118239D03*
D12*
X21507454Y-76894378D03*
X11538546Y-78855622D03*
D13*
X16523000Y-77875000D03*
%TD*%
D35*
%TO.C,J2*%
X-6382868Y-71409313D03*
X-6643710Y-72374694D03*
X-6904551Y-73340076D03*
X-7165393Y-74305457D03*
D36*
X-5066898Y-76219078D03*
X-3606186Y-70812941D03*
%TD*%
D37*
%TO.C,LED_15*%
X162746086Y-45779184D03*
X164132462Y-45584342D03*
X164897914Y-51030816D03*
X163511538Y-51225658D03*
%TD*%
D14*
%TO.C,SW17*%
X-55874178Y-58007154D03*
D13*
X-52482000Y-61083000D03*
D14*
X-49218217Y-56434805D03*
D12*
X-47457931Y-61834749D03*
X-57506069Y-60331251D03*
%TD*%
D15*
%TO.C,D41*%
X94146957Y-84680634D03*
X90695043Y-85509366D03*
%TD*%
D20*
%TO.C,J5*%
X7256393Y-74403457D03*
X6995551Y-73438076D03*
X6734710Y-72472694D03*
X6473868Y-71507313D03*
D21*
X3697186Y-70910941D03*
X5157898Y-76317078D03*
%TD*%
D14*
%TO.C,SW39*%
X91116542Y-17638858D03*
D12*
X83403869Y-22577023D03*
D14*
X84720641Y-20060952D03*
D12*
X93562131Y-22764977D03*
D13*
X88483000Y-22671000D03*
%TD*%
D29*
%TO.C,LED_12*%
X57754606Y-95854366D03*
X58081429Y-97215684D03*
X52733394Y-98499634D03*
X52406571Y-97138316D03*
%TD*%
D15*
%TO.C,D30*%
X73195957Y-92281634D03*
X69744043Y-93110366D03*
%TD*%
%TO.C,D29*%
X72611957Y-89850634D03*
X69160043Y-90679366D03*
%TD*%
M02*
