%TF.GenerationSoftware,KiCad,Pcbnew,(6.0.5)*%
%TF.CreationDate,2022-07-11T15:02:58+09:00*%
%TF.ProjectId,ergotonic_f24_bottom,6572676f-746f-46e6-9963-5f6632345f62,rev?*%
%TF.SameCoordinates,Original*%
%TF.FileFunction,Profile,NP*%
%FSLAX46Y46*%
G04 Gerber Fmt 4.6, Leading zero omitted, Abs format (unit mm)*
G04 Created by KiCad (PCBNEW (6.0.5)) date 2022-07-11 15:02:58*
%MOMM*%
%LPD*%
G01*
G04 APERTURE LIST*
%ADD10C,0.090000*%
%TA.AperFunction,Profile*%
%ADD11C,0.090000*%
%TD*%
G04 APERTURE END LIST*
D10*
X-55285321Y-1369124D02*
X-158422544Y-15488223D01*
D11*
X-32420324Y-104992094D02*
G75*
G03*
X-32420324Y-104992094I-1000000J0D01*
G01*
D10*
X-2035772Y-70375183D02*
X-2015445Y-70285224D01*
X-2003502Y-70193864D01*
X-1999986Y-70110083D01*
X-16276935Y-4182927D02*
X-46474144Y-4182927D01*
X-13956405Y-112478966D02*
X-13864276Y-112426731D01*
X-13778879Y-112365593D01*
X-13700764Y-112296221D01*
X-13630482Y-112219286D01*
X-13568583Y-112135457D01*
X-13515618Y-112045404D01*
X-13472138Y-111949798D01*
X-13438693Y-111849310D01*
X-54829276Y-1412597D02*
X-54926723Y-1385049D01*
X-55026126Y-1367540D01*
X-55126714Y-1360143D01*
X-55227716Y-1362930D01*
X-55285321Y-1369124D01*
X-158422544Y-15488223D02*
X-158629381Y-15520925D01*
X-158833264Y-15561898D01*
X-159034015Y-15610963D01*
X-159231458Y-15667945D01*
X-159425414Y-15732666D01*
X-159615708Y-15804949D01*
X-159802161Y-15884617D01*
X-159984598Y-15971493D01*
X-160162840Y-16065401D01*
X-160336711Y-16166163D01*
X-160506033Y-16273604D01*
X-160670630Y-16387544D01*
X-160830325Y-16507809D01*
X-160984940Y-16634220D01*
X-161134299Y-16766602D01*
X-161278223Y-16904776D01*
X-161416537Y-17048567D01*
X-161549063Y-17197797D01*
X-161675624Y-17352289D01*
X-161796043Y-17511867D01*
X-161910143Y-17676353D01*
X-162017747Y-17845571D01*
X-162118678Y-18019343D01*
X-162212758Y-18197493D01*
X-162299811Y-18379844D01*
X-162379660Y-18566219D01*
X-162452127Y-18756441D01*
X-162517035Y-18950333D01*
X-162574207Y-19147719D01*
X-162623467Y-19348420D01*
X-162664637Y-19552261D01*
X-162697541Y-19759065D01*
X-1999986Y-29164930D02*
X-1999986Y-28455412D01*
D11*
X-14684000Y-10941762D02*
G75*
G03*
X-14684000Y-10941762I-1000000J0D01*
G01*
D10*
X-163072626Y-75283303D02*
X-55094204Y-101206592D01*
X-16580965Y-113505410D02*
X-16491528Y-113525342D01*
X-16401214Y-113536958D01*
X-16310585Y-113540312D01*
X-16220204Y-113535460D01*
X-16130632Y-113522458D01*
X-16042431Y-113501361D01*
X-15956165Y-113472226D01*
X-15872395Y-113435109D01*
X-2131394Y-27959878D02*
X-15408340Y-4687397D01*
X-55094204Y-101206592D02*
X-54987859Y-101238453D01*
X-54886367Y-101281584D01*
X-54790568Y-101335423D01*
X-54701301Y-101399406D01*
X-54619408Y-101472974D01*
X-54545728Y-101555563D01*
X-54518744Y-101591000D01*
X-46794538Y-4130196D02*
X-54829276Y-1412597D01*
D11*
X-128582294Y-17371000D02*
G75*
G03*
X-128582294Y-17371000I-1100000J0D01*
G01*
D10*
X-13438693Y-111849310D02*
X-2035772Y-70375183D01*
X-15872395Y-113435109D02*
X-13956405Y-112478966D01*
X-52718143Y-103693003D02*
X-16580965Y-113505410D01*
X-46474144Y-4182927D02*
X-46565806Y-4178716D01*
X-46656554Y-4166147D01*
X-46745809Y-4145310D01*
X-46794538Y-4130196D01*
X-1999986Y-28455412D02*
X-2004734Y-28358085D01*
X-2018860Y-28262056D01*
X-2042187Y-28167990D01*
X-2074535Y-28076553D01*
X-2115728Y-27988411D01*
X-2131394Y-27959878D01*
D11*
X-137230516Y-77292745D02*
G75*
G03*
X-137230516Y-77292745I-1100000J0D01*
G01*
D10*
X-15408340Y-4687397D02*
X-15462336Y-4602874D01*
X-15523808Y-4525009D01*
X-15592133Y-4454164D01*
X-15666687Y-4390700D01*
X-15746848Y-4334978D01*
X-15831993Y-4287360D01*
X-15921499Y-4248209D01*
X-16014744Y-4217885D01*
X-16111103Y-4196749D01*
X-16209956Y-4185165D01*
X-16276935Y-4182927D01*
X-162697541Y-19759065D02*
X-169130094Y-66411622D01*
X-54518744Y-101591000D02*
X-53265009Y-103315894D01*
D11*
X-4586736Y-57018427D02*
G75*
G03*
X-4586736Y-57018427I-1000000J0D01*
G01*
D10*
X-53265009Y-103315894D02*
X-53198005Y-103398468D01*
X-53123099Y-103473023D01*
X-53041021Y-103539052D01*
X-52952501Y-103596053D01*
X-52858270Y-103643522D01*
X-52759058Y-103680953D01*
X-52718143Y-103693003D01*
X-169130094Y-66411622D02*
X-169173499Y-66792850D01*
X-169198593Y-67172200D01*
X-169205706Y-67549190D01*
X-169195166Y-67923335D01*
X-169167304Y-68294154D01*
X-169122450Y-68661162D01*
X-169060933Y-69023877D01*
X-168983084Y-69381815D01*
X-168889232Y-69734494D01*
X-168779708Y-70081431D01*
X-168654841Y-70422141D01*
X-168514960Y-70756143D01*
X-168360397Y-71082953D01*
X-168191480Y-71402087D01*
X-168008540Y-71713063D01*
X-167811906Y-72015398D01*
X-167601909Y-72308608D01*
X-167378878Y-72592211D01*
X-167143143Y-72865723D01*
X-166895034Y-73128661D01*
X-166634881Y-73380542D01*
X-166363013Y-73620883D01*
X-166079761Y-73849201D01*
X-165785455Y-74065013D01*
X-165480424Y-74267835D01*
X-165164998Y-74457184D01*
X-164839507Y-74632578D01*
X-164504282Y-74793533D01*
X-164159651Y-74939566D01*
X-163805944Y-75070194D01*
X-163443493Y-75184934D01*
X-163072626Y-75283303D01*
X-1999986Y-70110083D02*
X-1999986Y-29164930D01*
M02*
