%TF.GenerationSoftware,KiCad,Pcbnew,(6.0.5)*%
%TF.CreationDate,2022-08-06T09:39:30+09:00*%
%TF.ProjectId,ergotonic_f24_parts,6572676f-746f-46e6-9963-5f6632345f70,rev?*%
%TF.SameCoordinates,Original*%
%TF.FileFunction,Soldermask,Bot*%
%TF.FilePolarity,Negative*%
%FSLAX46Y46*%
G04 Gerber Fmt 4.6, Leading zero omitted, Abs format (unit mm)*
G04 Created by KiCad (PCBNEW (6.0.5)) date 2022-08-06 09:39:30*
%MOMM*%
%LPD*%
G01*
G04 APERTURE LIST*
%ADD10C,0.600000*%
G04 APERTURE END LIST*
D10*
%TO.C,mb8*%
X-72250000Y-123050000D03*
X-65050000Y-123050000D03*
X-73150000Y-123050000D03*
X-67750000Y-123050000D03*
X-69550000Y-123050000D03*
X-71350000Y-123050000D03*
X-74050000Y-123050000D03*
X-70450000Y-123050000D03*
X-65950000Y-123050000D03*
X-68650000Y-123050000D03*
X-66850000Y-123050000D03*
X-74950000Y-123050000D03*
%TD*%
%TO.C,mb29*%
X-49800000Y-6750000D03*
X-53400000Y-6750000D03*
X-51600000Y-6750000D03*
X-55200000Y-6750000D03*
X-48000000Y-6750000D03*
X-57900000Y-6750000D03*
X-52500000Y-6750000D03*
X-56100000Y-6750000D03*
X-54300000Y-6750000D03*
X-50700000Y-6750000D03*
X-57000000Y-6750000D03*
X-48900000Y-6750000D03*
%TD*%
%TO.C,mb15*%
X-74900000Y-94500000D03*
X-68600000Y-94500000D03*
X-67700000Y-94500000D03*
X-66800000Y-94500000D03*
X-65900000Y-94500000D03*
X-65000000Y-94500000D03*
X-72200000Y-94500000D03*
X-73100000Y-94500000D03*
X-74000000Y-94500000D03*
X-69500000Y-94500000D03*
X-71300000Y-94500000D03*
X-70400000Y-94500000D03*
%TD*%
%TO.C,mb1*%
X-129350000Y-124650000D03*
X-128450000Y-124650000D03*
X-132950000Y-124650000D03*
X-134750000Y-124650000D03*
X-132050000Y-124650000D03*
X-130250000Y-124650000D03*
X-131150000Y-124650000D03*
X-136550000Y-124650000D03*
X-133850000Y-124650000D03*
X-137450000Y-124650000D03*
X-138350000Y-124650000D03*
X-135650000Y-124650000D03*
%TD*%
%TO.C,mb27*%
X-57775000Y1375000D03*
X-62275000Y1375000D03*
X-58675000Y1375000D03*
X-67675000Y1375000D03*
X-65875000Y1375000D03*
X-64975000Y1375000D03*
X-66775000Y1375000D03*
X-59575000Y1375000D03*
X-60475000Y1375000D03*
X-63175000Y1375000D03*
X-61375000Y1375000D03*
X-64075000Y1375000D03*
%TD*%
%TO.C,mb12*%
X-51250000Y-67600000D03*
X-47650000Y-67600000D03*
X-48550000Y-67600000D03*
X-43150000Y-67600000D03*
X-44950000Y-67600000D03*
X-44050000Y-67600000D03*
X-49450000Y-67600000D03*
X-45850000Y-67600000D03*
X-52150000Y-67600000D03*
X-53050000Y-67600000D03*
X-50350000Y-67600000D03*
X-46750000Y-67600000D03*
%TD*%
%TO.C,mb30*%
X-87950000Y-6750000D03*
X-97850000Y-6750000D03*
X-93350000Y-6750000D03*
X-89750000Y-6750000D03*
X-88850000Y-6750000D03*
X-92450000Y-6750000D03*
X-95150000Y-6750000D03*
X-91550000Y-6750000D03*
X-96050000Y-6750000D03*
X-94250000Y-6750000D03*
X-90650000Y-6750000D03*
X-96950000Y-6750000D03*
%TD*%
%TO.C,mb19*%
X-90550000Y-66000000D03*
X-85150000Y-66000000D03*
X-82450000Y-66000000D03*
X-87850000Y-66000000D03*
X-86950000Y-66000000D03*
X-92350000Y-66000000D03*
X-83350000Y-66000000D03*
X-89650000Y-66000000D03*
X-86050000Y-66000000D03*
X-88750000Y-66000000D03*
X-91450000Y-66000000D03*
X-84250000Y-66000000D03*
%TD*%
%TO.C,mb20*%
X-89600000Y-67600000D03*
X-86000000Y-67600000D03*
X-84200000Y-67600000D03*
X-91400000Y-67600000D03*
X-87800000Y-67600000D03*
X-92300000Y-67600000D03*
X-90500000Y-67600000D03*
X-88700000Y-67600000D03*
X-82400000Y-67600000D03*
X-83300000Y-67600000D03*
X-86900000Y-67600000D03*
X-85100000Y-67600000D03*
%TD*%
%TO.C,mb27*%
X-130150000Y-6750000D03*
X-133750000Y-6750000D03*
X-137350000Y-6750000D03*
X-134650000Y-6750000D03*
X-132850000Y-6750000D03*
X-135550000Y-6750000D03*
X-136450000Y-6750000D03*
X-131050000Y-6750000D03*
X-129250000Y-6750000D03*
X-138250000Y-6750000D03*
X-131950000Y-6750000D03*
X-128350000Y-6750000D03*
%TD*%
%TO.C,mb2*%
X-129300000Y-115500000D03*
X-133800000Y-115500000D03*
X-128400000Y-115500000D03*
X-131100000Y-115500000D03*
X-132000000Y-115500000D03*
X-130200000Y-115500000D03*
X-136500000Y-115500000D03*
X-135600000Y-115500000D03*
X-138300000Y-115500000D03*
X-132900000Y-115500000D03*
X-137400000Y-115500000D03*
X-134700000Y-115500000D03*
%TD*%
%TO.C,mb16*%
X-44100000Y-66000000D03*
X-47700000Y-66000000D03*
X-45000000Y-66000000D03*
X-43200000Y-66000000D03*
X-49500000Y-66000000D03*
X-46800000Y-66000000D03*
X-48600000Y-66000000D03*
X-51300000Y-66000000D03*
X-52200000Y-66000000D03*
X-53100000Y-66000000D03*
X-45900000Y-66000000D03*
X-50400000Y-66000000D03*
%TD*%
%TO.C,mb27*%
X-130275000Y1400000D03*
X-121275000Y1400000D03*
X-122175000Y1400000D03*
X-126675000Y1400000D03*
X-120375000Y1400000D03*
X-123975000Y1400000D03*
X-129375000Y1400000D03*
X-123075000Y1400000D03*
X-125775000Y1400000D03*
X-128475000Y1400000D03*
X-124875000Y1400000D03*
X-127575000Y1400000D03*
%TD*%
%TO.C,mb11*%
X-64950000Y-96200000D03*
X-68550000Y-96200000D03*
X-65850000Y-96200000D03*
X-73050000Y-96200000D03*
X-66750000Y-96200000D03*
X-73950000Y-96200000D03*
X-74850000Y-96200000D03*
X-70350000Y-96200000D03*
X-72150000Y-96200000D03*
X-71250000Y-96200000D03*
X-67650000Y-96200000D03*
X-69450000Y-96200000D03*
%TD*%
M02*
