M48
; DRILL file {KiCad (6.0.5)} date Sat Aug  6 09:39:33 2022
; FORMAT={-:-/ absolute / inch / decimal}
; #@! TF.CreationDate,2022-08-06T09:39:33+09:00
; #@! TF.GenerationSoftware,Kicad,Pcbnew,(6.0.5)
; #@! TF.FileFunction,NonPlated,1,2,NPTH
FMAT,2
INCH
; #@! TA.AperFunction,NonPlated,NPTH,ComponentDrill
T1C0.0236
%
G90
G05
T1
X-5.4469Y-4.9075
X-5.4449Y-4.5472
X-5.4429Y-0.2657
X-5.4114Y-4.9075
X-5.4094Y-4.5472
X-5.4075Y-0.2657
X-5.376Y-4.9075
X-5.374Y-4.5472
X-5.372Y-0.2657
X-5.3406Y-4.9075
X-5.3386Y-4.5472
X-5.3366Y-0.2657
X-5.3051Y-4.9075
X-5.3031Y-4.5472
X-5.3012Y-0.2657
X-5.2697Y-4.9075
X-5.2677Y-4.5472
X-5.2657Y-0.2657
X-5.2343Y-4.9075
X-5.2323Y-4.5472
X-5.2303Y-0.2657
X-5.1988Y-4.9075
X-5.1969Y-4.5472
X-5.1949Y-0.2657
X-5.1634Y-4.9075
X-5.1614Y-4.5472
X-5.1594Y-0.2657
X-5.1289Y0.0551
X-5.128Y-4.9075
X-5.126Y-4.5472
X-5.124Y-0.2657
X-5.0935Y0.0551
X-5.0925Y-4.9075
X-5.0906Y-4.5472
X-5.0886Y-0.2657
X-5.0581Y0.0551
X-5.0571Y-4.9075
X-5.0551Y-4.5472
X-5.0531Y-0.2657
X-5.0226Y0.0551
X-4.9872Y0.0551
X-4.9518Y0.0551
X-4.9163Y0.0551
X-4.8809Y0.0551
X-4.8455Y0.0551
X-4.81Y0.0551
X-4.7746Y0.0551
X-4.7392Y0.0551
X-3.8524Y-0.2657
X-3.8169Y-0.2657
X-3.7815Y-0.2657
X-3.7461Y-0.2657
X-3.7106Y-0.2657
X-3.6752Y-0.2657
X-3.6398Y-0.2657
X-3.6358Y-2.5984
X-3.6339Y-2.6614
X-3.6043Y-0.2657
X-3.6004Y-2.5984
X-3.5984Y-2.6614
X-3.5689Y-0.2657
X-3.565Y-2.5984
X-3.563Y-2.6614
X-3.5335Y-0.2657
X-3.5295Y-2.5984
X-3.5276Y-2.6614
X-3.498Y-0.2657
X-3.4941Y-2.5984
X-3.4921Y-2.6614
X-3.4626Y-0.2657
X-3.4587Y-2.5984
X-3.4567Y-2.6614
X-3.4232Y-2.5984
X-3.4213Y-2.6614
X-3.3878Y-2.5984
X-3.3858Y-2.6614
X-3.3524Y-2.5984
X-3.3504Y-2.6614
X-3.3169Y-2.5984
X-3.315Y-2.6614
X-3.2815Y-2.5984
X-3.2795Y-2.6614
X-3.2461Y-2.5984
X-3.2441Y-2.6614
X-2.9508Y-4.8445
X-2.9488Y-3.7205
X-2.9469Y-3.7874
X-2.9154Y-4.8445
X-2.9134Y-3.7205
X-2.9114Y-3.7874
X-2.8799Y-4.8445
X-2.878Y-3.7205
X-2.876Y-3.7874
X-2.8445Y-4.8445
X-2.8425Y-3.7205
X-2.8406Y-3.7874
X-2.8091Y-4.8445
X-2.8071Y-3.7205
X-2.8051Y-3.7874
X-2.7736Y-4.8445
X-2.7717Y-3.7205
X-2.7697Y-3.7874
X-2.7382Y-4.8445
X-2.7362Y-3.7205
X-2.7343Y-3.7874
X-2.7028Y-4.8445
X-2.7008Y-3.7205
X-2.6988Y-3.7874
X-2.6673Y-4.8445
X-2.6654Y-3.7205
X-2.6644Y0.0541
X-2.6634Y-3.7874
X-2.6319Y-4.8445
X-2.6299Y-3.7205
X-2.6289Y0.0541
X-2.628Y-3.7874
X-2.5965Y-4.8445
X-2.5945Y-3.7205
X-2.5935Y0.0541
X-2.5925Y-3.7874
X-2.561Y-4.8445
X-2.5591Y-3.7205
X-2.5581Y0.0541
X-2.5571Y-3.7874
X-2.5226Y0.0541
X-2.4872Y0.0541
X-2.4518Y0.0541
X-2.4163Y0.0541
X-2.3809Y0.0541
X-2.3455Y0.0541
X-2.31Y0.0541
X-2.2795Y-0.2657
X-2.2746Y0.0541
X-2.2441Y-0.2657
X-2.2087Y-0.2657
X-2.1732Y-0.2657
X-2.1378Y-0.2657
X-2.1024Y-0.2657
X-2.0906Y-2.5984
X-2.0886Y-2.6614
X-2.0669Y-0.2657
X-2.0551Y-2.5984
X-2.0531Y-2.6614
X-2.0315Y-0.2657
X-2.0197Y-2.5984
X-2.0177Y-2.6614
X-1.9961Y-0.2657
X-1.9843Y-2.5984
X-1.9823Y-2.6614
X-1.9606Y-0.2657
X-1.9488Y-2.5984
X-1.9469Y-2.6614
X-1.9252Y-0.2657
X-1.9134Y-2.5984
X-1.9114Y-2.6614
X-1.8898Y-0.2657
X-1.878Y-2.5984
X-1.876Y-2.6614
X-1.8425Y-2.5984
X-1.8406Y-2.6614
X-1.8071Y-2.5984
X-1.8051Y-2.6614
X-1.7717Y-2.5984
X-1.7697Y-2.6614
X-1.7362Y-2.5984
X-1.7343Y-2.6614
X-1.7008Y-2.5984
X-1.6988Y-2.6614
T0
M30
