%TF.GenerationSoftware,KiCad,Pcbnew,(6.0.5)*%
%TF.CreationDate,2022-07-12T17:33:22+09:00*%
%TF.ProjectId,ergotonic_f24-pcb-left,6572676f-746f-46e6-9963-5f6632342d70,rev?*%
%TF.SameCoordinates,Original*%
%TF.FileFunction,Profile,NP*%
%FSLAX46Y46*%
G04 Gerber Fmt 4.6, Leading zero omitted, Abs format (unit mm)*
G04 Created by KiCad (PCBNEW (6.0.5)) date 2022-07-12 17:33:22*
%MOMM*%
%LPD*%
G01*
G04 APERTURE LIST*
%TA.AperFunction,Profile*%
%ADD10C,0.090000*%
%TD*%
%ADD11C,0.090000*%
%TA.AperFunction,Profile*%
%ADD12C,0.120000*%
%TD*%
G04 APERTURE END LIST*
D10*
X-140686283Y-76717994D02*
X-140006147Y-79045526D01*
X-128194028Y-19285436D02*
X-127280209Y-17039345D01*
X-14399020Y-8985591D02*
X-16822412Y-8900970D01*
D11*
X-15872395Y-113435109D02*
X-13956405Y-112478987D01*
D10*
X-7686731Y-58230867D02*
X-5586730Y-59443296D01*
X-128768471Y-15124909D02*
X-131170553Y-15456564D01*
D11*
X-162728073Y-19980628D02*
X-169130094Y-66411622D01*
D10*
X-34037906Y-102628921D02*
X-35755986Y-104340117D01*
D11*
X-135175061Y-13040311D02*
X-135959401Y-18621215D01*
D10*
X-3486735Y-58230857D02*
X-3486741Y-55805987D01*
D11*
X-55285321Y-1369124D02*
X-134320419Y-12188726D01*
D10*
X-145589713Y-74603961D02*
G75*
G03*
X-145589713Y-74603961I-1100000J0D01*
G01*
D11*
X-53265009Y-103315894D02*
X-53198005Y-103398468D01*
X-53123099Y-103473023D01*
X-53041021Y-103539052D01*
X-52952501Y-103596053D01*
X-52858270Y-103643522D01*
X-52759058Y-103680953D01*
X-52718143Y-103693003D01*
X-134320419Y-12188726D02*
X-134442458Y-12213209D01*
X-134558574Y-12251885D01*
X-134667816Y-12303804D01*
X-134769232Y-12368018D01*
X-134861869Y-12443579D01*
X-134944776Y-12529539D01*
X-135017002Y-12624949D01*
X-135077594Y-12728861D01*
X-135125601Y-12840326D01*
X-135160071Y-12958396D01*
X-135175061Y-13040311D01*
D10*
X-131170553Y-15456564D02*
X-132084372Y-17702655D01*
X-3486741Y-55805987D02*
X-5586742Y-54593558D01*
D11*
X-52718143Y-103693003D02*
X-16580965Y-113505410D01*
D10*
X-13260608Y-11126621D02*
X-14399020Y-8985591D01*
X-164468884Y-70054061D02*
G75*
G03*
X-164468884Y-70054061I-1100000J0D01*
G01*
D11*
X-46474144Y-4182927D02*
X-46565806Y-4178716D01*
X-46656554Y-4166147D01*
X-46745809Y-4145310D01*
X-46794538Y-4130196D01*
X-140577487Y-17972180D02*
X-141322338Y-23272094D01*
X-13956405Y-112478987D02*
X-13864276Y-112426746D01*
X-13778879Y-112365602D01*
X-13700764Y-112296227D01*
X-13630482Y-112219288D01*
X-13568583Y-112135458D01*
X-13515618Y-112045404D01*
X-13472138Y-111949798D01*
X-13438693Y-111849310D01*
D10*
X-31074028Y-105604723D02*
X-31696927Y-103261224D01*
D11*
X-54829276Y-1412597D02*
X-54926723Y-1385049D01*
X-55026126Y-1367540D01*
X-55126714Y-1360143D01*
X-55227716Y-1362930D01*
X-55285321Y-1369124D01*
X-13438693Y-111849310D02*
X-2035772Y-70375183D01*
X-46794538Y-4130196D02*
X-54829276Y-1412597D01*
X-150548326Y-21975467D02*
X-149803475Y-16675554D01*
X-154210957Y-16056126D02*
X-154600598Y-18828502D01*
D10*
X-130596109Y-19617091D02*
X-128194028Y-19285436D01*
X-117280307Y-38811769D02*
G75*
G03*
X-117280307Y-38811769I-1100000J0D01*
G01*
X-35755986Y-104340117D02*
X-35133087Y-106683616D01*
D11*
X-54518744Y-101591000D02*
X-53265009Y-103315894D01*
X-169130094Y-66411622D02*
X-169173499Y-66792850D01*
X-169198593Y-67172200D01*
X-169205706Y-67549190D01*
X-169195166Y-67923335D01*
X-169167304Y-68294154D01*
X-169122450Y-68661162D01*
X-169060933Y-69023877D01*
X-168983084Y-69381815D01*
X-168889232Y-69734494D01*
X-168779708Y-70081431D01*
X-168654841Y-70422141D01*
X-168514960Y-70756143D01*
X-168360397Y-71082953D01*
X-168191480Y-71402087D01*
X-168008540Y-71713063D01*
X-167811906Y-72015398D01*
X-167601909Y-72308608D01*
X-167378878Y-72592211D01*
X-167143143Y-72865723D01*
X-166895034Y-73128661D01*
X-166634881Y-73380542D01*
X-166363013Y-73620883D01*
X-166079761Y-73849201D01*
X-165785455Y-74065013D01*
X-165480424Y-74267835D01*
X-165164998Y-74457184D01*
X-164839507Y-74632578D01*
X-164504282Y-74793533D01*
X-164159651Y-74939566D01*
X-163805944Y-75070194D01*
X-163443493Y-75184934D01*
X-163072626Y-75283303D01*
D10*
X-137650377Y-79620276D02*
X-135974743Y-77867495D01*
D11*
X-2035772Y-70375183D02*
X-2015445Y-70285224D01*
X-2003502Y-70193864D01*
X-1999986Y-70110083D01*
X-161974071Y-17792217D02*
X-162044433Y-17916664D01*
X-162111919Y-18042949D01*
X-162176480Y-18171031D01*
X-162238068Y-18300867D01*
X-162296637Y-18432416D01*
X-162352140Y-18565636D01*
X-162404528Y-18700487D01*
X-162453754Y-18836925D01*
X-162499772Y-18974911D01*
X-162542534Y-19114402D01*
X-162581992Y-19255356D01*
X-162618099Y-19397733D01*
X-162650808Y-19541489D01*
X-162680072Y-19686585D01*
X-162705842Y-19832979D01*
X-162728073Y-19980628D01*
X-154600598Y-18828502D02*
X-161974071Y-17792217D01*
D10*
X-139010650Y-74965213D02*
X-140686283Y-76717994D01*
X-136654880Y-75539963D02*
X-139010650Y-74965213D01*
D11*
X-16580965Y-113505410D02*
X-16491528Y-113525342D01*
X-16401214Y-113536958D01*
X-16310585Y-113540312D01*
X-16220204Y-113535460D01*
X-16130632Y-113522458D01*
X-16042431Y-113501361D01*
X-15956165Y-113472226D01*
X-15872395Y-113435109D01*
X-141322338Y-23272094D02*
X-150548326Y-21975467D01*
X-135959401Y-18621215D02*
X-140577487Y-17972180D01*
D10*
X-14545588Y-13183030D02*
X-13260608Y-11126621D01*
X-135974743Y-77867495D02*
X-136654880Y-75539963D01*
X-41900000Y-82000000D02*
G75*
G03*
X-41900000Y-82000000I-1100000J0D01*
G01*
X-18107392Y-10957379D02*
X-16968980Y-13098409D01*
X-31696927Y-103261224D02*
X-34037906Y-102628921D01*
X-59525543Y-25768284D02*
G75*
G03*
X-59525543Y-25768284I-1100000J0D01*
G01*
D11*
X-149803475Y-16675554D02*
X-154210957Y-16056126D01*
D10*
X-132084372Y-17702655D02*
X-130596109Y-19617091D01*
X-35133087Y-106683616D02*
X-32792108Y-107315919D01*
X-5586742Y-54593558D02*
X-7686737Y-55805997D01*
D11*
X-15408340Y-4687397D02*
X-15462336Y-4602874D01*
X-15523808Y-4525009D01*
X-15592133Y-4454164D01*
X-15666687Y-4390700D01*
X-15746848Y-4334978D01*
X-15831993Y-4287360D01*
X-15921499Y-4248209D01*
X-16014744Y-4217885D01*
X-16111103Y-4196749D01*
X-16209956Y-4185165D01*
X-16276935Y-4182927D01*
D10*
X-16822412Y-8900970D02*
X-18107392Y-10957379D01*
D11*
X-16276935Y-4182927D02*
X-46474144Y-4182927D01*
D10*
X-5586730Y-59443296D02*
X-3486735Y-58230857D01*
D11*
X-2131394Y-27959878D02*
X-15408340Y-4687397D01*
D10*
X-127280209Y-17039345D02*
X-128768471Y-15124909D01*
D11*
X-163072626Y-75283303D02*
X-55094204Y-101206592D01*
X-1999986Y-70110083D02*
X-1999986Y-28455412D01*
X-1999986Y-28455412D02*
X-2004734Y-28358085D01*
X-2018860Y-28262056D01*
X-2042187Y-28167990D01*
X-2074535Y-28076553D01*
X-2115728Y-27988411D01*
X-2131394Y-27959878D01*
D10*
X-32792108Y-107315919D02*
X-31074028Y-105604723D01*
X-140006147Y-79045526D02*
X-137650377Y-79620276D01*
X-7686737Y-55805997D02*
X-7686731Y-58230867D01*
X-159835186Y-33451413D02*
G75*
G03*
X-159835186Y-33451413I-1100000J0D01*
G01*
X-16968980Y-13098409D02*
X-14545588Y-13183030D01*
D11*
X-55094204Y-101206592D02*
X-54987859Y-101238453D01*
X-54886367Y-101281584D01*
X-54790568Y-101335423D01*
X-54701301Y-101399406D01*
X-54619408Y-101472974D01*
X-54545728Y-101555563D01*
X-54518744Y-101591000D01*
D12*
%TO.C,LED_7*%
X-162345573Y-49598236D02*
X-165415404Y-49166799D01*
X-162846596Y-53163201D02*
X-162345573Y-49598236D01*
X-165916427Y-52731764D02*
X-162846596Y-53163201D01*
X-165415404Y-49166799D02*
X-165916427Y-52731764D01*
%TO.C,LED_1*%
X-54374799Y-7392404D02*
X-54806236Y-4322573D01*
X-58371201Y-4823596D02*
X-57939764Y-7893427D01*
X-57939764Y-7893427D02*
X-54374799Y-7392404D01*
X-54806236Y-4322573D02*
X-58371201Y-4823596D01*
%TO.C,LED_3*%
X-13154856Y-91672383D02*
X-10162173Y-92480991D01*
X-12215827Y-88197009D02*
X-13154856Y-91672383D01*
X-10162173Y-92480991D02*
X-9223144Y-89005617D01*
X-9223144Y-89005617D02*
X-12215827Y-88197009D01*
%TO.C,LED_5*%
X-104768426Y-83647625D02*
X-105492106Y-86661972D01*
X-105492106Y-86661972D02*
X-101991574Y-87502375D01*
X-101267894Y-84488028D02*
X-104768426Y-83647625D01*
X-101991574Y-87502375D02*
X-101267894Y-84488028D01*
%TO.C,LED_2*%
X-7872000Y-37597000D02*
X-7872000Y-41197000D01*
X-4772000Y-37597000D02*
X-7872000Y-37597000D01*
X-4772000Y-41197000D02*
X-4772000Y-37597000D01*
X-7872000Y-41197000D02*
X-4772000Y-41197000D01*
%TO.C,LED_6*%
X-152450894Y-72281028D02*
X-155951426Y-71440625D01*
X-155951426Y-71440625D02*
X-156675106Y-74454972D01*
X-156675106Y-74454972D02*
X-153174574Y-75295375D01*
X-153174574Y-75295375D02*
X-152450894Y-72281028D01*
%TO.C,LED_4*%
X-56463426Y-95249625D02*
X-57187106Y-98263972D01*
X-53686574Y-99104375D02*
X-52962894Y-96090028D01*
X-57187106Y-98263972D02*
X-53686574Y-99104375D01*
X-52962894Y-96090028D02*
X-56463426Y-95249625D01*
%TO.C,LED_0*%
X-119899236Y-12284573D02*
X-123464201Y-12785596D01*
X-123032764Y-15855427D02*
X-119467799Y-15354404D01*
X-119467799Y-15354404D02*
X-119899236Y-12284573D01*
X-123464201Y-12785596D02*
X-123032764Y-15855427D01*
%TD*%
M02*
