M48
; DRILL file {KiCad (6.0.5)} date Tue Jul 12 17:33:25 2022
; FORMAT={-:-/ absolute / inch / decimal}
; #@! TF.CreationDate,2022-07-12T17:33:25+09:00
; #@! TF.GenerationSoftware,Kicad,Pcbnew,(6.0.5)
; #@! TF.FileFunction,NonPlated,1,2,NPTH
FMAT,2
INCH
; #@! TA.AperFunction,NonPlated,NPTH,ComponentDrill
T1C0.0472
; #@! TA.AperFunction,NonPlated,NPTH,ComponentDrill
T2C0.0748
; #@! TA.AperFunction,NonPlated,NPTH,ComponentDrill
T3C0.1181
; #@! TA.AperFunction,NonPlated,NPTH,ComponentDrill
T4C0.1614
%
G90
G05
T1
X-6.2813Y-1.0583
X-6.243Y-0.7854
T2
X-6.2886Y-2.3505
X-5.8925Y-2.4062
X-5.3998Y-2.6329
X-5.2529Y-1.8774
X-5.1946Y-1.1111
X-5.0124Y-2.7323
X-4.8563Y-1.93
X-4.7947Y-1.1189
X-4.6031Y-2.5802
X-4.4853Y-1.8268
X-4.4394Y-1.0604
X-4.2102Y-2.6555
X-4.088Y-1.8724
X-4.0394Y-1.0624
X-3.8091Y-2.4229
X-3.7072Y-1.6622
X-3.6835Y-0.8963
X-3.416Y-2.4969
X-3.3085Y-1.6941
X-3.2836Y-0.8889
X-3.1363Y-2.9109
X-2.9961Y-2.1569
X-2.9317Y-1.3935
X-2.9314Y-0.6317
X-2.7474Y-3.0041
X-2.5996Y-2.21
X-2.5319Y-1.4076
X-2.5317Y-0.6179
X-2.4135Y-3.1264
X-2.264Y-2.3752
X-2.1833Y-1.6154
X-2.173Y-0.8487
X-2.0254Y-3.2232
X-1.8684Y-2.4344
X-1.7841Y-1.6406
X-1.7732Y-0.8344
X-1.7695Y-3.6643
X-1.5725Y-2.8318
X-1.4624Y-2.0734
X-1.413Y-1.3149
X-1.3833Y-3.7687
X-1.1799Y-2.9087
X-1.0642Y-2.1112
X-1.0455Y-3.8599
X-1.0133Y-1.329
X-0.8468Y-3.0273
X-0.6593Y-3.9642
X-0.4543Y-3.1046
T3
X-6.2251Y-2.2584
X-5.9637Y-2.1942
X-5.3265Y-2.5485
X-5.1901Y-1.7848
X-5.1427Y-1.0121
X-5.0595Y-2.5137
X-4.9291Y-1.7186
X-4.8908Y-0.917
X-4.5351Y-2.4914
X-4.4243Y-1.7331
X-4.3889Y-0.9606
X-4.2708Y-2.4402
X-4.1645Y-1.6623
X-4.1384Y-0.8619
X-3.7415Y-2.3339
X-3.6494Y-1.5665
X-3.6354Y-0.7954
X-3.4773Y-2.2818
X-3.3922Y-1.4868
X-3.3873Y-0.6907
X-3.0644Y-2.8253
X-2.9332Y-2.0645
X-2.8849Y-0.53
X-2.8782Y-1.2953
X-2.798Y-2.7863
X-2.6722Y-1.9985
X-2.6385Y-0.4215
X-2.6248Y-1.2042
X-2.3408Y-3.0415
X-2.1998Y-2.2837
X-2.1271Y-1.5187
X-2.1266Y-0.747
X-2.074Y-3.0049
X-1.9377Y-2.2218
X-1.8803Y-0.6381
X-1.8713Y-1.4347
X-1.6951Y-3.5808
X-1.5042Y-2.7433
X-1.4277Y-3.5495
X-1.4032Y-1.9786
X-1.3595Y-1.2167
X-1.2396Y-2.6932
X-1.1448Y-1.9027
X-1.1062Y-1.1256
X-0.9711Y-3.7764
X-0.7784Y-2.9389
X-0.7037Y-3.745
X-0.5138Y-2.889
T4
X-6.0905Y-2.3783
X-5.2061Y-2.6826
X-5.0546Y-1.9037
X-4.9946Y-1.115
X-4.4067Y-2.6178
X-4.2867Y-1.8496
X-4.2394Y-1.0614
X-3.6126Y-2.4599
X-3.5078Y-1.6781
X-3.4836Y-0.8926
X-2.9419Y-2.9575
X-2.7978Y-2.1835
X-2.7318Y-1.4006
X-2.7315Y-0.6248
X-2.2194Y-3.1748
X-2.0662Y-2.4048
X-1.9837Y-1.628
X-1.9731Y-0.8416
X-1.5764Y-3.7165
X-1.3762Y-2.8702
X-1.2633Y-2.0923
X-1.2131Y-1.3219
X-0.8524Y-3.912
X-0.6505Y-3.0659
T0
M30
