M48
; DRILL file {KiCad (6.0.5)} date Tue Jul 12 17:33:25 2022
; FORMAT={-:-/ absolute / inch / decimal}
; #@! TF.CreationDate,2022-07-12T17:33:25+09:00
; #@! TF.GenerationSoftware,Kicad,Pcbnew,(6.0.5)
; #@! TF.FileFunction,Plated,1,2,PTH
FMAT,2
INCH
; #@! TA.AperFunction,Plated,PTH,ViaDrill
T1C0.0157
; #@! TA.AperFunction,Plated,PTH,ComponentDrill
T2C0.0320
; #@! TA.AperFunction,Plated,PTH,ComponentDrill
T3C0.0394
; #@! TA.AperFunction,Plated,PTH,ComponentDrill
T4C0.0512
; #@! TA.AperFunction,Plated,PTH,ComponentDrill
T5C0.0591
%
G90
G05
T1
X-6.53Y-2.55
X-5.7078Y-2.2828
X-5.415Y-2.03
X-4.9724Y-2.1969
X-4.94Y-3.145
X-4.755Y-2.705
X-4.53Y-1.03
X-4.3543Y-3.2362
X-4.23Y-3.385
X-4.1299Y-3.189
X-4.11Y-3.095
X-4.085Y-2.9961
X-3.955Y-0.39
X-3.845Y-3.26
X-3.8346Y-3.5118
X-3.83Y-3.16
X-3.8Y-3.07
X-3.765Y-0.87
X-3.625Y-3.53
X-3.565Y-3.32
X-3.54Y-3.235
X-3.515Y-3.14
X-3.305Y-3.49
X-3.285Y-3.395
X-3.26Y-3.3
X-3.2402Y-3.2008
X-3.0236Y-3.5453
X-3.015Y-0.62
X-3.005Y-3.46
X-2.985Y-3.365
X-2.95Y-3.27
X-2.895Y-3.745
X-2.735Y-3.63
X-2.715Y-3.53
X-2.7Y-3.43
X-2.675Y-3.34
X-2.535Y-3.105
X-2.485Y-3.685
X-2.455Y-3.59
X-2.26Y-0.845
X-1.98Y-3.5187
X-1.975Y-1.865
X-1.58Y-1.18
X-1.5162Y-3.455
X-1.485Y-3.3835
X-1.48Y-3.23
X-1.48Y-3.275
X-1.29Y-2.33
X-1.23Y-3.39
X-1.185Y-3.43
X-0.895Y-1.95
X-0.855Y-4.275
X-0.425Y-1.465
X-0.42Y-1.425
X-0.355Y-1.49
X-0.3447Y-2.82
X-0.335Y-2.77
X-0.24Y-1.725
T2
X-6.1918Y-1.9195
X-6.1779Y-1.8205
X-6.164Y-1.7215
X-6.1501Y-1.6225
X-6.1362Y-1.5234
X-6.1223Y-1.4244
X-6.1083Y-1.3254
X-6.0944Y-1.2263
X-6.0805Y-1.1273
X-6.0666Y-1.0283
X-6.0527Y-0.9293
X-6.0387Y-0.8302
X-6.0248Y-0.7312
X-5.5985Y-2.0029
X-5.5845Y-1.9039
X-5.5706Y-1.8049
X-5.5567Y-1.7058
X-5.5428Y-1.6068
X-5.5289Y-1.5078
X-5.515Y-1.4088
X-5.501Y-1.3097
X-5.4871Y-1.2107
X-5.4732Y-1.1117
X-5.4593Y-1.0127
X-5.4454Y-0.9136
X-5.4314Y-0.8146
T3
X-6.2835Y-1.7283
X-6.2695Y-1.6293
X-6.2291Y-2.6571
X-6.1496Y-2.0917
X-6.1316Y-2.6707
X-6.0341Y-2.6844
X-5.9547Y-2.1191
X-1.2926Y-3.4876
X-1.2146Y-3.1988
X-0.8041Y-3.3367
X-0.7075Y-3.3557
X-0.6939Y-2.7765
X-0.6109Y-3.3747
X-0.5007Y-2.8145
X-0.2372Y-3.0
X-0.1797Y-2.7871
T4
X-6.4327Y-1.8049
X-6.3971Y-1.5515
T3
G00X-6.3799Y-1.1657
M15
G01X-6.3827Y-1.1852
M16
G05
G00X-6.208Y-1.1303
M15
G01X-6.2107Y-1.1497
M16
G05
G00X-6.186Y-0.9743
M15
G01X-6.1888Y-0.9938
M16
G05
G00X-6.1696Y-0.8573
M15
G01X-6.1723Y-0.8768
M16
G05
T5
G00X-6.3124Y-2.373
M15
G01X-6.3053Y-2.3223
M16
G05
G00X-5.8757Y-2.4344
M15
G01X-5.8686Y-2.3837
M16
G05
G00X-0.8718Y-3.0485
M15
G01X-0.8619Y-2.9983
M16
G05
G00X-0.4391Y-3.1336
M15
G01X-0.4292Y-3.0834
M16
G05
T0
M30
