%TF.GenerationSoftware,KiCad,Pcbnew,(6.0.1)*%
%TF.CreationDate,2022-02-27T14:43:08+09:00*%
%TF.ProjectId,ergotonic_f24_parts,6572676f-746f-46e6-9963-5f6632345f70,rev?*%
%TF.SameCoordinates,Original*%
%TF.FileFunction,Soldermask,Top*%
%TF.FilePolarity,Negative*%
%FSLAX46Y46*%
G04 Gerber Fmt 4.6, Leading zero omitted, Abs format (unit mm)*
G04 Created by KiCad (PCBNEW (6.0.1)) date 2022-02-27 14:43:08*
%MOMM*%
%LPD*%
G01*
G04 APERTURE LIST*
%ADD10C,0.600000*%
G04 APERTURE END LIST*
D10*
%TO.C,mb4*%
X37908000Y-110021000D03*
X39708000Y-110021000D03*
X38808000Y-110021000D03*
X31608000Y-110021000D03*
X37008000Y-110021000D03*
X33408000Y-110021000D03*
X41508000Y-110021000D03*
X36108000Y-110021000D03*
X40608000Y-110021000D03*
X32508000Y-110021000D03*
X34308000Y-110021000D03*
X35208000Y-110021000D03*
%TD*%
%TO.C,mb23*%
X39922000Y-6179000D03*
X39022000Y-6179000D03*
X41722000Y-6179000D03*
X46222000Y-6179000D03*
X48022000Y-6179000D03*
X45322000Y-6179000D03*
X43522000Y-6179000D03*
X40822000Y-6179000D03*
X38122000Y-6179000D03*
X47122000Y-6179000D03*
X42622000Y-6179000D03*
X44422000Y-6179000D03*
%TD*%
%TO.C,mb13*%
X50043000Y-83139000D03*
X54543000Y-83139000D03*
X59043000Y-83139000D03*
X49143000Y-83139000D03*
X58143000Y-83139000D03*
X50943000Y-83139000D03*
X56343000Y-83139000D03*
X52743000Y-83139000D03*
X57243000Y-83139000D03*
X51843000Y-83139000D03*
X55443000Y-83139000D03*
X53643000Y-83139000D03*
%TD*%
%TO.C,mb8*%
X-94054000Y-114899000D03*
X-86854000Y-114899000D03*
X-94954000Y-114899000D03*
X-89554000Y-114899000D03*
X-91354000Y-114899000D03*
X-93154000Y-114899000D03*
X-95854000Y-114899000D03*
X-92254000Y-114899000D03*
X-87754000Y-114899000D03*
X-90454000Y-114899000D03*
X-88654000Y-114899000D03*
X-96754000Y-114899000D03*
%TD*%
%TO.C,mb21*%
X99249000Y-6179000D03*
X89349000Y-6179000D03*
X93849000Y-6179000D03*
X91149000Y-6179000D03*
X97449000Y-6179000D03*
X90249000Y-6179000D03*
X96549000Y-6179000D03*
X95649000Y-6179000D03*
X94749000Y-6179000D03*
X92949000Y-6179000D03*
X98349000Y-6179000D03*
X92049000Y-6179000D03*
%TD*%
%TO.C,mb29*%
X-39779000Y-6179000D03*
X-43379000Y-6179000D03*
X-41579000Y-6179000D03*
X-45179000Y-6179000D03*
X-37979000Y-6179000D03*
X-47879000Y-6179000D03*
X-42479000Y-6179000D03*
X-46079000Y-6179000D03*
X-44279000Y-6179000D03*
X-40679000Y-6179000D03*
X-46979000Y-6179000D03*
X-38879000Y-6179000D03*
%TD*%
%TO.C,mb15*%
X-58901000Y-83139000D03*
X-52601000Y-83139000D03*
X-51701000Y-83139000D03*
X-50801000Y-83139000D03*
X-49901000Y-83139000D03*
X-49001000Y-83139000D03*
X-56201000Y-83139000D03*
X-57101000Y-83139000D03*
X-58001000Y-83139000D03*
X-53501000Y-83139000D03*
X-55301000Y-83139000D03*
X-54401000Y-83139000D03*
%TD*%
%TO.C,mb17*%
X17621000Y-22394000D03*
X14021000Y-22394000D03*
X14921000Y-22394000D03*
X18521000Y-22394000D03*
X19421000Y-22394000D03*
X22121000Y-22394000D03*
X20321000Y-22394000D03*
X21221000Y-22394000D03*
X16721000Y-22394000D03*
X13121000Y-22394000D03*
X23021000Y-22394000D03*
X15821000Y-22394000D03*
%TD*%
%TO.C,mb26*%
X39021000Y1621000D03*
X38121000Y1621000D03*
X42621000Y1621000D03*
X45321000Y1621000D03*
X44421000Y1621000D03*
X47121000Y1621000D03*
X43521000Y1621000D03*
X41721000Y1621000D03*
X39921000Y1621000D03*
X48021000Y1621000D03*
X46221000Y1621000D03*
X40821000Y1621000D03*
%TD*%
%TO.C,mb12*%
X-21079000Y-81539000D03*
X-17479000Y-81539000D03*
X-18379000Y-81539000D03*
X-12979000Y-81539000D03*
X-14779000Y-81539000D03*
X-13879000Y-81539000D03*
X-19279000Y-81539000D03*
X-15679000Y-81539000D03*
X-21979000Y-81539000D03*
X-22879000Y-81539000D03*
X-20179000Y-81539000D03*
X-16579000Y-81539000D03*
%TD*%
%TO.C,mb30*%
X-37979000Y1621000D03*
X-47879000Y1621000D03*
X-43379000Y1621000D03*
X-39779000Y1621000D03*
X-38879000Y1621000D03*
X-42479000Y1621000D03*
X-45179000Y1621000D03*
X-41579000Y1621000D03*
X-46079000Y1621000D03*
X-44279000Y1621000D03*
X-40679000Y1621000D03*
X-46979000Y1621000D03*
%TD*%
%TO.C,mb14*%
X57243000Y-65322000D03*
X54543000Y-65322000D03*
X56343000Y-65322000D03*
X50043000Y-65322000D03*
X49143000Y-65322000D03*
X59043000Y-65322000D03*
X50943000Y-65322000D03*
X52743000Y-65322000D03*
X53643000Y-65322000D03*
X51843000Y-65322000D03*
X58143000Y-65322000D03*
X55443000Y-65322000D03*
%TD*%
%TO.C,mb9*%
X22121000Y-83139000D03*
X18521000Y-83139000D03*
X14021000Y-83139000D03*
X19421000Y-83139000D03*
X15821000Y-83139000D03*
X16721000Y-83139000D03*
X17621000Y-83139000D03*
X23021000Y-83139000D03*
X21221000Y-83139000D03*
X20321000Y-83139000D03*
X13121000Y-83139000D03*
X14921000Y-83139000D03*
%TD*%
%TO.C,mb19*%
X-21079000Y-22394000D03*
X-15679000Y-22394000D03*
X-12979000Y-22394000D03*
X-18379000Y-22394000D03*
X-17479000Y-22394000D03*
X-22879000Y-22394000D03*
X-13879000Y-22394000D03*
X-20179000Y-22394000D03*
X-16579000Y-22394000D03*
X-19279000Y-22394000D03*
X-21979000Y-22394000D03*
X-14779000Y-22394000D03*
%TD*%
%TO.C,mb10*%
X20321000Y-81539000D03*
X22121000Y-81539000D03*
X16721000Y-81539000D03*
X13121000Y-81539000D03*
X17621000Y-81539000D03*
X14921000Y-81539000D03*
X23021000Y-81539000D03*
X15821000Y-81539000D03*
X18521000Y-81539000D03*
X19421000Y-81539000D03*
X14021000Y-81539000D03*
X21221000Y-81539000D03*
%TD*%
%TO.C,mb20*%
X-20179000Y-6179000D03*
X-16579000Y-6179000D03*
X-14779000Y-6179000D03*
X-21979000Y-6179000D03*
X-18379000Y-6179000D03*
X-22879000Y-6179000D03*
X-21079000Y-6179000D03*
X-19279000Y-6179000D03*
X-12979000Y-6179000D03*
X-13879000Y-6179000D03*
X-17479000Y-6179000D03*
X-15679000Y-6179000D03*
%TD*%
%TO.C,mb27*%
X-86854000Y-6179000D03*
X-91354000Y-6179000D03*
X-87754000Y-6179000D03*
X-96754000Y-6179000D03*
X-94954000Y-6179000D03*
X-94054000Y-6179000D03*
X-95854000Y-6179000D03*
X-88654000Y-6179000D03*
X-89554000Y-6179000D03*
X-92254000Y-6179000D03*
X-90454000Y-6179000D03*
X-93154000Y-6179000D03*
%TD*%
%TO.C,mb2*%
X-32366000Y-109996000D03*
X-36866000Y-109996000D03*
X-31466000Y-109996000D03*
X-34166000Y-109996000D03*
X-35066000Y-109996000D03*
X-33266000Y-109996000D03*
X-39566000Y-109996000D03*
X-38666000Y-109996000D03*
X-41366000Y-109996000D03*
X-35966000Y-109996000D03*
X-40466000Y-109996000D03*
X-37766000Y-109996000D03*
%TD*%
%TO.C,mb16*%
X-49901000Y-65322000D03*
X-53501000Y-65322000D03*
X-50801000Y-65322000D03*
X-49001000Y-65322000D03*
X-55301000Y-65322000D03*
X-52601000Y-65322000D03*
X-54401000Y-65322000D03*
X-57101000Y-65322000D03*
X-58001000Y-65322000D03*
X-58901000Y-65322000D03*
X-51701000Y-65322000D03*
X-56201000Y-65322000D03*
%TD*%
%TO.C,mb18*%
X14021000Y-6179000D03*
X19421000Y-6179000D03*
X20321000Y-6179000D03*
X14921000Y-6179000D03*
X15821000Y-6179000D03*
X17621000Y-6179000D03*
X13121000Y-6179000D03*
X21221000Y-6179000D03*
X23021000Y-6179000D03*
X18521000Y-6179000D03*
X22121000Y-6179000D03*
X16721000Y-6179000D03*
%TD*%
%TO.C,mb1*%
X-32366000Y-114899000D03*
X-31466000Y-114899000D03*
X-35966000Y-114899000D03*
X-37766000Y-114899000D03*
X-35066000Y-114899000D03*
X-33266000Y-114899000D03*
X-34166000Y-114899000D03*
X-39566000Y-114899000D03*
X-36866000Y-114899000D03*
X-40466000Y-114899000D03*
X-41366000Y-114899000D03*
X-38666000Y-114899000D03*
%TD*%
%TO.C,mb6*%
X92049000Y-114899000D03*
X92949000Y-114899000D03*
X99249000Y-114899000D03*
X97449000Y-114899000D03*
X98349000Y-114899000D03*
X91149000Y-114899000D03*
X95649000Y-114899000D03*
X94749000Y-114899000D03*
X96549000Y-114899000D03*
X90249000Y-114899000D03*
X89349000Y-114899000D03*
X93849000Y-114899000D03*
%TD*%
%TO.C,mb11*%
X-12979000Y-83139000D03*
X-16579000Y-83139000D03*
X-13879000Y-83139000D03*
X-21079000Y-83139000D03*
X-14779000Y-83139000D03*
X-21979000Y-83139000D03*
X-22879000Y-83139000D03*
X-18379000Y-83139000D03*
X-20179000Y-83139000D03*
X-19279000Y-83139000D03*
X-15679000Y-83139000D03*
X-17479000Y-83139000D03*
%TD*%
%TO.C,mb3*%
X37008000Y-114899000D03*
X35208000Y-114899000D03*
X31608000Y-114899000D03*
X38808000Y-114899000D03*
X34308000Y-114899000D03*
X41508000Y-114899000D03*
X33408000Y-114899000D03*
X36108000Y-114899000D03*
X39708000Y-114899000D03*
X40608000Y-114899000D03*
X37908000Y-114899000D03*
X32508000Y-114899000D03*
%TD*%
M02*
