%TF.GenerationSoftware,KiCad,Pcbnew,(6.0.1)*%
%TF.CreationDate,2022-02-27T14:41:52+09:00*%
%TF.ProjectId,ergotonic_f24_bottom,6572676f-746f-46e6-9963-5f6632345f62,rev?*%
%TF.SameCoordinates,Original*%
%TF.FileFunction,Copper,L1,Top*%
%TF.FilePolarity,Positive*%
%FSLAX46Y46*%
G04 Gerber Fmt 4.6, Leading zero omitted, Abs format (unit mm)*
G04 Created by KiCad (PCBNEW (6.0.1)) date 2022-02-27 14:41:52*
%MOMM*%
%LPD*%
G01*
G04 APERTURE LIST*
G04 APERTURE END LIST*
%TA.AperFunction,NonConductor*%
G36*
X830207Y-29692932D02*
G01*
X876700Y-29746588D01*
X887396Y-29785759D01*
X905364Y-29956712D01*
X963818Y-30128421D01*
X986492Y-30165276D01*
X1005149Y-30233775D01*
X985559Y-30298808D01*
X972503Y-30319382D01*
X972499Y-30319390D01*
X968727Y-30325334D01*
X966365Y-30331966D01*
X966365Y-30331967D01*
X910243Y-30489575D01*
X910242Y-30489580D01*
X907881Y-30496210D01*
X886404Y-30676320D01*
X905364Y-30856712D01*
X963818Y-31028421D01*
X986492Y-31065276D01*
X1005149Y-31133775D01*
X985559Y-31198808D01*
X972503Y-31219382D01*
X972499Y-31219390D01*
X968727Y-31225334D01*
X966365Y-31231966D01*
X966365Y-31231967D01*
X910243Y-31389575D01*
X910242Y-31389580D01*
X907881Y-31396210D01*
X886404Y-31576320D01*
X905364Y-31756712D01*
X963818Y-31928421D01*
X986492Y-31965276D01*
X1005149Y-32033775D01*
X985559Y-32098808D01*
X972503Y-32119382D01*
X972499Y-32119390D01*
X968727Y-32125334D01*
X966365Y-32131966D01*
X966365Y-32131967D01*
X910243Y-32289575D01*
X910242Y-32289580D01*
X907881Y-32296210D01*
X886404Y-32476320D01*
X905364Y-32656712D01*
X963818Y-32828421D01*
X986492Y-32865276D01*
X1005149Y-32933775D01*
X985559Y-32998808D01*
X972503Y-33019382D01*
X972499Y-33019390D01*
X968727Y-33025334D01*
X966365Y-33031966D01*
X966365Y-33031967D01*
X910243Y-33189575D01*
X910242Y-33189580D01*
X907881Y-33196210D01*
X886404Y-33376320D01*
X905364Y-33556712D01*
X963818Y-33728421D01*
X986492Y-33765276D01*
X1005149Y-33833775D01*
X985559Y-33898808D01*
X972503Y-33919382D01*
X972499Y-33919390D01*
X968727Y-33925334D01*
X966365Y-33931966D01*
X966365Y-33931967D01*
X910243Y-34089575D01*
X910242Y-34089580D01*
X907881Y-34096210D01*
X886404Y-34276320D01*
X905364Y-34456712D01*
X963818Y-34628421D01*
X986492Y-34665276D01*
X1005149Y-34733775D01*
X985559Y-34798808D01*
X972503Y-34819382D01*
X972499Y-34819390D01*
X968727Y-34825334D01*
X966365Y-34831966D01*
X966365Y-34831967D01*
X910243Y-34989575D01*
X910242Y-34989580D01*
X907881Y-34996210D01*
X886404Y-35176320D01*
X905364Y-35356712D01*
X963818Y-35528421D01*
X986492Y-35565276D01*
X1005149Y-35633775D01*
X985559Y-35698808D01*
X972503Y-35719382D01*
X972499Y-35719390D01*
X968727Y-35725334D01*
X966365Y-35731966D01*
X966365Y-35731967D01*
X910243Y-35889575D01*
X910242Y-35889580D01*
X907881Y-35896210D01*
X886404Y-36076320D01*
X905364Y-36256712D01*
X963818Y-36428421D01*
X986492Y-36465276D01*
X1005149Y-36533775D01*
X985559Y-36598808D01*
X972503Y-36619382D01*
X972499Y-36619390D01*
X968727Y-36625334D01*
X966365Y-36631966D01*
X966365Y-36631967D01*
X910243Y-36789575D01*
X910242Y-36789580D01*
X907881Y-36796210D01*
X886404Y-36976320D01*
X905364Y-37156712D01*
X963818Y-37328421D01*
X986492Y-37365276D01*
X1005149Y-37433775D01*
X985559Y-37498808D01*
X972503Y-37519382D01*
X972499Y-37519390D01*
X968727Y-37525334D01*
X966365Y-37531966D01*
X966365Y-37531967D01*
X910243Y-37689575D01*
X910242Y-37689580D01*
X907881Y-37696210D01*
X886404Y-37876320D01*
X905364Y-38056712D01*
X963818Y-38228421D01*
X986492Y-38265276D01*
X1005149Y-38333775D01*
X985559Y-38398808D01*
X972503Y-38419382D01*
X972499Y-38419390D01*
X968727Y-38425334D01*
X966365Y-38431966D01*
X966365Y-38431967D01*
X910243Y-38589575D01*
X910242Y-38589580D01*
X907881Y-38596210D01*
X886404Y-38776320D01*
X905364Y-38956712D01*
X963818Y-39128421D01*
X986492Y-39165276D01*
X1005149Y-39233775D01*
X985559Y-39298808D01*
X972503Y-39319382D01*
X972499Y-39319390D01*
X968727Y-39325334D01*
X966365Y-39331966D01*
X966365Y-39331967D01*
X910243Y-39489575D01*
X910242Y-39489580D01*
X907881Y-39496210D01*
X904006Y-39528709D01*
X901962Y-39545846D01*
X874034Y-39611119D01*
X815250Y-39650931D01*
X776848Y-39656926D01*
X-776185Y-39656926D01*
X-844306Y-39636924D01*
X-890799Y-39583268D01*
X-901495Y-39544097D01*
X-904628Y-39514288D01*
X-904628Y-39514286D01*
X-905364Y-39507288D01*
X-963818Y-39335579D01*
X-986492Y-39298724D01*
X-1005149Y-39230225D01*
X-985559Y-39165192D01*
X-972503Y-39144618D01*
X-972499Y-39144610D01*
X-968727Y-39138666D01*
X-965079Y-39128421D01*
X-910243Y-38974425D01*
X-910242Y-38974420D01*
X-907881Y-38967790D01*
X-886404Y-38787680D01*
X-905364Y-38607288D01*
X-963818Y-38435579D01*
X-986492Y-38398724D01*
X-1005149Y-38330225D01*
X-985559Y-38265192D01*
X-972503Y-38244618D01*
X-972499Y-38244610D01*
X-968727Y-38238666D01*
X-965079Y-38228421D01*
X-910243Y-38074425D01*
X-910242Y-38074420D01*
X-907881Y-38067790D01*
X-886404Y-37887680D01*
X-905364Y-37707288D01*
X-963818Y-37535579D01*
X-986492Y-37498724D01*
X-1005149Y-37430225D01*
X-985559Y-37365192D01*
X-972503Y-37344618D01*
X-972499Y-37344610D01*
X-968727Y-37338666D01*
X-965079Y-37328421D01*
X-910243Y-37174425D01*
X-910242Y-37174420D01*
X-907881Y-37167790D01*
X-886404Y-36987680D01*
X-905364Y-36807288D01*
X-963818Y-36635579D01*
X-986492Y-36598724D01*
X-1005149Y-36530225D01*
X-985559Y-36465192D01*
X-972503Y-36444618D01*
X-972499Y-36444610D01*
X-968727Y-36438666D01*
X-965079Y-36428421D01*
X-910243Y-36274425D01*
X-910242Y-36274420D01*
X-907881Y-36267790D01*
X-886404Y-36087680D01*
X-905364Y-35907288D01*
X-963818Y-35735579D01*
X-986492Y-35698724D01*
X-1005149Y-35630225D01*
X-985559Y-35565192D01*
X-972503Y-35544618D01*
X-972499Y-35544610D01*
X-968727Y-35538666D01*
X-965079Y-35528421D01*
X-910243Y-35374425D01*
X-910242Y-35374420D01*
X-907881Y-35367790D01*
X-886404Y-35187680D01*
X-905364Y-35007288D01*
X-963818Y-34835579D01*
X-986492Y-34798724D01*
X-1005149Y-34730225D01*
X-985559Y-34665192D01*
X-972503Y-34644618D01*
X-972499Y-34644610D01*
X-968727Y-34638666D01*
X-965079Y-34628421D01*
X-910243Y-34474425D01*
X-910242Y-34474420D01*
X-907881Y-34467790D01*
X-886404Y-34287680D01*
X-905364Y-34107288D01*
X-963818Y-33935579D01*
X-986492Y-33898724D01*
X-1005149Y-33830225D01*
X-985559Y-33765192D01*
X-972503Y-33744618D01*
X-972499Y-33744610D01*
X-968727Y-33738666D01*
X-965079Y-33728421D01*
X-910243Y-33574425D01*
X-910242Y-33574420D01*
X-907881Y-33567790D01*
X-886404Y-33387680D01*
X-905364Y-33207288D01*
X-963818Y-33035579D01*
X-986492Y-32998724D01*
X-1005149Y-32930225D01*
X-985559Y-32865192D01*
X-972503Y-32844618D01*
X-972499Y-32844610D01*
X-968727Y-32838666D01*
X-965079Y-32828421D01*
X-910243Y-32674425D01*
X-910242Y-32674420D01*
X-907881Y-32667790D01*
X-886404Y-32487680D01*
X-905364Y-32307288D01*
X-963818Y-32135579D01*
X-986492Y-32098724D01*
X-1005149Y-32030225D01*
X-985559Y-31965192D01*
X-972503Y-31944618D01*
X-972499Y-31944610D01*
X-968727Y-31938666D01*
X-965079Y-31928421D01*
X-910243Y-31774425D01*
X-910242Y-31774420D01*
X-907881Y-31767790D01*
X-886404Y-31587680D01*
X-905364Y-31407288D01*
X-963818Y-31235579D01*
X-986492Y-31198724D01*
X-1005149Y-31130225D01*
X-985559Y-31065192D01*
X-972503Y-31044618D01*
X-972499Y-31044610D01*
X-968727Y-31038666D01*
X-965079Y-31028421D01*
X-910243Y-30874425D01*
X-910242Y-30874420D01*
X-907881Y-30867790D01*
X-886404Y-30687680D01*
X-905364Y-30507288D01*
X-963818Y-30335579D01*
X-986492Y-30298724D01*
X-1005149Y-30230225D01*
X-985559Y-30165192D01*
X-972503Y-30144618D01*
X-972499Y-30144610D01*
X-968727Y-30138666D01*
X-965079Y-30128421D01*
X-910243Y-29974425D01*
X-910242Y-29974420D01*
X-907881Y-29967790D01*
X-886404Y-29787680D01*
X-884219Y-29787941D01*
X-866777Y-29730060D01*
X-812793Y-29683948D01*
X-761264Y-29672930D01*
X762086Y-29672930D01*
X830207Y-29692932D01*
G37*
%TD.AperFunction*%
%TA.AperFunction,NonConductor*%
G36*
X832001Y-58245000D02*
G01*
X878494Y-58298656D01*
X889190Y-58337827D01*
X905364Y-58491712D01*
X963818Y-58663421D01*
X986492Y-58700276D01*
X1005149Y-58768775D01*
X985559Y-58833808D01*
X972503Y-58854382D01*
X972499Y-58854390D01*
X968727Y-58860334D01*
X966365Y-58866966D01*
X966365Y-58866967D01*
X910243Y-59024575D01*
X910242Y-59024580D01*
X907881Y-59031210D01*
X886404Y-59211320D01*
X905364Y-59391712D01*
X963818Y-59563421D01*
X986492Y-59600276D01*
X1005149Y-59668775D01*
X985559Y-59733808D01*
X972503Y-59754382D01*
X972499Y-59754390D01*
X968727Y-59760334D01*
X966365Y-59766966D01*
X966365Y-59766967D01*
X910243Y-59924575D01*
X910242Y-59924580D01*
X907881Y-59931210D01*
X886404Y-60111320D01*
X905364Y-60291712D01*
X963818Y-60463421D01*
X986492Y-60500276D01*
X1005149Y-60568775D01*
X985559Y-60633808D01*
X972503Y-60654382D01*
X972499Y-60654390D01*
X968727Y-60660334D01*
X966365Y-60666966D01*
X966365Y-60666967D01*
X910243Y-60824575D01*
X910242Y-60824580D01*
X907881Y-60831210D01*
X886404Y-61011320D01*
X905364Y-61191712D01*
X963818Y-61363421D01*
X986492Y-61400276D01*
X1005149Y-61468775D01*
X985559Y-61533808D01*
X972503Y-61554382D01*
X972499Y-61554390D01*
X968727Y-61560334D01*
X966365Y-61566966D01*
X966365Y-61566967D01*
X910243Y-61724575D01*
X910242Y-61724580D01*
X907881Y-61731210D01*
X886404Y-61911320D01*
X905364Y-62091712D01*
X963818Y-62263421D01*
X986492Y-62300276D01*
X1005149Y-62368775D01*
X985559Y-62433808D01*
X972503Y-62454382D01*
X972499Y-62454390D01*
X968727Y-62460334D01*
X966365Y-62466966D01*
X966365Y-62466967D01*
X910243Y-62624575D01*
X910242Y-62624580D01*
X907881Y-62631210D01*
X886404Y-62811320D01*
X905364Y-62991712D01*
X963818Y-63163421D01*
X986492Y-63200276D01*
X1005149Y-63268775D01*
X985559Y-63333808D01*
X972503Y-63354382D01*
X972499Y-63354390D01*
X968727Y-63360334D01*
X966365Y-63366966D01*
X966365Y-63366967D01*
X910243Y-63524575D01*
X910242Y-63524580D01*
X907881Y-63531210D01*
X886404Y-63711320D01*
X905364Y-63891712D01*
X963818Y-64063421D01*
X986492Y-64100276D01*
X1005149Y-64168775D01*
X985559Y-64233808D01*
X972503Y-64254382D01*
X972499Y-64254390D01*
X968727Y-64260334D01*
X966365Y-64266966D01*
X966365Y-64266967D01*
X910243Y-64424575D01*
X910242Y-64424580D01*
X907881Y-64431210D01*
X886404Y-64611320D01*
X905364Y-64791712D01*
X963818Y-64963421D01*
X986492Y-65000276D01*
X1005149Y-65068775D01*
X985559Y-65133808D01*
X972503Y-65154382D01*
X972499Y-65154390D01*
X968727Y-65160334D01*
X966365Y-65166966D01*
X966365Y-65166967D01*
X910243Y-65324575D01*
X910242Y-65324580D01*
X907881Y-65331210D01*
X886404Y-65511320D01*
X905364Y-65691712D01*
X963818Y-65863421D01*
X986492Y-65900276D01*
X1005149Y-65968775D01*
X985559Y-66033808D01*
X972503Y-66054382D01*
X972499Y-66054390D01*
X968727Y-66060334D01*
X966365Y-66066966D01*
X966365Y-66066967D01*
X910243Y-66224575D01*
X910242Y-66224580D01*
X907881Y-66231210D01*
X907048Y-66238198D01*
X907047Y-66238201D01*
X897542Y-66317912D01*
X886404Y-66411320D01*
X887140Y-66418323D01*
X887140Y-66418324D01*
X893261Y-66476556D01*
X905364Y-66591712D01*
X963818Y-66763421D01*
X986492Y-66800276D01*
X1005149Y-66868775D01*
X985559Y-66933808D01*
X972503Y-66954382D01*
X972499Y-66954390D01*
X968727Y-66960334D01*
X966365Y-66966966D01*
X966365Y-66966967D01*
X910243Y-67124575D01*
X910242Y-67124580D01*
X907881Y-67131210D01*
X907048Y-67138198D01*
X907047Y-67138201D01*
X892368Y-67261302D01*
X886404Y-67311320D01*
X905364Y-67491712D01*
X963818Y-67663421D01*
X986492Y-67700276D01*
X1005149Y-67768775D01*
X985559Y-67833808D01*
X972503Y-67854382D01*
X972499Y-67854390D01*
X968727Y-67860334D01*
X966365Y-67866966D01*
X966365Y-67866967D01*
X910243Y-68024575D01*
X910242Y-68024580D01*
X907881Y-68031210D01*
X907048Y-68038198D01*
X907047Y-68038201D01*
X899927Y-68097913D01*
X871999Y-68163186D01*
X813216Y-68202999D01*
X774813Y-68208994D01*
X-774391Y-68208994D01*
X-842512Y-68188992D01*
X-889005Y-68135336D01*
X-899701Y-68096165D01*
X-904628Y-68049288D01*
X-904628Y-68049286D01*
X-905364Y-68042288D01*
X-963818Y-67870579D01*
X-986492Y-67833724D01*
X-1005149Y-67765225D01*
X-985559Y-67700192D01*
X-972503Y-67679618D01*
X-972499Y-67679610D01*
X-968727Y-67673666D01*
X-965079Y-67663421D01*
X-910243Y-67509425D01*
X-910242Y-67509420D01*
X-907881Y-67502790D01*
X-886404Y-67322680D01*
X-899954Y-67193759D01*
X-904628Y-67149288D01*
X-904629Y-67149286D01*
X-905364Y-67142288D01*
X-963818Y-66970579D01*
X-986492Y-66933724D01*
X-1005149Y-66865225D01*
X-985559Y-66800192D01*
X-972503Y-66779618D01*
X-972499Y-66779610D01*
X-968727Y-66773666D01*
X-965079Y-66763421D01*
X-910243Y-66609425D01*
X-910242Y-66609420D01*
X-907881Y-66602790D01*
X-886404Y-66422680D01*
X-890421Y-66384457D01*
X-904628Y-66249288D01*
X-904629Y-66249286D01*
X-905364Y-66242288D01*
X-963818Y-66070579D01*
X-986492Y-66033724D01*
X-1005149Y-65965225D01*
X-985559Y-65900192D01*
X-972503Y-65879618D01*
X-972499Y-65879610D01*
X-968727Y-65873666D01*
X-965079Y-65863421D01*
X-910243Y-65709425D01*
X-910242Y-65709420D01*
X-907881Y-65702790D01*
X-886404Y-65522680D01*
X-905364Y-65342288D01*
X-963818Y-65170579D01*
X-986492Y-65133724D01*
X-1005149Y-65065225D01*
X-985559Y-65000192D01*
X-972503Y-64979618D01*
X-972499Y-64979610D01*
X-968727Y-64973666D01*
X-965079Y-64963421D01*
X-910243Y-64809425D01*
X-910242Y-64809420D01*
X-907881Y-64802790D01*
X-886404Y-64622680D01*
X-905364Y-64442288D01*
X-963818Y-64270579D01*
X-986492Y-64233724D01*
X-1005149Y-64165225D01*
X-985559Y-64100192D01*
X-972503Y-64079618D01*
X-972499Y-64079610D01*
X-968727Y-64073666D01*
X-965079Y-64063421D01*
X-910243Y-63909425D01*
X-910242Y-63909420D01*
X-907881Y-63902790D01*
X-886404Y-63722680D01*
X-905364Y-63542288D01*
X-963818Y-63370579D01*
X-986492Y-63333724D01*
X-1005149Y-63265225D01*
X-985559Y-63200192D01*
X-972503Y-63179618D01*
X-972499Y-63179610D01*
X-968727Y-63173666D01*
X-965079Y-63163421D01*
X-910243Y-63009425D01*
X-910242Y-63009420D01*
X-907881Y-63002790D01*
X-886404Y-62822680D01*
X-905364Y-62642288D01*
X-963818Y-62470579D01*
X-986492Y-62433724D01*
X-1005149Y-62365225D01*
X-985559Y-62300192D01*
X-972503Y-62279618D01*
X-972499Y-62279610D01*
X-968727Y-62273666D01*
X-965079Y-62263421D01*
X-910243Y-62109425D01*
X-910242Y-62109420D01*
X-907881Y-62102790D01*
X-886404Y-61922680D01*
X-905364Y-61742288D01*
X-963818Y-61570579D01*
X-986492Y-61533724D01*
X-1005149Y-61465225D01*
X-985559Y-61400192D01*
X-972503Y-61379618D01*
X-972499Y-61379610D01*
X-968727Y-61373666D01*
X-965079Y-61363421D01*
X-910243Y-61209425D01*
X-910242Y-61209420D01*
X-907881Y-61202790D01*
X-886404Y-61022680D01*
X-905364Y-60842288D01*
X-963818Y-60670579D01*
X-986492Y-60633724D01*
X-1005149Y-60565225D01*
X-985559Y-60500192D01*
X-972503Y-60479618D01*
X-972499Y-60479610D01*
X-968727Y-60473666D01*
X-965079Y-60463421D01*
X-910243Y-60309425D01*
X-910242Y-60309420D01*
X-907881Y-60302790D01*
X-886404Y-60122680D01*
X-905364Y-59942288D01*
X-963818Y-59770579D01*
X-986492Y-59733724D01*
X-1005149Y-59665225D01*
X-985559Y-59600192D01*
X-972503Y-59579618D01*
X-972499Y-59579610D01*
X-968727Y-59573666D01*
X-965079Y-59563421D01*
X-910243Y-59409425D01*
X-910242Y-59409420D01*
X-907881Y-59402790D01*
X-886404Y-59222680D01*
X-905364Y-59042288D01*
X-963818Y-58870579D01*
X-986492Y-58833724D01*
X-1005149Y-58765225D01*
X-985559Y-58700192D01*
X-972503Y-58679618D01*
X-972499Y-58679610D01*
X-968727Y-58673666D01*
X-965079Y-58663421D01*
X-910243Y-58509425D01*
X-910242Y-58509420D01*
X-907881Y-58502790D01*
X-902201Y-58455161D01*
X-888002Y-58336079D01*
X-860075Y-58270806D01*
X-801291Y-58230993D01*
X-762888Y-58224998D01*
X763880Y-58224998D01*
X832001Y-58245000D01*
G37*
%TD.AperFunction*%
%TA.AperFunction,NonConductor*%
G36*
X55173153Y-1869369D02*
G01*
X55205080Y-1872103D01*
X55226081Y-1873902D01*
X55232417Y-1874606D01*
X158347236Y-15990637D01*
X158349823Y-15991019D01*
X158503990Y-16015393D01*
X158537167Y-16020639D01*
X158542311Y-16021562D01*
X158720395Y-16057351D01*
X158725484Y-16058483D01*
X158900816Y-16101334D01*
X158905840Y-16102673D01*
X158979586Y-16123956D01*
X159078210Y-16152419D01*
X159083108Y-16153943D01*
X159252437Y-16210445D01*
X159257239Y-16212158D01*
X159423367Y-16275262D01*
X159428079Y-16277163D01*
X159590812Y-16346695D01*
X159595476Y-16348801D01*
X159754689Y-16424617D01*
X159759248Y-16426902D01*
X159781176Y-16438455D01*
X159914864Y-16508889D01*
X159919291Y-16511337D01*
X160071074Y-16599299D01*
X160075394Y-16601920D01*
X160133399Y-16638726D01*
X160223241Y-16695734D01*
X160227448Y-16698523D01*
X160371181Y-16798019D01*
X160375265Y-16800969D01*
X160514732Y-16906001D01*
X160518686Y-16909104D01*
X160653737Y-17019521D01*
X160657535Y-17022754D01*
X160760328Y-17113863D01*
X160788003Y-17138392D01*
X160791689Y-17141792D01*
X160917408Y-17262488D01*
X160920954Y-17266031D01*
X160928762Y-17274148D01*
X161041789Y-17391651D01*
X161045188Y-17395327D01*
X161160961Y-17525693D01*
X161164199Y-17529490D01*
X161274745Y-17664432D01*
X161277853Y-17668384D01*
X161383006Y-17807733D01*
X161385953Y-17811804D01*
X161485619Y-17955481D01*
X161488390Y-17959652D01*
X161582362Y-18107434D01*
X161584968Y-18111720D01*
X161673097Y-18263452D01*
X161675538Y-18267856D01*
X161752039Y-18412717D01*
X161757674Y-18423388D01*
X161759959Y-18427937D01*
X161835091Y-18585315D01*
X161835929Y-18587071D01*
X161838036Y-18591726D01*
X161875215Y-18678504D01*
X161907718Y-18754371D01*
X161909639Y-18759119D01*
X161965225Y-18905028D01*
X161972894Y-18925158D01*
X161974629Y-18930008D01*
X162031291Y-19099265D01*
X162032826Y-19104188D01*
X162082738Y-19276508D01*
X162084081Y-19281530D01*
X162127085Y-19456746D01*
X162128223Y-19461835D01*
X162164195Y-19639941D01*
X162165124Y-19645087D01*
X162194924Y-19832382D01*
X162195308Y-19834970D01*
X165008279Y-40236243D01*
X168625942Y-66473603D01*
X168626306Y-66476496D01*
X168667173Y-66835431D01*
X168667705Y-66841347D01*
X168690584Y-67187204D01*
X168690820Y-67190778D01*
X168691073Y-67196719D01*
X168697622Y-67543883D01*
X168697594Y-67549807D01*
X168687892Y-67894191D01*
X168687588Y-67900083D01*
X168661947Y-68241352D01*
X168661370Y-68247198D01*
X168620093Y-68584933D01*
X168619250Y-68590715D01*
X168562642Y-68924495D01*
X168561543Y-68930181D01*
X168525436Y-69096196D01*
X168489888Y-69259638D01*
X168488528Y-69265263D01*
X168402152Y-69589847D01*
X168400545Y-69595376D01*
X168299719Y-69914758D01*
X168297869Y-69920184D01*
X168182915Y-70233845D01*
X168180833Y-70239151D01*
X168052021Y-70546726D01*
X168049732Y-70551862D01*
X168006004Y-70644321D01*
X167907390Y-70852830D01*
X167904850Y-70857903D01*
X167749260Y-71151859D01*
X167746499Y-71156803D01*
X167578002Y-71443228D01*
X167575037Y-71448018D01*
X167429381Y-71671974D01*
X167393910Y-71726512D01*
X167390722Y-71731181D01*
X167197308Y-72001234D01*
X167193913Y-72005757D01*
X166988463Y-72267004D01*
X166984863Y-72271375D01*
X166767780Y-72523246D01*
X166763980Y-72527460D01*
X166535477Y-72769620D01*
X166531500Y-72773649D01*
X166291937Y-73005594D01*
X166287761Y-73009457D01*
X166037475Y-73230720D01*
X166033094Y-73234419D01*
X165772345Y-73444598D01*
X165767781Y-73448108D01*
X165496899Y-73646743D01*
X165492155Y-73650057D01*
X165211440Y-73836710D01*
X165206525Y-73839817D01*
X164978753Y-73976549D01*
X164916266Y-74014060D01*
X164916254Y-74014067D01*
X164911179Y-74016956D01*
X164611643Y-74178364D01*
X164606442Y-74181012D01*
X164297892Y-74329159D01*
X164292526Y-74331582D01*
X163975295Y-74466004D01*
X163969788Y-74468187D01*
X163893816Y-74496245D01*
X163644077Y-74588477D01*
X163638490Y-74590393D01*
X163449528Y-74650211D01*
X163304591Y-74696092D01*
X163298868Y-74697756D01*
X163052624Y-74763071D01*
X162949741Y-74790360D01*
X162946876Y-74791084D01*
X58940212Y-99760839D01*
X55013244Y-100703619D01*
X55007514Y-100704828D01*
X55003058Y-100705291D01*
X54971538Y-100713602D01*
X54968989Y-100714244D01*
X54940253Y-100721143D01*
X54940252Y-100721143D01*
X54940246Y-100721120D01*
X54930165Y-100723629D01*
X54921368Y-100725239D01*
X54907241Y-100730165D01*
X54897917Y-100733015D01*
X54886450Y-100736038D01*
X54871653Y-100742295D01*
X54864070Y-100745216D01*
X54793542Y-100769807D01*
X54788268Y-100771517D01*
X54778526Y-100774440D01*
X54763335Y-100778998D01*
X54758942Y-100781098D01*
X54758140Y-100781408D01*
X54753356Y-100783378D01*
X54753395Y-100783469D01*
X54749292Y-100785236D01*
X54745050Y-100786715D01*
X54720982Y-100799176D01*
X54717398Y-100800960D01*
X54641852Y-100837077D01*
X54636747Y-100839379D01*
X54617421Y-100847584D01*
X54617410Y-100847589D01*
X54612934Y-100849490D01*
X54608797Y-100852061D01*
X54608334Y-100852301D01*
X54603304Y-100855055D01*
X54603348Y-100855132D01*
X54599447Y-100857350D01*
X54595404Y-100859283D01*
X54591678Y-100861768D01*
X54591673Y-100861771D01*
X54572980Y-100874239D01*
X54569586Y-100876424D01*
X54498797Y-100920409D01*
X54494001Y-100923243D01*
X54471452Y-100935897D01*
X54467628Y-100938901D01*
X54467289Y-100939127D01*
X54462436Y-100942525D01*
X54462487Y-100942595D01*
X54458863Y-100945221D01*
X54455048Y-100947592D01*
X54451606Y-100950480D01*
X54451607Y-100950480D01*
X54434445Y-100964883D01*
X54431280Y-100967453D01*
X54365672Y-101018990D01*
X54361208Y-101022339D01*
X54344108Y-101034587D01*
X54344104Y-101034590D01*
X54340145Y-101037426D01*
X54336673Y-101040834D01*
X54336181Y-101041247D01*
X54332011Y-101044912D01*
X54332072Y-101044980D01*
X54328754Y-101047991D01*
X54325225Y-101050763D01*
X54322125Y-101054007D01*
X54306565Y-101070290D01*
X54303725Y-101073168D01*
X54243754Y-101132023D01*
X54239745Y-101135790D01*
X54220317Y-101153255D01*
X54217242Y-101157026D01*
X54216508Y-101157796D01*
X54213243Y-101161377D01*
X54213320Y-101161445D01*
X54210357Y-101164798D01*
X54207156Y-101167940D01*
X54204435Y-101171500D01*
X54204430Y-101171506D01*
X54190644Y-101189545D01*
X54188184Y-101192661D01*
X54145241Y-101245325D01*
X54136903Y-101254576D01*
X54134638Y-101256852D01*
X54134630Y-101256861D01*
X54131199Y-101260309D01*
X54128336Y-101264248D01*
X54128335Y-101264249D01*
X54118290Y-101278069D01*
X54114021Y-101283612D01*
X54102095Y-101298238D01*
X54099786Y-101302074D01*
X54099784Y-101302077D01*
X54097513Y-101305850D01*
X54091483Y-101314950D01*
X52858172Y-103011746D01*
X52856573Y-103013898D01*
X52849114Y-103023714D01*
X52843170Y-103030960D01*
X52810787Y-103067571D01*
X52801444Y-103077071D01*
X52773057Y-103103031D01*
X52762810Y-103111455D01*
X52731890Y-103134251D01*
X52720814Y-103141550D01*
X52687678Y-103160962D01*
X52675871Y-103167066D01*
X52640769Y-103182927D01*
X52628317Y-103187776D01*
X52575284Y-103205250D01*
X52568875Y-103207174D01*
X16461959Y-113011358D01*
X16456403Y-113012731D01*
X16412948Y-113022416D01*
X16409422Y-113023202D01*
X16398087Y-113025190D01*
X16387487Y-113026553D01*
X16365120Y-113029430D01*
X16353719Y-113030372D01*
X16320629Y-113031597D01*
X16309229Y-113031502D01*
X16276206Y-113029729D01*
X16264876Y-113028605D01*
X16236284Y-113024455D01*
X16232172Y-113023858D01*
X16220963Y-113021708D01*
X16188767Y-113014007D01*
X16177762Y-113010840D01*
X16146281Y-113000208D01*
X16135561Y-112996033D01*
X16091560Y-112976537D01*
X16086342Y-112974080D01*
X16015786Y-112938870D01*
X14198353Y-112031911D01*
X14192494Y-112028791D01*
X14164528Y-112012935D01*
X14144073Y-112001337D01*
X14132875Y-111994183D01*
X14132869Y-111994179D01*
X14101741Y-111971893D01*
X14091441Y-111963669D01*
X14068271Y-111943092D01*
X14062957Y-111938373D01*
X14053599Y-111929146D01*
X14027947Y-111901066D01*
X14019613Y-111890929D01*
X13997030Y-111860346D01*
X13989783Y-111849377D01*
X13970468Y-111816536D01*
X13964380Y-111804820D01*
X13948531Y-111769970D01*
X13943675Y-111757600D01*
X13926113Y-111704835D01*
X13924173Y-111698447D01*
X12491203Y-106486522D01*
X12080324Y-104992094D01*
X31907765Y-104992094D01*
X31926388Y-105228727D01*
X31927542Y-105233534D01*
X31927543Y-105233540D01*
X31957632Y-105358868D01*
X31981800Y-105459533D01*
X31983693Y-105464104D01*
X31983694Y-105464106D01*
X31990411Y-105480321D01*
X32072635Y-105678829D01*
X32196658Y-105881215D01*
X32350814Y-106061708D01*
X32531307Y-106215864D01*
X32733693Y-106339887D01*
X32738263Y-106341780D01*
X32738265Y-106341781D01*
X32948416Y-106428828D01*
X32952989Y-106430722D01*
X33034088Y-106450192D01*
X33178982Y-106484979D01*
X33178988Y-106484980D01*
X33183795Y-106486134D01*
X33420428Y-106504757D01*
X33657061Y-106486134D01*
X33661868Y-106484980D01*
X33661874Y-106484979D01*
X33806768Y-106450192D01*
X33887867Y-106430722D01*
X33892440Y-106428828D01*
X34102591Y-106341781D01*
X34102593Y-106341780D01*
X34107163Y-106339887D01*
X34309549Y-106215864D01*
X34490042Y-106061708D01*
X34644198Y-105881215D01*
X34768221Y-105678829D01*
X34850446Y-105480321D01*
X34857162Y-105464106D01*
X34857163Y-105464104D01*
X34859056Y-105459533D01*
X34883224Y-105358868D01*
X34913313Y-105233540D01*
X34913314Y-105233534D01*
X34914468Y-105228727D01*
X34933091Y-104992094D01*
X34914468Y-104755461D01*
X34913314Y-104750654D01*
X34913313Y-104750648D01*
X34878526Y-104605754D01*
X34859056Y-104524655D01*
X34768221Y-104305359D01*
X34644198Y-104102973D01*
X34640985Y-104099211D01*
X34493250Y-103926236D01*
X34490042Y-103922480D01*
X34309549Y-103768324D01*
X34107163Y-103644301D01*
X34102593Y-103642408D01*
X34102591Y-103642407D01*
X33892440Y-103555360D01*
X33892438Y-103555359D01*
X33887867Y-103553466D01*
X33806768Y-103533996D01*
X33661874Y-103499209D01*
X33661868Y-103499208D01*
X33657061Y-103498054D01*
X33420428Y-103479431D01*
X33183795Y-103498054D01*
X33178988Y-103499208D01*
X33178982Y-103499209D01*
X33034088Y-103533996D01*
X32952989Y-103553466D01*
X32948418Y-103555359D01*
X32948416Y-103555360D01*
X32738265Y-103642407D01*
X32738263Y-103642408D01*
X32733693Y-103644301D01*
X32531307Y-103768324D01*
X32350814Y-103922480D01*
X32347606Y-103926236D01*
X32199871Y-104099211D01*
X32196658Y-104102973D01*
X32072635Y-104305359D01*
X31981800Y-104524655D01*
X31962330Y-104605754D01*
X31927543Y-104750648D01*
X31927542Y-104750654D01*
X31926388Y-104755461D01*
X31908238Y-104986083D01*
X31907765Y-104992094D01*
X12080324Y-104992094D01*
X4464648Y-77292745D01*
X136717648Y-77292745D01*
X136737506Y-77545069D01*
X136738660Y-77549876D01*
X136738661Y-77549882D01*
X136776163Y-77706090D01*
X136796592Y-77791181D01*
X136798485Y-77795752D01*
X136798486Y-77795754D01*
X136835348Y-77884745D01*
X136893451Y-78025019D01*
X137025698Y-78240826D01*
X137190077Y-78433288D01*
X137382539Y-78597667D01*
X137598346Y-78729914D01*
X137602916Y-78731807D01*
X137602920Y-78731809D01*
X137827611Y-78824879D01*
X137832184Y-78826773D01*
X137917275Y-78847202D01*
X138073483Y-78884704D01*
X138073489Y-78884705D01*
X138078296Y-78885859D01*
X138330620Y-78905717D01*
X138582944Y-78885859D01*
X138587751Y-78884705D01*
X138587757Y-78884704D01*
X138743965Y-78847202D01*
X138829056Y-78826773D01*
X138833629Y-78824879D01*
X139058320Y-78731809D01*
X139058324Y-78731807D01*
X139062894Y-78729914D01*
X139278701Y-78597667D01*
X139471163Y-78433288D01*
X139635542Y-78240826D01*
X139767789Y-78025019D01*
X139825893Y-77884745D01*
X139862754Y-77795754D01*
X139862755Y-77795752D01*
X139864648Y-77791181D01*
X139885077Y-77706090D01*
X139922579Y-77549882D01*
X139922580Y-77549876D01*
X139923734Y-77545069D01*
X139943592Y-77292745D01*
X139923734Y-77040421D01*
X139913249Y-76996745D01*
X139865803Y-76799121D01*
X139864648Y-76794309D01*
X139834248Y-76720917D01*
X139769684Y-76565045D01*
X139769682Y-76565041D01*
X139767789Y-76560471D01*
X139635542Y-76344664D01*
X139471163Y-76152202D01*
X139278701Y-75987823D01*
X139062894Y-75855576D01*
X139058324Y-75853683D01*
X139058320Y-75853681D01*
X138833629Y-75760611D01*
X138833627Y-75760610D01*
X138829056Y-75758717D01*
X138743965Y-75738288D01*
X138587757Y-75700786D01*
X138587751Y-75700785D01*
X138582944Y-75699631D01*
X138330620Y-75679773D01*
X138078296Y-75699631D01*
X138073489Y-75700785D01*
X138073483Y-75700786D01*
X137917275Y-75738288D01*
X137832184Y-75758717D01*
X137827613Y-75760610D01*
X137827611Y-75760611D01*
X137602920Y-75853681D01*
X137602916Y-75853683D01*
X137598346Y-75855576D01*
X137382539Y-75987823D01*
X137190077Y-76152202D01*
X137025698Y-76344664D01*
X136893451Y-76560471D01*
X136891558Y-76565041D01*
X136891556Y-76565045D01*
X136826992Y-76720917D01*
X136796592Y-76794309D01*
X136795437Y-76799121D01*
X136747992Y-76996745D01*
X136737506Y-77040421D01*
X136717648Y-77292745D01*
X4464648Y-77292745D01*
X2529222Y-70253310D01*
X2527931Y-70248196D01*
X2518373Y-70206692D01*
X2516361Y-70195780D01*
X2511544Y-70161162D01*
X2510476Y-70149599D01*
X2508249Y-70101290D01*
X2508115Y-70095488D01*
X2508115Y-68725696D01*
X2508117Y-68724926D01*
X2508536Y-68656316D01*
X2508591Y-68647342D01*
X2506125Y-68638713D01*
X2506124Y-68638708D01*
X2500476Y-68618946D01*
X2496898Y-68602185D01*
X2493985Y-68581842D01*
X2493982Y-68581832D01*
X2492710Y-68572949D01*
X2482094Y-68549599D01*
X2475650Y-68532083D01*
X2473583Y-68524850D01*
X2476034Y-68447962D01*
X2489757Y-68409425D01*
X2489758Y-68409420D01*
X2492119Y-68402790D01*
X2503476Y-68307553D01*
X2511021Y-68244272D01*
X2513596Y-68222680D01*
X2511667Y-68204327D01*
X2495372Y-68049288D01*
X2495371Y-68049286D01*
X2494636Y-68042288D01*
X2436182Y-67870579D01*
X2413508Y-67833724D01*
X2394851Y-67765225D01*
X2414441Y-67700192D01*
X2427497Y-67679618D01*
X2427501Y-67679610D01*
X2431273Y-67673666D01*
X2434921Y-67663421D01*
X2489757Y-67509425D01*
X2489758Y-67509420D01*
X2492119Y-67502790D01*
X2513596Y-67322680D01*
X2500046Y-67193759D01*
X2495372Y-67149288D01*
X2495371Y-67149286D01*
X2494636Y-67142288D01*
X2436182Y-66970579D01*
X2413508Y-66933724D01*
X2394851Y-66865225D01*
X2414441Y-66800192D01*
X2427497Y-66779618D01*
X2427501Y-66779610D01*
X2431273Y-66773666D01*
X2434921Y-66763421D01*
X2489757Y-66609425D01*
X2489758Y-66609420D01*
X2492119Y-66602790D01*
X2513596Y-66422680D01*
X2509579Y-66384457D01*
X2495372Y-66249288D01*
X2495371Y-66249286D01*
X2494636Y-66242288D01*
X2436182Y-66070579D01*
X2413508Y-66033724D01*
X2394851Y-65965225D01*
X2414441Y-65900192D01*
X2427497Y-65879618D01*
X2427501Y-65879610D01*
X2431273Y-65873666D01*
X2434921Y-65863421D01*
X2489757Y-65709425D01*
X2489758Y-65709420D01*
X2492119Y-65702790D01*
X2513596Y-65522680D01*
X2494636Y-65342288D01*
X2436182Y-65170579D01*
X2413508Y-65133724D01*
X2394851Y-65065225D01*
X2414441Y-65000192D01*
X2427497Y-64979618D01*
X2427501Y-64979610D01*
X2431273Y-64973666D01*
X2434921Y-64963421D01*
X2489757Y-64809425D01*
X2489758Y-64809420D01*
X2492119Y-64802790D01*
X2513596Y-64622680D01*
X2494636Y-64442288D01*
X2436182Y-64270579D01*
X2413508Y-64233724D01*
X2394851Y-64165225D01*
X2414441Y-64100192D01*
X2427497Y-64079618D01*
X2427501Y-64079610D01*
X2431273Y-64073666D01*
X2434921Y-64063421D01*
X2489757Y-63909425D01*
X2489758Y-63909420D01*
X2492119Y-63902790D01*
X2513596Y-63722680D01*
X2494636Y-63542288D01*
X2436182Y-63370579D01*
X2413508Y-63333724D01*
X2394851Y-63265225D01*
X2414441Y-63200192D01*
X2427497Y-63179618D01*
X2427501Y-63179610D01*
X2431273Y-63173666D01*
X2434921Y-63163421D01*
X2489757Y-63009425D01*
X2489758Y-63009420D01*
X2492119Y-63002790D01*
X2513596Y-62822680D01*
X2494636Y-62642288D01*
X2436182Y-62470579D01*
X2413508Y-62433724D01*
X2394851Y-62365225D01*
X2414441Y-62300192D01*
X2427497Y-62279618D01*
X2427501Y-62279610D01*
X2431273Y-62273666D01*
X2434921Y-62263421D01*
X2489757Y-62109425D01*
X2489758Y-62109420D01*
X2492119Y-62102790D01*
X2513596Y-61922680D01*
X2494636Y-61742288D01*
X2436182Y-61570579D01*
X2413508Y-61533724D01*
X2394851Y-61465225D01*
X2414441Y-61400192D01*
X2427497Y-61379618D01*
X2427501Y-61379610D01*
X2431273Y-61373666D01*
X2434921Y-61363421D01*
X2489757Y-61209425D01*
X2489758Y-61209420D01*
X2492119Y-61202790D01*
X2513596Y-61022680D01*
X2494636Y-60842288D01*
X2436182Y-60670579D01*
X2413508Y-60633724D01*
X2394851Y-60565225D01*
X2414441Y-60500192D01*
X2427497Y-60479618D01*
X2427501Y-60479610D01*
X2431273Y-60473666D01*
X2434921Y-60463421D01*
X2489757Y-60309425D01*
X2489758Y-60309420D01*
X2492119Y-60302790D01*
X2513596Y-60122680D01*
X2494636Y-59942288D01*
X2436182Y-59770579D01*
X2413508Y-59733724D01*
X2394851Y-59665225D01*
X2414441Y-59600192D01*
X2427497Y-59579618D01*
X2427501Y-59579610D01*
X2431273Y-59573666D01*
X2434921Y-59563421D01*
X2489757Y-59409425D01*
X2489758Y-59409420D01*
X2492119Y-59402790D01*
X2513596Y-59222680D01*
X2494636Y-59042288D01*
X2436182Y-58870579D01*
X2413508Y-58833724D01*
X2394851Y-58765225D01*
X2414441Y-58700192D01*
X2427497Y-58679618D01*
X2427501Y-58679610D01*
X2431273Y-58673666D01*
X2434921Y-58663421D01*
X2489757Y-58509425D01*
X2489758Y-58509420D01*
X2492119Y-58502790D01*
X2497799Y-58455161D01*
X2512762Y-58329673D01*
X2513596Y-58322680D01*
X2508144Y-58270806D01*
X2495372Y-58149288D01*
X2495371Y-58149286D01*
X2494636Y-58142288D01*
X2456972Y-58031649D01*
X2453954Y-57960716D01*
X2461515Y-57939202D01*
X2466008Y-57932271D01*
X2473356Y-57907702D01*
X2480018Y-57890257D01*
X2487099Y-57875175D01*
X2487099Y-57875174D01*
X2490914Y-57867049D01*
X2495458Y-57837865D01*
X2499241Y-57821149D01*
X2505129Y-57801460D01*
X2507702Y-57792857D01*
X2507912Y-57758441D01*
X2507945Y-57757669D01*
X2508115Y-57756574D01*
X2508115Y-57725707D01*
X2508117Y-57724937D01*
X2508567Y-57651287D01*
X2508567Y-57651286D01*
X2508591Y-57647346D01*
X2508207Y-57646001D01*
X2508115Y-57644655D01*
X2508114Y-57018427D01*
X4074177Y-57018427D01*
X4092800Y-57255060D01*
X4093954Y-57259867D01*
X4093955Y-57259873D01*
X4124044Y-57385201D01*
X4148212Y-57485866D01*
X4150105Y-57490437D01*
X4150106Y-57490439D01*
X4156823Y-57506654D01*
X4239047Y-57705162D01*
X4363070Y-57907548D01*
X4366283Y-57911310D01*
X4469063Y-58031649D01*
X4517226Y-58088041D01*
X4697719Y-58242197D01*
X4900105Y-58366220D01*
X4904675Y-58368113D01*
X4904677Y-58368114D01*
X5114828Y-58455161D01*
X5119401Y-58457055D01*
X5200500Y-58476525D01*
X5345394Y-58511312D01*
X5345400Y-58511313D01*
X5350207Y-58512467D01*
X5586840Y-58531090D01*
X5823473Y-58512467D01*
X5828280Y-58511313D01*
X5828286Y-58511312D01*
X5973180Y-58476525D01*
X6054279Y-58457055D01*
X6058852Y-58455161D01*
X6269003Y-58368114D01*
X6269005Y-58368113D01*
X6273575Y-58366220D01*
X6475961Y-58242197D01*
X6656454Y-58088041D01*
X6704618Y-58031649D01*
X6807397Y-57911310D01*
X6810610Y-57907548D01*
X6934633Y-57705162D01*
X7016858Y-57506654D01*
X7023574Y-57490439D01*
X7023575Y-57490437D01*
X7025468Y-57485866D01*
X7049636Y-57385201D01*
X7079725Y-57259873D01*
X7079726Y-57259867D01*
X7080880Y-57255060D01*
X7099503Y-57018427D01*
X7080880Y-56781794D01*
X7079726Y-56776987D01*
X7079725Y-56776981D01*
X7044938Y-56632087D01*
X7025468Y-56550988D01*
X6934633Y-56331692D01*
X6810610Y-56129306D01*
X6656454Y-55948813D01*
X6475961Y-55794657D01*
X6273575Y-55670634D01*
X6269005Y-55668741D01*
X6269003Y-55668740D01*
X6058852Y-55581693D01*
X6058850Y-55581692D01*
X6054279Y-55579799D01*
X5973180Y-55560329D01*
X5828286Y-55525542D01*
X5828280Y-55525541D01*
X5823473Y-55524387D01*
X5586840Y-55505764D01*
X5350207Y-55524387D01*
X5345400Y-55525541D01*
X5345394Y-55525542D01*
X5200500Y-55560329D01*
X5119401Y-55579799D01*
X5114830Y-55581692D01*
X5114828Y-55581693D01*
X4904677Y-55668740D01*
X4904675Y-55668741D01*
X4900105Y-55670634D01*
X4697719Y-55794657D01*
X4517226Y-55948813D01*
X4363070Y-56129306D01*
X4239047Y-56331692D01*
X4148212Y-56550988D01*
X4128742Y-56632087D01*
X4093955Y-56776981D01*
X4093954Y-56776987D01*
X4092800Y-56781794D01*
X4074650Y-57012416D01*
X4074177Y-57018427D01*
X2508114Y-57018427D01*
X2508093Y-40173619D01*
X2508095Y-40172849D01*
X2508514Y-40104245D01*
X2508569Y-40095274D01*
X2504336Y-40080462D01*
X2500452Y-40066869D01*
X2496875Y-40050113D01*
X2493961Y-40029767D01*
X2493961Y-40029766D01*
X2492688Y-40020880D01*
X2488971Y-40012704D01*
X2482894Y-39999337D01*
X2472909Y-39929046D01*
X2478897Y-39904922D01*
X2489757Y-39874425D01*
X2489758Y-39874420D01*
X2492119Y-39867790D01*
X2513596Y-39687680D01*
X2509734Y-39650931D01*
X2495372Y-39514288D01*
X2495371Y-39514286D01*
X2494636Y-39507288D01*
X2436182Y-39335579D01*
X2413508Y-39298724D01*
X2394851Y-39230225D01*
X2414441Y-39165192D01*
X2427497Y-39144618D01*
X2427501Y-39144610D01*
X2431273Y-39138666D01*
X2434921Y-39128421D01*
X2489757Y-38974425D01*
X2489758Y-38974420D01*
X2492119Y-38967790D01*
X2513596Y-38787680D01*
X2494636Y-38607288D01*
X2436182Y-38435579D01*
X2413508Y-38398724D01*
X2394851Y-38330225D01*
X2414441Y-38265192D01*
X2427497Y-38244618D01*
X2427501Y-38244610D01*
X2431273Y-38238666D01*
X2434921Y-38228421D01*
X2489757Y-38074425D01*
X2489758Y-38074420D01*
X2492119Y-38067790D01*
X2513596Y-37887680D01*
X2494636Y-37707288D01*
X2436182Y-37535579D01*
X2413508Y-37498724D01*
X2394851Y-37430225D01*
X2414441Y-37365192D01*
X2427497Y-37344618D01*
X2427501Y-37344610D01*
X2431273Y-37338666D01*
X2434921Y-37328421D01*
X2489757Y-37174425D01*
X2489758Y-37174420D01*
X2492119Y-37167790D01*
X2513596Y-36987680D01*
X2494636Y-36807288D01*
X2436182Y-36635579D01*
X2413508Y-36598724D01*
X2394851Y-36530225D01*
X2414441Y-36465192D01*
X2427497Y-36444618D01*
X2427501Y-36444610D01*
X2431273Y-36438666D01*
X2434921Y-36428421D01*
X2489757Y-36274425D01*
X2489758Y-36274420D01*
X2492119Y-36267790D01*
X2513596Y-36087680D01*
X2494636Y-35907288D01*
X2436182Y-35735579D01*
X2413508Y-35698724D01*
X2394851Y-35630225D01*
X2414441Y-35565192D01*
X2427497Y-35544618D01*
X2427501Y-35544610D01*
X2431273Y-35538666D01*
X2434921Y-35528421D01*
X2489757Y-35374425D01*
X2489758Y-35374420D01*
X2492119Y-35367790D01*
X2513596Y-35187680D01*
X2494636Y-35007288D01*
X2436182Y-34835579D01*
X2413508Y-34798724D01*
X2394851Y-34730225D01*
X2414441Y-34665192D01*
X2427497Y-34644618D01*
X2427501Y-34644610D01*
X2431273Y-34638666D01*
X2434921Y-34628421D01*
X2489757Y-34474425D01*
X2489758Y-34474420D01*
X2492119Y-34467790D01*
X2513596Y-34287680D01*
X2494636Y-34107288D01*
X2436182Y-33935579D01*
X2413508Y-33898724D01*
X2394851Y-33830225D01*
X2414441Y-33765192D01*
X2427497Y-33744618D01*
X2427501Y-33744610D01*
X2431273Y-33738666D01*
X2434921Y-33728421D01*
X2489757Y-33574425D01*
X2489758Y-33574420D01*
X2492119Y-33567790D01*
X2513596Y-33387680D01*
X2494636Y-33207288D01*
X2436182Y-33035579D01*
X2413508Y-32998724D01*
X2394851Y-32930225D01*
X2414441Y-32865192D01*
X2427497Y-32844618D01*
X2427501Y-32844610D01*
X2431273Y-32838666D01*
X2434921Y-32828421D01*
X2489757Y-32674425D01*
X2489758Y-32674420D01*
X2492119Y-32667790D01*
X2513596Y-32487680D01*
X2494636Y-32307288D01*
X2436182Y-32135579D01*
X2413508Y-32098724D01*
X2394851Y-32030225D01*
X2414441Y-31965192D01*
X2427497Y-31944618D01*
X2427501Y-31944610D01*
X2431273Y-31938666D01*
X2434921Y-31928421D01*
X2489757Y-31774425D01*
X2489758Y-31774420D01*
X2492119Y-31767790D01*
X2513596Y-31587680D01*
X2494636Y-31407288D01*
X2436182Y-31235579D01*
X2413508Y-31198724D01*
X2394851Y-31130225D01*
X2414441Y-31065192D01*
X2427497Y-31044618D01*
X2427501Y-31044610D01*
X2431273Y-31038666D01*
X2434921Y-31028421D01*
X2489757Y-30874425D01*
X2489758Y-30874420D01*
X2492119Y-30867790D01*
X2513596Y-30687680D01*
X2494636Y-30507288D01*
X2436182Y-30335579D01*
X2413508Y-30298724D01*
X2394851Y-30230225D01*
X2414441Y-30165192D01*
X2427497Y-30144618D01*
X2427501Y-30144610D01*
X2431273Y-30138666D01*
X2434921Y-30128421D01*
X2489757Y-29974425D01*
X2489758Y-29974420D01*
X2492119Y-29967790D01*
X2513596Y-29787680D01*
X2503638Y-29692932D01*
X2495372Y-29614288D01*
X2495371Y-29614286D01*
X2494636Y-29607288D01*
X2453617Y-29486794D01*
X2450599Y-29415862D01*
X2458515Y-29393338D01*
X2461104Y-29387735D01*
X2465986Y-29380203D01*
X2470274Y-29365867D01*
X2473332Y-29355640D01*
X2479994Y-29338194D01*
X2487076Y-29323109D01*
X2490892Y-29314982D01*
X2495436Y-29285800D01*
X2499219Y-29269081D01*
X2505107Y-29249394D01*
X2505108Y-29249391D01*
X2507680Y-29240789D01*
X2507890Y-29206374D01*
X2507923Y-29205602D01*
X2508093Y-29204507D01*
X2508093Y-29173632D01*
X2508095Y-29172862D01*
X2508545Y-29099214D01*
X2508545Y-29099213D01*
X2508569Y-29095278D01*
X2508185Y-29093934D01*
X2508093Y-29092589D01*
X2508093Y-28460562D01*
X2508110Y-28458521D01*
X2508220Y-28451732D01*
X2508618Y-28443563D01*
X2512340Y-28397855D01*
X2513924Y-28385724D01*
X2520206Y-28350892D01*
X2522953Y-28338990D01*
X2527385Y-28323308D01*
X2532573Y-28304951D01*
X2536459Y-28293381D01*
X2549353Y-28260379D01*
X2554355Y-28249210D01*
X2577520Y-28203577D01*
X2580420Y-28198195D01*
X2766094Y-27872737D01*
X4404895Y-25000160D01*
X8757323Y-17371000D01*
X128069425Y-17371000D01*
X128089283Y-17623324D01*
X128090437Y-17628131D01*
X128090438Y-17628137D01*
X128100101Y-17668384D01*
X128148369Y-17869436D01*
X128150262Y-17874007D01*
X128150263Y-17874009D01*
X128204569Y-18005114D01*
X128245228Y-18103274D01*
X128377475Y-18319081D01*
X128541854Y-18511543D01*
X128734316Y-18675922D01*
X128950123Y-18808169D01*
X128954693Y-18810062D01*
X128954697Y-18810064D01*
X129179388Y-18903134D01*
X129183961Y-18905028D01*
X129267726Y-18925138D01*
X129425260Y-18962959D01*
X129425266Y-18962960D01*
X129430073Y-18964114D01*
X129682397Y-18983972D01*
X129934721Y-18964114D01*
X129939528Y-18962960D01*
X129939534Y-18962959D01*
X130097068Y-18925138D01*
X130180833Y-18905028D01*
X130185406Y-18903134D01*
X130410097Y-18810064D01*
X130410101Y-18810062D01*
X130414671Y-18808169D01*
X130630478Y-18675922D01*
X130822940Y-18511543D01*
X130987319Y-18319081D01*
X131119566Y-18103274D01*
X131160226Y-18005114D01*
X131214531Y-17874009D01*
X131214532Y-17874007D01*
X131216425Y-17869436D01*
X131264693Y-17668384D01*
X131274356Y-17628137D01*
X131274357Y-17628131D01*
X131275511Y-17623324D01*
X131295369Y-17371000D01*
X131275511Y-17118676D01*
X131265026Y-17075000D01*
X131235590Y-16952393D01*
X131216425Y-16872564D01*
X131186776Y-16800984D01*
X131121461Y-16643300D01*
X131121459Y-16643296D01*
X131119566Y-16638726D01*
X130987319Y-16422919D01*
X130822940Y-16230457D01*
X130630478Y-16066078D01*
X130414671Y-15933831D01*
X130410101Y-15931938D01*
X130410097Y-15931936D01*
X130185406Y-15838866D01*
X130185404Y-15838865D01*
X130180833Y-15836972D01*
X130095742Y-15816543D01*
X129939534Y-15779041D01*
X129939528Y-15779040D01*
X129934721Y-15777886D01*
X129682397Y-15758028D01*
X129430073Y-15777886D01*
X129425266Y-15779040D01*
X129425260Y-15779041D01*
X129269052Y-15816543D01*
X129183961Y-15836972D01*
X129179390Y-15838865D01*
X129179388Y-15838866D01*
X128954697Y-15931936D01*
X128954693Y-15931938D01*
X128950123Y-15933831D01*
X128734316Y-16066078D01*
X128541854Y-16230457D01*
X128377475Y-16422919D01*
X128245228Y-16638726D01*
X128243335Y-16643296D01*
X128243333Y-16643300D01*
X128178018Y-16800984D01*
X128148369Y-16872564D01*
X128129204Y-16952393D01*
X128099769Y-17075000D01*
X128089283Y-17118676D01*
X128069425Y-17371000D01*
X8757323Y-17371000D01*
X12425196Y-10941762D01*
X14171337Y-10941762D01*
X14189960Y-11178395D01*
X14191114Y-11183202D01*
X14191115Y-11183208D01*
X14221204Y-11308536D01*
X14245372Y-11409201D01*
X14247265Y-11413772D01*
X14247266Y-11413774D01*
X14253983Y-11429989D01*
X14336207Y-11628497D01*
X14460230Y-11830883D01*
X14614386Y-12011376D01*
X14794879Y-12165532D01*
X14997265Y-12289555D01*
X15001835Y-12291448D01*
X15001837Y-12291449D01*
X15211988Y-12378496D01*
X15216561Y-12380390D01*
X15297660Y-12399860D01*
X15442554Y-12434647D01*
X15442560Y-12434648D01*
X15447367Y-12435802D01*
X15684000Y-12454425D01*
X15920633Y-12435802D01*
X15925440Y-12434648D01*
X15925446Y-12434647D01*
X16070340Y-12399860D01*
X16151439Y-12380390D01*
X16156012Y-12378496D01*
X16366163Y-12291449D01*
X16366165Y-12291448D01*
X16370735Y-12289555D01*
X16573121Y-12165532D01*
X16753614Y-12011376D01*
X16907770Y-11830883D01*
X17031793Y-11628497D01*
X17114018Y-11429989D01*
X17120734Y-11413774D01*
X17120735Y-11413772D01*
X17122628Y-11409201D01*
X17146796Y-11308536D01*
X17176885Y-11183208D01*
X17176886Y-11183202D01*
X17178040Y-11178395D01*
X17196663Y-10941762D01*
X17178040Y-10705129D01*
X17176886Y-10700322D01*
X17176885Y-10700316D01*
X17142098Y-10555422D01*
X17122628Y-10474323D01*
X17031793Y-10255027D01*
X16907770Y-10052641D01*
X16753614Y-9872148D01*
X16573121Y-9717992D01*
X16370735Y-9593969D01*
X16366165Y-9592076D01*
X16366163Y-9592075D01*
X16156012Y-9505028D01*
X16156010Y-9505027D01*
X16151439Y-9503134D01*
X16070340Y-9483664D01*
X15925446Y-9448877D01*
X15925440Y-9448876D01*
X15920633Y-9447722D01*
X15684000Y-9429099D01*
X15447367Y-9447722D01*
X15442560Y-9448876D01*
X15442554Y-9448877D01*
X15297660Y-9483664D01*
X15216561Y-9503134D01*
X15211990Y-9505027D01*
X15211988Y-9505028D01*
X15001837Y-9592075D01*
X15001835Y-9592076D01*
X14997265Y-9593969D01*
X14794879Y-9717992D01*
X14614386Y-9872148D01*
X14460230Y-10052641D01*
X14336207Y-10255027D01*
X14245372Y-10474323D01*
X14225902Y-10555422D01*
X14191115Y-10700316D01*
X14191114Y-10700322D01*
X14189960Y-10705129D01*
X14171810Y-10935751D01*
X14171337Y-10941762D01*
X12425196Y-10941762D01*
X15844432Y-4948348D01*
X15846576Y-4944730D01*
X15862331Y-4919138D01*
X15868190Y-4910454D01*
X15892896Y-4876930D01*
X15900800Y-4867250D01*
X15924863Y-4840597D01*
X15933621Y-4831808D01*
X15960065Y-4807763D01*
X15969586Y-4799922D01*
X15998191Y-4778625D01*
X16008390Y-4771778D01*
X16038936Y-4753366D01*
X16049751Y-4747546D01*
X16081952Y-4732194D01*
X16093306Y-4727448D01*
X16126895Y-4715296D01*
X16138720Y-4711664D01*
X16173443Y-4702841D01*
X16185658Y-4700374D01*
X16221403Y-4694978D01*
X16233908Y-4693724D01*
X16264837Y-4692175D01*
X16286603Y-4691085D01*
X16292904Y-4690927D01*
X46435334Y-4690927D01*
X46441847Y-4691095D01*
X46442819Y-4691145D01*
X46447652Y-4691772D01*
X46452519Y-4691648D01*
X46452524Y-4691648D01*
X46479146Y-4690968D01*
X46482362Y-4690927D01*
X46510729Y-4690927D01*
X46512675Y-4690648D01*
X46526092Y-4690558D01*
X46530131Y-4690791D01*
X46530142Y-4690791D01*
X46535003Y-4691071D01*
X46551873Y-4689431D01*
X46560836Y-4688882D01*
X46574684Y-4688529D01*
X46579096Y-4687782D01*
X46579104Y-4687781D01*
X46588494Y-4686190D01*
X46597338Y-4685013D01*
X46645165Y-4680364D01*
X46653039Y-4679848D01*
X46660351Y-4679598D01*
X46667977Y-4679338D01*
X46667981Y-4679338D01*
X46672833Y-4679172D01*
X46683147Y-4677203D01*
X46694557Y-4675564D01*
X46701925Y-4674848D01*
X46706279Y-4673786D01*
X46706282Y-4673786D01*
X46722033Y-4669946D01*
X46728215Y-4668603D01*
X46781535Y-4658427D01*
X46789314Y-4657194D01*
X46797373Y-4656174D01*
X46808996Y-4654703D01*
X46819049Y-4651808D01*
X46830300Y-4649121D01*
X46833125Y-4648582D01*
X46833133Y-4648580D01*
X46837529Y-4647741D01*
X46857105Y-4641018D01*
X46863167Y-4639106D01*
X46901715Y-4628007D01*
X46915042Y-4624942D01*
X46919918Y-4624096D01*
X46943675Y-4616061D01*
X46949164Y-4614344D01*
X46953090Y-4613214D01*
X46970258Y-4608270D01*
X46975486Y-4605919D01*
X46986783Y-4601480D01*
X54983511Y-1896744D01*
X54986913Y-1895649D01*
X55009458Y-1888743D01*
X55019129Y-1886196D01*
X55061866Y-1876743D01*
X55074404Y-1874628D01*
X55110949Y-1870345D01*
X55123633Y-1869504D01*
X55136020Y-1869309D01*
X55160431Y-1868925D01*
X55173153Y-1869369D01*
G37*
%TD.AperFunction*%
%TA.AperFunction,NonConductor*%
G36*
X-55132016Y-1869125D02*
G01*
X-55100550Y-1871438D01*
X-55095330Y-1871822D01*
X-55082710Y-1873394D01*
X-55046446Y-1879782D01*
X-55034028Y-1882623D01*
X-55012376Y-1888744D01*
X-54984052Y-1896751D01*
X-54982931Y-1897068D01*
X-54976838Y-1898958D01*
X-46994130Y-4598960D01*
X-46988003Y-4601211D01*
X-46987199Y-4601530D01*
X-46982829Y-4603669D01*
X-46952709Y-4613011D01*
X-46949717Y-4613981D01*
X-46922748Y-4623103D01*
X-46920848Y-4623456D01*
X-46908135Y-4627661D01*
X-46904349Y-4629190D01*
X-46904344Y-4629191D01*
X-46899839Y-4631011D01*
X-46895109Y-4632115D01*
X-46895107Y-4632116D01*
X-46892328Y-4632765D01*
X-46883322Y-4634867D01*
X-46874683Y-4637212D01*
X-46861460Y-4641313D01*
X-46857032Y-4642021D01*
X-46857031Y-4642021D01*
X-46853016Y-4642663D01*
X-46847628Y-4643524D01*
X-46838874Y-4645244D01*
X-46792057Y-4656174D01*
X-46784422Y-4658210D01*
X-46770112Y-4662513D01*
X-46770108Y-4662514D01*
X-46765452Y-4663914D01*
X-46755060Y-4665354D01*
X-46743721Y-4667458D01*
X-46736522Y-4669138D01*
X-46732060Y-4669528D01*
X-46732052Y-4669529D01*
X-46719595Y-4670616D01*
X-46715915Y-4670938D01*
X-46709617Y-4671648D01*
X-46661864Y-4678261D01*
X-46655842Y-4679095D01*
X-46648050Y-4680425D01*
X-46633425Y-4683395D01*
X-46628654Y-4684364D01*
X-46619539Y-4684783D01*
X-46618186Y-4684845D01*
X-46606690Y-4685903D01*
X-46603811Y-4686302D01*
X-46603807Y-4686302D01*
X-46599369Y-4686917D01*
X-46587187Y-4686861D01*
X-46578658Y-4686822D01*
X-46572298Y-4686954D01*
X-46532243Y-4688794D01*
X-46518653Y-4690159D01*
X-46513721Y-4690927D01*
X-46488697Y-4690927D01*
X-46482914Y-4691060D01*
X-46461018Y-4692066D01*
X-46455273Y-4691511D01*
X-46443156Y-4690927D01*
X-16287534Y-4690927D01*
X-16283327Y-4690997D01*
X-16281494Y-4691058D01*
X-16253310Y-4692000D01*
X-16242852Y-4692786D01*
X-16201509Y-4697631D01*
X-16189178Y-4699701D01*
X-16154098Y-4707396D01*
X-16142133Y-4710646D01*
X-16108149Y-4721697D01*
X-16096624Y-4726079D01*
X-16063931Y-4740379D01*
X-16052927Y-4745847D01*
X-16021814Y-4763248D01*
X-16011401Y-4769757D01*
X-15982108Y-4790119D01*
X-15972350Y-4797635D01*
X-15945164Y-4820778D01*
X-15936146Y-4829253D01*
X-15911262Y-4855054D01*
X-15903074Y-4864431D01*
X-15880665Y-4892815D01*
X-15873394Y-4903035D01*
X-15844974Y-4947524D01*
X-15841735Y-4952886D01*
X-2606371Y-28152480D01*
X-2575191Y-28207133D01*
X-2574179Y-28208942D01*
X-2570935Y-28214852D01*
X-2567240Y-28222133D01*
X-2547803Y-28263723D01*
X-2543168Y-28275043D01*
X-2531360Y-28308417D01*
X-2527848Y-28320118D01*
X-2519335Y-28354448D01*
X-2516972Y-28366438D01*
X-2511817Y-28401485D01*
X-2510626Y-28413681D01*
X-2508136Y-28464717D01*
X-2507986Y-28470857D01*
X-2507986Y-29156228D01*
X-2507988Y-29156998D01*
X-2508462Y-29234582D01*
X-2505996Y-29243211D01*
X-2505995Y-29243216D01*
X-2500347Y-29262978D01*
X-2496769Y-29279739D01*
X-2493856Y-29300082D01*
X-2493853Y-29300092D01*
X-2492581Y-29308975D01*
X-2481965Y-29332325D01*
X-2475522Y-29349837D01*
X-2468474Y-29374495D01*
X-2463686Y-29382084D01*
X-2460021Y-29390277D01*
X-2462235Y-29391267D01*
X-2446371Y-29447014D01*
X-2453668Y-29488224D01*
X-2492119Y-29596210D01*
X-2513596Y-29776320D01*
X-2494636Y-29956712D01*
X-2436182Y-30128421D01*
X-2413508Y-30165276D01*
X-2394851Y-30233775D01*
X-2414441Y-30298808D01*
X-2427497Y-30319382D01*
X-2427501Y-30319390D01*
X-2431273Y-30325334D01*
X-2433635Y-30331966D01*
X-2433635Y-30331967D01*
X-2489757Y-30489575D01*
X-2489758Y-30489580D01*
X-2492119Y-30496210D01*
X-2513596Y-30676320D01*
X-2494636Y-30856712D01*
X-2436182Y-31028421D01*
X-2413508Y-31065276D01*
X-2394851Y-31133775D01*
X-2414441Y-31198808D01*
X-2427497Y-31219382D01*
X-2427501Y-31219390D01*
X-2431273Y-31225334D01*
X-2433635Y-31231966D01*
X-2433635Y-31231967D01*
X-2489757Y-31389575D01*
X-2489758Y-31389580D01*
X-2492119Y-31396210D01*
X-2513596Y-31576320D01*
X-2494636Y-31756712D01*
X-2436182Y-31928421D01*
X-2413508Y-31965276D01*
X-2394851Y-32033775D01*
X-2414441Y-32098808D01*
X-2427497Y-32119382D01*
X-2427501Y-32119390D01*
X-2431273Y-32125334D01*
X-2433635Y-32131966D01*
X-2433635Y-32131967D01*
X-2489757Y-32289575D01*
X-2489758Y-32289580D01*
X-2492119Y-32296210D01*
X-2513596Y-32476320D01*
X-2494636Y-32656712D01*
X-2436182Y-32828421D01*
X-2413508Y-32865276D01*
X-2394851Y-32933775D01*
X-2414441Y-32998808D01*
X-2427497Y-33019382D01*
X-2427501Y-33019390D01*
X-2431273Y-33025334D01*
X-2433635Y-33031966D01*
X-2433635Y-33031967D01*
X-2489757Y-33189575D01*
X-2489758Y-33189580D01*
X-2492119Y-33196210D01*
X-2513596Y-33376320D01*
X-2494636Y-33556712D01*
X-2436182Y-33728421D01*
X-2413508Y-33765276D01*
X-2394851Y-33833775D01*
X-2414441Y-33898808D01*
X-2427497Y-33919382D01*
X-2427501Y-33919390D01*
X-2431273Y-33925334D01*
X-2433635Y-33931966D01*
X-2433635Y-33931967D01*
X-2489757Y-34089575D01*
X-2489758Y-34089580D01*
X-2492119Y-34096210D01*
X-2513596Y-34276320D01*
X-2494636Y-34456712D01*
X-2436182Y-34628421D01*
X-2413508Y-34665276D01*
X-2394851Y-34733775D01*
X-2414441Y-34798808D01*
X-2427497Y-34819382D01*
X-2427501Y-34819390D01*
X-2431273Y-34825334D01*
X-2433635Y-34831966D01*
X-2433635Y-34831967D01*
X-2489757Y-34989575D01*
X-2489758Y-34989580D01*
X-2492119Y-34996210D01*
X-2513596Y-35176320D01*
X-2494636Y-35356712D01*
X-2436182Y-35528421D01*
X-2413508Y-35565276D01*
X-2394851Y-35633775D01*
X-2414441Y-35698808D01*
X-2427497Y-35719382D01*
X-2427501Y-35719390D01*
X-2431273Y-35725334D01*
X-2433635Y-35731966D01*
X-2433635Y-35731967D01*
X-2489757Y-35889575D01*
X-2489758Y-35889580D01*
X-2492119Y-35896210D01*
X-2513596Y-36076320D01*
X-2494636Y-36256712D01*
X-2436182Y-36428421D01*
X-2413508Y-36465276D01*
X-2394851Y-36533775D01*
X-2414441Y-36598808D01*
X-2427497Y-36619382D01*
X-2427501Y-36619390D01*
X-2431273Y-36625334D01*
X-2433635Y-36631966D01*
X-2433635Y-36631967D01*
X-2489757Y-36789575D01*
X-2489758Y-36789580D01*
X-2492119Y-36796210D01*
X-2513596Y-36976320D01*
X-2494636Y-37156712D01*
X-2436182Y-37328421D01*
X-2413508Y-37365276D01*
X-2394851Y-37433775D01*
X-2414441Y-37498808D01*
X-2427497Y-37519382D01*
X-2427501Y-37519390D01*
X-2431273Y-37525334D01*
X-2433635Y-37531966D01*
X-2433635Y-37531967D01*
X-2489757Y-37689575D01*
X-2489758Y-37689580D01*
X-2492119Y-37696210D01*
X-2513596Y-37876320D01*
X-2494636Y-38056712D01*
X-2436182Y-38228421D01*
X-2413508Y-38265276D01*
X-2394851Y-38333775D01*
X-2414441Y-38398808D01*
X-2427497Y-38419382D01*
X-2427501Y-38419390D01*
X-2431273Y-38425334D01*
X-2433635Y-38431966D01*
X-2433635Y-38431967D01*
X-2489757Y-38589575D01*
X-2489758Y-38589580D01*
X-2492119Y-38596210D01*
X-2513596Y-38776320D01*
X-2494636Y-38956712D01*
X-2436182Y-39128421D01*
X-2413508Y-39165276D01*
X-2394851Y-39233775D01*
X-2414441Y-39298808D01*
X-2427497Y-39319382D01*
X-2427501Y-39319390D01*
X-2431273Y-39325334D01*
X-2433635Y-39331966D01*
X-2433635Y-39331967D01*
X-2489757Y-39489575D01*
X-2489758Y-39489580D01*
X-2492119Y-39496210D01*
X-2513596Y-39676320D01*
X-2494636Y-39856712D01*
X-2488606Y-39874425D01*
X-2478191Y-39905020D01*
X-2475173Y-39975953D01*
X-2483414Y-39999173D01*
X-2486968Y-40006743D01*
X-2490785Y-40014874D01*
X-2495328Y-40044054D01*
X-2499112Y-40060775D01*
X-2505000Y-40080462D01*
X-2505001Y-40080465D01*
X-2507573Y-40089067D01*
X-2507628Y-40098042D01*
X-2507628Y-40098043D01*
X-2507783Y-40123472D01*
X-2507816Y-40124254D01*
X-2507986Y-40125349D01*
X-2507986Y-40156224D01*
X-2507988Y-40156994D01*
X-2508462Y-40234578D01*
X-2508078Y-40235922D01*
X-2507986Y-40237267D01*
X-2507986Y-57708296D01*
X-2507988Y-57709066D01*
X-2508462Y-57786650D01*
X-2505996Y-57795279D01*
X-2505995Y-57795284D01*
X-2500347Y-57815046D01*
X-2496769Y-57831807D01*
X-2493856Y-57852150D01*
X-2493853Y-57852160D01*
X-2492581Y-57861043D01*
X-2481965Y-57884393D01*
X-2475522Y-57901905D01*
X-2468474Y-57926563D01*
X-2463682Y-57934158D01*
X-2461079Y-57939977D01*
X-2451520Y-58010327D01*
X-2457395Y-58033693D01*
X-2492119Y-58131210D01*
X-2513596Y-58311320D01*
X-2494636Y-58491712D01*
X-2436182Y-58663421D01*
X-2413508Y-58700276D01*
X-2394851Y-58768775D01*
X-2414441Y-58833808D01*
X-2427497Y-58854382D01*
X-2427501Y-58854390D01*
X-2431273Y-58860334D01*
X-2433635Y-58866966D01*
X-2433635Y-58866967D01*
X-2489757Y-59024575D01*
X-2489758Y-59024580D01*
X-2492119Y-59031210D01*
X-2513596Y-59211320D01*
X-2494636Y-59391712D01*
X-2436182Y-59563421D01*
X-2413508Y-59600276D01*
X-2394851Y-59668775D01*
X-2414441Y-59733808D01*
X-2427497Y-59754382D01*
X-2427501Y-59754390D01*
X-2431273Y-59760334D01*
X-2433635Y-59766966D01*
X-2433635Y-59766967D01*
X-2489757Y-59924575D01*
X-2489758Y-59924580D01*
X-2492119Y-59931210D01*
X-2513596Y-60111320D01*
X-2494636Y-60291712D01*
X-2436182Y-60463421D01*
X-2413508Y-60500276D01*
X-2394851Y-60568775D01*
X-2414441Y-60633808D01*
X-2427497Y-60654382D01*
X-2427501Y-60654390D01*
X-2431273Y-60660334D01*
X-2433635Y-60666966D01*
X-2433635Y-60666967D01*
X-2489757Y-60824575D01*
X-2489758Y-60824580D01*
X-2492119Y-60831210D01*
X-2513596Y-61011320D01*
X-2494636Y-61191712D01*
X-2436182Y-61363421D01*
X-2413508Y-61400276D01*
X-2394851Y-61468775D01*
X-2414441Y-61533808D01*
X-2427497Y-61554382D01*
X-2427501Y-61554390D01*
X-2431273Y-61560334D01*
X-2433635Y-61566966D01*
X-2433635Y-61566967D01*
X-2489757Y-61724575D01*
X-2489758Y-61724580D01*
X-2492119Y-61731210D01*
X-2513596Y-61911320D01*
X-2494636Y-62091712D01*
X-2436182Y-62263421D01*
X-2413508Y-62300276D01*
X-2394851Y-62368775D01*
X-2414441Y-62433808D01*
X-2427497Y-62454382D01*
X-2427501Y-62454390D01*
X-2431273Y-62460334D01*
X-2433635Y-62466966D01*
X-2433635Y-62466967D01*
X-2489757Y-62624575D01*
X-2489758Y-62624580D01*
X-2492119Y-62631210D01*
X-2513596Y-62811320D01*
X-2494636Y-62991712D01*
X-2436182Y-63163421D01*
X-2413508Y-63200276D01*
X-2394851Y-63268775D01*
X-2414441Y-63333808D01*
X-2427497Y-63354382D01*
X-2427501Y-63354390D01*
X-2431273Y-63360334D01*
X-2433635Y-63366966D01*
X-2433635Y-63366967D01*
X-2489757Y-63524575D01*
X-2489758Y-63524580D01*
X-2492119Y-63531210D01*
X-2513596Y-63711320D01*
X-2494636Y-63891712D01*
X-2436182Y-64063421D01*
X-2413508Y-64100276D01*
X-2394851Y-64168775D01*
X-2414441Y-64233808D01*
X-2427497Y-64254382D01*
X-2427501Y-64254390D01*
X-2431273Y-64260334D01*
X-2433635Y-64266966D01*
X-2433635Y-64266967D01*
X-2489757Y-64424575D01*
X-2489758Y-64424580D01*
X-2492119Y-64431210D01*
X-2513596Y-64611320D01*
X-2494636Y-64791712D01*
X-2436182Y-64963421D01*
X-2413508Y-65000276D01*
X-2394851Y-65068775D01*
X-2414441Y-65133808D01*
X-2427497Y-65154382D01*
X-2427501Y-65154390D01*
X-2431273Y-65160334D01*
X-2433635Y-65166966D01*
X-2433635Y-65166967D01*
X-2489757Y-65324575D01*
X-2489758Y-65324580D01*
X-2492119Y-65331210D01*
X-2513596Y-65511320D01*
X-2494636Y-65691712D01*
X-2436182Y-65863421D01*
X-2413508Y-65900276D01*
X-2394851Y-65968775D01*
X-2414441Y-66033808D01*
X-2427497Y-66054382D01*
X-2427501Y-66054390D01*
X-2431273Y-66060334D01*
X-2433635Y-66066966D01*
X-2433635Y-66066967D01*
X-2489757Y-66224575D01*
X-2489758Y-66224580D01*
X-2492119Y-66231210D01*
X-2492952Y-66238198D01*
X-2492953Y-66238201D01*
X-2502458Y-66317912D01*
X-2513596Y-66411320D01*
X-2512860Y-66418323D01*
X-2512860Y-66418324D01*
X-2506739Y-66476556D01*
X-2494636Y-66591712D01*
X-2436182Y-66763421D01*
X-2413508Y-66800276D01*
X-2394851Y-66868775D01*
X-2414441Y-66933808D01*
X-2427497Y-66954382D01*
X-2427501Y-66954390D01*
X-2431273Y-66960334D01*
X-2433635Y-66966966D01*
X-2433635Y-66966967D01*
X-2489757Y-67124575D01*
X-2489758Y-67124580D01*
X-2492119Y-67131210D01*
X-2492952Y-67138198D01*
X-2492953Y-67138201D01*
X-2507632Y-67261302D01*
X-2513596Y-67311320D01*
X-2494636Y-67491712D01*
X-2436182Y-67663421D01*
X-2413508Y-67700276D01*
X-2394851Y-67768775D01*
X-2414441Y-67833808D01*
X-2427497Y-67854382D01*
X-2427501Y-67854390D01*
X-2431273Y-67860334D01*
X-2433635Y-67866966D01*
X-2433635Y-67866967D01*
X-2489757Y-68024575D01*
X-2489758Y-68024580D01*
X-2492119Y-68031210D01*
X-2492952Y-68038198D01*
X-2492953Y-68038201D01*
X-2500073Y-68097913D01*
X-2513596Y-68211320D01*
X-2512860Y-68218323D01*
X-2512860Y-68218324D01*
X-2495512Y-68383375D01*
X-2494636Y-68391712D01*
X-2492368Y-68398374D01*
X-2492367Y-68398379D01*
X-2474823Y-68449915D01*
X-2471805Y-68520847D01*
X-2480045Y-68544066D01*
X-2490785Y-68566942D01*
X-2493586Y-68584933D01*
X-2495328Y-68596122D01*
X-2499112Y-68612843D01*
X-2505000Y-68632530D01*
X-2505001Y-68632533D01*
X-2507573Y-68641135D01*
X-2507628Y-68650110D01*
X-2507628Y-68650111D01*
X-2507783Y-68675540D01*
X-2507816Y-68676322D01*
X-2507986Y-68677417D01*
X-2507986Y-68708292D01*
X-2507988Y-68709062D01*
X-2508462Y-68786646D01*
X-2508078Y-68787990D01*
X-2507986Y-68789335D01*
X-2507986Y-70096786D01*
X-2508097Y-70102068D01*
X-2509884Y-70144660D01*
X-2510836Y-70155712D01*
X-2515366Y-70190361D01*
X-2517401Y-70201794D01*
X-2527885Y-70248196D01*
X-2528057Y-70248958D01*
X-2529466Y-70254587D01*
X-4902236Y-78884704D01*
X-13924064Y-111698440D01*
X-13926003Y-111704826D01*
X-13943570Y-111757609D01*
X-13948428Y-111769983D01*
X-13964270Y-111804816D01*
X-13970358Y-111816531D01*
X-13989676Y-111849376D01*
X-13996921Y-111860342D01*
X-14019514Y-111890940D01*
X-14027844Y-111901071D01*
X-14053493Y-111929148D01*
X-14062854Y-111938378D01*
X-14091324Y-111963661D01*
X-14101642Y-111971899D01*
X-14132762Y-111994179D01*
X-14143959Y-112001333D01*
X-14175392Y-112019155D01*
X-14192370Y-112028781D01*
X-14198252Y-112031913D01*
X-16086248Y-112974086D01*
X-16091467Y-112976543D01*
X-16135447Y-112996030D01*
X-16146159Y-113000203D01*
X-16177667Y-113010845D01*
X-16188659Y-113014008D01*
X-16201786Y-113017148D01*
X-16220851Y-113021707D01*
X-16232055Y-113023856D01*
X-16236181Y-113024455D01*
X-16264774Y-113028606D01*
X-16276101Y-113029729D01*
X-16309117Y-113031502D01*
X-16320519Y-113031597D01*
X-16353612Y-113030372D01*
X-16365014Y-113029430D01*
X-16397976Y-113025190D01*
X-16409306Y-113023203D01*
X-16456277Y-113012734D01*
X-16461884Y-113011349D01*
X-45995236Y-104992094D01*
X-34932987Y-104992094D01*
X-34914364Y-105228727D01*
X-34913210Y-105233534D01*
X-34913209Y-105233540D01*
X-34883120Y-105358868D01*
X-34858952Y-105459533D01*
X-34857059Y-105464104D01*
X-34857058Y-105464106D01*
X-34850341Y-105480321D01*
X-34768117Y-105678829D01*
X-34644094Y-105881215D01*
X-34489938Y-106061708D01*
X-34309445Y-106215864D01*
X-34107059Y-106339887D01*
X-34102489Y-106341780D01*
X-34102487Y-106341781D01*
X-33892336Y-106428828D01*
X-33887763Y-106430722D01*
X-33806664Y-106450192D01*
X-33661770Y-106484979D01*
X-33661764Y-106484980D01*
X-33656957Y-106486134D01*
X-33420324Y-106504757D01*
X-33183691Y-106486134D01*
X-33178884Y-106484980D01*
X-33178878Y-106484979D01*
X-33033984Y-106450192D01*
X-32952885Y-106430722D01*
X-32948312Y-106428828D01*
X-32738161Y-106341781D01*
X-32738159Y-106341780D01*
X-32733589Y-106339887D01*
X-32531203Y-106215864D01*
X-32350710Y-106061708D01*
X-32196554Y-105881215D01*
X-32072531Y-105678829D01*
X-31990306Y-105480321D01*
X-31983590Y-105464106D01*
X-31983589Y-105464104D01*
X-31981696Y-105459533D01*
X-31957528Y-105358868D01*
X-31927439Y-105233540D01*
X-31927438Y-105233534D01*
X-31926284Y-105228727D01*
X-31907661Y-104992094D01*
X-31926284Y-104755461D01*
X-31927438Y-104750654D01*
X-31927439Y-104750648D01*
X-31962226Y-104605754D01*
X-31981696Y-104524655D01*
X-32072531Y-104305359D01*
X-32196554Y-104102973D01*
X-32199767Y-104099211D01*
X-32347502Y-103926236D01*
X-32350710Y-103922480D01*
X-32531203Y-103768324D01*
X-32733589Y-103644301D01*
X-32738159Y-103642408D01*
X-32738161Y-103642407D01*
X-32948312Y-103555360D01*
X-32948314Y-103555359D01*
X-32952885Y-103553466D01*
X-33033984Y-103533996D01*
X-33178878Y-103499209D01*
X-33178884Y-103499208D01*
X-33183691Y-103498054D01*
X-33420324Y-103479431D01*
X-33656957Y-103498054D01*
X-33661764Y-103499208D01*
X-33661770Y-103499209D01*
X-33806664Y-103533996D01*
X-33887763Y-103553466D01*
X-33892334Y-103555359D01*
X-33892336Y-103555360D01*
X-34102487Y-103642407D01*
X-34102489Y-103642408D01*
X-34107059Y-103644301D01*
X-34309445Y-103768324D01*
X-34489938Y-103922480D01*
X-34493146Y-103926236D01*
X-34640881Y-104099211D01*
X-34644094Y-104102973D01*
X-34768117Y-104305359D01*
X-34858952Y-104524655D01*
X-34878422Y-104605754D01*
X-34913209Y-104750648D01*
X-34913210Y-104750654D01*
X-34914364Y-104755461D01*
X-34932514Y-104986083D01*
X-34932987Y-104992094D01*
X-45995236Y-104992094D01*
X-52578526Y-103204519D01*
X-52581102Y-103203790D01*
X-52584201Y-103202877D01*
X-52592914Y-103200311D01*
X-52601793Y-103197333D01*
X-52647527Y-103180078D01*
X-52659730Y-103174721D01*
X-52694077Y-103157418D01*
X-52705603Y-103150829D01*
X-52731354Y-103134247D01*
X-52737888Y-103130039D01*
X-52748641Y-103122284D01*
X-52778576Y-103098203D01*
X-52788467Y-103089348D01*
X-52815798Y-103062146D01*
X-52824742Y-103052245D01*
X-52842013Y-103030960D01*
X-52859938Y-103008868D01*
X-52863995Y-103003588D01*
X-54085111Y-101323571D01*
X-54088453Y-101318698D01*
X-54090602Y-101314730D01*
X-54110305Y-101288855D01*
X-54111980Y-101286604D01*
X-54129269Y-101262818D01*
X-54129252Y-101262806D01*
X-54135445Y-101254434D01*
X-54140308Y-101246913D01*
X-54150253Y-101235765D01*
X-54156479Y-101228217D01*
X-54160946Y-101222351D01*
X-54163661Y-101218785D01*
X-54175110Y-101207510D01*
X-54180705Y-101201632D01*
X-54230431Y-101145892D01*
X-54234028Y-101141676D01*
X-54247401Y-101125288D01*
X-54247404Y-101125284D01*
X-54250478Y-101121518D01*
X-54254091Y-101118272D01*
X-54254646Y-101117690D01*
X-54258352Y-101113972D01*
X-54258419Y-101114041D01*
X-54261636Y-101110914D01*
X-54264618Y-101107572D01*
X-54268047Y-101104683D01*
X-54285339Y-101090115D01*
X-54288360Y-101087487D01*
X-54300680Y-101076419D01*
X-54350676Y-101031506D01*
X-54354689Y-101027736D01*
X-54373189Y-101009569D01*
X-54377149Y-101006730D01*
X-54377540Y-101006402D01*
X-54382024Y-101002800D01*
X-54382078Y-101002869D01*
X-54385615Y-101000119D01*
X-54388949Y-100997124D01*
X-54392670Y-100994635D01*
X-54392673Y-100994632D01*
X-54411356Y-100982132D01*
X-54414693Y-100979820D01*
X-54482388Y-100931299D01*
X-54486877Y-100927928D01*
X-54503355Y-100914968D01*
X-54507182Y-100911958D01*
X-54511427Y-100909572D01*
X-54511752Y-100909355D01*
X-54516763Y-100906164D01*
X-54516808Y-100906237D01*
X-54520628Y-100903891D01*
X-54524271Y-100901280D01*
X-54528248Y-100899211D01*
X-54528255Y-100899207D01*
X-54548136Y-100888866D01*
X-54551723Y-100886926D01*
X-54570385Y-100876438D01*
X-54624452Y-100846052D01*
X-54629205Y-100843241D01*
X-54651255Y-100829530D01*
X-54655738Y-100827625D01*
X-54656273Y-100827347D01*
X-54661283Y-100824884D01*
X-54661322Y-100824966D01*
X-54665377Y-100823053D01*
X-54669282Y-100820858D01*
X-54673459Y-100819239D01*
X-54694452Y-100811102D01*
X-54698196Y-100809581D01*
X-54775560Y-100776704D01*
X-54780580Y-100774440D01*
X-54799762Y-100765279D01*
X-54804153Y-100763182D01*
X-54808819Y-100761784D01*
X-54809832Y-100761393D01*
X-54814344Y-100759764D01*
X-54814377Y-100759861D01*
X-54818628Y-100758401D01*
X-54822743Y-100756653D01*
X-54849061Y-100749663D01*
X-54852877Y-100748584D01*
X-54917924Y-100729096D01*
X-54929672Y-100724933D01*
X-54932618Y-100723722D01*
X-54932625Y-100723720D01*
X-54937131Y-100721867D01*
X-54958539Y-100716727D01*
X-54965235Y-100714922D01*
X-54983352Y-100709494D01*
X-54987792Y-100708828D01*
X-54987797Y-100708827D01*
X-54992103Y-100708181D01*
X-55002823Y-100706095D01*
X-152526586Y-77292745D01*
X-139943488Y-77292745D01*
X-139923630Y-77545069D01*
X-139922476Y-77549876D01*
X-139922475Y-77549882D01*
X-139884973Y-77706090D01*
X-139864544Y-77791181D01*
X-139862651Y-77795752D01*
X-139862650Y-77795754D01*
X-139825788Y-77884745D01*
X-139767685Y-78025019D01*
X-139635438Y-78240826D01*
X-139471059Y-78433288D01*
X-139278597Y-78597667D01*
X-139062790Y-78729914D01*
X-139058220Y-78731807D01*
X-139058216Y-78731809D01*
X-138833525Y-78824879D01*
X-138828952Y-78826773D01*
X-138743861Y-78847202D01*
X-138587653Y-78884704D01*
X-138587647Y-78884705D01*
X-138582840Y-78885859D01*
X-138330516Y-78905717D01*
X-138078192Y-78885859D01*
X-138073385Y-78884705D01*
X-138073379Y-78884704D01*
X-137917171Y-78847202D01*
X-137832080Y-78826773D01*
X-137827507Y-78824879D01*
X-137602816Y-78731809D01*
X-137602812Y-78731807D01*
X-137598242Y-78729914D01*
X-137382435Y-78597667D01*
X-137189973Y-78433288D01*
X-137025594Y-78240826D01*
X-136893347Y-78025019D01*
X-136835243Y-77884745D01*
X-136798382Y-77795754D01*
X-136798381Y-77795752D01*
X-136796488Y-77791181D01*
X-136776059Y-77706090D01*
X-136738557Y-77549882D01*
X-136738556Y-77549876D01*
X-136737402Y-77545069D01*
X-136717544Y-77292745D01*
X-136737402Y-77040421D01*
X-136747887Y-76996745D01*
X-136795333Y-76799121D01*
X-136796488Y-76794309D01*
X-136826888Y-76720917D01*
X-136891452Y-76565045D01*
X-136891454Y-76565041D01*
X-136893347Y-76560471D01*
X-137025594Y-76344664D01*
X-137189973Y-76152202D01*
X-137382435Y-75987823D01*
X-137598242Y-75855576D01*
X-137602812Y-75853683D01*
X-137602816Y-75853681D01*
X-137827507Y-75760611D01*
X-137827509Y-75760610D01*
X-137832080Y-75758717D01*
X-137917171Y-75738288D01*
X-138073379Y-75700786D01*
X-138073385Y-75700785D01*
X-138078192Y-75699631D01*
X-138330516Y-75679773D01*
X-138582840Y-75699631D01*
X-138587647Y-75700785D01*
X-138587653Y-75700786D01*
X-138743861Y-75738288D01*
X-138828952Y-75758717D01*
X-138833523Y-75760610D01*
X-138833525Y-75760611D01*
X-139058216Y-75853681D01*
X-139058220Y-75853683D01*
X-139062790Y-75855576D01*
X-139278597Y-75987823D01*
X-139471059Y-76152202D01*
X-139635438Y-76344664D01*
X-139767685Y-76560471D01*
X-139769578Y-76565041D01*
X-139769580Y-76565045D01*
X-139834144Y-76720917D01*
X-139864544Y-76794309D01*
X-139865699Y-76799121D01*
X-139913144Y-76996745D01*
X-139923630Y-77040421D01*
X-139943488Y-77292745D01*
X-152526586Y-77292745D01*
X-162946728Y-74791094D01*
X-162949617Y-74790364D01*
X-163298752Y-74697759D01*
X-163304476Y-74696095D01*
X-163345794Y-74683015D01*
X-163638384Y-74590391D01*
X-163643973Y-74588475D01*
X-163809714Y-74527265D01*
X-163969694Y-74468182D01*
X-163975202Y-74465999D01*
X-164170365Y-74383302D01*
X-164292403Y-74331589D01*
X-164297758Y-74329171D01*
X-164606318Y-74181019D01*
X-164611514Y-74178374D01*
X-164911083Y-74016948D01*
X-164916158Y-74014060D01*
X-164924349Y-74009143D01*
X-165206433Y-73839808D01*
X-165211335Y-73836709D01*
X-165492063Y-73650045D01*
X-165496806Y-73646732D01*
X-165767684Y-73448100D01*
X-165772248Y-73444590D01*
X-166032962Y-73234440D01*
X-166037343Y-73230742D01*
X-166043832Y-73225005D01*
X-166133026Y-73146155D01*
X-166287661Y-73009451D01*
X-166291852Y-73005573D01*
X-166531392Y-72773649D01*
X-166535389Y-72769600D01*
X-166763870Y-72527462D01*
X-166767647Y-72523274D01*
X-166984786Y-72271339D01*
X-166988374Y-72266981D01*
X-167193784Y-72005786D01*
X-167197179Y-72001263D01*
X-167390624Y-71731165D01*
X-167393812Y-71726496D01*
X-167574929Y-71448018D01*
X-167577906Y-71443209D01*
X-167635374Y-71345519D01*
X-167684011Y-71262843D01*
X-167746405Y-71156780D01*
X-167749165Y-71151836D01*
X-167849133Y-70962968D01*
X-167904731Y-70857926D01*
X-167907265Y-70852869D01*
X-168049618Y-70551875D01*
X-168051933Y-70546678D01*
X-168180722Y-70239160D01*
X-168182808Y-70233845D01*
X-168297767Y-69920169D01*
X-168299617Y-69914743D01*
X-168400440Y-69595369D01*
X-168402047Y-69589839D01*
X-168488421Y-69265259D01*
X-168489781Y-69259635D01*
X-168561429Y-68930210D01*
X-168562533Y-68924501D01*
X-168590080Y-68762075D01*
X-168619146Y-68590703D01*
X-168619988Y-68584923D01*
X-168620364Y-68581842D01*
X-168661263Y-68247198D01*
X-168661839Y-68241360D01*
X-168687482Y-67900076D01*
X-168687786Y-67894183D01*
X-168697487Y-67549807D01*
X-168697515Y-67543882D01*
X-168690965Y-67196726D01*
X-168690712Y-67190786D01*
X-168688055Y-67150629D01*
X-168667596Y-66841341D01*
X-168667063Y-66835410D01*
X-168626202Y-66476524D01*
X-168625834Y-66473600D01*
X-168617246Y-66411320D01*
X-167322134Y-57018427D01*
X-7099399Y-57018427D01*
X-7080776Y-57255060D01*
X-7079622Y-57259867D01*
X-7079621Y-57259873D01*
X-7049532Y-57385201D01*
X-7025364Y-57485866D01*
X-7023471Y-57490437D01*
X-7023470Y-57490439D01*
X-7016753Y-57506654D01*
X-6934529Y-57705162D01*
X-6810506Y-57907548D01*
X-6807293Y-57911310D01*
X-6704513Y-58031649D01*
X-6656350Y-58088041D01*
X-6475857Y-58242197D01*
X-6273471Y-58366220D01*
X-6268901Y-58368113D01*
X-6268899Y-58368114D01*
X-6058748Y-58455161D01*
X-6054175Y-58457055D01*
X-5973076Y-58476525D01*
X-5828182Y-58511312D01*
X-5828176Y-58511313D01*
X-5823369Y-58512467D01*
X-5586736Y-58531090D01*
X-5350103Y-58512467D01*
X-5345296Y-58511313D01*
X-5345290Y-58511312D01*
X-5200396Y-58476525D01*
X-5119297Y-58457055D01*
X-5114724Y-58455161D01*
X-4904573Y-58368114D01*
X-4904571Y-58368113D01*
X-4900001Y-58366220D01*
X-4697615Y-58242197D01*
X-4517122Y-58088041D01*
X-4468958Y-58031649D01*
X-4366179Y-57911310D01*
X-4362966Y-57907548D01*
X-4238943Y-57705162D01*
X-4156718Y-57506654D01*
X-4150002Y-57490439D01*
X-4150001Y-57490437D01*
X-4148108Y-57485866D01*
X-4123940Y-57385201D01*
X-4093851Y-57259873D01*
X-4093850Y-57259867D01*
X-4092696Y-57255060D01*
X-4074073Y-57018427D01*
X-4092696Y-56781794D01*
X-4093850Y-56776987D01*
X-4093851Y-56776981D01*
X-4128638Y-56632087D01*
X-4148108Y-56550988D01*
X-4238943Y-56331692D01*
X-4362966Y-56129306D01*
X-4517122Y-55948813D01*
X-4697615Y-55794657D01*
X-4900001Y-55670634D01*
X-4904571Y-55668741D01*
X-4904573Y-55668740D01*
X-5114724Y-55581693D01*
X-5114726Y-55581692D01*
X-5119297Y-55579799D01*
X-5200396Y-55560329D01*
X-5345290Y-55525542D01*
X-5345296Y-55525541D01*
X-5350103Y-55524387D01*
X-5586736Y-55505764D01*
X-5823369Y-55524387D01*
X-5828176Y-55525541D01*
X-5828182Y-55525542D01*
X-5973076Y-55560329D01*
X-6054175Y-55579799D01*
X-6058746Y-55581692D01*
X-6058748Y-55581693D01*
X-6268899Y-55668740D01*
X-6268901Y-55668741D01*
X-6273471Y-55670634D01*
X-6475857Y-55794657D01*
X-6656350Y-55948813D01*
X-6810506Y-56129306D01*
X-6934529Y-56331692D01*
X-7025364Y-56550988D01*
X-7044834Y-56632087D01*
X-7079621Y-56776981D01*
X-7079622Y-56776987D01*
X-7080776Y-56781794D01*
X-7098926Y-57012416D01*
X-7099399Y-57018427D01*
X-167322134Y-57018427D01*
X-165007399Y-40230642D01*
X-162195205Y-19835005D01*
X-162194821Y-19832417D01*
X-162165014Y-19645074D01*
X-162164085Y-19639927D01*
X-162128117Y-19461841D01*
X-162126979Y-19456752D01*
X-162083963Y-19281491D01*
X-162082620Y-19276470D01*
X-162032725Y-19104209D01*
X-162031183Y-19099265D01*
X-161974517Y-18929995D01*
X-161972779Y-18925138D01*
X-161909544Y-18759150D01*
X-161907617Y-18754387D01*
X-161837941Y-18591754D01*
X-161835830Y-18587090D01*
X-161834982Y-18585315D01*
X-161759844Y-18427922D01*
X-161757558Y-18423373D01*
X-161751930Y-18412717D01*
X-161727355Y-18366181D01*
X-161675441Y-18267877D01*
X-161672978Y-18263432D01*
X-161584860Y-18111720D01*
X-161582229Y-18107394D01*
X-161488297Y-17959676D01*
X-161485503Y-17955470D01*
X-161385852Y-17811814D01*
X-161382899Y-17807734D01*
X-161277759Y-17668403D01*
X-161274652Y-17664451D01*
X-161164089Y-17529487D01*
X-161160831Y-17525669D01*
X-161045079Y-17395327D01*
X-161041675Y-17391644D01*
X-161021817Y-17371000D01*
X-131295266Y-17371000D01*
X-131275408Y-17623324D01*
X-131274254Y-17628131D01*
X-131274253Y-17628137D01*
X-131264590Y-17668384D01*
X-131216322Y-17869436D01*
X-131214429Y-17874007D01*
X-131214428Y-17874009D01*
X-131160122Y-18005114D01*
X-131119463Y-18103274D01*
X-130987216Y-18319081D01*
X-130822837Y-18511543D01*
X-130630375Y-18675922D01*
X-130414568Y-18808169D01*
X-130409998Y-18810062D01*
X-130409994Y-18810064D01*
X-130185303Y-18903134D01*
X-130180730Y-18905028D01*
X-130096965Y-18925138D01*
X-129939431Y-18962959D01*
X-129939425Y-18962960D01*
X-129934618Y-18964114D01*
X-129682294Y-18983972D01*
X-129429970Y-18964114D01*
X-129425163Y-18962960D01*
X-129425157Y-18962959D01*
X-129267623Y-18925138D01*
X-129183858Y-18905028D01*
X-129179285Y-18903134D01*
X-128954594Y-18810064D01*
X-128954590Y-18810062D01*
X-128950020Y-18808169D01*
X-128734213Y-18675922D01*
X-128541751Y-18511543D01*
X-128377372Y-18319081D01*
X-128245125Y-18103274D01*
X-128204465Y-18005114D01*
X-128150160Y-17874009D01*
X-128150159Y-17874007D01*
X-128148266Y-17869436D01*
X-128099998Y-17668384D01*
X-128090335Y-17628137D01*
X-128090334Y-17628131D01*
X-128089180Y-17623324D01*
X-128069322Y-17371000D01*
X-128089180Y-17118676D01*
X-128099665Y-17075000D01*
X-128129101Y-16952393D01*
X-128148266Y-16872564D01*
X-128177915Y-16800984D01*
X-128243230Y-16643300D01*
X-128243232Y-16643296D01*
X-128245125Y-16638726D01*
X-128377372Y-16422919D01*
X-128541751Y-16230457D01*
X-128734213Y-16066078D01*
X-128950020Y-15933831D01*
X-128954590Y-15931938D01*
X-128954594Y-15931936D01*
X-129179285Y-15838866D01*
X-129179287Y-15838865D01*
X-129183858Y-15836972D01*
X-129268949Y-15816543D01*
X-129425157Y-15779041D01*
X-129425163Y-15779040D01*
X-129429970Y-15777886D01*
X-129682294Y-15758028D01*
X-129934618Y-15777886D01*
X-129939425Y-15779040D01*
X-129939431Y-15779041D01*
X-130095639Y-15816543D01*
X-130180730Y-15836972D01*
X-130185301Y-15838865D01*
X-130185303Y-15838866D01*
X-130409994Y-15931936D01*
X-130409998Y-15931938D01*
X-130414568Y-15933831D01*
X-130630375Y-16066078D01*
X-130822837Y-16230457D01*
X-130987216Y-16422919D01*
X-131119463Y-16638726D01*
X-131121356Y-16643296D01*
X-131121358Y-16643300D01*
X-131186673Y-16800984D01*
X-131216322Y-16872564D01*
X-131235487Y-16952393D01*
X-131264922Y-17075000D01*
X-131275408Y-17118676D01*
X-131295266Y-17371000D01*
X-161021817Y-17371000D01*
X-160920860Y-17266045D01*
X-160917313Y-17262501D01*
X-160898054Y-17244012D01*
X-160791575Y-17141787D01*
X-160787895Y-17138392D01*
X-160657393Y-17022723D01*
X-160653620Y-17019512D01*
X-160518579Y-16909104D01*
X-160514649Y-16906019D01*
X-160375137Y-16800954D01*
X-160371094Y-16798034D01*
X-160227322Y-16698510D01*
X-160223115Y-16695721D01*
X-160194157Y-16677346D01*
X-160075296Y-16601924D01*
X-160070990Y-16599312D01*
X-159941177Y-16524083D01*
X-159919195Y-16511344D01*
X-159914750Y-16508886D01*
X-159759153Y-16426908D01*
X-159754593Y-16424623D01*
X-159595385Y-16348809D01*
X-159590721Y-16346703D01*
X-159428003Y-16277176D01*
X-159423237Y-16275253D01*
X-159288847Y-16224205D01*
X-159257143Y-16212162D01*
X-159252323Y-16210443D01*
X-159083001Y-16153943D01*
X-159078066Y-16152409D01*
X-158905720Y-16102670D01*
X-158900697Y-16101332D01*
X-158756456Y-16066078D01*
X-158725379Y-16058483D01*
X-158720320Y-16057357D01*
X-158542196Y-16021560D01*
X-158537055Y-16020638D01*
X-158504107Y-16015428D01*
X-158349743Y-15991023D01*
X-158347156Y-15990641D01*
X-121466097Y-10941762D01*
X-17196663Y-10941762D01*
X-17178040Y-11178395D01*
X-17176886Y-11183202D01*
X-17176885Y-11183208D01*
X-17146796Y-11308536D01*
X-17122628Y-11409201D01*
X-17120735Y-11413772D01*
X-17120734Y-11413774D01*
X-17114017Y-11429989D01*
X-17031793Y-11628497D01*
X-16907770Y-11830883D01*
X-16753614Y-12011376D01*
X-16573121Y-12165532D01*
X-16370735Y-12289555D01*
X-16366165Y-12291448D01*
X-16366163Y-12291449D01*
X-16156012Y-12378496D01*
X-16151439Y-12380390D01*
X-16070340Y-12399860D01*
X-15925446Y-12434647D01*
X-15925440Y-12434648D01*
X-15920633Y-12435802D01*
X-15684000Y-12454425D01*
X-15447367Y-12435802D01*
X-15442560Y-12434648D01*
X-15442554Y-12434647D01*
X-15297660Y-12399860D01*
X-15216561Y-12380390D01*
X-15211988Y-12378496D01*
X-15001837Y-12291449D01*
X-15001835Y-12291448D01*
X-14997265Y-12289555D01*
X-14794879Y-12165532D01*
X-14614386Y-12011376D01*
X-14460230Y-11830883D01*
X-14336207Y-11628497D01*
X-14253982Y-11429989D01*
X-14247266Y-11413774D01*
X-14247265Y-11413772D01*
X-14245372Y-11409201D01*
X-14221204Y-11308536D01*
X-14191115Y-11183208D01*
X-14191114Y-11183202D01*
X-14189960Y-11178395D01*
X-14171337Y-10941762D01*
X-14189960Y-10705129D01*
X-14191114Y-10700322D01*
X-14191115Y-10700316D01*
X-14225902Y-10555422D01*
X-14245372Y-10474323D01*
X-14336207Y-10255027D01*
X-14460230Y-10052641D01*
X-14614386Y-9872148D01*
X-14794879Y-9717992D01*
X-14997265Y-9593969D01*
X-15001835Y-9592076D01*
X-15001837Y-9592075D01*
X-15211988Y-9505028D01*
X-15211990Y-9505027D01*
X-15216561Y-9503134D01*
X-15297660Y-9483664D01*
X-15442554Y-9448877D01*
X-15442560Y-9448876D01*
X-15447367Y-9447722D01*
X-15684000Y-9429099D01*
X-15920633Y-9447722D01*
X-15925440Y-9448876D01*
X-15925446Y-9448877D01*
X-16070340Y-9483664D01*
X-16151439Y-9503134D01*
X-16156010Y-9505027D01*
X-16156012Y-9505028D01*
X-16366163Y-9592075D01*
X-16366165Y-9592076D01*
X-16370735Y-9593969D01*
X-16573121Y-9717992D01*
X-16753614Y-9872148D01*
X-16907770Y-10052641D01*
X-17031793Y-10255027D01*
X-17122628Y-10474323D01*
X-17142098Y-10555422D01*
X-17176885Y-10700316D01*
X-17176886Y-10700322D01*
X-17178040Y-10705129D01*
X-17196190Y-10935751D01*
X-17196663Y-10941762D01*
X-121466097Y-10941762D01*
X-55225520Y-1873675D01*
X-55221899Y-1873233D01*
X-55198478Y-1870715D01*
X-55188483Y-1870041D01*
X-55144728Y-1868834D01*
X-55132016Y-1869125D01*
G37*
%TD.AperFunction*%
M02*
