%TF.GenerationSoftware,KiCad,Pcbnew,(6.0.5)*%
%TF.CreationDate,2022-07-12T17:30:17+09:00*%
%TF.ProjectId,ergotonic_f24-pcb-right,6572676f-746f-46e6-9963-5f6632342d70,rev?*%
%TF.SameCoordinates,Original*%
%TF.FileFunction,Soldermask,Bot*%
%TF.FilePolarity,Negative*%
%FSLAX46Y46*%
G04 Gerber Fmt 4.6, Leading zero omitted, Abs format (unit mm)*
G04 Created by KiCad (PCBNEW (6.0.5)) date 2022-07-12 17:30:17*
%MOMM*%
%LPD*%
G01*
G04 APERTURE LIST*
G04 Aperture macros list*
%AMRoundRect*
0 Rectangle with rounded corners*
0 $1 Rounding radius*
0 $2 $3 $4 $5 $6 $7 $8 $9 X,Y pos of 4 corners*
0 Add a 4 corners polygon primitive as box body*
4,1,4,$2,$3,$4,$5,$6,$7,$8,$9,$2,$3,0*
0 Add four circle primitives for the rounded corners*
1,1,$1+$1,$2,$3*
1,1,$1+$1,$4,$5*
1,1,$1+$1,$6,$7*
1,1,$1+$1,$8,$9*
0 Add four rect primitives between the rounded corners*
20,1,$1+$1,$2,$3,$4,$5,0*
20,1,$1+$1,$4,$5,$6,$7,0*
20,1,$1+$1,$6,$7,$8,$9,0*
20,1,$1+$1,$8,$9,$2,$3,0*%
%AMHorizOval*
0 Thick line with rounded ends*
0 $1 width*
0 $2 $3 position (X,Y) of the first rounded end (center of the circle)*
0 $4 $5 position (X,Y) of the second rounded end (center of the circle)*
0 Add line between two ends*
20,1,$1,$2,$3,$4,$5,0*
0 Add two circle primitives to create the rounded ends*
1,1,$1,$2,$3*
1,1,$1,$4,$5*%
%AMRotRect*
0 Rectangle, with rotation*
0 The origin of the aperture is its center*
0 $1 length*
0 $2 width*
0 $3 Rotation angle, in degrees counterclockwise*
0 Add horizontal line*
21,1,$1,$2,0,0,$3*%
G04 Aperture macros list end*
%ADD10C,3.000000*%
%ADD11C,4.100000*%
%ADD12C,1.900000*%
%ADD13RotRect,2.550000X2.500000X195.110000*%
%ADD14C,1.524000*%
%ADD15RotRect,2.550000X2.500000X188.510000*%
%ADD16RotRect,2.550000X2.500000X182.020000*%
%ADD17RotRect,2.550000X2.500000X194.390000*%
%ADD18RotRect,2.550000X2.500000X193.470000*%
%ADD19RotRect,2.550000X2.500000X187.620000*%
%ADD20RotRect,2.550000X2.500000X190.850000*%
%ADD21C,2.000000*%
%ADD22HorizOval,1.500000X-0.125473X0.637775X0.125473X-0.637775X0*%
%ADD23RotRect,2.550000X2.500000X195.120000*%
%ADD24RotRect,2.550000X2.500000X181.120000*%
%ADD25RotRect,2.550000X2.500000X184.580000*%
%ADD26C,1.200000*%
%ADD27HorizOval,1.700000X-0.055669X0.396107X0.055669X-0.396107X0*%
%ADD28RotRect,2.550000X2.500000X180.290000*%
%ADD29RotRect,2.550000X2.500000X194.000000*%
%ADD30RotRect,2.550000X2.500000X185.430000*%
%ADD31RotRect,2.550000X2.500000X183.620000*%
%ADD32RotRect,2.550000X2.500000X190.660000*%
%ADD33RotRect,2.550000X2.500000X191.080000*%
%ADD34RoundRect,0.249600X0.719283X-0.168618X0.536485X0.507921X-0.719283X0.168618X-0.536485X-0.507921X0*%
%ADD35RotRect,2.550000X2.500000X177.950000*%
%ADD36RotRect,1.700000X1.700000X188.000000*%
%ADD37HorizOval,1.700000X0.000000X0.000000X0.000000X0.000000X0*%
%ADD38RotRect,2.550000X2.500000X186.550000*%
%ADD39RotRect,2.550000X2.500000X188.000000*%
%ADD40RotRect,2.550000X2.500000X178.020000*%
%ADD41RotRect,2.550000X2.500000X187.570000*%
%ADD42HorizOval,1.500000X-0.090463X0.643674X0.090463X-0.643674X0*%
%ADD43RotRect,2.550000X2.500000X191.130000*%
%ADD44RotRect,2.550000X2.500000X178.940000*%
%ADD45RotRect,1.400000X1.000000X193.500000*%
G04 APERTURE END LIST*
D10*
%TO.C,SW26*%
X22778966Y-93799521D03*
X17310613Y-97906979D03*
D11*
X21651000Y-99366000D03*
D12*
X26555370Y-98041781D03*
X16746630Y-100690219D03*
D13*
X14148839Y-98760683D03*
X25966807Y-92938778D03*
%TD*%
D14*
%TO.C,U2*%
X153334029Y-21006070D03*
X153687529Y-23521351D03*
X154041028Y-26036632D03*
X154394528Y-28551913D03*
X154748028Y-31067194D03*
X155101527Y-33582474D03*
X155455027Y-36097755D03*
X155808527Y-38613036D03*
X156162026Y-41128317D03*
X156515526Y-43643598D03*
X156869026Y-46158879D03*
X157222525Y-48674160D03*
X142150645Y-50792374D03*
X141797146Y-48277094D03*
X141443646Y-45761813D03*
X141090146Y-43246532D03*
X140736647Y-40731251D03*
X140383147Y-38215970D03*
X140029647Y-35700689D03*
X139676148Y-33185408D03*
X139322648Y-30670127D03*
X138969148Y-28154846D03*
X138615649Y-25639566D03*
X138262149Y-23124285D03*
X137908649Y-20609004D03*
X152980529Y-18490789D03*
%TD*%
D10*
%TO.C,SW33*%
X54242286Y-55683056D03*
D12*
X57506069Y-60331251D03*
D10*
X48338074Y-59134777D03*
D11*
X52482000Y-61083000D03*
D12*
X47457931Y-61834749D03*
D15*
X45099131Y-59619418D03*
X57507931Y-55194420D03*
%TD*%
D12*
%TO.C,SW36*%
X64311157Y-35753062D03*
D10*
X65490837Y-33169875D03*
D11*
X69388000Y-35574000D03*
D10*
X71747360Y-30407626D03*
D12*
X74464843Y-35394938D03*
D16*
X62217872Y-33285313D03*
X75047308Y-30291236D03*
%TD*%
D12*
%TO.C,SW47*%
X137155623Y-66875514D03*
D10*
X133432826Y-62586134D03*
D11*
X132235000Y-68138000D03*
D12*
X127314377Y-69400486D03*
D10*
X127913290Y-66624553D03*
D17*
X124741038Y-67438459D03*
X136631230Y-61765518D03*
%TD*%
D12*
%TO.C,SW38*%
X69782741Y-76303316D03*
D10*
X70426147Y-73537357D03*
D12*
X79663259Y-73936684D03*
D10*
X76009814Y-69588083D03*
D11*
X74723000Y-75120000D03*
D18*
X67241236Y-74300223D03*
X79220982Y-68818927D03*
%TD*%
D12*
%TO.C,SW37*%
X66029860Y-56133620D03*
D10*
X66951835Y-53447645D03*
D12*
X76100140Y-54786380D03*
D10*
X72908950Y-50088050D03*
D11*
X71065000Y-55460000D03*
D19*
X63705755Y-53881918D03*
X76181791Y-49650197D03*
%TD*%
D11*
%TO.C,SW44*%
X111928000Y-66492999D03*
D12*
X106938813Y-67449250D03*
X116917187Y-65536748D03*
D10*
X107707984Y-64715594D03*
X113466342Y-61025687D03*
D20*
X104491530Y-65332075D03*
X116709313Y-60404123D03*
%TD*%
D21*
%TO.C,RE3*%
X15517789Y-85716527D03*
X20423747Y-84751349D03*
X17970768Y-85233938D03*
D22*
X22017674Y-76794000D03*
X11028326Y-78956000D03*
D21*
X17624729Y-70524069D03*
X12718770Y-71489247D03*
%TD*%
D12*
%TO.C,SW30*%
X35136861Y-95724075D03*
D10*
X35700359Y-92940737D03*
X41167995Y-88832324D03*
D11*
X40041000Y-94399000D03*
D12*
X44945139Y-93073925D03*
D23*
X32538734Y-93794993D03*
X44355685Y-87971025D03*
%TD*%
D21*
%TO.C,SW_RESET2*%
X162064687Y-38540629D03*
X162969313Y-44977371D03*
%TD*%
D10*
%TO.C,SW45*%
X129304219Y-23192323D03*
D12*
X121784971Y-28420296D03*
D11*
X126864000Y-28321000D03*
D12*
X131943029Y-28221704D03*
D10*
X123005080Y-25855957D03*
D24*
X119730706Y-25919972D03*
X132605588Y-23127780D03*
%TD*%
D12*
%TO.C,SW40*%
X84035221Y-43030643D03*
D10*
X85098345Y-40397343D03*
X91225246Y-37358400D03*
D11*
X89099000Y-42625000D03*
D12*
X94162779Y-42219357D03*
D25*
X81833802Y-40658855D03*
X94516702Y-37094732D03*
%TD*%
D26*
%TO.C,TRRS2*%
X158571760Y-19949402D03*
X159545971Y-26881279D03*
D27*
X157925680Y-30441427D03*
X160901834Y-21439621D03*
X161319353Y-24410425D03*
X161876046Y-28371498D03*
%TD*%
D11*
%TO.C,SW42*%
X107680000Y-26959000D03*
D10*
X110194255Y-21866209D03*
X103857193Y-24438317D03*
D12*
X102600065Y-26984712D03*
X112759935Y-26933288D03*
D28*
X100582235Y-24454893D03*
X113496213Y-21849496D03*
%TD*%
D12*
%TO.C,SW34*%
X61302102Y-79411037D03*
D11*
X56373000Y-80640000D03*
D10*
X57608588Y-75096416D03*
X52061692Y-79097171D03*
D12*
X51443898Y-81868963D03*
D29*
X48883973Y-79889465D03*
X60812504Y-74297590D03*
%TD*%
D10*
%TO.C,SW28*%
X28054738Y-50976937D03*
D12*
X37145204Y-52664282D03*
D11*
X32088000Y-53145000D03*
D12*
X27030796Y-53625718D03*
D10*
X34135884Y-47847437D03*
D30*
X24794434Y-51286849D03*
X37423066Y-47534970D03*
%TD*%
D12*
%TO.C,SW32*%
X55456864Y-41030254D03*
X45317136Y-41671746D03*
D11*
X50387000Y-41351000D03*
D10*
X52601186Y-36120763D03*
X46424229Y-39056627D03*
D31*
X43155764Y-39263407D03*
X55896598Y-35912278D03*
%TD*%
D12*
%TO.C,SW41*%
X96751330Y-61541299D03*
D11*
X91759000Y-62481000D03*
D10*
X87544902Y-60689611D03*
D12*
X86766670Y-63420701D03*
D10*
X93315464Y-57018819D03*
D32*
X84326421Y-61295422D03*
X96560478Y-56408013D03*
%TD*%
D10*
%TO.C,SW29*%
X30728883Y-71143550D03*
D11*
X34956000Y-72904000D03*
D10*
X36472382Y-67430556D03*
D12*
X39941308Y-71927729D03*
X29970692Y-73880271D03*
D33*
X27514930Y-71772937D03*
X39712833Y-66795980D03*
%TD*%
D34*
%TO.C,J4*%
X32832740Y-88633460D03*
X30850344Y-81296560D03*
%TD*%
%TO.C,J2*%
X6442898Y-76199078D03*
X4982186Y-70792941D03*
%TD*%
D12*
%TO.C,SW31*%
X45040251Y-21194280D03*
D10*
X52837094Y-16390111D03*
X46400298Y-18701336D03*
D11*
X50117000Y-21376000D03*
D12*
X55193749Y-21557720D03*
D35*
X43127394Y-18584184D03*
X56136981Y-16508229D03*
%TD*%
D36*
%TO.C,BAT2*%
X159500000Y-43500000D03*
D37*
X159146500Y-40984719D03*
%TD*%
D11*
%TO.C,SW43*%
X108881000Y-46979000D03*
D12*
X113927841Y-46399523D03*
X103834159Y-47558477D03*
D10*
X110824944Y-41642420D03*
X104806131Y-44890187D03*
D38*
X101552508Y-45263767D03*
X114105391Y-41265760D03*
%TD*%
D12*
%TO.C,SW48*%
X159729562Y-59703001D03*
X149668438Y-61116999D03*
D10*
X150572579Y-58424969D03*
D11*
X154699000Y-60410000D03*
D10*
X156507282Y-55025939D03*
D39*
X147329451Y-58880761D03*
X159777147Y-54566389D03*
%TD*%
D12*
%TO.C,SW35*%
X74457967Y-16045517D03*
X64304033Y-15694483D03*
D10*
X72095001Y-10880792D03*
X65661033Y-13199879D03*
D11*
X69381000Y-15870000D03*
D40*
X62387989Y-13086725D03*
X75395029Y-10994878D03*
%TD*%
D12*
%TO.C,SW46*%
X133422726Y-47684774D03*
D10*
X130235637Y-42983661D03*
D11*
X128387000Y-48354000D03*
D12*
X123351274Y-49023226D03*
D10*
X124275593Y-46338056D03*
D41*
X121029135Y-46769496D03*
X133508859Y-42548664D03*
%TD*%
D21*
%TO.C,RE4*%
X153267128Y-68184943D03*
X158218468Y-67489078D03*
X155742798Y-67837011D03*
D42*
X160244501Y-59630631D03*
X149153499Y-61189369D03*
D21*
X156200458Y-53130191D03*
X151249118Y-53826056D03*
%TD*%
D10*
%TO.C,SW27*%
X26916837Y-31172875D03*
D12*
X25737157Y-33756062D03*
D10*
X33173360Y-28410626D03*
D11*
X30814000Y-33577000D03*
D12*
X35890843Y-33397938D03*
D16*
X23643872Y-31288313D03*
X36473308Y-28294236D03*
%TD*%
D11*
%TO.C,SW25*%
X16523000Y-77875000D03*
D10*
X18034605Y-72400235D03*
X12294349Y-76118239D03*
D12*
X21507454Y-76894378D03*
X11538546Y-78855622D03*
D43*
X9080946Y-76750431D03*
X21274500Y-71762831D03*
%TD*%
D12*
%TO.C,SW39*%
X93562131Y-22764977D03*
D10*
X84720641Y-20060952D03*
X91116542Y-17638858D03*
D12*
X83403869Y-22577023D03*
D11*
X88483000Y-22671000D03*
D44*
X81446201Y-20000366D03*
X94417977Y-17699943D03*
%TD*%
D45*
%TO.C,D28*%
X72027957Y-87419634D03*
X68576043Y-88248366D03*
%TD*%
%TO.C,D34*%
X80373957Y-90558634D03*
X76922043Y-91387366D03*
%TD*%
%TO.C,D42*%
X100157957Y-78095634D03*
X96706043Y-78924366D03*
%TD*%
%TO.C,D47*%
X108560957Y-81219634D03*
X105109043Y-82048366D03*
%TD*%
%TO.C,D33*%
X79789957Y-88127634D03*
X76338043Y-88956366D03*
%TD*%
%TO.C,D27*%
X71444957Y-84988634D03*
X67993043Y-85817366D03*
%TD*%
%TO.C,D26*%
X66563956Y-93885634D03*
X63112042Y-94714366D03*
%TD*%
%TO.C,D39*%
X92978957Y-79818634D03*
X89527043Y-80647366D03*
%TD*%
%TO.C,D43*%
X100740957Y-80526634D03*
X97289043Y-81355366D03*
%TD*%
%TO.C,D32*%
X79206957Y-85696634D03*
X75755043Y-86525366D03*
%TD*%
%TO.C,D37*%
X86967957Y-86403634D03*
X83516043Y-87232366D03*
%TD*%
%TO.C,D36*%
X86384957Y-83972634D03*
X82933043Y-84801366D03*
%TD*%
%TO.C,D45*%
X107393957Y-76357634D03*
X103942043Y-77186366D03*
%TD*%
%TO.C,D44*%
X101324957Y-82957634D03*
X97873043Y-83786366D03*
%TD*%
%TO.C,D40*%
X93562957Y-82249634D03*
X90111043Y-83078366D03*
%TD*%
%TO.C,D35*%
X85800957Y-81541634D03*
X82349043Y-82370366D03*
%TD*%
%TO.C,D48*%
X114261957Y-82470634D03*
X110810043Y-83299366D03*
%TD*%
%TO.C,D31*%
X78622957Y-83265634D03*
X75171043Y-84094366D03*
%TD*%
%TO.C,D38*%
X87551957Y-88834634D03*
X84100043Y-89663366D03*
%TD*%
%TO.C,D25*%
X65979957Y-91454634D03*
X62528043Y-92283366D03*
%TD*%
%TO.C,D46*%
X107976957Y-78788634D03*
X104525043Y-79617366D03*
%TD*%
%TO.C,D41*%
X94146957Y-84680634D03*
X90695043Y-85509366D03*
%TD*%
%TO.C,D30*%
X73195957Y-92281634D03*
X69744043Y-93110366D03*
%TD*%
%TO.C,D29*%
X72611957Y-89850634D03*
X69160043Y-90679366D03*
%TD*%
M02*
