%TF.GenerationSoftware,KiCad,Pcbnew,(6.0.5)*%
%TF.CreationDate,2022-07-12T17:30:17+09:00*%
%TF.ProjectId,ergotonic_f24-pcb-right,6572676f-746f-46e6-9963-5f6632342d70,rev?*%
%TF.SameCoordinates,Original*%
%TF.FileFunction,Paste,Top*%
%TF.FilePolarity,Positive*%
%FSLAX46Y46*%
G04 Gerber Fmt 4.6, Leading zero omitted, Abs format (unit mm)*
G04 Created by KiCad (PCBNEW (6.0.5)) date 2022-07-12 17:30:17*
%MOMM*%
%LPD*%
G01*
G04 APERTURE LIST*
G04 Aperture macros list*
%AMRoundRect*
0 Rectangle with rounded corners*
0 $1 Rounding radius*
0 $2 $3 $4 $5 $6 $7 $8 $9 X,Y pos of 4 corners*
0 Add a 4 corners polygon primitive as box body*
4,1,4,$2,$3,$4,$5,$6,$7,$8,$9,$2,$3,0*
0 Add four circle primitives for the rounded corners*
1,1,$1+$1,$2,$3*
1,1,$1+$1,$4,$5*
1,1,$1+$1,$6,$7*
1,1,$1+$1,$8,$9*
0 Add four rect primitives between the rounded corners*
20,1,$1+$1,$2,$3,$4,$5,0*
20,1,$1+$1,$4,$5,$6,$7,0*
20,1,$1+$1,$6,$7,$8,$9,0*
20,1,$1+$1,$8,$9,$2,$3,0*%
%AMRotRect*
0 Rectangle, with rotation*
0 The origin of the aperture is its center*
0 $1 length*
0 $2 width*
0 $3 Rotation angle, in degrees counterclockwise*
0 Add horizontal line*
21,1,$1,$2,0,0,$3*%
G04 Aperture macros list end*
%ADD10RotRect,1.700000X1.000000X285.120000*%
%ADD11RotRect,1.700000X1.000000X352.000000*%
%ADD12RotRect,1.700000X1.000000X13.500000*%
%ADD13R,1.000000X1.700000*%
%ADD14RoundRect,0.150000X0.642490X0.018219X0.564237X0.307833X-0.642490X-0.018219X-0.564237X-0.307833X0*%
%ADD15RotRect,1.700000X1.000000X98.000000*%
G04 APERTURE END LIST*
D10*
%TO.C,LED_11*%
X12582081Y-92915210D03*
X11230547Y-93280389D03*
X9795919Y-87970790D03*
X11147453Y-87605611D03*
%TD*%
D11*
%TO.C,LED_8*%
X124286658Y-13879538D03*
X124091816Y-15265914D03*
X118645342Y-14500462D03*
X118840184Y-13114086D03*
%TD*%
%TO.C,LED_9*%
X53747184Y-5154086D03*
X53552342Y-6540462D03*
X58998816Y-7305914D03*
X59193658Y-5919538D03*
%TD*%
D12*
%TO.C,LED_14*%
X157073606Y-72045366D03*
X157400429Y-73406684D03*
X152052394Y-74690634D03*
X151725571Y-73329316D03*
%TD*%
D13*
%TO.C,LED_10*%
X7022000Y-42147000D03*
X5622000Y-42147000D03*
X5622000Y-36647000D03*
X7022000Y-36647000D03*
%TD*%
D14*
%TO.C,J4*%
X34931234Y-86719839D03*
X34670393Y-85754457D03*
X34409551Y-84789076D03*
X34148710Y-83823694D03*
X33887868Y-82858313D03*
X33627027Y-81892931D03*
%TD*%
%TO.C,J2*%
X8541393Y-74285457D03*
X8280551Y-73320076D03*
X8019710Y-72354694D03*
X7758868Y-71389313D03*
%TD*%
D12*
%TO.C,LED_13*%
X106105606Y-84252366D03*
X106432429Y-85613684D03*
X101084394Y-86897634D03*
X100757571Y-85536316D03*
%TD*%
D15*
%TO.C,LED_15*%
X162634086Y-47671184D03*
X164020462Y-47476342D03*
X164785914Y-52922816D03*
X163399538Y-53117658D03*
%TD*%
D12*
%TO.C,LED_12*%
X57754606Y-95854366D03*
X58081429Y-97215684D03*
X52733394Y-98499634D03*
X52406571Y-97138316D03*
%TD*%
M02*
