%TF.GenerationSoftware,KiCad,Pcbnew,(6.0.1)*%
%TF.CreationDate,2022-02-27T14:40:42+09:00*%
%TF.ProjectId,ergotonic_f24_top,6572676f-746f-46e6-9963-5f6632345f74,rev?*%
%TF.SameCoordinates,Original*%
%TF.FileFunction,Profile,NP*%
%FSLAX46Y46*%
G04 Gerber Fmt 4.6, Leading zero omitted, Abs format (unit mm)*
G04 Created by KiCad (PCBNEW (6.0.1)) date 2022-02-27 14:40:42*
%MOMM*%
%LPD*%
G01*
G04 APERTURE LIST*
%TA.AperFunction,Profile*%
%ADD10C,0.090000*%
%TD*%
%ADD11C,0.090000*%
G04 APERTURE END LIST*
D10*
X-82744907Y-50087128D02*
X-81637026Y-36271749D01*
X-95284069Y-29727792D02*
X-81426491Y-29471930D01*
X6586840Y-57018427D02*
G75*
G03*
X6586840Y-57018427I-1000000J0D01*
G01*
X101206016Y-40884131D02*
X114975802Y-39303968D01*
X-83076633Y-80244981D02*
X-69598097Y-83473686D01*
X-23643805Y-26895993D02*
X-37494951Y-26406990D01*
X-102786076Y-54653918D02*
X-101205912Y-40884131D01*
D11*
X2000093Y-29164930D02*
X-1999986Y-29164930D01*
D10*
X-101205912Y-40884131D02*
X-114975699Y-39303968D01*
X56865007Y-33997319D02*
X57740556Y-47829210D01*
X51324491Y-89040190D02*
X47972543Y-75591838D01*
X100784800Y-33923390D02*
X100715782Y-20063107D01*
X60360917Y-66911531D02*
X46653400Y-68961843D01*
D11*
X2035879Y-70375183D02*
X13438801Y-111849310D01*
X2000093Y-70110083D02*
X2004346Y-70202212D01*
X2017055Y-70293469D01*
X2035879Y-70375183D01*
D10*
X-56864903Y-33997319D02*
X-57740452Y-47829210D01*
X-62216056Y-22556742D02*
X-62694451Y-8704887D01*
X-116555862Y-53073754D02*
X-102786076Y-54653918D01*
X-25844970Y-60699520D02*
X-24533700Y-46901411D01*
X42943397Y-28053946D02*
X43439959Y-14202438D01*
X-147369849Y-72276429D02*
X-149045483Y-74029210D01*
X-51324387Y-89040190D02*
X-47972439Y-75591838D01*
X-43908561Y-48704759D02*
X-43033012Y-34872868D01*
D11*
X-46794538Y-4130196D02*
X-54829276Y-1412597D01*
D10*
X34420425Y-104992094D02*
G75*
G03*
X34420425Y-104992094I-1000000J0D01*
G01*
X-62707050Y-42743610D02*
X-62218053Y-28892457D01*
X-13154261Y-94482849D02*
X-26534542Y-90868790D01*
X133927903Y-35113822D02*
X120070992Y-35385201D01*
X-117430128Y-58382753D02*
X-120039115Y-71994916D01*
X140670232Y-73127976D02*
X127244907Y-76573241D01*
D11*
X16581072Y-113505410D02*
X52718272Y-103693003D01*
X2000093Y-28455412D02*
X2000093Y-29164930D01*
X-1999986Y-28455412D02*
X-2004734Y-28358085D01*
X-2018860Y-28262056D01*
X-2042187Y-28167990D01*
X-2074535Y-28076553D01*
X-2115728Y-27988411D01*
X-2131394Y-27959878D01*
D10*
X-77014910Y-47672274D02*
X-78852040Y-61409825D01*
D11*
X-16276935Y-4182927D02*
X-46474144Y-4182927D01*
D10*
X-43439855Y-14202438D02*
X-57291364Y-14698999D01*
X-83666784Y-56953202D02*
X-97287119Y-54389017D01*
X47972543Y-75591838D02*
X61420895Y-72239890D01*
X106427056Y-74603903D02*
X103818069Y-60991739D01*
X-86230969Y-70573537D02*
X-83666784Y-56953202D01*
X76558306Y-42254612D02*
X62707154Y-42743610D01*
X-148365346Y-76356742D02*
X-146009576Y-76931492D01*
X82745010Y-50087128D02*
X81637130Y-36271749D01*
X37984058Y-40258136D02*
X24132912Y-40747140D01*
X102786180Y-54653918D02*
X101206016Y-40884131D01*
X-42943294Y-28053946D02*
X-43439855Y-14202438D01*
D11*
X13956512Y-112478987D02*
X15872502Y-113435109D01*
D10*
X-133656421Y-21256911D02*
X-133927800Y-35113822D01*
X44924307Y-85901622D02*
X48538395Y-99281874D01*
D11*
X-55285321Y-1369124D02*
X-134320936Y-12188812D01*
D10*
X-144333943Y-75178711D02*
X-145014079Y-72851179D01*
X-122430140Y-56137343D02*
X-120603791Y-42397922D01*
X-61420792Y-72239890D02*
X-64772739Y-85688242D01*
X-62218053Y-28892457D02*
X-76069205Y-28403460D01*
X25845074Y-60699520D02*
X24533803Y-46901411D01*
X-43033012Y-34872868D02*
X-56864903Y-33997319D01*
X-81682353Y-15614352D02*
X-95539931Y-15870214D01*
X133656525Y-21256911D02*
X133927903Y-35113822D01*
X-76546306Y-9183282D02*
X-76067910Y-23035137D01*
X-62694451Y-8704887D02*
X-76546306Y-9183282D01*
X146009680Y-76931492D02*
X144334047Y-75178711D01*
X81637130Y-36271749D02*
X95452509Y-35163868D01*
D11*
X52718272Y-103693003D02*
X52819263Y-103659727D01*
X52915568Y-103616213D01*
X53006456Y-103562964D01*
X53091196Y-103500486D01*
X53169058Y-103429281D01*
X53239310Y-103349854D01*
X53265117Y-103315894D01*
D10*
X-119799510Y-21528290D02*
X-133656421Y-21256911D01*
X-134343213Y-40571573D02*
X-136169561Y-54310995D01*
X165159676Y-67663987D02*
X167434197Y-68504550D01*
X163294467Y-69213499D02*
X165159676Y-67663987D01*
X167843508Y-70894624D02*
X165978299Y-72444135D01*
X-81637026Y-36271749D02*
X-95452405Y-35163868D01*
D11*
X-140918875Y-53717759D02*
X-166903292Y-50261682D01*
D10*
X30148705Y-104249071D02*
X16768424Y-107863130D01*
D11*
X-15872395Y-113435109D02*
X-13956405Y-112478987D01*
D10*
X149045587Y-74029210D02*
X148365450Y-76356742D01*
X-146009576Y-76931492D02*
X-144333943Y-75178711D01*
X130782394Y-17371000D02*
G75*
G03*
X130782394Y-17371000I-1100000J0D01*
G01*
D11*
X-135175470Y-13039751D02*
X-140918875Y-53717759D01*
D10*
X21985935Y-69738421D02*
X24660322Y-83337653D01*
X24660322Y-83337653D02*
X11061090Y-86012041D01*
X-114975699Y-39303968D02*
X-116555862Y-53073754D01*
X26822846Y-67436057D02*
X40424082Y-64771593D01*
X79848031Y-66766446D02*
X83076736Y-80244981D01*
X-114575961Y-19994090D02*
X-114644978Y-33854372D01*
X134343317Y-40571573D02*
X136169665Y-54310995D01*
X-76558203Y-42254612D02*
X-62707050Y-42743610D01*
X148725489Y-68165155D02*
X146892643Y-54426891D01*
D11*
X-1999986Y-68716994D02*
X2000093Y-68716994D01*
D10*
X-123799538Y-63147917D02*
X-137224863Y-59702651D01*
X-95452405Y-35163868D02*
X-96560286Y-48979248D01*
X-95539931Y-15870214D02*
X-95284069Y-29727792D01*
D11*
X-13956405Y-112478987D02*
X-13864276Y-112426746D01*
X-13778879Y-112365602D01*
X-13700764Y-112296227D01*
X-13630482Y-112219288D01*
X-13568583Y-112135458D01*
X-13515618Y-112045404D01*
X-13472138Y-111949798D01*
X-13438693Y-111849310D01*
X46474252Y-4182927D02*
X16277043Y-4182927D01*
D10*
X-97287119Y-54389017D02*
X-99851304Y-68009352D01*
D11*
X2000093Y-40164926D02*
X2000093Y-57716998D01*
D10*
X96560390Y-48979248D02*
X82745010Y-50087128D01*
X-120603791Y-42397922D02*
X-134343213Y-40571573D01*
X26534646Y-90868790D02*
X30148705Y-104249071D01*
X-148725385Y-68165155D02*
X-146892539Y-54426891D01*
D11*
X135175578Y-13039751D02*
X135150598Y-12917878D01*
X135111466Y-12801982D01*
X135059133Y-12693007D01*
X134994547Y-12591901D01*
X134918660Y-12499609D01*
X134832423Y-12417079D01*
X134736785Y-12345256D01*
X134632696Y-12285088D01*
X134521108Y-12237520D01*
X134402970Y-12203499D01*
X134321043Y-12188812D01*
D10*
X-4586736Y-57018427D02*
G75*
G03*
X-4586736Y-57018427I-1000000J0D01*
G01*
X-47972439Y-75591838D02*
X-61420792Y-72239890D01*
X-100784696Y-33923390D02*
X-100715678Y-20063107D01*
D11*
X-15408340Y-4687397D02*
X-15462336Y-4602874D01*
X-15523808Y-4525009D01*
X-15592133Y-4454164D01*
X-15666687Y-4390700D01*
X-15746848Y-4334978D01*
X-15831993Y-4287360D01*
X-15921499Y-4248209D01*
X-16014744Y-4217885D01*
X-16111103Y-4196749D01*
X-16209956Y-4185165D01*
X-16276935Y-4182927D01*
D10*
X120603895Y-42397922D02*
X134343317Y-40571573D01*
D11*
X55094312Y-101206592D02*
X163072734Y-75283303D01*
D10*
X-44924204Y-85901622D02*
X-48538291Y-99281874D01*
X-24533700Y-46901411D02*
X-38331809Y-45590140D01*
X38331913Y-45590140D02*
X39643183Y-59388249D01*
X65114594Y-63246954D02*
X63277464Y-49509404D01*
D11*
X-54518744Y-101591000D02*
X-53265009Y-103315894D01*
D10*
X103818069Y-60991739D02*
X117430232Y-58382753D01*
X-100715678Y-20063107D02*
X-114575961Y-19994090D01*
D11*
X54518851Y-101591000D02*
X54589010Y-101504959D01*
X54667719Y-101427715D01*
X54754138Y-101359830D01*
X54847425Y-101301866D01*
X54946741Y-101254385D01*
X55051245Y-101217948D01*
X55094312Y-101206592D01*
D10*
X146892643Y-54426891D02*
X160630907Y-52594045D01*
D11*
X15872502Y-113435109D02*
X15956272Y-113472226D01*
X16042539Y-113501361D01*
X16130739Y-113522458D01*
X16220311Y-113535460D01*
X16310693Y-113540312D01*
X16401321Y-113536958D01*
X16491635Y-113525342D01*
X16581072Y-113505410D01*
D10*
X57740556Y-47829210D02*
X43908664Y-48704759D01*
X24533803Y-46901411D02*
X38331913Y-45590140D01*
D11*
X-13438693Y-111849310D02*
X-2035772Y-70375183D01*
D10*
X-167434093Y-68504550D02*
X-167843405Y-70894624D01*
X-133927800Y-35113822D02*
X-120070888Y-35385201D01*
X-26822743Y-67436057D02*
X-40423978Y-64771593D01*
X61725647Y-25768284D02*
G75*
G03*
X61725647Y-25768284I-1100000J0D01*
G01*
X-44602984Y-55254326D02*
X-58310501Y-53204013D01*
X114645082Y-33854372D02*
X100784800Y-33923390D01*
X-140670128Y-73127976D02*
X-127244803Y-76573241D01*
X35158143Y-102895962D02*
X31544055Y-89515710D01*
X48538395Y-99281874D02*
X35158143Y-102895962D01*
X24132912Y-40747140D02*
X23643908Y-26895993D01*
X120039219Y-71994916D02*
X106427056Y-74603903D01*
X-63277360Y-49509404D02*
X-77014910Y-47672274D01*
D11*
X-53265009Y-103315894D02*
X-53198005Y-103398468D01*
X-53123099Y-103473023D01*
X-53041021Y-103539052D01*
X-52952501Y-103596053D01*
X-52858270Y-103643522D01*
X-52759058Y-103680953D01*
X-52718143Y-103693003D01*
D10*
X-36718344Y-83469458D02*
G75*
G03*
X-36718344Y-83469458I-1100000J0D01*
G01*
X8386702Y-72412808D02*
X21985935Y-69738421D01*
X163703779Y-71603573D02*
X163294467Y-69213499D01*
X-165159572Y-67663987D02*
X-167434093Y-68504550D01*
X43439959Y-14202438D02*
X57291467Y-14698999D01*
X-136169561Y-54310995D02*
X-122430140Y-56137343D01*
X95540035Y-15870214D02*
X95284172Y-29727792D01*
X-30148601Y-104249071D02*
X-16768320Y-107863130D01*
D11*
X140918982Y-53717759D02*
X135175578Y-13039751D01*
X-1999986Y-40164926D02*
X2000093Y-40164926D01*
X-1999986Y-70110083D02*
X-1999986Y-68716994D01*
D10*
X11061090Y-86012041D02*
X8386702Y-72412808D01*
X78852144Y-61409825D02*
X65114594Y-63246954D01*
X144334047Y-75178711D02*
X145014183Y-72851179D01*
X117430232Y-58382753D02*
X120039219Y-71994916D01*
X147369953Y-72276429D02*
X149045587Y-74029210D01*
D11*
X-46474144Y-4182927D02*
X-46565806Y-4178716D01*
X-46656554Y-4166147D01*
X-46745809Y-4145310D01*
X-46794538Y-4130196D01*
D10*
X-137230513Y-77292745D02*
G75*
G03*
X-137230513Y-77292745I-1100000J0D01*
G01*
X-146892539Y-54426891D02*
X-160630803Y-52594045D01*
X114975802Y-39303968D02*
X116555966Y-53073754D01*
X-137224863Y-59702651D02*
X-140670128Y-73127976D01*
D11*
X-169130094Y-66411622D02*
X-169173499Y-66792850D01*
X-169198593Y-67172200D01*
X-169205706Y-67549190D01*
X-169195166Y-67923335D01*
X-169167304Y-68294154D01*
X-169122450Y-68661162D01*
X-169060933Y-69023877D01*
X-168983084Y-69381815D01*
X-168889232Y-69734494D01*
X-168779708Y-70081431D01*
X-168654841Y-70422141D01*
X-168514960Y-70756143D01*
X-168360397Y-71082953D01*
X-168191480Y-71402087D01*
X-168008540Y-71713063D01*
X-167811906Y-72015398D01*
X-167601909Y-72308608D01*
X-167378878Y-72592211D01*
X-167143143Y-72865723D01*
X-166895034Y-73128661D01*
X-166634881Y-73380542D01*
X-166363013Y-73620883D01*
X-166079761Y-73849201D01*
X-165785455Y-74065013D01*
X-165480424Y-74267835D01*
X-165164998Y-74457184D01*
X-164839507Y-74632578D01*
X-164504282Y-74793533D01*
X-164159651Y-74939566D01*
X-163805944Y-75070194D01*
X-163443493Y-75184934D01*
X-163072626Y-75283303D01*
D10*
X-57740452Y-47829210D02*
X-43908561Y-48704759D01*
D11*
X166903400Y-50261682D02*
X140918982Y-53717759D01*
D10*
X16684000Y-10941762D02*
G75*
G03*
X16684000Y-10941762I-1000000J0D01*
G01*
X-11060986Y-86012041D02*
X-8386599Y-72412808D01*
X-29487207Y-81037293D02*
X-26822743Y-67436057D01*
X-26534542Y-90868790D02*
X-30148601Y-104249071D01*
D11*
X2131524Y-27959878D02*
X2087412Y-28046773D01*
X2052089Y-28137186D01*
X2025731Y-28230449D01*
X2008517Y-28325898D01*
X2000622Y-28422866D01*
X2000093Y-28455412D01*
X163072734Y-75283303D02*
X163443601Y-75184934D01*
X163806052Y-75070194D01*
X164159758Y-74939566D01*
X164504389Y-74793533D01*
X164839615Y-74632578D01*
X165165106Y-74457184D01*
X165480531Y-74267835D01*
X165785562Y-74065013D01*
X166079869Y-73849201D01*
X166363121Y-73620883D01*
X166634988Y-73380542D01*
X166895141Y-73128661D01*
X167143250Y-72865723D01*
X167378985Y-72592211D01*
X167602016Y-72308608D01*
X167812014Y-72015398D01*
X168008647Y-71713063D01*
X168191587Y-71402087D01*
X168360504Y-71082953D01*
X168515068Y-70756143D01*
X168654948Y-70422141D01*
X168779815Y-70081431D01*
X168889340Y-69734494D01*
X168983192Y-69381815D01*
X169061041Y-69023877D01*
X169122557Y-68661162D01*
X169167412Y-68294154D01*
X169195273Y-67923335D01*
X169205813Y-67549190D01*
X169198701Y-67172200D01*
X169173607Y-66792850D01*
X169130202Y-66411622D01*
X169130202Y-66411622D02*
X166903400Y-50261682D01*
D10*
X-35158039Y-102895962D02*
X-31543951Y-89515710D01*
D11*
X-55094204Y-101206592D02*
X-54987859Y-101238453D01*
X-54886367Y-101281584D01*
X-54790568Y-101335423D01*
X-54701301Y-101399406D01*
X-54619408Y-101472974D01*
X-54545728Y-101555563D01*
X-54518744Y-101591000D01*
D10*
X43088546Y-78372828D02*
X29487311Y-81037293D01*
X-56794802Y-28550508D02*
X-42943294Y-28053946D01*
X86231073Y-70573537D02*
X83666888Y-56953202D01*
X-59525543Y-25768284D02*
G75*
G03*
X-59525543Y-25768284I-1100000J0D01*
G01*
X29487311Y-81037293D02*
X26822846Y-67436057D01*
D11*
X-54829276Y-1412597D02*
X-54926723Y-1385049D01*
X-55026126Y-1367540D01*
X-55126714Y-1360143D01*
X-55227716Y-1362930D01*
X-55285321Y-1369124D01*
D10*
X-162463649Y-66332309D02*
X-148725385Y-68165155D01*
D11*
X-2035772Y-70375183D02*
X-2015445Y-70285224D01*
X-2003502Y-70193864D01*
X-1999986Y-70110083D01*
D10*
X160630907Y-52594045D02*
X162463752Y-66332309D01*
X-48538291Y-99281874D02*
X-35158039Y-102895962D01*
X120070992Y-35385201D02*
X119799613Y-21528290D01*
X62694555Y-8704887D02*
X76546409Y-9183282D01*
D11*
X-16580965Y-113505410D02*
X-16491528Y-113525342D01*
X-16401214Y-113536958D01*
X-16310585Y-113540312D01*
X-16220204Y-113535460D01*
X-16130632Y-113522458D01*
X-16042431Y-113501361D01*
X-15956165Y-113472226D01*
X-15872395Y-113435109D01*
D10*
X61420895Y-72239890D02*
X64772843Y-85688242D01*
X-60360814Y-66911531D02*
X-46653296Y-68961843D01*
X-69598097Y-83473686D02*
X-66369393Y-69995151D01*
X-103817965Y-60991739D02*
X-117430128Y-58382753D01*
D11*
X-166903292Y-50261682D02*
X-169130094Y-66411622D01*
D10*
X83076736Y-80244981D02*
X69598201Y-83473686D01*
X-66369393Y-69995151D02*
X-79847928Y-66766446D01*
X145014183Y-72851179D02*
X147369953Y-72276429D01*
X-163294363Y-69213499D02*
X-165159572Y-67663987D01*
X62707154Y-42743610D02*
X62218156Y-28892457D01*
X-64772739Y-85688242D02*
X-51324387Y-89040190D01*
X114576064Y-19994090D02*
X114645082Y-33854372D01*
X-99851304Y-68009352D02*
X-86230969Y-70573537D01*
X-120039115Y-71994916D02*
X-106426952Y-74603903D01*
D11*
X2000093Y-57716998D02*
X-1999986Y-57716998D01*
D10*
X116555966Y-53073754D02*
X102786180Y-54653918D01*
X39643183Y-59388249D02*
X25845074Y-60699520D01*
D11*
X-163072626Y-75283303D02*
X-55094204Y-101206592D01*
D10*
X43908664Y-48704759D02*
X43033116Y-34872868D01*
X-24660219Y-83337653D02*
X-11060986Y-86012041D01*
D11*
X55285428Y-1369124D02*
X55184536Y-1360484D01*
X55083619Y-1362070D01*
X54983449Y-1373810D01*
X54884797Y-1395630D01*
X54829405Y-1412597D01*
D10*
X-40423978Y-64771593D02*
X-43088443Y-78372828D01*
X-167843405Y-70894624D02*
X-165978196Y-72444135D01*
X63277464Y-49509404D02*
X77015014Y-47672274D01*
X-120070888Y-35385201D02*
X-119799510Y-21528290D01*
X57291467Y-14698999D02*
X56794906Y-28550508D01*
X23643908Y-26895993D02*
X37495055Y-26406990D01*
X119480411Y-38811769D02*
G75*
G03*
X119480411Y-38811769I-1100000J0D01*
G01*
X-21985831Y-69738421D02*
X-24660219Y-83337653D01*
X-128582290Y-17371000D02*
G75*
G03*
X-128582290Y-17371000I-1100000J0D01*
G01*
X-46653296Y-68961843D02*
X-44602984Y-55254326D01*
X148365450Y-76356742D02*
X146009680Y-76931492D01*
X46653400Y-68961843D02*
X44603087Y-55254326D01*
X69598201Y-83473686D02*
X66369496Y-69995151D01*
X162463752Y-66332309D02*
X148725489Y-68165155D01*
X-43088443Y-78372828D02*
X-29487207Y-81037293D01*
X37495055Y-26406990D02*
X37984058Y-40258136D01*
X-165978196Y-72444135D02*
X-163703675Y-71603573D01*
D11*
X-134320936Y-12188812D02*
X-134442911Y-12213275D01*
X-134558971Y-12251917D01*
X-134668165Y-12303791D01*
X-134769542Y-12367949D01*
X-134862152Y-12443446D01*
X-134945045Y-12529335D01*
X-135017270Y-12624670D01*
X-135077878Y-12728505D01*
X-135125916Y-12839892D01*
X-135160436Y-12957885D01*
X-135175470Y-13039751D01*
D10*
X62218156Y-28892457D02*
X76069309Y-28403460D01*
D11*
X-2131394Y-27959878D02*
X-15408340Y-4687397D01*
D10*
X58310605Y-53204013D02*
X60360917Y-66911531D01*
X127244907Y-76573241D02*
X123799642Y-63147917D01*
D11*
X15408448Y-4687397D02*
X2131524Y-27959878D01*
D10*
X-114644978Y-33854372D02*
X-100784696Y-33923390D01*
X139430617Y-77292745D02*
G75*
G03*
X139430617Y-77292745I-1100000J0D01*
G01*
X-149045483Y-74029210D02*
X-148365346Y-76356742D01*
X31544055Y-89515710D02*
X44924307Y-85901622D01*
D11*
X13438801Y-111849310D02*
X13472246Y-111949798D01*
X13515726Y-112045404D01*
X13568691Y-112135458D01*
X13630590Y-112219288D01*
X13700872Y-112296227D01*
X13778987Y-112365602D01*
X13864383Y-112426746D01*
X13956512Y-112478987D01*
X-1999986Y-29164930D02*
X-1999986Y-28455412D01*
D10*
X-76067910Y-23035137D02*
X-62216056Y-22556742D01*
X81426595Y-29471930D02*
X81682457Y-15614352D01*
X-145014079Y-72851179D02*
X-147369849Y-72276429D01*
X81682457Y-15614352D02*
X95540035Y-15870214D01*
X13154365Y-94482849D02*
X26534646Y-90868790D01*
X-32420321Y-104992094D02*
G75*
G03*
X-32420321Y-104992094I-1000000J0D01*
G01*
X95284172Y-29727792D02*
X81426595Y-29471930D01*
X-79847928Y-66766446D02*
X-83076633Y-80244981D01*
D11*
X16277043Y-4182927D02*
X16176874Y-4187943D01*
X16078783Y-4202751D01*
X15983393Y-4226989D01*
X15891325Y-4260296D01*
X15803204Y-4302310D01*
X15719651Y-4352669D01*
X15641290Y-4411012D01*
X15568743Y-4476977D01*
X15502634Y-4550202D01*
X15443584Y-4630326D01*
X15408448Y-4687397D01*
D10*
X-127244803Y-76573241D02*
X-123799538Y-63147917D01*
X38918448Y-83469458D02*
G75*
G03*
X38918448Y-83469458I-1100000J0D01*
G01*
X64772843Y-85688242D02*
X51324491Y-89040190D01*
X-81426491Y-29471930D02*
X-81682353Y-15614352D01*
X-16768320Y-107863130D02*
X-13154261Y-94482849D01*
X-65114490Y-63246954D02*
X-63277360Y-49509404D01*
X100715782Y-20063107D02*
X114576064Y-19994090D01*
X-117280307Y-38811769D02*
G75*
G03*
X-117280307Y-38811769I-1100000J0D01*
G01*
X56794906Y-28550508D02*
X42943397Y-28053946D01*
X-160630803Y-52594045D02*
X-162463649Y-66332309D01*
X77015014Y-47672274D02*
X78852144Y-61409825D01*
X-96560286Y-48979248D02*
X-82744907Y-50087128D01*
X165978299Y-72444135D02*
X163703779Y-71603573D01*
X-14684000Y-10941762D02*
G75*
G03*
X-14684000Y-10941762I-1000000J0D01*
G01*
X62216159Y-22556742D02*
X62694555Y-8704887D01*
X-106426952Y-74603903D02*
X-103817965Y-60991739D01*
X76068014Y-23035137D02*
X62216159Y-22556742D01*
X97287223Y-54389017D02*
X99851408Y-68009352D01*
X76069309Y-28403460D02*
X76558306Y-42254612D01*
D11*
X54829405Y-1412597D02*
X46794646Y-4130196D01*
D10*
X66369496Y-69995151D02*
X79848031Y-66766446D01*
X-57291364Y-14698999D02*
X-56794802Y-28550508D01*
X136169665Y-54310995D02*
X122430244Y-56137343D01*
D11*
X53265117Y-103315894D02*
X54518851Y-101591000D01*
D10*
X43033116Y-34872868D02*
X56865007Y-33997319D01*
D11*
X-52718143Y-103693003D02*
X-16580965Y-113505410D01*
D10*
X-39643080Y-59388249D02*
X-25844970Y-60699520D01*
X122430244Y-56137343D02*
X120603895Y-42397922D01*
X16768424Y-107863130D02*
X13154365Y-94482849D01*
X-31543951Y-89515710D02*
X-44924204Y-85901622D01*
X95452509Y-35163868D02*
X96560390Y-48979248D01*
D11*
X46794646Y-4130196D02*
X46706469Y-4155585D01*
X46616479Y-4172759D01*
X46525254Y-4181625D01*
X46474252Y-4182927D01*
D10*
X40424082Y-64771593D02*
X43088546Y-78372828D01*
X119799613Y-21528290D02*
X133656525Y-21256911D01*
X76546409Y-9183282D02*
X76068014Y-23035137D01*
X-24132808Y-40747140D02*
X-23643805Y-26895993D01*
X137224967Y-59702651D02*
X140670232Y-73127976D01*
X-78852040Y-61409825D02*
X-65114490Y-63246954D01*
X-37983955Y-40258136D02*
X-24132808Y-40747140D01*
X-38331809Y-45590140D02*
X-39643080Y-59388249D01*
X-163703675Y-71603573D02*
X-163294363Y-69213499D01*
X123799642Y-63147917D02*
X137224967Y-59702651D01*
D11*
X2000093Y-68716994D02*
X2000093Y-70110083D01*
D10*
X167434197Y-68504550D02*
X167843508Y-70894624D01*
X44603087Y-55254326D02*
X58310605Y-53204013D01*
X-8386599Y-72412808D02*
X-21985831Y-69738421D01*
X-58310501Y-53204013D02*
X-60360814Y-66911531D01*
D11*
X-1999986Y-57716998D02*
X-1999986Y-40164926D01*
D10*
X83666888Y-56953202D02*
X97287223Y-54389017D01*
X99851408Y-68009352D02*
X86231073Y-70573537D01*
D11*
X134321043Y-12188812D02*
X55285428Y-1369124D01*
D10*
X-37494951Y-26406990D02*
X-37983955Y-40258136D01*
X-76069205Y-28403460D02*
X-76558203Y-42254612D01*
M02*
