%TF.GenerationSoftware,KiCad,Pcbnew,(6.0.1)*%
%TF.CreationDate,2022-02-27T14:43:08+09:00*%
%TF.ProjectId,ergotonic_f24_parts,6572676f-746f-46e6-9963-5f6632345f70,rev?*%
%TF.SameCoordinates,Original*%
%TF.FileFunction,Profile,NP*%
%FSLAX46Y46*%
G04 Gerber Fmt 4.6, Leading zero omitted, Abs format (unit mm)*
G04 Created by KiCad (PCBNEW (6.0.1)) date 2022-02-27 14:43:08*
%MOMM*%
%LPD*%
G01*
G04 APERTURE LIST*
%ADD10C,0.090000*%
%TA.AperFunction,Profile*%
%ADD11C,0.090000*%
%TD*%
G04 APERTURE END LIST*
D10*
X36556813Y-21958350D02*
X36662369Y-21964985D01*
X36764557Y-21982210D01*
X36862846Y-22009456D01*
X36956707Y-22046155D01*
X37045607Y-22091738D01*
X37129017Y-22145636D01*
X37206405Y-22207279D01*
X37277241Y-22276100D01*
X37340995Y-22351529D01*
X37397134Y-22432998D01*
X37445130Y-22519938D01*
X37484451Y-22611780D01*
X37514566Y-22707955D01*
X37534945Y-22807894D01*
X37545056Y-22911029D01*
X37544371Y-23016791D01*
X28241041Y-6475961D02*
X28086625Y-6479866D01*
X27934238Y-6491456D01*
X27784067Y-6510543D01*
X27636301Y-6536938D01*
X27491129Y-6570452D01*
X27348740Y-6610896D01*
X27209321Y-6658082D01*
X27073062Y-6711821D01*
X26940150Y-6771925D01*
X26810776Y-6838204D01*
X26685127Y-6910471D01*
X26563392Y-6988536D01*
X26445759Y-7072211D01*
X26332418Y-7161307D01*
X26223556Y-7255636D01*
X26119362Y-7355009D01*
X26020026Y-7459237D01*
X25925735Y-7568132D01*
X25836678Y-7681504D01*
X25753043Y-7799166D01*
X25675020Y-7920929D01*
X25602797Y-8046603D01*
X25536563Y-8176001D01*
X25476505Y-8308934D01*
X25422813Y-8445213D01*
X25375676Y-8584649D01*
X25335281Y-8727053D01*
X25301818Y-8872238D01*
X25275475Y-9020015D01*
X25256440Y-9170194D01*
X25244903Y-9322587D01*
X25241052Y-9477006D01*
X-31878222Y-22693145D02*
X-31878222Y-27398543D01*
X-69062643Y-20954647D02*
X-68971058Y-20951416D01*
X-68881558Y-20941366D01*
X-68785849Y-20921795D01*
X-68777303Y-20919550D01*
D11*
X-28830080Y24173931D02*
X-9780080Y24173920D01*
D10*
X11476151Y28137365D02*
X11092497Y28127412D01*
X10713248Y28099578D01*
X10338838Y28054256D01*
X9969698Y27991840D01*
X9606263Y27912724D01*
X9248964Y27817303D01*
X8898235Y27705971D01*
X8554508Y27579121D01*
X8218216Y27437148D01*
X7889793Y27280445D01*
X7569671Y27109408D01*
X7258282Y26924429D01*
X6956060Y26725904D01*
X6663438Y26514226D01*
X6380849Y26289789D01*
X6108724Y26052988D01*
X5847498Y25804215D01*
X5597603Y25543867D01*
X5359472Y25272336D01*
X5133538Y24990017D01*
X4920234Y24697303D01*
X4719992Y24394590D01*
X4533245Y24082270D01*
X4360427Y23760739D01*
X4201970Y23430390D01*
X4058307Y23091617D01*
X3929871Y22744814D01*
X3817094Y22390376D01*
X3720411Y22028696D01*
X3640252Y21660169D01*
X3577052Y21285189D01*
X3531244Y20904150D01*
D11*
X64981244Y-105599237D02*
G75*
G03*
X64981244Y-105599237I-1100000J0D01*
G01*
D10*
X-117850881Y-4275966D02*
X-97375043Y-4275966D01*
X-60033791Y-52570881D02*
X-60003862Y-52567866D01*
X2215708Y-34266927D02*
X2215708Y-34266927D01*
X30986976Y-116795821D02*
X-30987385Y-116795821D01*
X-1516180Y-35327420D02*
X-1521859Y-35439890D01*
X-1538528Y-35549110D01*
X-1565634Y-35654529D01*
X-1602624Y-35755593D01*
X-1648946Y-35851748D01*
X-1704045Y-35942443D01*
X-1767369Y-36027124D01*
X-1838366Y-36105239D01*
X-1916481Y-36176235D01*
X-2001163Y-36239558D01*
X-2091858Y-36294656D01*
X-2188013Y-36340976D01*
X-2289076Y-36377965D01*
X-2394492Y-36405070D01*
X-2503710Y-36421738D01*
X-2616177Y-36427418D01*
X37394810Y-59245264D02*
X37394810Y-59229546D01*
X2217786Y-69020221D02*
X2217786Y-69020221D01*
X-86375089Y-116795821D02*
X-86375089Y-114600175D01*
X-60001784Y-17570207D02*
X-60302061Y-17571439D01*
X-60601749Y-17575130D01*
X-60900839Y-17581268D01*
X-61199322Y-17589843D01*
X-61497189Y-17600844D01*
X-61794431Y-17614260D01*
X-62091039Y-17630081D01*
X-62387005Y-17648297D01*
X-62682318Y-17668896D01*
X-62976972Y-17691867D01*
X-63270956Y-17717201D01*
X-63564261Y-17744886D01*
X-63856879Y-17774912D01*
X-64148801Y-17807268D01*
X-64440018Y-17841943D01*
X-64730521Y-17878927D01*
X-65020301Y-17918210D01*
X-65309350Y-17959780D01*
X-65597657Y-18003626D01*
X-65885215Y-18049739D01*
X-66172014Y-18098107D01*
X-66458046Y-18148720D01*
X-66743301Y-18201567D01*
X-67027772Y-18256638D01*
X-67311448Y-18313922D01*
X-67594320Y-18373407D01*
X-67876381Y-18435084D01*
X-68157621Y-18498942D01*
X-68438031Y-18564970D01*
X-68717603Y-18633158D01*
X-68996326Y-18703494D01*
X-69274194Y-18775969D01*
X69068387Y-53565609D02*
X69103635Y-53556781D01*
X-69311519Y-53556781D02*
X-69348877Y-53547436D01*
X70538158Y-83435971D02*
X59521991Y-83435971D01*
X67751743Y-113334211D02*
X67726356Y-113453370D01*
X67715624Y-113571440D01*
X67718851Y-113687510D01*
X67735345Y-113800669D01*
X67764412Y-113910008D01*
X67805359Y-114014615D01*
X67857494Y-114113581D01*
X67920122Y-114205994D01*
X67992550Y-114290945D01*
X68074085Y-114367523D01*
X68164035Y-114434817D01*
X68261704Y-114491918D01*
X68366401Y-114537915D01*
X68477432Y-114571897D01*
X68594104Y-114592953D01*
X68715724Y-114600175D01*
X-2404628Y-34248740D02*
X-2369380Y-34257568D01*
X11560724Y-33042992D02*
X11260446Y-33044224D01*
X10960758Y-33047915D01*
X10661668Y-33054053D01*
X10363185Y-33062628D01*
X10065318Y-33073629D01*
X9768076Y-33087045D01*
X9471467Y-33102866D01*
X9175502Y-33121082D01*
X8880188Y-33141681D01*
X8585535Y-33164652D01*
X8291551Y-33189986D01*
X7998245Y-33217671D01*
X7705627Y-33247697D01*
X7413705Y-33280053D01*
X7122488Y-33314728D01*
X6831985Y-33351712D01*
X6542205Y-33390995D01*
X6253157Y-33432565D01*
X5964849Y-33476411D01*
X5677291Y-33522524D01*
X5390492Y-33570892D01*
X5104460Y-33621505D01*
X4819205Y-33674352D01*
X4534735Y-33729423D01*
X4251059Y-33786707D01*
X3968186Y-33846192D01*
X3686125Y-33907869D01*
X3404885Y-33971727D01*
X3124475Y-34037755D01*
X2844904Y-34105943D01*
X2566181Y-34176279D01*
X2288314Y-34248754D01*
X-44461003Y-74500362D02*
X-44461003Y-74475062D01*
X70472356Y-52395725D02*
X70472356Y-19993073D01*
X69817810Y1924021D02*
X63401621Y24605819D01*
X69954757Y-19854650D02*
X69949077Y-19967119D01*
X69932408Y-20076340D01*
X69905302Y-20181758D01*
X69868312Y-20282822D01*
X69821990Y-20378978D01*
X69766891Y-20469672D01*
X69703567Y-20554354D01*
X69632570Y-20632468D01*
X69554454Y-20703464D01*
X69469773Y-20766787D01*
X69379077Y-20821885D01*
X69282922Y-20868205D01*
X69181860Y-20905194D01*
X69076443Y-20932299D01*
X68967225Y-20948967D01*
X68854759Y-20954647D01*
X9267996Y-81338381D02*
X12499969Y-81338381D01*
X884356Y-35418639D02*
X884356Y-67821291D01*
X-86375046Y-6475961D02*
X-86375046Y-4275966D01*
X-2901517Y-36392321D02*
X-3163494Y-36323423D01*
X-3426288Y-36256558D01*
X-3689891Y-36191735D01*
X-3954294Y-36128964D01*
X-4219488Y-36068254D01*
X-4485465Y-36009615D01*
X-4752216Y-35953056D01*
X-5019732Y-35898588D01*
X-5288004Y-35846220D01*
X-5557025Y-35795961D01*
X-5826784Y-35747821D01*
X-6097274Y-35701810D01*
X-6368486Y-35657938D01*
X-6640411Y-35616213D01*
X-6913040Y-35576646D01*
X-7186366Y-35539247D01*
X-7460378Y-35504024D01*
X-7735068Y-35470988D01*
X-8010429Y-35440148D01*
X-8286450Y-35411514D01*
X-8563124Y-35385096D01*
X-8840441Y-35360903D01*
X-9118394Y-35338944D01*
X-9396972Y-35319230D01*
X-9676169Y-35301770D01*
X-9955974Y-35286573D01*
X-10236380Y-35273650D01*
X-10517377Y-35263010D01*
X-10798957Y-35254662D01*
X-11081111Y-35248616D01*
X-11363831Y-35244883D01*
X-11647108Y-35243471D01*
X59521991Y-65121197D02*
X61297852Y-65121197D01*
X62088695Y-6475961D02*
X48499990Y-6475961D01*
X-11677037Y-35246486D02*
X-11789506Y-35240806D01*
X-11898727Y-35224138D01*
X-12004146Y-35197033D01*
X-12105209Y-35160044D01*
X-12201365Y-35113724D01*
X-12292060Y-35058626D01*
X-12376741Y-34995303D01*
X-12454856Y-34924307D01*
X-12525851Y-34846193D01*
X-12589174Y-34761511D01*
X-12644272Y-34670817D01*
X-12690592Y-34574661D01*
X-12727582Y-34473597D01*
X-12754687Y-34368179D01*
X-12771355Y-34258958D01*
X-12777035Y-34146489D01*
X-17152937Y-29598538D02*
X-33003520Y-29598538D01*
X-55602678Y-59290524D02*
X-55597129Y-59180640D01*
X-55580843Y-59073931D01*
X-55554360Y-58970936D01*
X-55518220Y-58872196D01*
X-55472964Y-58778250D01*
X-55419131Y-58689640D01*
X-55357263Y-58606904D01*
X-55287898Y-58530584D01*
X-55211578Y-58461219D01*
X-55128842Y-58399351D01*
X-55040232Y-58345518D01*
X-54946286Y-58300262D01*
X-54847546Y-58264122D01*
X-54744551Y-58237639D01*
X-54637842Y-58221353D01*
X-54527959Y-58215805D01*
X2499864Y-36427432D02*
X2591448Y-36424201D01*
X2680948Y-36414151D01*
X2776657Y-36394580D01*
X2785204Y-36392335D01*
X37394810Y-59290524D02*
X37394810Y-59245264D01*
X-41987381Y-109692163D02*
X-41987381Y-116795821D01*
X70472356Y-19993073D02*
X70472214Y-19875942D01*
X70471252Y-19781703D01*
X70468738Y-19683727D01*
X70463935Y-19583582D01*
X70456105Y-19482835D01*
X70444510Y-19383054D01*
X70428415Y-19285806D01*
X70407080Y-19192659D01*
X70379770Y-19105180D01*
X70332787Y-19000068D01*
X-68779381Y-51422027D02*
X-68779381Y-51422027D01*
X2215708Y-34266927D02*
X2129231Y-34293958D01*
X2005616Y-34347008D01*
X1890307Y-34414103D01*
X1784412Y-34494168D01*
X1689041Y-34586128D01*
X1605301Y-34688907D01*
X1534300Y-34801429D01*
X1477148Y-34922618D01*
X1447288Y-35007695D01*
X1424403Y-35095828D01*
X1408823Y-35186697D01*
X1400875Y-35279984D01*
X1399867Y-35327435D01*
X-78955430Y-72725987D02*
X-78977422Y-72634350D01*
X-78993180Y-72541550D01*
X-79002665Y-72447903D01*
X-79005836Y-72353723D01*
X115295654Y-114600175D02*
X115417273Y-114592953D01*
X115533944Y-114571897D01*
X115644974Y-114537915D01*
X115749670Y-114491918D01*
X115847338Y-114434817D01*
X115937286Y-114367523D01*
X116018820Y-114290945D01*
X116091247Y-114205994D01*
X116153874Y-114113581D01*
X116206008Y-114014615D01*
X116246955Y-113910008D01*
X116276023Y-113800669D01*
X116292518Y-113687510D01*
X116295747Y-113571440D01*
X116285017Y-113453370D01*
X116259635Y-113334211D01*
X2787282Y-66894813D02*
X3049259Y-66963710D01*
X3312053Y-67030575D01*
X3575656Y-67095398D01*
X3840059Y-67158170D01*
X4105253Y-67218880D01*
X4371230Y-67277519D01*
X4637980Y-67334077D01*
X4905496Y-67388546D01*
X5173769Y-67440914D01*
X5442789Y-67491173D01*
X5712549Y-67539313D01*
X5983039Y-67585324D01*
X6254250Y-67629196D01*
X6526175Y-67670921D01*
X6798805Y-67710488D01*
X7072130Y-67747888D01*
X7346142Y-67783110D01*
X7620832Y-67816146D01*
X7896193Y-67846986D01*
X8172214Y-67875620D01*
X8448888Y-67902039D01*
X8726205Y-67926232D01*
X9004158Y-67948191D01*
X9282736Y-67967905D01*
X9561933Y-67985366D01*
X9841738Y-68000562D01*
X10122144Y-68013486D01*
X10403141Y-68024126D01*
X10684721Y-68032474D01*
X10966875Y-68038519D01*
X11249595Y-68042253D01*
X11532872Y-68043666D01*
X-55602678Y-59341102D02*
X-55602678Y-59290524D01*
X-12777035Y-34146489D02*
X-12771355Y-34034022D01*
X-12754687Y-33924804D01*
X-12727582Y-33819387D01*
X-12690593Y-33718325D01*
X-12644273Y-33622170D01*
X-12589175Y-33531474D01*
X-12525852Y-33446793D01*
X-12454856Y-33368677D01*
X-12376742Y-33297680D01*
X-12292060Y-33234356D01*
X-12201366Y-33179257D01*
X-12105210Y-33132936D01*
X-12004146Y-33095945D01*
X-11898728Y-33068839D01*
X-11789507Y-33052170D01*
X-11677038Y-33046491D01*
X23500008Y-4275966D02*
X37499994Y-4275966D01*
X68569419Y-20919550D02*
X68307441Y-20850652D01*
X68044647Y-20783787D01*
X67781044Y-20718964D01*
X67516641Y-20656192D01*
X67251447Y-20595482D01*
X66985470Y-20536843D01*
X66718720Y-20480285D01*
X66451204Y-20425816D01*
X66182931Y-20373448D01*
X65913911Y-20323189D01*
X65644151Y-20275049D01*
X65373661Y-20229038D01*
X65102450Y-20185166D01*
X64830525Y-20143441D01*
X64557895Y-20103874D01*
X64284570Y-20066474D01*
X64010558Y-20031252D01*
X63735868Y-19998216D01*
X63460507Y-19967376D01*
X63184486Y-19938742D01*
X62907812Y-19912323D01*
X62630495Y-19888130D01*
X62352542Y-19866171D01*
X62073964Y-19846457D01*
X61794767Y-19828996D01*
X61514962Y-19813800D01*
X61234556Y-19800876D01*
X60953559Y-19790236D01*
X60671979Y-19781888D01*
X60389825Y-19775843D01*
X60107105Y-19772109D01*
X59823829Y-19770697D01*
X43115650Y-81338381D02*
X43270067Y-81334475D01*
X43422456Y-81322885D01*
X43572628Y-81303798D01*
X43720395Y-81277403D01*
X43865568Y-81243889D01*
X44007958Y-81203445D01*
X44147378Y-81156259D01*
X44283638Y-81102520D01*
X44416549Y-81042416D01*
X44545924Y-80976137D01*
X44671573Y-80903870D01*
X44793309Y-80825805D01*
X44910941Y-80742130D01*
X45024283Y-80653034D01*
X45133145Y-80558705D01*
X45237338Y-80459332D01*
X45336675Y-80355104D01*
X45430966Y-80246209D01*
X45520023Y-80132837D01*
X45603658Y-80015175D01*
X45681681Y-79893412D01*
X45753904Y-79767738D01*
X45820139Y-79638340D01*
X45880197Y-79505407D01*
X45933890Y-79369129D01*
X45981028Y-79229693D01*
X46021424Y-79087288D01*
X46054888Y-78942103D01*
X46081232Y-78794327D01*
X46100268Y-78644148D01*
X46111807Y-78491755D01*
X46115661Y-78337337D01*
X17036600Y-27398543D02*
X31761907Y-27398543D01*
X-69348877Y-53547436D02*
X-69348877Y-53547436D01*
X11532872Y-68043666D02*
X11562801Y-68040651D01*
X13674833Y-109756780D02*
X30986976Y-109717269D01*
X48499990Y-4275966D02*
X88727379Y-4275966D01*
X41986972Y-116795821D02*
X41986972Y-109692163D01*
X78955387Y-72726073D02*
X67751743Y-113334211D01*
X-34078217Y-28584797D02*
X-34078217Y-28569079D01*
X-26461003Y-74449784D02*
X-26461003Y-74500341D01*
D11*
X82249762Y-53671375D02*
G75*
G03*
X82249762Y-53671375I-1100000J0D01*
G01*
D10*
X117850838Y-275974D02*
X48499990Y-275974D01*
X-54527981Y-60415800D02*
X-54637863Y-60410251D01*
X-54744572Y-60393966D01*
X-54847566Y-60367484D01*
X-54946305Y-60331345D01*
X-55040249Y-60286091D01*
X-55128857Y-60232260D01*
X-55211591Y-60170393D01*
X-55287909Y-60101031D01*
X-55357272Y-60024712D01*
X-55419138Y-59941979D01*
X-55472969Y-59853370D01*
X-55518224Y-59759426D01*
X-55554362Y-59660687D01*
X-55580844Y-59557693D01*
X-55597129Y-59450984D01*
X-55602678Y-59341102D01*
X-46231954Y-78337337D02*
X-46228100Y-78491755D01*
X-46216562Y-78644148D01*
X-46197526Y-78794327D01*
X-46171181Y-78942103D01*
X-46137717Y-79087288D01*
X-46097321Y-79229693D01*
X-46050183Y-79369129D01*
X-45996491Y-79505407D01*
X-45936433Y-79638340D01*
X-45870198Y-79767738D01*
X-45797974Y-79893412D01*
X-45719951Y-80015175D01*
X-45636317Y-80132837D01*
X-45547260Y-80246209D01*
X-45452969Y-80355104D01*
X-45353632Y-80459332D01*
X-45249438Y-80558705D01*
X-45140577Y-80653034D01*
X-45027235Y-80742130D01*
X-44909602Y-80825805D01*
X-44787867Y-80903870D01*
X-44662218Y-80976137D01*
X-44532843Y-81042416D01*
X-44399931Y-81102520D01*
X-44263671Y-81156259D01*
X-44124252Y-81203445D01*
X-43981861Y-81243889D01*
X-43836688Y-81277403D01*
X-43688921Y-81303798D01*
X-43538749Y-81322885D01*
X-43386360Y-81334475D01*
X-43231943Y-81338381D01*
X-105005585Y-72353788D02*
X-105008758Y-72447971D01*
X-105018251Y-72541626D01*
X-105034016Y-72634433D01*
X-105056012Y-72726073D01*
X-117850881Y-116795821D02*
X-117850881Y-120795835D01*
X37400947Y-59229546D02*
X37411964Y-59125120D01*
X37432622Y-59023888D01*
X37462447Y-58926340D01*
X37500968Y-58832963D01*
X37547712Y-58744248D01*
X37602207Y-58660682D01*
X37663980Y-58582755D01*
X37732559Y-58510955D01*
X37807471Y-58445771D01*
X37888244Y-58387693D01*
X37974406Y-58337208D01*
X38065483Y-58294806D01*
X38161005Y-58260976D01*
X38260498Y-58236207D01*
X38363489Y-58220987D01*
X38469508Y-58215805D01*
X88727379Y-4275966D02*
X88727379Y-6475961D01*
X-64900044Y-7985344D02*
X-70540655Y-19000068D01*
X-68777303Y-20919550D02*
X-68777303Y-20919550D01*
X-8852517Y-106117791D02*
X-2436285Y-83435992D01*
X-44145152Y-12239283D02*
X-28294569Y-12239283D01*
X11562801Y-70244156D02*
X11262523Y-70242923D01*
X10962835Y-70239232D01*
X10663745Y-70233094D01*
X10365262Y-70224519D01*
X10067395Y-70213518D01*
X9770153Y-70200102D01*
X9473545Y-70184281D01*
X9177579Y-70166065D01*
X8882266Y-70145466D01*
X8587612Y-70122495D01*
X8293628Y-70097161D01*
X8000323Y-70069476D01*
X7707705Y-70039450D01*
X7415783Y-70007094D01*
X7124566Y-69972419D01*
X6834063Y-69935435D01*
X6544283Y-69896152D01*
X6255235Y-69854582D01*
X5966927Y-69810736D01*
X5679369Y-69764623D01*
X5392570Y-69716255D01*
X5106538Y-69665642D01*
X4821283Y-69612795D01*
X4536813Y-69557724D01*
X4253137Y-69500440D01*
X3970264Y-69440955D01*
X3688203Y-69379278D01*
X3406963Y-69315420D01*
X3126553Y-69249392D01*
X2846982Y-69181204D01*
X2568259Y-69110868D01*
X2290392Y-69038394D01*
X99727375Y-6475961D02*
X99727375Y-4275966D01*
X-12499991Y-22693124D02*
X-12499991Y-4275966D01*
X-13675134Y-109756780D02*
X-13465818Y-109752911D01*
X-13258287Y-109740449D01*
X-13052741Y-109719544D01*
X-12849378Y-109690346D01*
X-12648400Y-109653007D01*
X-12450005Y-109607677D01*
X-12254392Y-109554507D01*
X-12061763Y-109493647D01*
X-11872315Y-109425248D01*
X-11686250Y-109349460D01*
X-11503766Y-109266435D01*
X-11325063Y-109176323D01*
X-11150341Y-109079274D01*
X-10979800Y-108975439D01*
X-10813639Y-108864970D01*
X-10652057Y-108748016D01*
X-10495255Y-108624728D01*
X-10343432Y-108495256D01*
X-10196788Y-108359753D01*
X-10055522Y-108218367D01*
X-9919834Y-108071250D01*
X-9789924Y-107918553D01*
X-9665992Y-107760426D01*
X-9548236Y-107597019D01*
X-9436856Y-107428484D01*
X-9332053Y-107254971D01*
X-9234026Y-107076630D01*
X-9142975Y-106893613D01*
X-9059098Y-106706070D01*
X-8982597Y-106514151D01*
X-8913670Y-106318008D01*
X-8852517Y-106117791D01*
D11*
X-5230931Y4758627D02*
G75*
G03*
X-5230931Y4758627I-1100000J0D01*
G01*
D10*
X1399867Y-35327435D02*
X1405546Y-35439904D01*
X1422215Y-35549125D01*
X1449321Y-35654543D01*
X1486311Y-35755607D01*
X1532633Y-35851763D01*
X1587732Y-35942457D01*
X1651056Y-36027139D01*
X1722053Y-36105253D01*
X1800168Y-36176249D01*
X1884850Y-36239572D01*
X1975545Y-36294670D01*
X2071700Y-36340990D01*
X2172763Y-36377979D01*
X2278179Y-36405084D01*
X2387397Y-36421752D01*
X2499864Y-36427432D01*
X60774370Y-109649293D02*
X61158152Y-109639332D01*
X61537525Y-109611479D01*
X61912055Y-109566126D01*
X62281310Y-109503670D01*
X62644854Y-109424504D01*
X63002257Y-109329022D01*
X63353084Y-109217621D01*
X63696901Y-109090693D01*
X64033277Y-108948633D01*
X64361778Y-108791837D01*
X64681971Y-108620699D01*
X64993422Y-108435612D01*
X65295698Y-108236973D01*
X65588366Y-108025175D01*
X65870994Y-107800612D01*
X66143147Y-107563680D01*
X66404392Y-107314773D01*
X66654297Y-107054286D01*
X66892428Y-106782613D01*
X67118353Y-106500148D01*
X67331637Y-106207286D01*
X67531847Y-105904422D01*
X67718551Y-105591951D01*
X67891316Y-105270266D01*
X68049708Y-104939763D01*
X68193293Y-104600835D01*
X68321639Y-104253878D01*
X68434313Y-103899287D01*
X68530881Y-103537454D01*
X68610911Y-103168776D01*
X68673968Y-102793647D01*
X68719621Y-102412461D01*
X-70540655Y-19000068D02*
X-70587639Y-19105180D01*
X-70614949Y-19192659D01*
X-70636283Y-19285806D01*
X-70652379Y-19383054D01*
X-70663973Y-19482835D01*
X-70671804Y-19583582D01*
X-70676607Y-19683727D01*
X-70679121Y-19781703D01*
X-70680083Y-19875942D01*
X-70680225Y-19993073D01*
X48499990Y1924043D02*
X69817810Y1924021D01*
X-65844560Y-62606062D02*
X-65758821Y-62750137D01*
X-65668717Y-62890654D01*
X-65574363Y-63027546D01*
X-65475874Y-63160746D01*
X-65373365Y-63290188D01*
X-65266951Y-63415805D01*
X-65156746Y-63537530D01*
X-65042865Y-63655298D01*
X-64925423Y-63769041D01*
X-64804536Y-63878692D01*
X-64680317Y-63984186D01*
X-64552883Y-64085456D01*
X-64422347Y-64182435D01*
X-64288825Y-64275056D01*
X-64152431Y-64363253D01*
X-64013281Y-64446959D01*
X-63871489Y-64526108D01*
X-63727170Y-64600633D01*
X-63580440Y-64670468D01*
X-63431412Y-64735546D01*
X-63280202Y-64795800D01*
X-63126924Y-64851164D01*
X-62971694Y-64901572D01*
X-62814627Y-64946955D01*
X-62655836Y-64987249D01*
X-62495438Y-65022387D01*
X-62333548Y-65052301D01*
X-62170279Y-65076926D01*
X-62005746Y-65096194D01*
X-61840066Y-65110040D01*
X-61673352Y-65118396D01*
X-61505720Y-65121197D01*
D11*
X-60020449Y-86270574D02*
G75*
G03*
X-60020449Y-86270574I-1100000J0D01*
G01*
D10*
X-61505720Y-65121197D02*
X-59522400Y-65121197D01*
X-115295676Y-114600175D02*
X-97375086Y-114600175D01*
X33812342Y-64797552D02*
X36217729Y-23751651D01*
X-38677376Y-58215805D02*
X-38571357Y-58220987D01*
X-38468366Y-58236207D01*
X-38368873Y-58260976D01*
X-38273351Y-58294806D01*
X-38182274Y-58337208D01*
X-38096112Y-58387693D01*
X-38015339Y-58445771D01*
X-37940427Y-58510955D01*
X-37871848Y-58582755D01*
X-37810075Y-58660682D01*
X-37755581Y-58744248D01*
X-37708837Y-58832963D01*
X-37670316Y-58926340D01*
X-37640490Y-59023888D01*
X-37619833Y-59125120D01*
X-37608816Y-59229546D01*
X43937284Y-14439278D02*
X29211998Y-14439278D01*
X25244648Y-19858327D02*
X25246891Y-19953857D01*
X25253553Y-20048239D01*
X25264535Y-20141371D01*
X25279735Y-20233151D01*
X25299055Y-20323479D01*
X25322394Y-20412255D01*
X25349652Y-20499376D01*
X25380728Y-20584742D01*
X25415524Y-20668253D01*
X25453938Y-20749806D01*
X25541222Y-20906638D01*
X25641779Y-21054430D01*
X25754810Y-21192375D01*
X25879512Y-21319665D01*
X26015087Y-21435491D01*
X26160733Y-21539047D01*
X26315648Y-21629524D01*
X26396333Y-21669606D01*
X26479034Y-21706115D01*
X26563653Y-21738950D01*
X26650089Y-21768011D01*
X26738242Y-21793196D01*
X26828012Y-21814405D01*
X26919299Y-21831536D01*
X27012003Y-21844489D01*
D11*
X28993584Y5123926D02*
X28993606Y24173926D01*
D10*
X884356Y-67821291D02*
X884497Y-67938421D01*
X885459Y-68032660D01*
X887973Y-68130636D01*
X892776Y-68230781D01*
X900607Y-68331528D01*
X912201Y-68431309D01*
X928296Y-68528557D01*
X949631Y-68621704D01*
X976941Y-68709184D01*
X1023925Y-68814297D01*
X2255144Y-69029566D02*
X2217786Y-69020221D01*
X59793900Y-19773712D02*
X59681430Y-19768032D01*
X59572209Y-19751364D01*
X59466790Y-19724259D01*
X59365727Y-19687269D01*
X59269571Y-19640949D01*
X59178876Y-19585851D01*
X59094195Y-19522528D01*
X59016080Y-19451533D01*
X58945085Y-19373418D01*
X58881762Y-19288737D01*
X58826664Y-19198042D01*
X58780344Y-19101886D01*
X58743354Y-19000823D01*
X58716249Y-18895404D01*
X58699581Y-18786183D01*
X58693902Y-18673714D01*
X-2334088Y-69020207D02*
X-2334088Y-69020207D01*
X2785204Y-36392335D02*
X2785204Y-36392335D01*
D11*
X-43346286Y-96160861D02*
G75*
G03*
X-43346286Y-96160861I-4800000J0D01*
G01*
D10*
X-2903585Y-66894799D02*
X-3165561Y-66963696D01*
X-3428356Y-67030561D01*
X-3691959Y-67095384D01*
X-3956361Y-67158156D01*
X-4221556Y-67218866D01*
X-4487532Y-67277505D01*
X-4754283Y-67334064D01*
X-5021799Y-67388532D01*
X-5290071Y-67440901D01*
X-5559091Y-67491160D01*
X-5828851Y-67539300D01*
X-6099341Y-67585311D01*
X-6370552Y-67629184D01*
X-6642477Y-67670908D01*
X-6915107Y-67710475D01*
X-7188432Y-67747875D01*
X-7462444Y-67783098D01*
X-7737135Y-67816134D01*
X-8012495Y-67846974D01*
X-8288516Y-67875608D01*
X-8565190Y-67902027D01*
X-8842507Y-67926220D01*
X-9120460Y-67948179D01*
X-9399038Y-67967894D01*
X-9678235Y-67985354D01*
X-9958040Y-68000551D01*
X-10238446Y-68013474D01*
X-10519443Y-68024115D01*
X-10801023Y-68032463D01*
X-11083177Y-68038508D01*
X-11365897Y-68042242D01*
X-11649174Y-68043655D01*
X-36334044Y-23751629D02*
X-33928635Y-64797552D01*
X2785204Y-36392335D02*
X3047181Y-36323437D01*
X3309975Y-36256572D01*
X3573578Y-36191749D01*
X3837981Y-36128977D01*
X4103175Y-36068267D01*
X4369152Y-36009628D01*
X4635902Y-35953070D01*
X4903418Y-35898601D01*
X5171691Y-35846233D01*
X5440711Y-35795974D01*
X5710471Y-35747834D01*
X5980961Y-35701823D01*
X6252172Y-35657951D01*
X6524097Y-35616226D01*
X6796727Y-35576659D01*
X7070052Y-35539259D01*
X7344064Y-35504037D01*
X7618754Y-35471001D01*
X7894115Y-35440161D01*
X8170136Y-35411527D01*
X8446810Y-35385108D01*
X8724127Y-35360915D01*
X9002080Y-35338956D01*
X9280658Y-35319242D01*
X9559855Y-35301781D01*
X9839660Y-35286585D01*
X10120066Y-35273661D01*
X10401063Y-35263021D01*
X10682643Y-35254673D01*
X10964797Y-35248628D01*
X11247517Y-35244894D01*
X11530794Y-35243482D01*
X39594805Y-60415800D02*
X39594805Y-65121197D01*
X23499965Y-81338381D02*
X43115650Y-81338381D01*
X105005541Y-72353723D02*
X105005541Y-30484638D01*
X12660721Y-34146499D02*
X12655041Y-34034032D01*
X12638373Y-33924814D01*
X12611268Y-33819398D01*
X12574279Y-33718335D01*
X12527959Y-33622180D01*
X12472861Y-33531485D01*
X12409538Y-33446803D01*
X12338542Y-33368688D01*
X12260428Y-33297691D01*
X12175746Y-33234367D01*
X12085052Y-33179268D01*
X11988896Y-33132946D01*
X11887832Y-33095956D01*
X11782414Y-33068850D01*
X11673193Y-33052181D01*
X11560724Y-33046502D01*
X-1540151Y1924021D02*
X-3367710Y20904107D01*
X68569419Y-20919550D02*
X68569419Y-20919550D01*
X-17152915Y-27398543D02*
X-17043032Y-27404091D01*
X-16936323Y-27420376D01*
X-16833329Y-27446858D01*
X-16734590Y-27482997D01*
X-16640646Y-27528251D01*
X-16552038Y-27582082D01*
X-16469304Y-27643949D01*
X-16392986Y-27713311D01*
X-16323623Y-27789629D01*
X-16261757Y-27872363D01*
X-16207926Y-27960972D01*
X-16162671Y-28054916D01*
X-16126533Y-28153655D01*
X-16100051Y-28256648D01*
X-16083766Y-28363357D01*
X-16078218Y-28473240D01*
X-59522400Y-83435971D02*
X-70538459Y-83435971D01*
X-3367710Y20904107D02*
X-3413518Y21285148D01*
X-3476718Y21660130D01*
X-3556876Y22028659D01*
X-3653560Y22390340D01*
X-3766337Y22744780D01*
X-3894773Y23091584D01*
X-4038436Y23430358D01*
X-4196893Y23760709D01*
X-4369711Y24082241D01*
X-4556457Y24394562D01*
X-4756699Y24697276D01*
X-4970004Y24989990D01*
X-5195938Y25272310D01*
X-5434069Y25543842D01*
X-5683964Y25804191D01*
X-5945190Y26052964D01*
X-6217314Y26289766D01*
X-6499904Y26514203D01*
X-6792526Y26725882D01*
X-7094748Y26924407D01*
X-7406136Y27109386D01*
X-7726259Y27280424D01*
X-8054682Y27437126D01*
X-8390974Y27579099D01*
X-8734701Y27705949D01*
X-9085430Y27817282D01*
X-9442729Y27912703D01*
X-9806164Y27991819D01*
X-10175304Y28054235D01*
X-10549714Y28099557D01*
X-10928963Y28127391D01*
X-11312617Y28137344D01*
X5720021Y-25208280D02*
X1227444Y-34098629D01*
X-79005836Y-72353723D02*
X-79005836Y-30484638D01*
X-11679104Y-68040640D02*
X-11791573Y-68046319D01*
X-11900794Y-68062987D01*
X-12006212Y-68090093D01*
X-12107276Y-68127082D01*
X-12203432Y-68173402D01*
X-12294126Y-68228500D01*
X-12378808Y-68291823D01*
X-12456922Y-68362819D01*
X-12527918Y-68440933D01*
X-12591241Y-68525615D01*
X-12646339Y-68616309D01*
X-12692659Y-68712465D01*
X-12729648Y-68813529D01*
X-12756753Y-68918947D01*
X-12773421Y-69028168D01*
X-12779101Y-69140638D01*
D11*
X-9780080Y24173920D02*
X-9780091Y5123920D01*
D10*
X17036622Y-29598538D02*
X16926738Y-29592989D01*
X16820029Y-29576703D01*
X16717034Y-29550220D01*
X16618294Y-29514080D01*
X16524348Y-29468824D01*
X16435738Y-29414991D01*
X16353002Y-29353123D01*
X16276682Y-29283758D01*
X16207317Y-29207438D01*
X16145449Y-29124702D01*
X16091616Y-29036092D01*
X16046360Y-28942146D01*
X16010220Y-28843406D01*
X15983737Y-28740411D01*
X15967451Y-28633702D01*
X15961903Y-28523819D01*
X-69276272Y-53565609D02*
X-69311519Y-53556781D01*
X-35335763Y-22693145D02*
X-35442144Y-22698722D01*
X-35545202Y-22715071D01*
X-35644391Y-22741613D01*
X-35739167Y-22777772D01*
X-35828985Y-22822970D01*
X-35913301Y-22876629D01*
X-35991570Y-22938174D01*
X-36063248Y-23007025D01*
X-36127790Y-23082607D01*
X-36184652Y-23164341D01*
X-36233289Y-23251651D01*
X-36273157Y-23343959D01*
X-36303710Y-23440688D01*
X-36324406Y-23541261D01*
X-36334698Y-23645100D01*
X-36334044Y-23751629D01*
X37544371Y-23016791D02*
X35138983Y-64062713D01*
X-29419867Y-14439278D02*
X-44145152Y-14439278D01*
X-60003862Y-54767861D02*
X-60003862Y-54771371D01*
X69066309Y-18775969D02*
X69101557Y-18784797D01*
X-70680225Y-52395725D02*
X-70675885Y-52501670D01*
X-70663414Y-52621099D01*
X-70643634Y-52750617D01*
X-70626792Y-52840894D01*
X-70607310Y-52933142D01*
X-70585433Y-53026358D01*
X-70561402Y-53119535D01*
X-70535462Y-53211670D01*
X-70507857Y-53301756D01*
X-70478829Y-53388790D01*
X-70433154Y-53511417D01*
X-70385649Y-53621522D01*
X-70337136Y-53715713D01*
D11*
X9472587Y24087324D02*
G75*
G03*
X9472587Y24087324I-1100000J0D01*
G01*
D10*
X-37752239Y-23016791D02*
X-37752928Y-22911029D01*
X-37742820Y-22807894D01*
X-37722444Y-22707955D01*
X-37692331Y-22611780D01*
X-37653012Y-22519938D01*
X-37605018Y-22432998D01*
X-37548879Y-22351529D01*
X-37485126Y-22276100D01*
X-37414289Y-22207279D01*
X-37336900Y-22145636D01*
X-37253489Y-22091738D01*
X-37164587Y-22046155D01*
X-37070724Y-22009456D01*
X-36972432Y-21982210D01*
X-36870240Y-21964985D01*
X-36764681Y-21958350D01*
X-48499990Y-275974D02*
X-117850881Y-275974D01*
X105005541Y-30484638D02*
X117850838Y-7971542D01*
X117850838Y-120795835D02*
X117850838Y-116795821D01*
X37499994Y-6475961D02*
X28241041Y-6475961D01*
X-58903864Y-53667864D02*
X-58909543Y-53780330D01*
X-58926211Y-53889548D01*
X-58953316Y-53994964D01*
X-58990306Y-54096027D01*
X-59036626Y-54192182D01*
X-59091724Y-54282877D01*
X-59155047Y-54367559D01*
X-59226042Y-54445674D01*
X-59304157Y-54516671D01*
X-59388838Y-54579995D01*
X-59479533Y-54635094D01*
X-59575689Y-54681416D01*
X-59676752Y-54718406D01*
X-59782171Y-54745512D01*
X-59891392Y-54762181D01*
X-60003862Y-54767861D01*
X3531244Y20904150D02*
X1703643Y1924064D01*
X11562801Y-70240646D02*
X11562801Y-70244156D01*
X-79005836Y-30484638D02*
X-66160540Y-7971542D01*
X2501942Y-66859716D02*
X2593526Y-66862946D01*
X2683026Y-66872996D01*
X2778735Y-66892567D01*
X2787282Y-66894813D01*
X-10175176Y-22693124D02*
X-12499991Y-22693124D01*
X-42261008Y-65934800D02*
X-42261008Y-73375065D01*
X45012003Y-13364559D02*
X45006454Y-13474445D01*
X44990168Y-13581157D01*
X44963685Y-13684153D01*
X44927545Y-13782895D01*
X44882289Y-13876841D01*
X44828456Y-13965452D01*
X44766588Y-14048187D01*
X44697223Y-14124506D01*
X44620903Y-14193869D01*
X44538167Y-14255737D01*
X44449557Y-14309568D01*
X44355611Y-14354823D01*
X44256871Y-14390962D01*
X44153876Y-14417444D01*
X44047167Y-14433729D01*
X43937284Y-14439278D01*
X-2616177Y-36427418D02*
X-2707761Y-36424187D01*
X-2797261Y-36414137D01*
X-2892970Y-36394566D01*
X-2901517Y-36392321D01*
X-86375089Y-114600175D02*
X-68715745Y-114600175D01*
X-44461003Y-74449784D02*
X-44461003Y-65969854D01*
D11*
X57585229Y-96160861D02*
G75*
G03*
X57585229Y-96160861I-4800000J0D01*
G01*
D10*
X-12499991Y-4275966D02*
X12499991Y-4275966D01*
X-70337136Y-53715713D02*
X-65844560Y-62606062D01*
X-28448931Y-6475961D02*
X-37499994Y-6475961D01*
X-69654319Y1924107D02*
X-48499990Y1924086D01*
X44344709Y-74449784D02*
X44344709Y-74475062D01*
X-70162641Y-19854650D02*
X-70156961Y-19967119D01*
X-70140292Y-20076340D01*
X-70113186Y-20181758D01*
X-70076196Y-20282822D01*
X-70029874Y-20378978D01*
X-69974775Y-20469672D01*
X-69911451Y-20554354D01*
X-69840454Y-20632468D01*
X-69762338Y-20703464D01*
X-69677657Y-20766787D01*
X-69586961Y-20821885D01*
X-69490806Y-20868205D01*
X-69389744Y-20905194D01*
X-69284327Y-20932299D01*
X-69175109Y-20948967D01*
X-69062643Y-20954647D01*
X32887204Y-29598538D02*
X17036622Y-29598538D01*
X-44145152Y-14439278D02*
X-44255035Y-14433729D01*
X-44361744Y-14417444D01*
X-44464739Y-14390962D01*
X-44563479Y-14354823D01*
X-44657425Y-14309568D01*
X-44746035Y-14255737D01*
X-44828771Y-14193869D01*
X-44905091Y-14124506D01*
X-44974456Y-14048187D01*
X-45036324Y-13965452D01*
X-45090157Y-13876841D01*
X-45135413Y-13782895D01*
X-45171553Y-13684153D01*
X-45198036Y-13581157D01*
X-45214322Y-13474445D01*
X-45219871Y-13364559D01*
X-48522404Y-83435971D02*
X-48522404Y-65121197D01*
X-68777303Y-20919550D02*
X-68515325Y-20850652D01*
X-68252531Y-20783787D01*
X-67988928Y-20718964D01*
X-67724525Y-20656192D01*
X-67459331Y-20595482D01*
X-67193354Y-20536843D01*
X-66926604Y-20480285D01*
X-66659088Y-20425816D01*
X-66390815Y-20373448D01*
X-66121795Y-20323189D01*
X-65852035Y-20275049D01*
X-65581545Y-20229038D01*
X-65310334Y-20185166D01*
X-65038409Y-20143441D01*
X-64765779Y-20103874D01*
X-64492454Y-20066474D01*
X-64218442Y-20031252D01*
X-63943752Y-19998216D01*
X-63668391Y-19967376D01*
X-63392370Y-19938742D01*
X-63115696Y-19912323D01*
X-62838379Y-19888130D01*
X-62560426Y-19866171D01*
X-62281848Y-19846457D01*
X-62002651Y-19828996D01*
X-61722846Y-19813800D01*
X-61442440Y-19800876D01*
X-61161443Y-19790236D01*
X-60879863Y-19781888D01*
X-60597709Y-19775843D01*
X-60314989Y-19772109D01*
X-60031713Y-19770697D01*
X37394810Y-59229546D02*
X37400947Y-59229546D01*
X-11312617Y28137344D02*
X-58415470Y28244874D01*
X59521991Y-83435971D02*
X59521991Y-65121197D01*
D11*
X82249762Y-18671375D02*
G75*
G03*
X82249762Y-18671375I-1100000J0D01*
G01*
D10*
X-26461003Y-74500341D02*
X-26466551Y-74610223D01*
X-26482837Y-74716932D01*
X-26509320Y-74819927D01*
X-26545460Y-74918668D01*
X-26590716Y-75012613D01*
X-26644549Y-75101224D01*
X-26706417Y-75183960D01*
X-26775782Y-75260280D01*
X-26852102Y-75329644D01*
X-26934838Y-75391513D01*
X-27023448Y-75445346D01*
X-27117394Y-75490602D01*
X-27216134Y-75526742D01*
X-27319129Y-75553225D01*
X-27425838Y-75569511D01*
X-27535722Y-75575060D01*
X26344710Y-74500341D02*
X26344710Y-74449784D01*
X-37608816Y-59229546D02*
X-37602679Y-59229546D01*
D11*
X-80049595Y-18671375D02*
G75*
G03*
X-80049595Y-18671375I-1100000J0D01*
G01*
D10*
X68854759Y-20954647D02*
X68763174Y-20951416D01*
X68673674Y-20941366D01*
X68577965Y-20921795D01*
X68569419Y-20919550D01*
X-23500030Y-81338360D02*
X-23500030Y-83435992D01*
X-1343759Y-34098608D02*
X-5836336Y-25208259D01*
X-69348877Y-53547436D02*
X-69435353Y-53520404D01*
X-69558968Y-53467354D01*
X-69674277Y-53400259D01*
X-69780172Y-53320194D01*
X-69875544Y-53228234D01*
X-69959284Y-53125455D01*
X-70030284Y-53012933D01*
X-70087437Y-52891744D01*
X-70117297Y-52806667D01*
X-70140182Y-52718534D01*
X-70155762Y-52627665D01*
X-70163710Y-52534378D01*
X-70164719Y-52486928D01*
X-12500012Y-81338360D02*
X-9384289Y-81338360D01*
X105055948Y-72725987D02*
X105033964Y-72634350D01*
X105018204Y-72541550D01*
X105008714Y-72447903D01*
X105005541Y-72353723D01*
D11*
X103961800Y-53671375D02*
G75*
G03*
X103961800Y-53671375I-1100000J0D01*
G01*
D10*
X116982287Y-6475961D02*
X99727375Y-6475961D01*
X68571497Y-51422027D02*
X68309519Y-51490924D01*
X68046725Y-51557789D01*
X67783122Y-51622612D01*
X67518719Y-51685384D01*
X67253525Y-51746094D01*
X66987548Y-51804733D01*
X66720798Y-51861292D01*
X66453282Y-51915760D01*
X66185009Y-51968129D01*
X65915989Y-52018388D01*
X65646229Y-52066527D01*
X65375739Y-52112539D01*
X65104528Y-52156411D01*
X64832603Y-52198136D01*
X64559973Y-52237703D01*
X64286648Y-52275103D01*
X64012636Y-52310325D01*
X63737946Y-52343361D01*
X63462585Y-52374201D01*
X63186564Y-52402835D01*
X62909890Y-52429254D01*
X62632573Y-52453447D01*
X62354620Y-52475406D01*
X62076042Y-52495120D01*
X61796845Y-52512581D01*
X61517040Y-52527777D01*
X61236634Y-52540701D01*
X60955637Y-52551341D01*
X60674057Y-52559689D01*
X60391903Y-52565734D01*
X60109183Y-52569468D01*
X59825907Y-52570881D01*
X33961902Y-22693145D02*
X33961902Y-28473240D01*
X-60003862Y-54771371D02*
X-60304139Y-54770138D01*
X-60603827Y-54766447D01*
X-60902917Y-54760309D01*
X-61201400Y-54751734D01*
X-61499267Y-54740733D01*
X-61796509Y-54727317D01*
X-62093117Y-54711496D01*
X-62389083Y-54693280D01*
X-62684396Y-54672681D01*
X-62979050Y-54649710D01*
X-63273034Y-54624376D01*
X-63566339Y-54596691D01*
X-63858957Y-54566665D01*
X-64150879Y-54534309D01*
X-64442096Y-54499634D01*
X-64732599Y-54462650D01*
X-65022379Y-54423367D01*
X-65311428Y-54381797D01*
X-65599735Y-54337951D01*
X-65887293Y-54291838D01*
X-66174092Y-54243470D01*
X-66460124Y-54192857D01*
X-66745379Y-54140010D01*
X-67029850Y-54084939D01*
X-67313526Y-54027655D01*
X-67596398Y-53968170D01*
X-67878459Y-53906493D01*
X-68159699Y-53842635D01*
X-68440109Y-53776607D01*
X-68719681Y-53708419D01*
X-68998404Y-53638083D01*
X-69276272Y-53565609D01*
X29211998Y-21879543D02*
X36556813Y-21958350D01*
X58579004Y28244831D02*
X11476151Y28137365D01*
X-68715745Y-114600175D02*
X-68594125Y-114592953D01*
X-68477453Y-114571897D01*
X-68366422Y-114537915D01*
X-68261725Y-114491918D01*
X-68164056Y-114434817D01*
X-68074107Y-114367523D01*
X-67992571Y-114290945D01*
X-67920143Y-114205994D01*
X-67857515Y-114113581D01*
X-67805381Y-114014615D01*
X-67764434Y-113910008D01*
X-67735366Y-113800669D01*
X-67718873Y-113687510D01*
X-67715646Y-113571440D01*
X-67726378Y-113453370D01*
X-67751765Y-113334211D01*
X-34078217Y-28523819D02*
X-34078217Y-28473240D01*
X59823829Y-19770697D02*
X59793900Y-19773712D01*
D11*
X-9780091Y5123920D02*
X-28830091Y5123931D01*
D10*
X-1000671Y-35418618D02*
X-1005010Y-35312671D01*
X-1017481Y-35193243D01*
X-1037261Y-35063724D01*
X-1054103Y-34973447D01*
X-1073584Y-34881198D01*
X-1095462Y-34787981D01*
X-1119493Y-34694803D01*
X-1145432Y-34602667D01*
X-1173038Y-34512579D01*
X-1202065Y-34425543D01*
X-1247740Y-34302913D01*
X-1295245Y-34192803D01*
X-1343759Y-34098608D01*
X-9384289Y-81338360D02*
X-9283698Y-81336679D01*
X-9183658Y-81331664D01*
X-9084239Y-81323355D01*
X-8985509Y-81311791D01*
X-8887537Y-81297013D01*
X-8790392Y-81279060D01*
X-8694144Y-81257973D01*
X-8598860Y-81233791D01*
X-8504611Y-81206555D01*
X-8411465Y-81176304D01*
X-8319490Y-81143078D01*
X-8228756Y-81106918D01*
X-8139332Y-81067863D01*
X-8051287Y-81025954D01*
X-7964689Y-80981229D01*
X-7879608Y-80933730D01*
X-7796113Y-80883496D01*
X-7714272Y-80830568D01*
X-7634155Y-80774984D01*
X-7555829Y-80716786D01*
X-7479366Y-80656013D01*
X-7404832Y-80592705D01*
X-7332298Y-80526902D01*
X-7261832Y-80458644D01*
X-7193503Y-80387971D01*
X-7127380Y-80314923D01*
X-7063532Y-80239540D01*
X-7002028Y-80161862D01*
X-6942937Y-80081929D01*
X-6886328Y-79999780D01*
X-6832269Y-79915457D01*
X-6780831Y-79828999D01*
X-11679103Y-70240635D02*
X-11679103Y-70244145D01*
X88727379Y-6475961D02*
X67029070Y-6475961D01*
X54320091Y-58215805D02*
X54429974Y-58221353D01*
X54536683Y-58237639D01*
X54639678Y-58264122D01*
X54738418Y-58300262D01*
X54832364Y-58345518D01*
X54920974Y-58399351D01*
X55003710Y-58461219D01*
X55080030Y-58530584D01*
X55149395Y-58606904D01*
X55211263Y-58689640D01*
X55265096Y-58778250D01*
X55310352Y-58872196D01*
X55346492Y-58970936D01*
X55372975Y-59073931D01*
X55389261Y-59180640D01*
X55394810Y-59290524D01*
X69103635Y-53556781D02*
X69140993Y-53547436D01*
D11*
X28993606Y24173926D02*
X9943606Y24173949D01*
D10*
X-11677038Y-33046491D02*
X-11677038Y-33042981D01*
X88727336Y-116795821D02*
X41986972Y-116795821D01*
X2290392Y-69038394D02*
X2255144Y-69029566D01*
X-97375086Y-114600175D02*
X-97375086Y-116795821D01*
X1023925Y-68814297D02*
X6664537Y-79828999D01*
X-62296585Y-6475961D02*
X-62397174Y-6477641D01*
X-62497212Y-6482656D01*
X-62596629Y-6490965D01*
X-62695358Y-6502529D01*
X-62793329Y-6517307D01*
X-62890473Y-6535260D01*
X-62986721Y-6556347D01*
X-63082004Y-6580529D01*
X-63176253Y-6607766D01*
X-63269399Y-6638017D01*
X-63361374Y-6671243D01*
X-63452108Y-6707403D01*
X-63541532Y-6746458D01*
X-63629577Y-6788368D01*
X-63716175Y-6833093D01*
X-63801257Y-6880593D01*
X-63884753Y-6930827D01*
X-63966594Y-6983756D01*
X-64046712Y-7039340D01*
X-64125038Y-7097539D01*
X-64201503Y-7158313D01*
X-64276037Y-7221622D01*
X-64348572Y-7287426D01*
X-64419039Y-7355685D01*
X-64487368Y-7426360D01*
X-64553492Y-7499409D01*
X-64617340Y-7574793D01*
X-64678845Y-7652473D01*
X-64737936Y-7732408D01*
X-64794546Y-7814558D01*
X-64848605Y-7898883D01*
X-64900044Y-7985344D01*
X33961902Y-28473240D02*
X33961902Y-28523819D01*
X-44461003Y-74475062D02*
X-44461003Y-74449784D01*
X-59522400Y-65121197D02*
X-59522400Y-83435971D01*
X46112065Y-67956016D02*
X46109821Y-67860485D01*
X46103159Y-67766103D01*
X46092177Y-67672971D01*
X46076977Y-67581191D01*
X46057657Y-67490862D01*
X46034318Y-67402087D01*
X46007060Y-67314966D01*
X45975984Y-67229599D01*
X45941188Y-67146089D01*
X45902774Y-67064536D01*
X45815490Y-66907704D01*
X45714933Y-66759911D01*
X45601902Y-66621967D01*
X45477199Y-66494677D01*
X45341625Y-66378850D01*
X45195979Y-66275295D01*
X45041063Y-66184818D01*
X44960379Y-66144736D01*
X44877677Y-66108227D01*
X44793059Y-66075392D01*
X44706623Y-66046331D01*
X44618469Y-66021146D01*
X44528699Y-65999937D01*
X44437412Y-65982806D01*
X44344709Y-65969854D01*
X42144714Y-65934800D02*
X34799900Y-65855993D01*
D11*
X7594423Y4758662D02*
G75*
G03*
X7594423Y4758662I-1100000J0D01*
G01*
D10*
X-48499990Y-4275966D02*
X-48499990Y-6475961D01*
X11560724Y-33046502D02*
X11560724Y-33042992D01*
X37394810Y-59341102D02*
X37394810Y-59290524D01*
X-1518247Y-67959699D02*
X-1523926Y-67847229D01*
X-1540595Y-67738008D01*
X-1567701Y-67632589D01*
X-1604691Y-67531526D01*
X-1651013Y-67435370D01*
X-1706112Y-67344675D01*
X-1769436Y-67259994D01*
X-1840433Y-67181879D01*
X-1918548Y-67110884D01*
X-2003230Y-67047561D01*
X-2093925Y-66992463D01*
X-2190080Y-66946143D01*
X-2291143Y-66909154D01*
X-2396559Y-66882049D01*
X-2505777Y-66865380D01*
X-2618244Y-66859702D01*
X33955765Y-28584797D02*
X33944747Y-28689222D01*
X33924090Y-28790454D01*
X33894264Y-28888002D01*
X33855743Y-28981379D01*
X33808999Y-29070094D01*
X33754504Y-29153660D01*
X33692732Y-29231587D01*
X33624153Y-29303387D01*
X33549241Y-29368571D01*
X33468467Y-29426649D01*
X33382306Y-29477134D01*
X33291228Y-29519536D01*
X33195706Y-29553366D01*
X33096213Y-29578135D01*
X32993222Y-29593355D01*
X32887204Y-29598538D01*
X43270012Y-75575060D02*
X27419429Y-75575060D01*
X28086701Y-12239283D02*
X43937284Y-12239283D01*
X8852216Y-106117791D02*
X8913368Y-106318008D01*
X8982296Y-106514151D01*
X9058798Y-106706070D01*
X9142674Y-106893613D01*
X9233726Y-107076630D01*
X9331754Y-107254971D01*
X9436557Y-107428484D01*
X9547937Y-107597019D01*
X9665694Y-107760426D01*
X9789627Y-107918553D01*
X9919538Y-108071250D01*
X10055226Y-108218367D01*
X10196493Y-108359753D01*
X10343138Y-108495256D01*
X10494961Y-108624728D01*
X10651764Y-108748016D01*
X10813346Y-108864970D01*
X10979507Y-108975439D01*
X11150049Y-109079274D01*
X11324771Y-109176323D01*
X11503474Y-109266435D01*
X11685958Y-109349460D01*
X11872023Y-109425248D01*
X12061470Y-109493647D01*
X12254100Y-109554507D01*
X12449711Y-109607677D01*
X12648106Y-109653007D01*
X12849083Y-109690346D01*
X13052445Y-109719544D01*
X13257990Y-109740449D01*
X13465519Y-109752911D01*
X13674833Y-109756780D01*
X-44461003Y-65969854D02*
X-44553706Y-65982806D01*
X-44644993Y-65999937D01*
X-44734763Y-66021146D01*
X-44822916Y-66046331D01*
X-44909352Y-66075392D01*
X-44993971Y-66108227D01*
X-45076672Y-66144736D01*
X-45157357Y-66184818D01*
X-45312272Y-66275295D01*
X-45457918Y-66378850D01*
X-45593493Y-66494677D01*
X-45718195Y-66621967D01*
X-45831226Y-66759911D01*
X-45931783Y-66907704D01*
X-46019067Y-67064536D01*
X-46057481Y-67146089D01*
X-46092277Y-67229599D01*
X-46123353Y-67314966D01*
X-46150611Y-67402087D01*
X-46173950Y-67490862D01*
X-46193270Y-67581191D01*
X-46208470Y-67672971D01*
X-46219452Y-67766103D01*
X-46226114Y-67860485D01*
X-46228358Y-67956016D01*
X-116982330Y-6475961D02*
X-117051371Y-6594846D01*
X-117114510Y-6703567D01*
X-117172589Y-6803576D01*
X-117226452Y-6896325D01*
X-117276942Y-6983266D01*
X-117324902Y-7065851D01*
X-117371175Y-7145531D01*
X-117416605Y-7223759D01*
X-117462035Y-7301987D01*
X-117508308Y-7381667D01*
X-117556268Y-7464250D01*
X-117606758Y-7551189D01*
X-117660621Y-7643936D01*
X-117718700Y-7743942D01*
X-117781839Y-7852660D01*
X-117850881Y-7971542D01*
X79005793Y-30484638D02*
X79005793Y-72353788D01*
X69138915Y-18794142D02*
X69225391Y-18821173D01*
X69349006Y-18874223D01*
X69464315Y-18941318D01*
X69570210Y-19021383D01*
X69665582Y-19113343D01*
X69749322Y-19216122D01*
X69820322Y-19328644D01*
X69877475Y-19449833D01*
X69907335Y-19534910D01*
X69930220Y-19623043D01*
X69945800Y-19713912D01*
X69953748Y-19807199D01*
X69954757Y-19854650D01*
X-39802674Y-60415800D02*
X-54527981Y-60415800D01*
X-27535722Y-73375065D02*
X-27425838Y-73380613D01*
X-27319129Y-73396899D01*
X-27216134Y-73423382D01*
X-27117394Y-73459522D01*
X-27023448Y-73504778D01*
X-26934838Y-73558611D01*
X-26852102Y-73620479D01*
X-26775782Y-73689844D01*
X-26706417Y-73766164D01*
X-26644549Y-73848900D01*
X-26590716Y-73937510D01*
X-26545460Y-74031456D01*
X-26509320Y-74130196D01*
X-26482837Y-74233191D01*
X-26466551Y-74339900D01*
X-26461003Y-74449784D01*
X37499994Y-4275966D02*
X37499994Y-6475961D01*
X-36345133Y-65121197D02*
X-36238747Y-65115619D01*
X-36135687Y-65099270D01*
X-36036496Y-65072728D01*
X-35941719Y-65036569D01*
X-35851900Y-64991371D01*
X-35767584Y-64937712D01*
X-35689316Y-64876168D01*
X-35617639Y-64807316D01*
X-35553098Y-64731735D01*
X-35496237Y-64650001D01*
X-35447602Y-64562691D01*
X-35407735Y-64470383D01*
X-35377183Y-64373653D01*
X-35356488Y-64273081D01*
X-35346196Y-64169241D01*
X-35346852Y-64062713D01*
X1401945Y-67959713D02*
X1407624Y-67847243D01*
X1424293Y-67738022D01*
X1451399Y-67632604D01*
X1488389Y-67531540D01*
X1534711Y-67435384D01*
X1589810Y-67344690D01*
X1653134Y-67260008D01*
X1724131Y-67181894D01*
X1802246Y-67110898D01*
X1886928Y-67047575D01*
X1977623Y-66992477D01*
X2073778Y-66946157D01*
X2174840Y-66909168D01*
X2280257Y-66882063D01*
X2389475Y-66865395D01*
X2501942Y-66859716D01*
X59825907Y-52570881D02*
X59795977Y-52567866D01*
X-37602679Y-59229546D02*
X-37602679Y-59245264D01*
X31761907Y-22693145D02*
X23500008Y-22693145D01*
X26344710Y-74449784D02*
X26350258Y-74339900D01*
X26366544Y-74233191D01*
X26393027Y-74130196D01*
X26429167Y-74031456D01*
X26474423Y-73937510D01*
X26528256Y-73848900D01*
X26590124Y-73766164D01*
X26659489Y-73689844D01*
X26735809Y-73620479D01*
X26818545Y-73558611D01*
X26907155Y-73504778D01*
X27001101Y-73459522D01*
X27099841Y-73423382D01*
X27202836Y-73396899D01*
X27309545Y-73380613D01*
X27419429Y-73375065D01*
D11*
X-28830091Y5123931D02*
X-28830080Y24173931D01*
D10*
X-37602679Y-59245264D02*
X-37602679Y-59290524D01*
X44344709Y-74475062D02*
X44344709Y-74500362D01*
X-25452516Y-19858327D02*
X-25448920Y-9477006D01*
X-63238087Y24605884D02*
X-69654319Y1924107D01*
X-60003862Y-52567866D02*
X-59891392Y-52573545D01*
X-59782171Y-52590213D01*
X-59676752Y-52617318D01*
X-59575689Y-52654308D01*
X-59479533Y-52700628D01*
X-59388838Y-52755726D01*
X-59304157Y-52819049D01*
X-59226042Y-52890044D01*
X-59155047Y-52968159D01*
X-59091724Y-53052840D01*
X-59036626Y-53143535D01*
X-58990306Y-53239691D01*
X-58953316Y-53340754D01*
X-58926211Y-53446173D01*
X-58909543Y-53555394D01*
X-58903864Y-53667864D01*
D11*
X9943606Y24173949D02*
X9943584Y5123949D01*
D10*
X39594805Y-65121197D02*
X48521995Y-65121197D01*
X-58901786Y-18673714D02*
X-58907465Y-18561247D01*
X-58924133Y-18452029D01*
X-58951238Y-18346613D01*
X-58988228Y-18245550D01*
X-59034548Y-18149395D01*
X-59089646Y-18058700D01*
X-59152969Y-17974018D01*
X-59223964Y-17895903D01*
X-59302079Y-17824906D01*
X-59386760Y-17761582D01*
X-59477455Y-17706483D01*
X-59573611Y-17660161D01*
X-59674674Y-17623171D01*
X-59780093Y-17596065D01*
X-59889314Y-17579396D01*
X-60001784Y-17573717D01*
X12662799Y-69140649D02*
X12657119Y-69253115D01*
X12640451Y-69362333D01*
X12613346Y-69467749D01*
X12576357Y-69568812D01*
X12530037Y-69664967D01*
X12474939Y-69755662D01*
X12411616Y-69840344D01*
X12340620Y-69918459D01*
X12262505Y-69989456D01*
X12177824Y-70052780D01*
X12087129Y-70107879D01*
X11990974Y-70154201D01*
X11889910Y-70191191D01*
X11784491Y-70218297D01*
X11675271Y-70234966D01*
X11562801Y-70240646D01*
X-45219871Y-13314002D02*
X-45214322Y-13204118D01*
X-45198036Y-13097409D01*
X-45171553Y-12994414D01*
X-45135413Y-12895674D01*
X-45090157Y-12801728D01*
X-45036324Y-12713118D01*
X-44974456Y-12630382D01*
X-44905091Y-12554062D01*
X-44828771Y-12484697D01*
X-44746035Y-12422829D01*
X-44657425Y-12368996D01*
X-44563479Y-12323740D01*
X-44464739Y-12287600D01*
X-44361744Y-12261117D01*
X-44255035Y-12244831D01*
X-44145152Y-12239283D01*
X54320112Y-60415800D02*
X39594805Y-60415800D01*
X59795977Y-52567866D02*
X59683507Y-52573545D01*
X59574286Y-52590213D01*
X59468868Y-52617318D01*
X59367804Y-52654308D01*
X59271648Y-52700628D01*
X59180954Y-52755726D01*
X59096272Y-52819049D01*
X59018158Y-52890044D01*
X58947162Y-52968159D01*
X58883839Y-53052840D01*
X58828741Y-53143535D01*
X58782421Y-53239691D01*
X58745432Y-53340754D01*
X58718327Y-53446173D01*
X58701659Y-53555394D01*
X58695980Y-53667864D01*
X-11649174Y-68043655D02*
X-11679104Y-68040640D01*
X31761907Y-27398543D02*
X31761907Y-22693145D01*
X-34916193Y-65855993D02*
X-42261008Y-65934800D01*
X99727375Y-4275966D02*
X117850838Y-4275966D01*
X-33003520Y-29598538D02*
X-33109538Y-29593355D01*
X-33212529Y-29578135D01*
X-33312022Y-29553366D01*
X-33407544Y-29519536D01*
X-33498621Y-29477134D01*
X-33584783Y-29426649D01*
X-33665556Y-29368571D01*
X-33740468Y-29303387D01*
X-33809047Y-29231587D01*
X-33870820Y-29153660D01*
X-33925314Y-29070094D01*
X-33972058Y-28981379D01*
X-34010579Y-28888002D01*
X-34040405Y-28790454D01*
X-34061062Y-28689222D01*
X-34072080Y-28584797D01*
D11*
X-80049595Y-53671375D02*
G75*
G03*
X-80049595Y-53671375I-1100000J0D01*
G01*
D10*
X27419429Y-75575060D02*
X27309545Y-75569511D01*
X27202836Y-75553225D01*
X27099841Y-75526742D01*
X27001101Y-75490602D01*
X26907155Y-75445346D01*
X26818545Y-75391513D01*
X26735809Y-75329644D01*
X26659489Y-75260280D01*
X26590124Y-75183960D01*
X26528256Y-75101224D01*
X26474423Y-75012613D01*
X26429167Y-74918668D01*
X26393027Y-74819927D01*
X26366544Y-74716932D01*
X26350258Y-74610223D01*
X26344710Y-74500341D01*
X-5836336Y-25208259D02*
X-5922074Y-25064185D01*
X-6012178Y-24923670D01*
X-6106532Y-24786779D01*
X-6205021Y-24653580D01*
X-6307530Y-24524140D01*
X-6413944Y-24398524D01*
X-6524149Y-24276799D01*
X-6638030Y-24159032D01*
X-6755472Y-24045289D01*
X-6876359Y-23935637D01*
X-7000578Y-23830143D01*
X-7128012Y-23728874D01*
X-7258548Y-23631895D01*
X-7392070Y-23539273D01*
X-7528464Y-23451076D01*
X-7667614Y-23367369D01*
X-7809406Y-23288219D01*
X-7953725Y-23213694D01*
X-8100455Y-23143858D01*
X-8249483Y-23078780D01*
X-8400693Y-23018525D01*
X-8553971Y-22963160D01*
X-8709201Y-22912752D01*
X-8866268Y-22867368D01*
X-9025059Y-22827073D01*
X-9185457Y-22791935D01*
X-9347347Y-22762020D01*
X-9510616Y-22737395D01*
X-9675149Y-22718126D01*
X-9840829Y-22704280D01*
X-10007543Y-22695924D01*
X-10175176Y-22693124D01*
X99727332Y-116795821D02*
X99727332Y-114600175D01*
X-37499994Y-6475961D02*
X-37499994Y-4275966D01*
X-117850881Y-7971542D02*
X-105005585Y-30484638D01*
X27012003Y-13313981D02*
X27017551Y-13204101D01*
X27033836Y-13097395D01*
X27060318Y-12994403D01*
X27096457Y-12895665D01*
X27141711Y-12801722D01*
X27195542Y-12713112D01*
X27257409Y-12630378D01*
X27326771Y-12554059D01*
X27403090Y-12484696D01*
X27485823Y-12422828D01*
X27574432Y-12368995D01*
X27668376Y-12323739D01*
X27767115Y-12287600D01*
X27870109Y-12261117D01*
X27976818Y-12244831D01*
X28086701Y-12239283D01*
X1703643Y1924064D02*
X37499994Y1924043D01*
X-45219871Y-13364559D02*
X-45219871Y-13314002D01*
X-117850881Y-275974D02*
X-117850881Y-4275966D01*
X12499991Y-22693145D02*
X10058861Y-22693145D01*
X48521995Y-65121197D02*
X48521995Y-83435971D01*
X36137264Y-65121197D02*
X37394810Y-65121197D01*
X27012003Y-13364559D02*
X27012003Y-13339281D01*
X-2334088Y-69020207D02*
X-2247611Y-68993175D01*
X-2123996Y-68940125D01*
X-2008687Y-68873030D01*
X-1902792Y-68792964D01*
X-1807420Y-68701004D01*
X-1723680Y-68598225D01*
X-1652680Y-68485703D01*
X-1595528Y-68364514D01*
X-1565667Y-68279437D01*
X-1542783Y-68191305D01*
X-1527203Y-68100436D01*
X-1519255Y-68007149D01*
X-1518247Y-67959699D01*
X-37602679Y-65121197D02*
X-36345133Y-65121197D01*
X33961902Y-28523819D02*
X33961902Y-28569079D01*
X-43386305Y-75575060D02*
X-43496184Y-75569511D01*
X-43602890Y-75553226D01*
X-43705882Y-75526744D01*
X-43804620Y-75490605D01*
X-43898563Y-75445351D01*
X-43987173Y-75391520D01*
X-44069907Y-75329653D01*
X-44146226Y-75260291D01*
X-44215589Y-75183972D01*
X-44277457Y-75101239D01*
X-44331290Y-75012630D01*
X-44376546Y-74918686D01*
X-44412685Y-74819947D01*
X-44439168Y-74716953D01*
X-44455454Y-74610244D01*
X-44461003Y-74500362D01*
X-54527959Y-58215805D02*
X-38677376Y-58215805D01*
X36217729Y-23751651D02*
X36218384Y-23645122D01*
X36208092Y-23541282D01*
X36187397Y-23440708D01*
X36156845Y-23343977D01*
X36116978Y-23251668D01*
X36068343Y-23164356D01*
X36011482Y-23082620D01*
X35946941Y-23007036D01*
X35875264Y-22938183D01*
X35796996Y-22876636D01*
X35712680Y-22822975D01*
X35622861Y-22777776D01*
X35528084Y-22741615D01*
X35428893Y-22715072D01*
X35325833Y-22698723D01*
X35219448Y-22693145D01*
X-34078217Y-22693145D02*
X-35335763Y-22693145D01*
X-69274194Y-18775969D02*
X-69309441Y-18784797D01*
X-2901517Y-36392321D02*
X-2901517Y-36392321D01*
X-68779381Y-51422027D02*
X-68517403Y-51490924D01*
X-68254609Y-51557789D01*
X-67991006Y-51622612D01*
X-67726603Y-51685384D01*
X-67461409Y-51746094D01*
X-67195432Y-51804733D01*
X-66928682Y-51861292D01*
X-66661166Y-51915760D01*
X-66392893Y-51968129D01*
X-66123873Y-52018388D01*
X-65854113Y-52066527D01*
X-65583623Y-52112539D01*
X-65312412Y-52156411D01*
X-65040487Y-52198136D01*
X-64767857Y-52237703D01*
X-64494532Y-52275103D01*
X-64220520Y-52310325D01*
X-63945830Y-52343361D01*
X-63670469Y-52374201D01*
X-63394448Y-52402835D01*
X-63117774Y-52429254D01*
X-62840457Y-52453447D01*
X-62562504Y-52475406D01*
X-62283926Y-52495120D01*
X-62004729Y-52512581D01*
X-61724924Y-52527777D01*
X-61444518Y-52540701D01*
X-61163521Y-52551341D01*
X-60881941Y-52559689D01*
X-60599787Y-52565734D01*
X-60317067Y-52569468D01*
X-60033791Y-52570881D01*
X116259635Y-113334211D02*
X105055948Y-72725987D01*
X-67029113Y-6475961D02*
X-86375046Y-6475961D01*
X64692175Y-7985344D02*
X64640734Y-7898883D01*
X64586673Y-7814558D01*
X64530062Y-7732408D01*
X64470970Y-7652473D01*
X64409464Y-7574793D01*
X64345615Y-7499409D01*
X64279491Y-7426360D01*
X64211161Y-7355685D01*
X64140693Y-7287426D01*
X64068158Y-7221622D01*
X63993624Y-7158313D01*
X63917159Y-7097539D01*
X63838833Y-7039340D01*
X63758715Y-6983756D01*
X63676874Y-6930827D01*
X63593378Y-6880593D01*
X63508296Y-6833093D01*
X63421698Y-6788368D01*
X63333653Y-6746458D01*
X63244228Y-6707403D01*
X63153494Y-6671243D01*
X63061520Y-6638017D01*
X62968373Y-6607766D01*
X62874123Y-6580529D01*
X62778840Y-6556347D01*
X62682591Y-6535260D01*
X62585446Y-6517307D01*
X62487475Y-6502529D01*
X62388745Y-6490965D01*
X62289325Y-6482656D01*
X62189286Y-6477641D01*
X62088695Y-6475961D01*
X-97375043Y-4275966D02*
X-97375043Y-6475961D01*
X67029070Y-6475961D02*
X66960027Y-6594846D01*
X66896888Y-6703567D01*
X66838808Y-6803576D01*
X66784944Y-6896325D01*
X66734452Y-6983266D01*
X66686490Y-7065851D01*
X66640215Y-7145531D01*
X66594783Y-7223759D01*
X66549351Y-7301987D01*
X66503076Y-7381667D01*
X66455114Y-7464250D01*
X66404623Y-7551189D01*
X66350758Y-7643936D01*
X66292678Y-7743942D01*
X66229539Y-7852660D01*
X66160497Y-7971542D01*
X2436005Y-83435992D02*
X8852216Y-106117791D01*
X-1000650Y-67821269D02*
X-1000671Y-35418618D01*
X-37602679Y-59341102D02*
X-37602679Y-65121197D01*
X88727336Y-114600175D02*
X88727336Y-116795821D01*
X12499969Y-81338381D02*
X12499969Y-83435992D01*
X-69346799Y-18794142D02*
X-69346799Y-18794142D01*
X99727332Y-114600175D02*
X115295654Y-114600175D01*
D11*
X-43988375Y24592823D02*
G75*
G03*
X-43988375Y24592823I-1100000J0D01*
G01*
D10*
X-60031713Y-19770697D02*
X-60001784Y-19773712D01*
X-68719923Y-102412461D02*
X-68674268Y-102793647D01*
X-68611209Y-103168776D01*
X-68531178Y-103537454D01*
X-68434609Y-103899287D01*
X-68321934Y-104253878D01*
X-68193587Y-104600835D01*
X-68050001Y-104939763D01*
X-67891609Y-105270266D01*
X-67718844Y-105591951D01*
X-67532140Y-105904422D01*
X-67331929Y-106207286D01*
X-67118645Y-106500148D01*
X-66892721Y-106782613D01*
X-66654590Y-107054286D01*
X-66404685Y-107314773D01*
X-66143440Y-107563680D01*
X-65871288Y-107800612D01*
X-65588661Y-108025175D01*
X-65295993Y-108236973D01*
X-64993718Y-108435612D01*
X-64682267Y-108620699D01*
X-64362076Y-108791837D01*
X-64033575Y-108948633D01*
X-63697200Y-109090693D01*
X-63353383Y-109217621D01*
X-63002556Y-109329022D01*
X-62645154Y-109424504D01*
X-62281610Y-109503670D01*
X-61912356Y-109566126D01*
X-61537826Y-109611479D01*
X-61158453Y-109639332D01*
X-60774671Y-109649293D01*
X11560724Y-35246497D02*
X11673193Y-35240817D01*
X11782414Y-35224149D01*
X11887832Y-35197044D01*
X11988896Y-35160054D01*
X12085052Y-35113734D01*
X12175746Y-35058636D01*
X12260428Y-34995313D01*
X12338542Y-34924318D01*
X12409538Y-34846203D01*
X12472861Y-34761522D01*
X12527959Y-34670827D01*
X12574279Y-34574671D01*
X12611268Y-34473608D01*
X12638373Y-34368189D01*
X12655041Y-34258968D01*
X12660721Y-34146499D01*
X63401621Y24605819D02*
X63340468Y24806038D01*
X63271540Y25002183D01*
X63195038Y25194103D01*
X63111162Y25381648D01*
X63020110Y25564667D01*
X62922082Y25743009D01*
X62817279Y25916524D01*
X62705899Y26085060D01*
X62588142Y26248468D01*
X62464209Y26406596D01*
X62334298Y26559294D01*
X62198610Y26706412D01*
X62057343Y26847798D01*
X61910698Y26983303D01*
X61758875Y27112775D01*
X61602072Y27236063D01*
X61440490Y27353018D01*
X61274329Y27463488D01*
X61103787Y27567323D01*
X60929065Y27664372D01*
X60750362Y27754485D01*
X60567878Y27837510D01*
X60381813Y27913298D01*
X60192366Y27981697D01*
X59999736Y28042557D01*
X59804125Y28095728D01*
X59605730Y28141058D01*
X59404753Y28178397D01*
X59201391Y28207595D01*
X58995846Y28228500D01*
X58788317Y28240962D01*
X58579004Y28244831D01*
X37499994Y1924043D02*
X37499994Y-275974D01*
X-23499987Y-22693145D02*
X-31878222Y-22693145D01*
X-69309441Y-18784797D02*
X-69346799Y-18794142D01*
X35219448Y-22693145D02*
X33961902Y-22693145D01*
X-30987385Y-116795821D02*
X-30987385Y-109717269D01*
X59793900Y-17570207D02*
X60094177Y-17571439D01*
X60393865Y-17575130D01*
X60692955Y-17581268D01*
X60991438Y-17589843D01*
X61289305Y-17600844D01*
X61586547Y-17614260D01*
X61883155Y-17630081D01*
X62179121Y-17648297D01*
X62474434Y-17668896D01*
X62769088Y-17691867D01*
X63063072Y-17717201D01*
X63356377Y-17744886D01*
X63648995Y-17774912D01*
X63940917Y-17807268D01*
X64232134Y-17841943D01*
X64522637Y-17878927D01*
X64812417Y-17918210D01*
X65101465Y-17959780D01*
X65389773Y-18003626D01*
X65677331Y-18049739D01*
X65964130Y-18098107D01*
X66250162Y-18148720D01*
X66535417Y-18201567D01*
X66819887Y-18256638D01*
X67103563Y-18313922D01*
X67386436Y-18373407D01*
X67668497Y-18435084D01*
X67949737Y-18498942D01*
X68230147Y-18564970D01*
X68509718Y-18633158D01*
X68788441Y-18703494D01*
X69066309Y-18775969D01*
X-48522404Y-65121197D02*
X-39802674Y-65121197D01*
X-97375043Y-6475961D02*
X-116982330Y-6475961D01*
X58695980Y-53667864D02*
X58701659Y-53780330D01*
X58718327Y-53889548D01*
X58745432Y-53994964D01*
X58782421Y-54096027D01*
X58828741Y-54192182D01*
X58883839Y-54282877D01*
X58947162Y-54367559D01*
X59018158Y-54445674D01*
X59096272Y-54516671D01*
X59180954Y-54579995D01*
X59271648Y-54635094D01*
X59367804Y-54681416D01*
X59468868Y-54718406D01*
X59574286Y-54745512D01*
X59683507Y-54762181D01*
X59795977Y-54767861D01*
X59795977Y-54771371D02*
X60096254Y-54770138D01*
X60395942Y-54766447D01*
X60695032Y-54760309D01*
X60993515Y-54751734D01*
X61291382Y-54740733D01*
X61588624Y-54727317D01*
X61885233Y-54711496D01*
X62181198Y-54693280D01*
X62476512Y-54672681D01*
X62771165Y-54649710D01*
X63065149Y-54624376D01*
X63358455Y-54596691D01*
X63651073Y-54566665D01*
X63942995Y-54534309D01*
X64234212Y-54499634D01*
X64524715Y-54462650D01*
X64814495Y-54423367D01*
X65103543Y-54381797D01*
X65391851Y-54337951D01*
X65679409Y-54291838D01*
X65966208Y-54243470D01*
X66252240Y-54192857D01*
X66537495Y-54140010D01*
X66821965Y-54084939D01*
X67105641Y-54027655D01*
X67388514Y-53968170D01*
X67670575Y-53906493D01*
X67951815Y-53842635D01*
X68232225Y-53776607D01*
X68511796Y-53708419D01*
X68790519Y-53638083D01*
X69068387Y-53565609D01*
X61297852Y-65121197D02*
X61465484Y-65118396D01*
X61632198Y-65110040D01*
X61797878Y-65096194D01*
X61962410Y-65076926D01*
X62125679Y-65052301D01*
X62287570Y-65022387D01*
X62447968Y-64987249D01*
X62606758Y-64946955D01*
X62763826Y-64901572D01*
X62919056Y-64851164D01*
X63072333Y-64795800D01*
X63223543Y-64735546D01*
X63372571Y-64670468D01*
X63519302Y-64600633D01*
X63663621Y-64526108D01*
X63805413Y-64446959D01*
X63944563Y-64363253D01*
X64080957Y-64275056D01*
X64214479Y-64182435D01*
X64345014Y-64085456D01*
X64472449Y-63984186D01*
X64596667Y-63878692D01*
X64717555Y-63769041D01*
X64834996Y-63655298D01*
X64948877Y-63537530D01*
X65059082Y-63415805D01*
X65165497Y-63290188D01*
X65268006Y-63160746D01*
X65366495Y-63027546D01*
X65460848Y-62890654D01*
X65550952Y-62750137D01*
X65636691Y-62606062D01*
X-2903585Y-66894799D02*
X-2903585Y-66894799D01*
X66160497Y-7971542D02*
X79005793Y-30484638D01*
X-37602679Y-59290524D02*
X-37602679Y-59341102D01*
D11*
X-7109061Y24087293D02*
G75*
G03*
X-7109061Y24087293I-1100000J0D01*
G01*
D10*
X-27535722Y-75575060D02*
X-43386305Y-75575060D01*
X-2618244Y-66859702D02*
X-2709828Y-66862932D01*
X-2799329Y-66872982D01*
X-2895038Y-66892553D01*
X-2903585Y-66894799D01*
X-12779101Y-69140638D02*
X-12773421Y-69253104D01*
X-12756753Y-69362322D01*
X-12729647Y-69467739D01*
X-12692658Y-69568801D01*
X-12646338Y-69664956D01*
X-12591240Y-69755651D01*
X-12527917Y-69840333D01*
X-12456922Y-69918449D01*
X-12378807Y-69989445D01*
X-12294125Y-70052769D01*
X-12203431Y-70107868D01*
X-12107275Y-70154190D01*
X-12006211Y-70191180D01*
X-11900793Y-70218286D01*
X-11791572Y-70234955D01*
X-11679103Y-70240635D01*
D11*
X66859392Y-86270574D02*
G75*
G03*
X66859392Y-86270574I-1100000J0D01*
G01*
D10*
X48499990Y-6475961D02*
X48499990Y-4275966D01*
X-37499994Y1924064D02*
X-1540151Y1924021D01*
X30986976Y-109717269D02*
X30986976Y-116795821D01*
X69101557Y-18784797D02*
X69138915Y-18794142D01*
X-116259656Y-113334211D02*
X-116285042Y-113453370D01*
X-116295774Y-113571440D01*
X-116292547Y-113687510D01*
X-116276054Y-113800669D01*
X-116246986Y-113910008D01*
X-116206039Y-114014615D01*
X-116153905Y-114113581D01*
X-116091277Y-114205994D01*
X-116018849Y-114290945D01*
X-115937313Y-114367523D01*
X-115847364Y-114434817D01*
X-115749695Y-114491918D01*
X-115644998Y-114537915D01*
X-115533967Y-114571897D01*
X-115417295Y-114592953D01*
X-115295676Y-114600175D01*
X-105005585Y-30484638D02*
X-105005585Y-72353788D01*
X-25448920Y-9477006D02*
X-25452773Y-9322587D01*
X-25464312Y-9170194D01*
X-25483348Y-9020015D01*
X-25509692Y-8872238D01*
X-25543156Y-8727053D01*
X-25583552Y-8584649D01*
X-25630690Y-8445213D01*
X-25684383Y-8308934D01*
X-25744441Y-8176001D01*
X-25810676Y-8046603D01*
X-25882899Y-7920929D01*
X-25960922Y-7799166D01*
X-26044557Y-7681504D01*
X-26133614Y-7568132D01*
X-26227905Y-7459237D01*
X-26327242Y-7355009D01*
X-26431435Y-7255636D01*
X-26540297Y-7161307D01*
X-26653639Y-7072211D01*
X-26771271Y-6988536D01*
X-26893007Y-6910471D01*
X-27018656Y-6838204D01*
X-27148031Y-6771925D01*
X-27280942Y-6711821D01*
X-27417202Y-6658082D01*
X-27556622Y-6610896D01*
X-27699012Y-6570452D01*
X-27844185Y-6536938D01*
X-27991952Y-6510543D01*
X-28142124Y-6491456D01*
X-28294513Y-6479866D01*
X-28448931Y-6475961D01*
X-37499994Y-275974D02*
X-37499994Y1924064D01*
X46115661Y-78337337D02*
X46112065Y-67956016D01*
X68719621Y-102412461D02*
X70538158Y-83435971D01*
X10058861Y-22693145D02*
X9891228Y-22695945D01*
X9724514Y-22704301D01*
X9558834Y-22718147D01*
X9394301Y-22737416D01*
X9231032Y-22762041D01*
X9069142Y-22791956D01*
X8908744Y-22827094D01*
X8749953Y-22867389D01*
X8592886Y-22912773D01*
X8437656Y-22963181D01*
X8284378Y-23018546D01*
X8133168Y-23078801D01*
X7984140Y-23143879D01*
X7837410Y-23213715D01*
X7693091Y-23288240D01*
X7551299Y-23367390D01*
X7412149Y-23451097D01*
X7275755Y-23539294D01*
X7142233Y-23631916D01*
X7011697Y-23728895D01*
X6884263Y-23830164D01*
X6760044Y-23935658D01*
X6639157Y-24045310D01*
X6521715Y-24159053D01*
X6407834Y-24276820D01*
X6297629Y-24398545D01*
X6191215Y-24524161D01*
X6088706Y-24653601D01*
X5990217Y-24786800D01*
X5895863Y-24923691D01*
X5805759Y-25064206D01*
X5720021Y-25208280D01*
D11*
X103961800Y-18671375D02*
G75*
G03*
X103961800Y-18671375I-1100000J0D01*
G01*
D10*
X42144714Y-73375065D02*
X42144714Y-65934800D01*
X-11679103Y-70244145D02*
X-11378825Y-70242912D01*
X-11079137Y-70239221D01*
X-10780047Y-70233083D01*
X-10481564Y-70224508D01*
X-10183697Y-70213507D01*
X-9886455Y-70200090D01*
X-9589847Y-70184269D01*
X-9293881Y-70166053D01*
X-8998567Y-70145455D01*
X-8703914Y-70122483D01*
X-8409930Y-70097149D01*
X-8116625Y-70069464D01*
X-7824006Y-70039438D01*
X-7532084Y-70007082D01*
X-7240867Y-69972406D01*
X-6950364Y-69935422D01*
X-6660584Y-69896140D01*
X-6371536Y-69854570D01*
X-6083229Y-69810723D01*
X-5795671Y-69764610D01*
X-5508872Y-69716242D01*
X-5222840Y-69665629D01*
X-4937584Y-69612781D01*
X-4653114Y-69557711D01*
X-4369438Y-69500427D01*
X-4086565Y-69440941D01*
X-3804505Y-69379264D01*
X-3523265Y-69315406D01*
X-3242855Y-69249378D01*
X-2963283Y-69181191D01*
X-2684560Y-69110854D01*
X-2406693Y-69038380D01*
X69138915Y-18794142D02*
X69138915Y-18794142D01*
X-46228358Y-67956016D02*
X-46231954Y-78337337D01*
X-60001784Y-19773712D02*
X-59889314Y-19768032D01*
X-59780093Y-19751364D01*
X-59674674Y-19724259D01*
X-59573611Y-19687269D01*
X-59477455Y-19640949D01*
X-59386760Y-19585851D01*
X-59302079Y-19522528D01*
X-59223964Y-19451533D01*
X-59152969Y-19373418D01*
X-59089646Y-19288737D01*
X-59034548Y-19198042D01*
X-58988228Y-19101886D01*
X-58951238Y-19000823D01*
X-58924133Y-18895404D01*
X-58907465Y-18786183D01*
X-58901786Y-18673714D01*
D11*
X-101761634Y-53671375D02*
G75*
G03*
X-101761634Y-53671375I-1100000J0D01*
G01*
D10*
X-12500012Y-83435992D02*
X-12500012Y-81338360D01*
X-2406693Y-69038380D02*
X-2371446Y-69029552D01*
X-11677038Y-33042981D02*
X-11376760Y-33044213D01*
X-11077072Y-33047904D01*
X-10777982Y-33054042D01*
X-10479499Y-33062616D01*
X-10181632Y-33073617D01*
X-9884390Y-33087034D01*
X-9587781Y-33102855D01*
X-9291816Y-33121070D01*
X-8996502Y-33141669D01*
X-8701849Y-33164640D01*
X-8407865Y-33189974D01*
X-8114559Y-33217659D01*
X-7821941Y-33247684D01*
X-7530019Y-33280040D01*
X-7238802Y-33314716D01*
X-6948299Y-33351700D01*
X-6658519Y-33390982D01*
X-6369471Y-33432552D01*
X-6081163Y-33476398D01*
X-5793605Y-33522511D01*
X-5506806Y-33570879D01*
X-5220774Y-33621492D01*
X-4935519Y-33674339D01*
X-4651049Y-33729410D01*
X-4367373Y-33786693D01*
X-4084500Y-33846179D01*
X-3802439Y-33907856D01*
X-3521199Y-33971713D01*
X-3240789Y-34037741D01*
X-2961218Y-34105929D01*
X-2682495Y-34176265D01*
X-2404628Y-34248740D01*
X-27219872Y-13339281D02*
X-27219872Y-13364559D01*
X-105056012Y-72726073D02*
X-116259656Y-113334211D01*
X25241052Y-9477006D02*
X25244648Y-19858327D01*
X-70538459Y-83435971D02*
X-68719923Y-102412461D01*
X15961903Y-28523819D02*
X15961903Y-28473240D01*
X-36764681Y-21958350D02*
X-29419867Y-21879543D01*
X-48499990Y1924086D02*
X-48499990Y-275974D01*
X2787282Y-66894813D02*
X2787282Y-66894813D01*
X-58415470Y28244874D02*
X-58624783Y28241007D01*
X-58832312Y28228546D01*
X-59037857Y28207643D01*
X-59241218Y28178447D01*
X-59442196Y28141109D01*
X-59640590Y28095781D01*
X-59836202Y28042611D01*
X-60028831Y27981752D01*
X-60218278Y27913354D01*
X-60404344Y27837568D01*
X-60586828Y27754543D01*
X-60765530Y27664431D01*
X-60940252Y27567383D01*
X-61110794Y27463549D01*
X-61276956Y27353079D01*
X-61438538Y27236125D01*
X-61595340Y27112837D01*
X-61747164Y26983366D01*
X-61893808Y26847862D01*
X-62035075Y26706476D01*
X-62170763Y26559358D01*
X-62300674Y26406660D01*
X-62424608Y26248532D01*
X-62542364Y26085125D01*
X-62653744Y25916588D01*
X-62758548Y25743074D01*
X-62856575Y25564732D01*
X-62947627Y25381713D01*
X-63031504Y25194168D01*
X-63108006Y25002248D01*
X-63176933Y24806103D01*
X-63238087Y24605884D01*
X11530794Y-35243482D02*
X11560724Y-35246497D01*
X79005793Y-72353788D02*
X79002622Y-72447971D01*
X78993137Y-72541626D01*
X78977379Y-72634433D01*
X78955387Y-72726073D01*
X29211998Y-14439278D02*
X29211998Y-21879543D01*
X-60774671Y-109649293D02*
X-41987381Y-109692163D01*
X-16078218Y-28523819D02*
X-16083766Y-28633702D01*
X-16100051Y-28740411D01*
X-16126533Y-28843406D01*
X-16162672Y-28942146D01*
X-16207927Y-29036092D01*
X-16261758Y-29124702D01*
X-16323625Y-29207438D01*
X-16392989Y-29283758D01*
X-16469308Y-29353123D01*
X-16552043Y-29414991D01*
X-16640654Y-29468824D01*
X-16734600Y-29514080D01*
X-16833341Y-29550220D01*
X-16936338Y-29576703D01*
X-17043050Y-29592989D01*
X-17152937Y-29598538D01*
X-30987385Y-109717269D02*
X-13675134Y-109756780D01*
X58693902Y-18673714D02*
X58699581Y-18561247D01*
X58716249Y-18452029D01*
X58743354Y-18346613D01*
X58780344Y-18245550D01*
X58826664Y-18149395D01*
X58881762Y-18058700D01*
X58945085Y-17974018D01*
X59016080Y-17895903D01*
X59094195Y-17824906D01*
X59178876Y-17761582D01*
X59269571Y-17706483D01*
X59365727Y-17660161D01*
X59466790Y-17623171D01*
X59572209Y-17596065D01*
X59681430Y-17579396D01*
X59793900Y-17573717D01*
X-34072080Y-28584797D02*
X-34078217Y-28584797D01*
X-28294569Y-12239283D02*
X-28184689Y-12244831D01*
X-28077984Y-12261117D01*
X-27974992Y-12287600D01*
X-27876254Y-12323739D01*
X-27782310Y-12368995D01*
X-27693701Y-12422828D01*
X-27610967Y-12484696D01*
X-27534648Y-12554059D01*
X-27465284Y-12630378D01*
X-27403416Y-12713112D01*
X-27349584Y-12801722D01*
X-27304328Y-12895665D01*
X-27268189Y-12994403D01*
X-27241706Y-13097395D01*
X-27225420Y-13204101D01*
X-27219872Y-13313981D01*
X-66160540Y-7971542D02*
X-66229582Y-7852660D01*
X-66292721Y-7743942D01*
X-66350801Y-7643936D01*
X-66404666Y-7551189D01*
X-66455157Y-7464250D01*
X-66503119Y-7381667D01*
X-66549394Y-7301987D01*
X-66594826Y-7223759D01*
X-66640258Y-7145531D01*
X-66686533Y-7065851D01*
X-66734495Y-6983266D01*
X-66784987Y-6896325D01*
X-66838851Y-6803576D01*
X-66896931Y-6703567D01*
X-66960070Y-6594846D01*
X-67029113Y-6475961D01*
X117850838Y-116795821D02*
X99727332Y-116795821D01*
X34799900Y-65855993D02*
X34694340Y-65849358D01*
X34592148Y-65832133D01*
X34493856Y-65804887D01*
X34399993Y-65768190D01*
X34311091Y-65722608D01*
X34227680Y-65668712D01*
X34150291Y-65607070D01*
X34079454Y-65538250D01*
X34015701Y-65462821D01*
X33959562Y-65381353D01*
X33911568Y-65294413D01*
X33872249Y-65202571D01*
X33842136Y-65106395D01*
X33821760Y-65006454D01*
X33811652Y-64903317D01*
X33812342Y-64797552D01*
D11*
X28089924Y-106104735D02*
G75*
G03*
X28089924Y-106104735I-1100000J0D01*
G01*
D10*
X27012003Y-21844489D02*
X27012003Y-13364559D01*
X-70164719Y-52486928D02*
X-70159039Y-52374458D01*
X-70142370Y-52265237D01*
X-70115264Y-52159819D01*
X-70078274Y-52058755D01*
X-70031952Y-51962599D01*
X-69976853Y-51871905D01*
X-69913529Y-51787223D01*
X-69842532Y-51709109D01*
X-69764416Y-51638113D01*
X-69679735Y-51574790D01*
X-69589039Y-51519692D01*
X-69492884Y-51473372D01*
X-69391822Y-51436383D01*
X-69286405Y-51409278D01*
X-69177187Y-51392610D01*
X-69064721Y-51386931D01*
X48499990Y-275974D02*
X48499990Y1924043D01*
X-27219872Y-13313981D02*
X-27219872Y-13339281D01*
X117850838Y-7971542D02*
X117781796Y-7852660D01*
X117718656Y-7743942D01*
X117660576Y-7643936D01*
X117606712Y-7551189D01*
X117556221Y-7464250D01*
X117508260Y-7381667D01*
X117461985Y-7301987D01*
X117416554Y-7223759D01*
X117371123Y-7145531D01*
X117324849Y-7065851D01*
X117276889Y-6983266D01*
X117226400Y-6896325D01*
X117172538Y-6803576D01*
X117114461Y-6703567D01*
X117051325Y-6594846D01*
X116982287Y-6475961D01*
X70129268Y-53715713D02*
X70177776Y-53621522D01*
X70225278Y-53511417D01*
X70270952Y-53388790D01*
X70299979Y-53301756D01*
X70327585Y-53211670D01*
X70353525Y-53119535D01*
X70377556Y-53026358D01*
X70399435Y-52933142D01*
X70418918Y-52840894D01*
X70435761Y-52750617D01*
X70455543Y-52621099D01*
X70468015Y-52501670D01*
X70472356Y-52395725D01*
X2253066Y-34257582D02*
X2215708Y-34266927D01*
X-33928635Y-64797552D02*
X-33927945Y-64903313D01*
X-33938053Y-65006448D01*
X-33958429Y-65106387D01*
X-33988542Y-65202562D01*
X-34027861Y-65294404D01*
X-34075856Y-65381344D01*
X-34131995Y-65462813D01*
X-34195748Y-65538242D01*
X-34266585Y-65607063D01*
X-34343974Y-65668706D01*
X-34427384Y-65722604D01*
X-34516287Y-65768187D01*
X-34610149Y-65804886D01*
X-34708441Y-65832132D01*
X-34810633Y-65849357D01*
X-34916193Y-65855993D01*
X41986972Y-109692163D02*
X60774370Y-109649293D01*
X69140993Y-53547436D02*
X69140993Y-53547436D01*
X-41987381Y-116795821D02*
X-86375089Y-116795821D01*
X-43231943Y-81338381D02*
X-23500030Y-81338360D01*
X-34078217Y-28569079D02*
X-34078217Y-28523819D01*
X1227444Y-34098629D02*
X1178930Y-34192825D01*
X1131425Y-34302934D01*
X1085750Y-34425565D01*
X1056723Y-34512601D01*
X1029117Y-34602689D01*
X1003178Y-34694825D01*
X979147Y-34788003D01*
X957269Y-34881220D01*
X937788Y-34973469D01*
X920946Y-35063745D01*
X901166Y-35193264D01*
X888695Y-35312693D01*
X884356Y-35418639D01*
X-6780831Y-79828999D02*
X-1140219Y-68814275D01*
X-2369380Y-34257568D02*
X-2332022Y-34266913D01*
X-69064721Y-51386931D02*
X-68973136Y-51390161D01*
X-68883636Y-51400211D01*
X-68787927Y-51419781D01*
X-68779381Y-51422027D01*
X70332787Y-19000068D02*
X64692175Y-7985344D01*
X27419429Y-73375065D02*
X42144714Y-73375065D01*
X-2332022Y-34266913D02*
X-2245545Y-34293944D01*
X-2121930Y-34346994D01*
X-2006621Y-34414089D01*
X-1900726Y-34494154D01*
X-1805354Y-34586114D01*
X-1721614Y-34688893D01*
X-1650614Y-34801415D01*
X-1593461Y-34922604D01*
X-1563601Y-35007681D01*
X-1540716Y-35095813D01*
X-1525136Y-35186682D01*
X-1517188Y-35279969D01*
X-1516180Y-35327420D01*
X-35346852Y-64062713D02*
X-37752239Y-23016791D01*
X-70680225Y-19993073D02*
X-70680225Y-52395725D01*
X-60001784Y-17573717D02*
X-60001784Y-17570207D01*
X6664537Y-79828999D02*
X6715975Y-79915459D01*
X6770034Y-79999784D01*
X6826644Y-80081934D01*
X6885735Y-80161869D01*
X6947240Y-80239549D01*
X7011088Y-80314933D01*
X7077212Y-80387982D01*
X7145541Y-80458656D01*
X7216008Y-80526915D01*
X7288543Y-80592719D01*
X7363077Y-80656028D01*
X7439542Y-80716802D01*
X7517868Y-80775001D01*
X7597986Y-80830585D01*
X7679827Y-80883515D01*
X7763323Y-80933749D01*
X7848405Y-80981248D01*
X7935003Y-81025973D01*
X8023048Y-81067883D01*
X8112472Y-81106938D01*
X8203206Y-81143099D01*
X8295181Y-81176324D01*
X8388327Y-81206575D01*
X8482576Y-81233812D01*
X8577859Y-81257994D01*
X8674107Y-81279081D01*
X8771251Y-81297034D01*
X8869222Y-81311812D01*
X8967951Y-81323376D01*
X9067368Y-81331685D01*
X9167406Y-81336700D01*
X9267996Y-81338381D01*
X-97375086Y-116795821D02*
X-117850881Y-116795821D01*
X-11647108Y-35243471D02*
X-11677037Y-35246486D01*
X43937284Y-12239283D02*
X44047167Y-12244831D01*
X44153876Y-12261117D01*
X44256871Y-12287600D01*
X44355611Y-12323740D01*
X44449557Y-12368996D01*
X44538167Y-12422829D01*
X44620903Y-12484697D01*
X44697223Y-12554062D01*
X44766588Y-12630382D01*
X44828456Y-12713118D01*
X44882289Y-12801728D01*
X44927545Y-12895674D01*
X44963685Y-12994414D01*
X44990168Y-13097409D01*
X45006454Y-13204118D01*
X45012003Y-13314002D01*
X-27219872Y-21844489D02*
X-27127168Y-21831536D01*
X-27035881Y-21814405D01*
X-26946111Y-21793196D01*
X-26857957Y-21768011D01*
X-26771521Y-21738950D01*
X-26686903Y-21706115D01*
X-26604201Y-21669606D01*
X-26523517Y-21629524D01*
X-26368601Y-21539047D01*
X-26222955Y-21435491D01*
X-26087381Y-21319665D01*
X-25962678Y-21192375D01*
X-25849647Y-21054430D01*
X-25749090Y-20906638D01*
X-25661806Y-20749806D01*
X-25623392Y-20668253D01*
X-25588596Y-20584742D01*
X-25557520Y-20499376D01*
X-25530262Y-20412255D01*
X-25506923Y-20323479D01*
X-25487603Y-20233151D01*
X-25472403Y-20141371D01*
X-25461421Y-20048239D01*
X-25454759Y-19953857D01*
X-25452516Y-19858327D01*
X2217786Y-69020221D02*
X2131309Y-68993189D01*
X2007694Y-68940139D01*
X1892385Y-68873044D01*
X1786490Y-68792979D01*
X1691119Y-68701019D01*
X1607379Y-68598240D01*
X1536378Y-68485718D01*
X1479226Y-68364529D01*
X1449366Y-68279452D01*
X1426481Y-68191319D01*
X1410901Y-68100450D01*
X1402953Y-68007163D01*
X1401945Y-67959713D01*
X69956834Y-52486928D02*
X69951154Y-52374458D01*
X69934485Y-52265237D01*
X69907379Y-52159819D01*
X69870389Y-52058755D01*
X69824067Y-51962599D01*
X69768968Y-51871905D01*
X69705644Y-51787223D01*
X69634647Y-51709109D01*
X69556532Y-51638113D01*
X69471850Y-51574790D01*
X69381155Y-51519692D01*
X69285000Y-51473372D01*
X69183937Y-51436383D01*
X69078521Y-51409278D01*
X68969303Y-51392610D01*
X68856837Y-51386931D01*
X-16078218Y-28473240D02*
X-16078218Y-28523819D01*
X68856837Y-51386931D02*
X68765252Y-51390161D01*
X68675752Y-51400211D01*
X68580043Y-51419781D01*
X68571497Y-51422027D01*
X-39802674Y-65121197D02*
X-39802674Y-60415800D01*
X2288314Y-34248754D02*
X2253066Y-34257582D01*
X-69346799Y-18794142D02*
X-69433276Y-18821173D01*
X-69556891Y-18874223D01*
X-69672200Y-18941318D01*
X-69778094Y-19021383D01*
X-69873466Y-19113343D01*
X-69957206Y-19216122D01*
X-70028207Y-19328644D01*
X-70085359Y-19449833D01*
X-70115219Y-19534910D01*
X-70138104Y-19623043D01*
X-70153684Y-19713912D01*
X-70161632Y-19807199D01*
X-70162641Y-19854650D01*
X15961903Y-28473240D02*
X15967451Y-28363357D01*
X15983736Y-28256648D01*
X16010218Y-28153655D01*
X16046356Y-28054916D01*
X16091611Y-27960972D01*
X16145442Y-27872363D01*
X16207308Y-27789629D01*
X16276671Y-27713311D01*
X16352989Y-27643949D01*
X16435723Y-27582082D01*
X16524331Y-27528251D01*
X16618275Y-27482997D01*
X16717014Y-27446858D01*
X16820008Y-27420376D01*
X16926717Y-27404091D01*
X17036600Y-27398543D01*
X-2332022Y-34266913D02*
X-2332022Y-34266913D01*
X-34078217Y-28473240D02*
X-34078217Y-22693145D01*
X-86375046Y-4275966D02*
X-48499990Y-4275966D01*
X-29419867Y-21879543D02*
X-29419867Y-14439278D01*
D11*
X9943584Y5123949D02*
X28993584Y5123926D01*
D10*
X65636691Y-62606062D02*
X70129268Y-53715713D01*
X68715724Y-114600175D02*
X88727336Y-114600175D01*
D11*
X-21250981Y-106104735D02*
G75*
G03*
X-21250981Y-106104735I-1100000J0D01*
G01*
D10*
X59793900Y-17573717D02*
X59793900Y-17570207D01*
X23499965Y-83435992D02*
X23499965Y-81338381D01*
X23500008Y-22693145D02*
X23500008Y-4275966D01*
X11562801Y-68040651D02*
X11675271Y-68046330D01*
X11784491Y-68062998D01*
X11889910Y-68090103D01*
X11990974Y-68127093D01*
X12087129Y-68173413D01*
X12177824Y-68228511D01*
X12262505Y-68291834D01*
X12340620Y-68362829D01*
X12411616Y-68440944D01*
X12474939Y-68525625D01*
X12530037Y-68616320D01*
X12576357Y-68712476D01*
X12613346Y-68813539D01*
X12640451Y-68918958D01*
X12657119Y-69028179D01*
X12662799Y-69140649D01*
D11*
X-101761634Y-18671375D02*
G75*
G03*
X-101761634Y-18671375I-1100000J0D01*
G01*
D10*
X44344709Y-74500362D02*
X44339160Y-74610244D01*
X44322874Y-74716953D01*
X44296391Y-74819947D01*
X44260252Y-74918686D01*
X44214996Y-75012630D01*
X44161164Y-75101239D01*
X44099296Y-75183972D01*
X44029932Y-75260291D01*
X43953613Y-75329653D01*
X43870879Y-75391520D01*
X43782270Y-75445351D01*
X43688326Y-75490605D01*
X43589588Y-75526744D01*
X43486596Y-75553226D01*
X43379891Y-75569511D01*
X43270012Y-75575060D01*
X-31878222Y-27398543D02*
X-17152915Y-27398543D01*
X35138983Y-64062713D02*
X35138327Y-64169241D01*
X35148619Y-64273081D01*
X35169314Y-64373653D01*
X35199866Y-64470383D01*
X35239733Y-64562691D01*
X35288368Y-64650001D01*
X35345229Y-64731735D01*
X35409770Y-64807316D01*
X35481447Y-64876168D01*
X35559716Y-64937712D01*
X35644032Y-64991371D01*
X35733850Y-65036569D01*
X35828627Y-65072728D01*
X35927818Y-65099270D01*
X36030878Y-65115619D01*
X36137264Y-65121197D01*
X-2436285Y-83435992D02*
X-12500012Y-83435992D01*
X55394810Y-59290524D02*
X55394810Y-59341102D01*
X-23499987Y-4275966D02*
X-23499987Y-22693145D01*
X33961902Y-28569079D02*
X33961902Y-28584797D01*
X44344709Y-65969854D02*
X44344709Y-74449784D01*
X-67751765Y-113334211D02*
X-78955430Y-72725987D01*
X45012003Y-13314002D02*
X45012003Y-13364559D01*
X-2371446Y-69029552D02*
X-2334088Y-69020207D01*
X48521995Y-83435971D02*
X23499965Y-83435992D01*
X-23500030Y-83435992D02*
X-48522404Y-83435971D01*
D11*
X-58142302Y-105599237D02*
G75*
G03*
X-58142302Y-105599237I-1100000J0D01*
G01*
D10*
X55394810Y-59341102D02*
X55389261Y-59450984D01*
X55372975Y-59557693D01*
X55346492Y-59660687D01*
X55310353Y-59759426D01*
X55265097Y-59853370D01*
X55211264Y-59941979D01*
X55149396Y-60024712D01*
X55080033Y-60101031D01*
X55003714Y-60170393D01*
X54920980Y-60232260D01*
X54832370Y-60286091D01*
X54738427Y-60331345D01*
X54639689Y-60367484D01*
X54536697Y-60393966D01*
X54429991Y-60410251D01*
X54320112Y-60415800D01*
X-48499990Y-6475961D02*
X-62296585Y-6475961D01*
X33961902Y-28584797D02*
X33955765Y-28584797D01*
X12499969Y-83435992D02*
X2436005Y-83435992D01*
X-117850881Y-120795835D02*
X117850838Y-120795835D01*
X117850838Y-4275966D02*
X117850838Y-275974D01*
X68571497Y-51422027D02*
X68571497Y-51422027D01*
X27012003Y-13339281D02*
X27012003Y-13313981D01*
D11*
X46351902Y24592790D02*
G75*
G03*
X46351902Y24592790I-1100000J0D01*
G01*
D10*
X37394810Y-65121197D02*
X37394810Y-59341102D01*
X-37499994Y-4275966D02*
X-23499987Y-4275966D01*
X-1140219Y-68814275D02*
X-1093235Y-68709162D01*
X-1065925Y-68621683D01*
X-1044590Y-68528536D01*
X-1028495Y-68431287D01*
X-1016901Y-68331506D01*
X-1009070Y-68230759D01*
X-1004267Y-68130614D01*
X-1001753Y-68032638D01*
X-1000791Y-67938399D01*
X-1000650Y-67821269D01*
X69140993Y-53547436D02*
X69227469Y-53520404D01*
X69351084Y-53467354D01*
X69466393Y-53400259D01*
X69572288Y-53320194D01*
X69667659Y-53228234D01*
X69751399Y-53125455D01*
X69822400Y-53012933D01*
X69879552Y-52891744D01*
X69909412Y-52806667D01*
X69932297Y-52718534D01*
X69947877Y-52627665D01*
X69955825Y-52534378D01*
X69956834Y-52486928D01*
X-27219872Y-13364559D02*
X-27219872Y-21844489D01*
X-42261008Y-73375065D02*
X-27535722Y-73375065D01*
X12499991Y-4275966D02*
X12499991Y-22693145D01*
X59795977Y-54767861D02*
X59795977Y-54771371D01*
X37499994Y-275974D02*
X-37499994Y-275974D01*
X38469508Y-58215805D02*
X54320091Y-58215805D01*
M02*
