M48
; DRILL file {KiCad (6.0.1)} date Sun Feb 27 14:39:38 2022
; FORMAT={-:-/ absolute / inch / decimal}
; #@! TF.CreationDate,2022-02-27T14:39:38+09:00
; #@! TF.GenerationSoftware,Kicad,Pcbnew,(6.0.1)
; #@! TF.FileFunction,Plated,1,2,PTH
FMAT,2
INCH
; #@! TA.AperFunction,Plated,PTH,ViaDrill
T1C0.0157
; #@! TA.AperFunction,Plated,PTH,ComponentDrill
T2C0.0320
; #@! TA.AperFunction,Plated,PTH,ComponentDrill
T3C0.0394
; #@! TA.AperFunction,Plated,PTH,ComponentDrill
T4C0.0512
; #@! TA.AperFunction,Plated,PTH,ComponentDrill
T5C0.0591
%
G90
G05
T1
X-5.7078Y-2.2828
X-4.56Y-3.225
X-4.53Y-1.03
X-4.325Y-3.18
X-4.31Y-3.285
X-4.3015Y-3.0835
X-4.2838Y-2.99
X-4.245Y-3.34
X-4.0441Y-3.2465
X-4.0065Y-3.165
X-3.9815Y-3.06
X-3.765Y-0.87
X-3.765Y-3.32
X-3.735Y-3.225
X-3.71Y-3.13
X-3.625Y-3.53
X-3.5048Y-3.4848
X-3.48Y-3.39
X-3.45Y-3.295
X-3.435Y-3.19
X-3.26Y-3.5442
X-3.215Y-3.555
X-3.1965Y-3.455
X-3.1715Y-3.365
X-3.1515Y-3.2622
X-3.015Y-0.62
X-2.94Y-3.62
X-2.92Y-3.52
X-2.8915Y-3.43
X-2.863Y-3.3421
X-2.675Y-3.685
X-2.6548Y-3.5902
X-2.26Y-0.845
X-1.4998Y-1.2998
X-1.105Y-3.975
X-1.07Y-4.065
X-0.895Y-1.95
X-0.3516Y-2.8449
X-0.345Y-2.8
X0.175Y-1.435
X0.2079Y-2.8674
X0.2202Y-2.9048
X0.35Y-3.4
X0.425Y-2.435
X0.5994Y-2.09
X1.0252Y-1.9752
X1.595Y-0.72
X1.7Y-1.46
X2.04Y-0.255
X2.4Y-3.645
X2.42Y-3.73
X2.45Y-1.235
X2.62Y-3.395
X2.64Y-3.49
X2.6677Y-3.5823
X2.7Y-3.68
X2.9Y-3.32
X2.925Y-3.42
X2.95Y-3.515
X2.97Y-3.605
X3.195Y-3.255
X3.215Y-1.525
X3.215Y-3.345
X3.23Y-3.45
X3.255Y-3.54
X3.465Y-3.19
X3.495Y-3.285
X3.505Y-3.485
X3.515Y-3.38
X3.745Y-3.115
X3.775Y-3.215
X3.8Y-3.315
X3.98Y-1.7
X4.04Y-3.045
X4.06Y-3.145
X4.075Y-3.235
X4.31Y-3.275
X4.445Y-3.27
X4.755Y-1.755
X5.395Y-1.245
X5.395Y-1.345
X5.4Y-1.445
X5.4Y-1.645
X5.4Y-1.74
X5.4Y-1.835
X5.405Y-1.54
X5.79Y-2.23
T2
X-6.19Y-1.8959
X-6.1761Y-1.7969
X-6.1621Y-1.6978
X-6.1482Y-1.5988
X-6.1343Y-1.4998
X-6.1204Y-1.4007
X-6.1065Y-1.3017
X-6.0926Y-1.2027
X-6.0786Y-1.1037
X-6.0647Y-1.0046
X-6.0508Y-0.9056
X-6.0369Y-0.8066
X-5.5966Y-1.9793
X-5.5827Y-1.8802
X-5.5688Y-1.7812
X-5.5548Y-1.6822
X-5.5409Y-1.5832
X-5.527Y-1.4841
X-5.5131Y-1.3851
X-5.4992Y-1.2861
X-5.4853Y-1.1871
X-5.4713Y-1.088
X-5.4574Y-0.989
X-5.4435Y-0.89
X5.4471Y-0.8895
X5.461Y-0.9885
X5.475Y-1.0875
X5.4889Y-1.1866
X5.5028Y-1.2856
X5.5167Y-1.3846
X5.5306Y-1.4836
X5.5445Y-1.5827
X5.5585Y-1.6817
X5.5724Y-1.7807
X5.5863Y-1.8797
X5.6002Y-1.9788
X6.0405Y-0.8061
X6.0544Y-0.9051
X6.0683Y-1.0041
X6.0823Y-1.1032
X6.0962Y-1.2022
X6.1101Y-1.3012
X6.124Y-1.4002
X6.1379Y-1.4993
X6.1518Y-1.5983
X6.1658Y-1.6973
X6.1797Y-1.7963
X6.1936Y-1.8954
T3
X-6.2291Y-2.6571
X-6.1496Y-2.0917
X-6.1316Y-2.6707
X-6.0341Y-2.6844
X-5.9547Y-2.1191
X-1.191Y-3.511
X-1.113Y-3.2221
X-0.8041Y-3.3367
X-0.7075Y-3.3557
X-0.6939Y-2.7765
X-0.6109Y-3.3747
X-0.5007Y-2.8145
X-0.1995Y-3.0008
X-0.142Y-2.7879
X0.1456Y-2.7918
X0.2031Y-3.0046
X0.5007Y-2.8145
X0.6109Y-3.3747
X0.6939Y-2.7765
X0.7075Y-3.3557
X0.8041Y-3.3367
X1.0217Y-3.2516
X1.0998Y-3.5405
X5.9547Y-2.1191
X6.0341Y-2.6844
X6.1316Y-2.6707
X6.1496Y-2.0917
X6.2291Y-2.6571
T4
X-6.4205Y-1.6963
X-6.3849Y-1.4429
X6.3849Y-1.4429
X6.4205Y-1.6963
T3
G00X-6.3799Y-1.1657
M15
G01X-6.3827Y-1.1852
M16
G05
G00X-6.208Y-1.1303
M15
G01X-6.2107Y-1.1497
M16
G05
G00X-6.186Y-0.9743
M15
G01X-6.1888Y-0.9938
M16
G05
G00X-6.1696Y-0.8573
M15
G01X-6.1723Y-0.8768
M16
G05
G00X6.2162Y-1.1887
M15
G01X6.2189Y-1.2082
M16
G05
G00X6.3333Y-0.8343
M15
G01X6.3361Y-0.8538
M16
G05
G00X6.3498Y-0.9513
M15
G01X6.3525Y-0.9708
M16
G05
G00X6.3717Y-1.1072
M15
G01X6.3744Y-1.1267
M16
G05
T5
G00X-6.3124Y-2.373
M15
G01X-6.3053Y-2.3223
M16
G05
G00X-5.8757Y-2.4344
M15
G01X-5.8686Y-2.3837
M16
G05
G00X-0.8718Y-3.0485
M15
G01X-0.8619Y-2.9983
M16
G05
G00X-0.4391Y-3.1336
M15
G01X-0.4292Y-3.0834
M16
G05
G00X0.4391Y-3.1336
M15
G01X0.4292Y-3.0834
M16
G05
G00X0.8718Y-3.0485
M15
G01X0.8619Y-2.9983
M16
G05
G00X5.8757Y-2.4344
M15
G01X5.8686Y-2.3837
M16
G05
G00X6.3124Y-2.373
M15
G01X6.3053Y-2.3223
M16
G05
T0
M30
