M48
; DRILL file {KiCad (6.0.5)} date Tue Jul 12 17:30:20 2022
; FORMAT={-:-/ absolute / inch / decimal}
; #@! TF.CreationDate,2022-07-12T17:30:20+09:00
; #@! TF.GenerationSoftware,Kicad,Pcbnew,(6.0.5)
; #@! TF.FileFunction,NonPlated,1,2,NPTH
FMAT,2
INCH
; #@! TA.AperFunction,NonPlated,NPTH,ComponentDrill
T1C0.0472
; #@! TA.AperFunction,NonPlated,NPTH,ComponentDrill
T2C0.0748
; #@! TA.AperFunction,NonPlated,NPTH,ComponentDrill
T3C0.1181
; #@! TA.AperFunction,NonPlated,NPTH,ComponentDrill
T4C0.1614
%
G90
G05
T1
X6.243Y-0.7854
X6.2813Y-1.0583
T2
X0.4543Y-3.1046
X0.6593Y-3.9642
X0.8468Y-3.0273
X1.0133Y-1.329
X1.0455Y-3.8599
X1.0642Y-2.1112
X1.1799Y-2.9087
X1.3833Y-3.7687
X1.413Y-1.3149
X1.4624Y-2.0734
X1.5725Y-2.8318
X1.7695Y-3.6643
X1.7732Y-0.8344
X1.7841Y-1.6406
X1.8684Y-2.4344
X2.0254Y-3.2232
X2.173Y-0.8487
X2.1833Y-1.6154
X2.264Y-2.3752
X2.4135Y-3.1264
X2.5317Y-0.6179
X2.5319Y-1.4076
X2.5996Y-2.21
X2.7474Y-3.0041
X2.9314Y-0.6317
X2.9317Y-1.3935
X2.9961Y-2.1569
X3.1363Y-2.9109
X3.2836Y-0.8889
X3.3085Y-1.6941
X3.416Y-2.4969
X3.6835Y-0.8963
X3.7072Y-1.6622
X3.8091Y-2.4229
X4.0394Y-1.0624
X4.088Y-1.8724
X4.2102Y-2.6555
X4.4394Y-1.0604
X4.4853Y-1.8268
X4.603Y-2.5802
X4.7947Y-1.1189
X4.8563Y-1.93
X5.0124Y-2.7323
X5.1946Y-1.1111
X5.2529Y-1.8774
X5.3998Y-2.6329
X5.8925Y-2.4062
X6.2886Y-2.3505
T3
X0.484Y-2.9968
X0.6815Y-3.8546
X0.71Y-2.8504
X0.8968Y-3.6929
X1.0597Y-1.2273
X1.1045Y-2.007
X1.2098Y-2.8009
X1.306Y-1.1185
X1.3439Y-1.8838
X1.4055Y-3.6591
X1.4359Y-2.6547
X1.6208Y-3.4973
X1.8268Y-0.7363
X1.8277Y-1.5377
X1.9031Y-2.3281
X2.0497Y-3.1141
X2.0709Y-1.4221
X2.0802Y-0.6453
X2.1355Y-2.1922
X2.2681Y-2.9566
X2.5784Y-1.3059
X2.5851Y-0.5197
X2.6359Y-2.1042
X2.7727Y-2.8952
X2.8247Y-1.1972
X2.8384Y-0.4284
X2.8704Y-1.972
X2.9925Y-2.7397
X3.3355Y-0.7898
X3.3503Y-1.5904
X3.4466Y-2.3894
X3.5873Y-0.6944
X3.5915Y-1.4708
X3.6738Y-2.2448
X4.0889Y-0.9621
X4.1262Y-1.7673
X4.2405Y-2.5479
X4.3384Y-0.8609
X4.3632Y-1.6395
X4.4672Y-2.4026
X4.8427Y-1.018
X4.8927Y-1.8243
X5.036Y-2.623
X5.0907Y-0.9131
X5.1274Y-1.6923
X5.2533Y-2.464
X5.9281Y-2.3002
X6.1617Y-2.1664
T4
X0.6505Y-3.0659
X0.8524Y-3.912
X1.2131Y-1.3219
X1.2633Y-2.0923
X1.3762Y-2.8702
X1.5764Y-3.7165
X1.9731Y-0.8416
X1.9837Y-1.628
X2.0662Y-2.4048
X2.2194Y-3.1748
X2.7315Y-0.6248
X2.7318Y-1.4006
X2.7978Y-2.1835
X2.9419Y-2.9575
X3.4836Y-0.8926
X3.5078Y-1.6781
X3.6126Y-2.4599
X4.2394Y-1.0614
X4.2867Y-1.8496
X4.4066Y-2.6178
X4.9946Y-1.115
X5.0546Y-1.9037
X5.2061Y-2.6826
X6.0905Y-2.3783
T0
M30
