%TF.GenerationSoftware,KiCad,Pcbnew,(6.0.5)*%
%TF.CreationDate,2022-07-12T17:30:17+09:00*%
%TF.ProjectId,ergotonic_f24-pcb-right,6572676f-746f-46e6-9963-5f6632342d70,rev?*%
%TF.SameCoordinates,Original*%
%TF.FileFunction,Soldermask,Top*%
%TF.FilePolarity,Negative*%
%FSLAX46Y46*%
G04 Gerber Fmt 4.6, Leading zero omitted, Abs format (unit mm)*
G04 Created by KiCad (PCBNEW (6.0.5)) date 2022-07-12 17:30:17*
%MOMM*%
%LPD*%
G01*
G04 APERTURE LIST*
G04 Aperture macros list*
%AMRoundRect*
0 Rectangle with rounded corners*
0 $1 Rounding radius*
0 $2 $3 $4 $5 $6 $7 $8 $9 X,Y pos of 4 corners*
0 Add a 4 corners polygon primitive as box body*
4,1,4,$2,$3,$4,$5,$6,$7,$8,$9,$2,$3,0*
0 Add four circle primitives for the rounded corners*
1,1,$1+$1,$2,$3*
1,1,$1+$1,$4,$5*
1,1,$1+$1,$6,$7*
1,1,$1+$1,$8,$9*
0 Add four rect primitives between the rounded corners*
20,1,$1+$1,$2,$3,$4,$5,0*
20,1,$1+$1,$4,$5,$6,$7,0*
20,1,$1+$1,$6,$7,$8,$9,0*
20,1,$1+$1,$8,$9,$2,$3,0*%
%AMHorizOval*
0 Thick line with rounded ends*
0 $1 width*
0 $2 $3 position (X,Y) of the first rounded end (center of the circle)*
0 $4 $5 position (X,Y) of the second rounded end (center of the circle)*
0 Add line between two ends*
20,1,$1,$2,$3,$4,$5,0*
0 Add two circle primitives to create the rounded ends*
1,1,$1,$2,$3*
1,1,$1,$4,$5*%
%AMRotRect*
0 Rectangle, with rotation*
0 The origin of the aperture is its center*
0 $1 length*
0 $2 width*
0 $3 Rotation angle, in degrees counterclockwise*
0 Add horizontal line*
21,1,$1,$2,0,0,$3*%
G04 Aperture macros list end*
%ADD10C,3.000000*%
%ADD11C,4.100000*%
%ADD12C,1.900000*%
%ADD13C,1.524000*%
%ADD14RotRect,1.700000X1.000000X285.120000*%
%ADD15RotRect,1.700000X1.000000X352.000000*%
%ADD16C,2.000000*%
%ADD17HorizOval,1.500000X-0.125473X0.637775X0.125473X-0.637775X0*%
%ADD18C,1.200000*%
%ADD19RotRect,1.700000X1.000000X13.500000*%
%ADD20R,1.000000X1.700000*%
%ADD21RoundRect,0.150000X0.642490X0.018219X0.564237X0.307833X-0.642490X-0.018219X-0.564237X-0.307833X0*%
%ADD22RoundRect,0.249600X0.719283X-0.168618X0.536485X0.507921X-0.719283X0.168618X-0.536485X-0.507921X0*%
%ADD23RotRect,1.700000X1.700000X188.000000*%
%ADD24HorizOval,1.700000X0.000000X0.000000X0.000000X0.000000X0*%
%ADD25HorizOval,1.500000X-0.090463X0.643674X0.090463X-0.643674X0*%
%ADD26RotRect,1.700000X1.000000X98.000000*%
G04 APERTURE END LIST*
D10*
%TO.C,SW26*%
X22778966Y-93799521D03*
X17310613Y-97906979D03*
D11*
X21651000Y-99366000D03*
D12*
X26555370Y-98041781D03*
X16746630Y-100690219D03*
%TD*%
D13*
%TO.C,U2*%
X153334029Y-21006070D03*
X153687529Y-23521351D03*
X154041028Y-26036632D03*
X154394528Y-28551913D03*
X154748028Y-31067194D03*
X155101527Y-33582474D03*
X155455027Y-36097755D03*
X155808527Y-38613036D03*
X156162026Y-41128317D03*
X156515526Y-43643598D03*
X156869026Y-46158879D03*
X157222525Y-48674160D03*
X142150645Y-50792374D03*
X141797146Y-48277094D03*
X141443646Y-45761813D03*
X141090146Y-43246532D03*
X140736647Y-40731251D03*
X140383147Y-38215970D03*
X140029647Y-35700689D03*
X139676148Y-33185408D03*
X139322648Y-30670127D03*
X138969148Y-28154846D03*
X138615649Y-25639566D03*
X138262149Y-23124285D03*
X137908649Y-20609004D03*
X152980529Y-18490789D03*
%TD*%
D10*
%TO.C,SW33*%
X54242286Y-55683056D03*
D12*
X57506069Y-60331251D03*
D10*
X48338074Y-59134777D03*
D11*
X52482000Y-61083000D03*
D12*
X47457931Y-61834749D03*
%TD*%
D14*
%TO.C,LED_11*%
X12582081Y-92915210D03*
X11230547Y-93280389D03*
X9795919Y-87970790D03*
X11147453Y-87605611D03*
%TD*%
D12*
%TO.C,SW36*%
X64311157Y-35753062D03*
D10*
X65490837Y-33169875D03*
D11*
X69388000Y-35574000D03*
D10*
X71747360Y-30407626D03*
D12*
X74464843Y-35394938D03*
%TD*%
D15*
%TO.C,LED_8*%
X124286658Y-13879538D03*
X124091816Y-15265914D03*
X118645342Y-14500462D03*
X118840184Y-13114086D03*
%TD*%
D12*
%TO.C,SW47*%
X137155623Y-66875514D03*
D10*
X133432826Y-62586134D03*
D11*
X132235000Y-68138000D03*
D12*
X127314377Y-69400486D03*
D10*
X127913290Y-66624553D03*
%TD*%
D12*
%TO.C,SW38*%
X69782741Y-76303316D03*
D10*
X70426147Y-73537357D03*
D12*
X79663259Y-73936684D03*
D10*
X76009814Y-69588083D03*
D11*
X74723000Y-75120000D03*
%TD*%
D12*
%TO.C,SW37*%
X66029860Y-56133620D03*
D10*
X66951835Y-53447645D03*
D12*
X76100140Y-54786380D03*
D10*
X72908950Y-50088050D03*
D11*
X71065000Y-55460000D03*
%TD*%
%TO.C,SW44*%
X111928000Y-66492999D03*
D12*
X106938813Y-67449250D03*
X116917187Y-65536748D03*
D10*
X107707984Y-64715594D03*
X113466342Y-61025687D03*
%TD*%
D16*
%TO.C,RE3*%
X15517789Y-85716527D03*
X20423747Y-84751349D03*
X17970768Y-85233938D03*
D17*
X22017674Y-76794000D03*
X11028326Y-78956000D03*
D16*
X17624729Y-70524069D03*
X12718770Y-71489247D03*
%TD*%
D12*
%TO.C,SW30*%
X35136861Y-95724075D03*
D10*
X35700359Y-92940737D03*
X41167995Y-88832324D03*
D11*
X40041000Y-94399000D03*
D12*
X44945139Y-93073925D03*
%TD*%
D10*
%TO.C,SW45*%
X129304219Y-23192323D03*
D12*
X121784971Y-28420296D03*
D11*
X126864000Y-28321000D03*
D12*
X131943029Y-28221704D03*
D10*
X123005080Y-25855957D03*
%TD*%
D15*
%TO.C,LED_9*%
X53747184Y-5154086D03*
X53552342Y-6540462D03*
X58998816Y-7305914D03*
X59193658Y-5919538D03*
%TD*%
D12*
%TO.C,SW40*%
X84035221Y-43030643D03*
D10*
X85098345Y-40397343D03*
X91225246Y-37358400D03*
D11*
X89099000Y-42625000D03*
D12*
X94162779Y-42219357D03*
%TD*%
D18*
%TO.C,TRRS2*%
X158571760Y-19949402D03*
X159545971Y-26881279D03*
%TD*%
D11*
%TO.C,SW42*%
X107680000Y-26959000D03*
D10*
X110194255Y-21866209D03*
X103857193Y-24438317D03*
D12*
X102600065Y-26984712D03*
X112759935Y-26933288D03*
%TD*%
%TO.C,SW34*%
X61302102Y-79411037D03*
D11*
X56373000Y-80640000D03*
D10*
X57608588Y-75096416D03*
X52061692Y-79097171D03*
D12*
X51443898Y-81868963D03*
%TD*%
D19*
%TO.C,LED_14*%
X157073606Y-72045366D03*
X157400429Y-73406684D03*
X152052394Y-74690634D03*
X151725571Y-73329316D03*
%TD*%
D10*
%TO.C,SW28*%
X28054738Y-50976937D03*
D12*
X37145204Y-52664282D03*
D11*
X32088000Y-53145000D03*
D12*
X27030796Y-53625718D03*
D10*
X34135884Y-47847437D03*
%TD*%
D12*
%TO.C,SW32*%
X55456864Y-41030254D03*
X45317136Y-41671746D03*
D11*
X50387000Y-41351000D03*
D10*
X52601186Y-36120763D03*
X46424229Y-39056627D03*
%TD*%
D12*
%TO.C,SW41*%
X96751330Y-61541299D03*
D11*
X91759000Y-62481000D03*
D10*
X87544902Y-60689611D03*
D12*
X86766670Y-63420701D03*
D10*
X93315464Y-57018819D03*
%TD*%
%TO.C,SW29*%
X30728883Y-71143550D03*
D11*
X34956000Y-72904000D03*
D10*
X36472382Y-67430556D03*
D12*
X39941308Y-71927729D03*
X29970692Y-73880271D03*
%TD*%
D20*
%TO.C,LED_10*%
X7022000Y-42147000D03*
X5622000Y-42147000D03*
X5622000Y-36647000D03*
X7022000Y-36647000D03*
%TD*%
D21*
%TO.C,J4*%
X34931234Y-86719839D03*
X34670393Y-85754457D03*
X34409551Y-84789076D03*
X34148710Y-83823694D03*
X33887868Y-82858313D03*
X33627027Y-81892931D03*
D22*
X32832740Y-88633460D03*
X30850344Y-81296560D03*
%TD*%
D21*
%TO.C,J2*%
X8541393Y-74285457D03*
X8280551Y-73320076D03*
X8019710Y-72354694D03*
X7758868Y-71389313D03*
D22*
X6442898Y-76199078D03*
X4982186Y-70792941D03*
%TD*%
D12*
%TO.C,SW31*%
X45040251Y-21194280D03*
D10*
X52837094Y-16390111D03*
X46400298Y-18701336D03*
D11*
X50117000Y-21376000D03*
D12*
X55193749Y-21557720D03*
%TD*%
D23*
%TO.C,BAT2*%
X159500000Y-43500000D03*
D24*
X159146500Y-40984719D03*
%TD*%
D19*
%TO.C,LED_13*%
X106105606Y-84252366D03*
X106432429Y-85613684D03*
X101084394Y-86897634D03*
X100757571Y-85536316D03*
%TD*%
D11*
%TO.C,SW43*%
X108881000Y-46979000D03*
D12*
X113927841Y-46399523D03*
X103834159Y-47558477D03*
D10*
X110824944Y-41642420D03*
X104806131Y-44890187D03*
%TD*%
D12*
%TO.C,SW48*%
X159729562Y-59703001D03*
X149668438Y-61116999D03*
D10*
X150572579Y-58424969D03*
D11*
X154699000Y-60410000D03*
D10*
X156507282Y-55025939D03*
%TD*%
D12*
%TO.C,SW35*%
X74457967Y-16045517D03*
X64304033Y-15694483D03*
D10*
X72095001Y-10880792D03*
X65661033Y-13199879D03*
D11*
X69381000Y-15870000D03*
%TD*%
D12*
%TO.C,SW46*%
X133422726Y-47684774D03*
D10*
X130235637Y-42983661D03*
D11*
X128387000Y-48354000D03*
D12*
X123351274Y-49023226D03*
D10*
X124275593Y-46338056D03*
%TD*%
D16*
%TO.C,RE4*%
X153267128Y-68184943D03*
X158218468Y-67489078D03*
X155742798Y-67837011D03*
D25*
X160244501Y-59630631D03*
X149153499Y-61189369D03*
D16*
X156200458Y-53130191D03*
X151249118Y-53826056D03*
%TD*%
D10*
%TO.C,SW27*%
X26916837Y-31172875D03*
D12*
X25737157Y-33756062D03*
D10*
X33173360Y-28410626D03*
D11*
X30814000Y-33577000D03*
D12*
X35890843Y-33397938D03*
%TD*%
D11*
%TO.C,SW25*%
X16523000Y-77875000D03*
D10*
X18034605Y-72400235D03*
X12294349Y-76118239D03*
D12*
X21507454Y-76894378D03*
X11538546Y-78855622D03*
%TD*%
D26*
%TO.C,LED_15*%
X162634086Y-47671184D03*
X164020462Y-47476342D03*
X164785914Y-52922816D03*
X163399538Y-53117658D03*
%TD*%
D12*
%TO.C,SW39*%
X93562131Y-22764977D03*
D10*
X84720641Y-20060952D03*
X91116542Y-17638858D03*
D12*
X83403869Y-22577023D03*
D11*
X88483000Y-22671000D03*
%TD*%
D19*
%TO.C,LED_12*%
X57754606Y-95854366D03*
X58081429Y-97215684D03*
X52733394Y-98499634D03*
X52406571Y-97138316D03*
%TD*%
M02*
