%TF.GenerationSoftware,KiCad,Pcbnew,(6.0.5)*%
%TF.CreationDate,2022-07-12T17:30:17+09:00*%
%TF.ProjectId,ergotonic_f24-pcb-right,6572676f-746f-46e6-9963-5f6632342d70,rev?*%
%TF.SameCoordinates,Original*%
%TF.FileFunction,Legend,Top*%
%TF.FilePolarity,Positive*%
%FSLAX46Y46*%
G04 Gerber Fmt 4.6, Leading zero omitted, Abs format (unit mm)*
G04 Created by KiCad (PCBNEW (6.0.5)) date 2022-07-12 17:30:17*
%MOMM*%
%LPD*%
G01*
G04 APERTURE LIST*
%ADD10C,0.150000*%
%ADD11C,0.100000*%
%ADD12C,0.050000*%
%ADD13C,0.120000*%
%ADD14C,1.524000*%
G04 APERTURE END LIST*
D10*
X19098380Y-6294380D02*
X18765047Y-5818190D01*
X18526952Y-6294380D02*
X18526952Y-5294380D01*
X18907904Y-5294380D01*
X19003142Y-5342000D01*
X19050761Y-5389619D01*
X19098380Y-5484857D01*
X19098380Y-5627714D01*
X19050761Y-5722952D01*
X19003142Y-5770571D01*
X18907904Y-5818190D01*
X18526952Y-5818190D01*
X19526952Y-6294380D02*
X19526952Y-5627714D01*
X19526952Y-5294380D02*
X19479333Y-5342000D01*
X19526952Y-5389619D01*
X19574571Y-5342000D01*
X19526952Y-5294380D01*
X19526952Y-5389619D01*
X20431714Y-5627714D02*
X20431714Y-6437238D01*
X20384095Y-6532476D01*
X20336476Y-6580095D01*
X20241238Y-6627714D01*
X20098380Y-6627714D01*
X20003142Y-6580095D01*
X20431714Y-6246761D02*
X20336476Y-6294380D01*
X20146000Y-6294380D01*
X20050761Y-6246761D01*
X20003142Y-6199142D01*
X19955523Y-6103904D01*
X19955523Y-5818190D01*
X20003142Y-5722952D01*
X20050761Y-5675333D01*
X20146000Y-5627714D01*
X20336476Y-5627714D01*
X20431714Y-5675333D01*
X20907904Y-6294380D02*
X20907904Y-5294380D01*
X21336476Y-6294380D02*
X21336476Y-5770571D01*
X21288857Y-5675333D01*
X21193619Y-5627714D01*
X21050761Y-5627714D01*
X20955523Y-5675333D01*
X20907904Y-5722952D01*
X21669809Y-5627714D02*
X22050761Y-5627714D01*
X21812666Y-5294380D02*
X21812666Y-6151523D01*
X21860285Y-6246761D01*
X21955523Y-6294380D01*
X22050761Y-6294380D01*
X23146000Y-6294380D02*
X23146000Y-5294380D01*
X23574571Y-6294380D02*
X23574571Y-5770571D01*
X23526952Y-5675333D01*
X23431714Y-5627714D01*
X23288857Y-5627714D01*
X23193619Y-5675333D01*
X23146000Y-5722952D01*
X24479333Y-6294380D02*
X24479333Y-5770571D01*
X24431714Y-5675333D01*
X24336476Y-5627714D01*
X24146000Y-5627714D01*
X24050761Y-5675333D01*
X24479333Y-6246761D02*
X24384095Y-6294380D01*
X24146000Y-6294380D01*
X24050761Y-6246761D01*
X24003142Y-6151523D01*
X24003142Y-6056285D01*
X24050761Y-5961047D01*
X24146000Y-5913428D01*
X24384095Y-5913428D01*
X24479333Y-5865809D01*
X24955523Y-5627714D02*
X24955523Y-6294380D01*
X24955523Y-5722952D02*
X25003142Y-5675333D01*
X25098380Y-5627714D01*
X25241238Y-5627714D01*
X25336476Y-5675333D01*
X25384095Y-5770571D01*
X25384095Y-6294380D01*
X26288857Y-6294380D02*
X26288857Y-5294380D01*
X26288857Y-6246761D02*
X26193619Y-6294380D01*
X26003142Y-6294380D01*
X25907904Y-6246761D01*
X25860285Y-6199142D01*
X25812666Y-6103904D01*
X25812666Y-5818190D01*
X25860285Y-5722952D01*
X25907904Y-5675333D01*
X26003142Y-5627714D01*
X26193619Y-5627714D01*
X26288857Y-5675333D01*
X27860285Y-5770571D02*
X27526952Y-5770571D01*
X27526952Y-6294380D02*
X27526952Y-5294380D01*
X28003142Y-5294380D01*
X28955523Y-6294380D02*
X28622190Y-5818190D01*
X28384095Y-6294380D02*
X28384095Y-5294380D01*
X28765047Y-5294380D01*
X28860285Y-5342000D01*
X28907904Y-5389619D01*
X28955523Y-5484857D01*
X28955523Y-5627714D01*
X28907904Y-5722952D01*
X28860285Y-5770571D01*
X28765047Y-5818190D01*
X28384095Y-5818190D01*
X29574571Y-5294380D02*
X29765047Y-5294380D01*
X29860285Y-5342000D01*
X29955523Y-5437238D01*
X30003142Y-5627714D01*
X30003142Y-5961047D01*
X29955523Y-6151523D01*
X29860285Y-6246761D01*
X29765047Y-6294380D01*
X29574571Y-6294380D01*
X29479333Y-6246761D01*
X29384095Y-6151523D01*
X29336476Y-5961047D01*
X29336476Y-5627714D01*
X29384095Y-5437238D01*
X29479333Y-5342000D01*
X29574571Y-5294380D01*
X30431714Y-6294380D02*
X30431714Y-5294380D01*
X31003142Y-6294380D01*
X31003142Y-5294380D01*
X31336476Y-5294380D02*
X31907904Y-5294380D01*
X31622190Y-6294380D02*
X31622190Y-5294380D01*
D11*
X36684977Y-84505549D02*
X36881939Y-84540278D01*
X36911776Y-84864673D02*
X36630402Y-84815060D01*
X36734591Y-84224175D01*
X37015965Y-84273789D01*
X37212926Y-84308518D02*
X37502660Y-84968862D01*
X37606849Y-84377978D02*
X37108737Y-84899403D01*
X37747536Y-84402785D02*
X38085184Y-84462321D01*
X37812171Y-85023438D02*
X37916360Y-84432553D01*
X38244086Y-84548364D02*
X38277185Y-84525188D01*
X38338421Y-84506974D01*
X38479108Y-84531780D01*
X38530421Y-84569841D01*
X38553597Y-84602939D01*
X38571812Y-84664175D01*
X38561889Y-84720450D01*
X38518867Y-84799901D01*
X38121682Y-85078013D01*
X38487468Y-85142511D01*
D10*
X11009523Y-18852380D02*
X11342857Y-19852380D01*
X11676190Y-18852380D01*
X12390476Y-19804761D02*
X12295238Y-19852380D01*
X12104761Y-19852380D01*
X12009523Y-19804761D01*
X11961904Y-19709523D01*
X11961904Y-19328571D01*
X12009523Y-19233333D01*
X12104761Y-19185714D01*
X12295238Y-19185714D01*
X12390476Y-19233333D01*
X12438095Y-19328571D01*
X12438095Y-19423809D01*
X11961904Y-19519047D01*
X12866666Y-19852380D02*
X12866666Y-19185714D01*
X12866666Y-19376190D02*
X12914285Y-19280952D01*
X12961904Y-19233333D01*
X13057142Y-19185714D01*
X13152380Y-19185714D01*
X13485714Y-19757142D02*
X13533333Y-19804761D01*
X13485714Y-19852380D01*
X13438095Y-19804761D01*
X13485714Y-19757142D01*
X13485714Y-19852380D01*
X14485714Y-19852380D02*
X13914285Y-19852380D01*
X14200000Y-19852380D02*
X14200000Y-18852380D01*
X14104761Y-18995238D01*
X14009523Y-19090476D01*
X13914285Y-19138095D01*
X16247619Y-19852380D02*
X15914285Y-19376190D01*
X15676190Y-19852380D02*
X15676190Y-18852380D01*
X16057142Y-18852380D01*
X16152380Y-18900000D01*
X16200000Y-18947619D01*
X16247619Y-19042857D01*
X16247619Y-19185714D01*
X16200000Y-19280952D01*
X16152380Y-19328571D01*
X16057142Y-19376190D01*
X15676190Y-19376190D01*
X17057142Y-19804761D02*
X16961904Y-19852380D01*
X16771428Y-19852380D01*
X16676190Y-19804761D01*
X16628571Y-19709523D01*
X16628571Y-19328571D01*
X16676190Y-19233333D01*
X16771428Y-19185714D01*
X16961904Y-19185714D01*
X17057142Y-19233333D01*
X17104761Y-19328571D01*
X17104761Y-19423809D01*
X16628571Y-19519047D01*
X17438095Y-19185714D02*
X17676190Y-19852380D01*
X17914285Y-19185714D01*
X18295238Y-19757142D02*
X18342857Y-19804761D01*
X18295238Y-19852380D01*
X18247619Y-19804761D01*
X18295238Y-19757142D01*
X18295238Y-19852380D01*
X18723809Y-18947619D02*
X18771428Y-18900000D01*
X18866666Y-18852380D01*
X19104761Y-18852380D01*
X19200000Y-18900000D01*
X19247619Y-18947619D01*
X19295238Y-19042857D01*
X19295238Y-19138095D01*
X19247619Y-19280952D01*
X18676190Y-19852380D01*
X19295238Y-19852380D01*
X7593416Y-68537637D02*
X6889982Y-68661672D01*
X6741026Y-68639583D01*
X6630697Y-68562330D01*
X6558995Y-68429912D01*
X6542457Y-68336121D01*
X7574046Y-68976236D02*
X7629210Y-69014862D01*
X7692644Y-69100384D01*
X7733989Y-69334863D01*
X7703631Y-69436923D01*
X7665004Y-69492087D01*
X7579482Y-69555521D01*
X7485691Y-69572059D01*
X7336735Y-69549970D01*
X6674760Y-69086450D01*
X6782257Y-69696093D01*
D11*
X36938977Y-85394549D02*
X37135939Y-85429278D01*
X37165776Y-85753673D02*
X36884402Y-85704060D01*
X36988591Y-85113175D01*
X37269965Y-85162789D01*
X37466926Y-85197518D02*
X37756660Y-85857862D01*
X37860849Y-85266978D02*
X37362737Y-85788403D01*
X38001536Y-85291785D02*
X38339184Y-85351321D01*
X38066171Y-85912438D02*
X38170360Y-85321553D01*
X38479871Y-85376128D02*
X38845657Y-85440626D01*
X38609004Y-85630995D01*
X38693417Y-85645879D01*
X38744730Y-85683939D01*
X38767906Y-85717038D01*
X38786121Y-85778274D01*
X38761314Y-85918961D01*
X38723254Y-85970274D01*
X38690155Y-85993450D01*
X38628919Y-86011665D01*
X38460094Y-85981897D01*
X38408781Y-85943837D01*
X38385605Y-85910738D01*
D12*
X8939624Y-70399925D02*
X8579136Y-70600045D01*
X8991388Y-70593110D01*
X8712066Y-70948958D02*
X8689970Y-70940089D01*
X8660479Y-70903622D01*
X8653084Y-70876024D01*
X8660390Y-70829697D01*
X8689793Y-70792240D01*
X8722892Y-70768581D01*
X8792789Y-70735062D01*
X8847985Y-70720273D01*
X8925277Y-70714352D01*
X8965771Y-70718291D01*
X9009963Y-70736029D01*
X9039454Y-70772496D01*
X9046849Y-70800094D01*
X9039543Y-70846421D01*
X9024842Y-70865150D01*
X8789711Y-71238736D02*
X8767615Y-71229867D01*
X8738124Y-71193400D01*
X8730730Y-71165802D01*
X8738036Y-71119475D01*
X8767438Y-71082017D01*
X8800538Y-71058359D01*
X8870435Y-71024840D01*
X8925631Y-71010051D01*
X9002923Y-71004130D01*
X9043417Y-71008069D01*
X9087609Y-71025807D01*
X9117100Y-71062274D01*
X9124495Y-71089872D01*
X9117188Y-71136199D01*
X9102487Y-71154928D01*
X8845350Y-71593569D02*
X9231720Y-71490041D01*
X9250207Y-71559036D01*
X9242901Y-71605363D01*
X9213498Y-71642820D01*
X9180398Y-71666479D01*
X9110502Y-71699998D01*
X9055306Y-71714787D01*
X8978014Y-71720708D01*
X8937519Y-71716769D01*
X8893327Y-71699031D01*
X8863837Y-71662564D01*
X8845350Y-71593569D01*
X9029689Y-71839968D02*
X9066663Y-71977958D01*
X8911903Y-71841950D02*
X9324155Y-71835015D01*
X8963667Y-72035135D01*
X9364827Y-71986803D02*
X9409196Y-72152390D01*
X9000641Y-72173124D02*
X9387011Y-72069597D01*
X9155401Y-72309132D02*
X9192376Y-72447122D01*
X9037615Y-72311114D02*
X9449867Y-72304179D01*
X9089379Y-72504299D01*
X9583063Y-72874865D02*
X9594067Y-72842337D01*
X9582974Y-72800941D01*
X9553483Y-72764474D01*
X9509291Y-72746736D01*
X9468797Y-72742796D01*
X9391505Y-72748717D01*
X9336309Y-72763507D01*
X9266412Y-72797025D01*
X9233313Y-72820684D01*
X9203910Y-72858142D01*
X9196604Y-72904468D01*
X9203999Y-72932066D01*
X9233490Y-72968533D01*
X9255586Y-72977402D01*
X9384376Y-72942893D01*
X9369586Y-72887697D01*
X9252065Y-73111452D02*
X9638435Y-73007925D01*
X9296434Y-73277040D01*
X9682804Y-73173512D01*
X9333408Y-73415029D02*
X9719779Y-73311501D01*
X9738266Y-73380496D01*
X9730959Y-73426823D01*
X9701557Y-73464280D01*
X9668457Y-73487939D01*
X9598560Y-73521458D01*
X9543365Y-73536247D01*
X9466073Y-73542168D01*
X9425578Y-73538229D01*
X9381386Y-73520491D01*
X9351895Y-73484024D01*
X9333408Y-73415029D01*
D11*
X36430977Y-83489549D02*
X36627939Y-83524278D01*
X36657776Y-83848673D02*
X36376402Y-83799060D01*
X36480591Y-83208175D01*
X36761965Y-83257789D01*
X36958926Y-83292518D02*
X37248660Y-83952862D01*
X37352849Y-83361978D02*
X36854737Y-83883403D01*
X37493536Y-83386785D02*
X37831184Y-83446321D01*
X37558171Y-84007438D02*
X37662360Y-83416553D01*
X37971871Y-83471128D02*
X38337657Y-83535626D01*
X38101004Y-83725995D01*
X38185417Y-83740879D01*
X38236730Y-83778939D01*
X38259906Y-83812038D01*
X38278121Y-83873274D01*
X38253314Y-84013961D01*
X38215254Y-84065274D01*
X38182155Y-84088450D01*
X38120919Y-84106665D01*
X37952094Y-84076897D01*
X37900781Y-84038837D01*
X37877605Y-84005738D01*
D10*
X30781416Y-85176637D02*
X30077982Y-85300672D01*
X29929026Y-85278583D01*
X29818697Y-85201330D01*
X29746995Y-85068912D01*
X29730457Y-84975121D01*
X30610257Y-86125536D02*
X29953719Y-86241302D01*
X30944077Y-85824907D02*
X30199298Y-85714463D01*
X30306795Y-86324106D01*
D11*
X36558896Y-82302175D02*
X36507583Y-82264115D01*
X36423171Y-82249231D01*
X36333797Y-82262484D01*
X36267600Y-82308836D01*
X36229540Y-82360149D01*
X36181557Y-82467738D01*
X36166673Y-82552150D01*
X36174964Y-82669660D01*
X36193179Y-82730897D01*
X36239531Y-82797094D01*
X36318982Y-82840116D01*
X36375257Y-82850038D01*
X36464630Y-82836785D01*
X36497729Y-82813609D01*
X36532458Y-82616648D01*
X36419909Y-82596802D01*
X36741042Y-82914536D02*
X36845231Y-82323652D01*
X37078691Y-82974073D01*
X37182880Y-82383188D01*
X37360064Y-83023686D02*
X37464253Y-82432802D01*
X37604940Y-82457609D01*
X37684391Y-82500630D01*
X37730743Y-82566828D01*
X37748957Y-82628064D01*
X37757249Y-82745575D01*
X37742365Y-82829987D01*
X37694382Y-82937575D01*
X37656322Y-82988888D01*
X37590125Y-83035240D01*
X37500751Y-83048493D01*
X37360064Y-83023686D01*
X37115209Y-86151501D02*
X37207982Y-86777116D01*
X37509132Y-86220961D01*
X37949476Y-86849837D02*
X37916377Y-86873013D01*
X37827004Y-86886266D01*
X37770729Y-86876343D01*
X37691278Y-86833322D01*
X37644926Y-86767124D01*
X37626712Y-86705888D01*
X37618420Y-86588377D01*
X37633304Y-86503965D01*
X37681287Y-86396377D01*
X37719347Y-86345064D01*
X37785544Y-86298712D01*
X37874918Y-86285458D01*
X37931193Y-86295381D01*
X38010643Y-86338403D01*
X38033819Y-86371501D01*
X38540361Y-86954026D02*
X38507262Y-86977202D01*
X38417888Y-86990455D01*
X38361614Y-86980532D01*
X38282163Y-86937510D01*
X38235811Y-86871313D01*
X38217596Y-86810077D01*
X38209305Y-86692566D01*
X38224189Y-86608154D01*
X38272172Y-86500566D01*
X38310232Y-86449253D01*
X38376429Y-86402901D01*
X38465803Y-86389647D01*
X38522077Y-86399570D01*
X38601528Y-86442592D01*
X38624704Y-86475690D01*
X159190476Y-45200000D02*
X159114285Y-45161904D01*
X159000000Y-45161904D01*
X158885714Y-45200000D01*
X158809523Y-45276190D01*
X158771428Y-45352380D01*
X158733333Y-45504761D01*
X158733333Y-45619047D01*
X158771428Y-45771428D01*
X158809523Y-45847619D01*
X158885714Y-45923809D01*
X159000000Y-45961904D01*
X159076190Y-45961904D01*
X159190476Y-45923809D01*
X159228571Y-45885714D01*
X159228571Y-45619047D01*
X159076190Y-45619047D01*
X159571428Y-45961904D02*
X159571428Y-45161904D01*
X160028571Y-45961904D01*
X160028571Y-45161904D01*
X160409523Y-45961904D02*
X160409523Y-45161904D01*
X160600000Y-45161904D01*
X160714285Y-45200000D01*
X160790476Y-45276190D01*
X160828571Y-45352380D01*
X160866666Y-45504761D01*
X160866666Y-45619047D01*
X160828571Y-45771428D01*
X160790476Y-45847619D01*
X160714285Y-45923809D01*
X160600000Y-45961904D01*
X160409523Y-45961904D01*
D10*
X11061904Y-21852380D02*
X11061904Y-20852380D01*
X11299999Y-20852380D01*
X11442857Y-20900000D01*
X11538095Y-20995238D01*
X11585714Y-21090476D01*
X11633333Y-21280952D01*
X11633333Y-21423809D01*
X11585714Y-21614285D01*
X11538095Y-21709523D01*
X11442857Y-21804761D01*
X11299999Y-21852380D01*
X11061904Y-21852380D01*
X12442857Y-21804761D02*
X12347619Y-21852380D01*
X12157142Y-21852380D01*
X12061904Y-21804761D01*
X12014285Y-21709523D01*
X12014285Y-21328571D01*
X12061904Y-21233333D01*
X12157142Y-21185714D01*
X12347619Y-21185714D01*
X12442857Y-21233333D01*
X12490476Y-21328571D01*
X12490476Y-21423809D01*
X12014285Y-21519047D01*
X12871428Y-21804761D02*
X12966666Y-21852380D01*
X13157142Y-21852380D01*
X13252380Y-21804761D01*
X13299999Y-21709523D01*
X13299999Y-21661904D01*
X13252380Y-21566666D01*
X13157142Y-21519047D01*
X13014285Y-21519047D01*
X12919047Y-21471428D01*
X12871428Y-21376190D01*
X12871428Y-21328571D01*
X12919047Y-21233333D01*
X13014285Y-21185714D01*
X13157142Y-21185714D01*
X13252380Y-21233333D01*
X13728571Y-21852380D02*
X13728571Y-21185714D01*
X13728571Y-20852380D02*
X13680952Y-20900000D01*
X13728571Y-20947619D01*
X13776190Y-20900000D01*
X13728571Y-20852380D01*
X13728571Y-20947619D01*
X14633333Y-21185714D02*
X14633333Y-21995238D01*
X14585714Y-22090476D01*
X14538095Y-22138095D01*
X14442857Y-22185714D01*
X14299999Y-22185714D01*
X14204761Y-22138095D01*
X14633333Y-21804761D02*
X14538095Y-21852380D01*
X14347619Y-21852380D01*
X14252380Y-21804761D01*
X14204761Y-21757142D01*
X14157142Y-21661904D01*
X14157142Y-21376190D01*
X14204761Y-21280952D01*
X14252380Y-21233333D01*
X14347619Y-21185714D01*
X14538095Y-21185714D01*
X14633333Y-21233333D01*
X15109523Y-21185714D02*
X15109523Y-21852380D01*
X15109523Y-21280952D02*
X15157142Y-21233333D01*
X15252380Y-21185714D01*
X15395238Y-21185714D01*
X15490476Y-21233333D01*
X15538095Y-21328571D01*
X15538095Y-21852380D01*
X16395238Y-21804761D02*
X16299999Y-21852380D01*
X16109523Y-21852380D01*
X16014285Y-21804761D01*
X15966666Y-21709523D01*
X15966666Y-21328571D01*
X16014285Y-21233333D01*
X16109523Y-21185714D01*
X16299999Y-21185714D01*
X16395238Y-21233333D01*
X16442857Y-21328571D01*
X16442857Y-21423809D01*
X15966666Y-21519047D01*
X17300000Y-21852380D02*
X17300000Y-20852380D01*
X17300000Y-21804761D02*
X17204761Y-21852380D01*
X17014285Y-21852380D01*
X16919047Y-21804761D01*
X16871428Y-21757142D01*
X16823809Y-21661904D01*
X16823809Y-21376190D01*
X16871428Y-21280952D01*
X16919047Y-21233333D01*
X17014285Y-21185714D01*
X17204761Y-21185714D01*
X17300000Y-21233333D01*
X18538095Y-21852380D02*
X18538095Y-20852380D01*
X18538095Y-21233333D02*
X18633333Y-21185714D01*
X18823809Y-21185714D01*
X18919047Y-21233333D01*
X18966666Y-21280952D01*
X19014285Y-21376190D01*
X19014285Y-21661904D01*
X18966666Y-21757142D01*
X18919047Y-21804761D01*
X18823809Y-21852380D01*
X18633333Y-21852380D01*
X18538095Y-21804761D01*
X19347619Y-21185714D02*
X19585714Y-21852380D01*
X19823809Y-21185714D02*
X19585714Y-21852380D01*
X19490476Y-22090476D01*
X19442857Y-22138095D01*
X19347619Y-22185714D01*
X20966666Y-21852380D02*
X20966666Y-20852380D01*
X20966666Y-21328571D02*
X21538095Y-21328571D01*
X21538095Y-21852380D02*
X21538095Y-20852380D01*
X22442857Y-21852380D02*
X22442857Y-21328571D01*
X22395238Y-21233333D01*
X22300000Y-21185714D01*
X22109523Y-21185714D01*
X22014285Y-21233333D01*
X22442857Y-21804761D02*
X22347619Y-21852380D01*
X22109523Y-21852380D01*
X22014285Y-21804761D01*
X21966666Y-21709523D01*
X21966666Y-21614285D01*
X22014285Y-21519047D01*
X22109523Y-21471428D01*
X22347619Y-21471428D01*
X22442857Y-21423809D01*
X22919047Y-21185714D02*
X22919047Y-21852380D01*
X22919047Y-21280952D02*
X22966666Y-21233333D01*
X23061904Y-21185714D01*
X23204761Y-21185714D01*
X23300000Y-21233333D01*
X23347619Y-21328571D01*
X23347619Y-21852380D01*
X24252380Y-21852380D02*
X24252380Y-21328571D01*
X24204761Y-21233333D01*
X24109523Y-21185714D01*
X23919047Y-21185714D01*
X23823809Y-21233333D01*
X24252380Y-21804761D02*
X24157142Y-21852380D01*
X23919047Y-21852380D01*
X23823809Y-21804761D01*
X23776190Y-21709523D01*
X23776190Y-21614285D01*
X23823809Y-21519047D01*
X23919047Y-21471428D01*
X24157142Y-21471428D01*
X24252380Y-21423809D01*
X25157142Y-21804761D02*
X25061904Y-21852380D01*
X24871428Y-21852380D01*
X24776190Y-21804761D01*
X24728571Y-21757142D01*
X24680952Y-21661904D01*
X24680952Y-21376190D01*
X24728571Y-21280952D01*
X24776190Y-21233333D01*
X24871428Y-21185714D01*
X25061904Y-21185714D01*
X25157142Y-21233333D01*
X25585714Y-21852380D02*
X25585714Y-20852380D01*
X26014285Y-21852380D02*
X26014285Y-21328571D01*
X25966666Y-21233333D01*
X25871428Y-21185714D01*
X25728571Y-21185714D01*
X25633333Y-21233333D01*
X25585714Y-21280952D01*
X26490476Y-21852380D02*
X26490476Y-21185714D01*
X26490476Y-20852380D02*
X26442857Y-20900000D01*
X26490476Y-20947619D01*
X26538095Y-20900000D01*
X26490476Y-20852380D01*
X26490476Y-20947619D01*
X27014285Y-21804761D02*
X27014285Y-21852380D01*
X26966666Y-21947619D01*
X26919047Y-21995238D01*
X28157142Y-20947619D02*
X28204761Y-20900000D01*
X28299999Y-20852380D01*
X28538095Y-20852380D01*
X28633333Y-20900000D01*
X28680952Y-20947619D01*
X28728571Y-21042857D01*
X28728571Y-21138095D01*
X28680952Y-21280952D01*
X28109523Y-21852380D01*
X28728571Y-21852380D01*
X29347619Y-20852380D02*
X29442857Y-20852380D01*
X29538095Y-20900000D01*
X29585714Y-20947619D01*
X29633333Y-21042857D01*
X29680952Y-21233333D01*
X29680952Y-21471428D01*
X29633333Y-21661904D01*
X29585714Y-21757142D01*
X29538095Y-21804761D01*
X29442857Y-21852380D01*
X29347619Y-21852380D01*
X29252380Y-21804761D01*
X29204761Y-21757142D01*
X29157142Y-21661904D01*
X29109523Y-21471428D01*
X29109523Y-21233333D01*
X29157142Y-21042857D01*
X29204761Y-20947619D01*
X29252380Y-20900000D01*
X29347619Y-20852380D01*
X30061904Y-20947619D02*
X30109523Y-20900000D01*
X30204761Y-20852380D01*
X30442857Y-20852380D01*
X30538095Y-20900000D01*
X30585714Y-20947619D01*
X30633333Y-21042857D01*
X30633333Y-21138095D01*
X30585714Y-21280952D01*
X30014285Y-21852380D01*
X30633333Y-21852380D01*
X31014285Y-20947619D02*
X31061904Y-20900000D01*
X31157142Y-20852380D01*
X31395238Y-20852380D01*
X31490476Y-20900000D01*
X31538095Y-20947619D01*
X31585714Y-21042857D01*
X31585714Y-21138095D01*
X31538095Y-21280952D01*
X30966666Y-21852380D01*
X31585714Y-21852380D01*
D11*
X158409523Y-38942857D02*
X158523809Y-38980952D01*
X158561904Y-39019047D01*
X158600000Y-39095238D01*
X158600000Y-39209523D01*
X158561904Y-39285714D01*
X158523809Y-39323809D01*
X158447619Y-39361904D01*
X158142857Y-39361904D01*
X158142857Y-38561904D01*
X158409523Y-38561904D01*
X158485714Y-38600000D01*
X158523809Y-38638095D01*
X158561904Y-38714285D01*
X158561904Y-38790476D01*
X158523809Y-38866666D01*
X158485714Y-38904761D01*
X158409523Y-38942857D01*
X158142857Y-38942857D01*
X158904761Y-39133333D02*
X159285714Y-39133333D01*
X158828571Y-39361904D02*
X159095238Y-38561904D01*
X159361904Y-39361904D01*
X159514285Y-38561904D02*
X159971428Y-38561904D01*
X159742857Y-39361904D02*
X159742857Y-38561904D01*
D10*
%TO.C,SW26*%
X17824586Y-92136252D02*
X17974917Y-92144985D01*
X18204780Y-92082920D01*
X18284313Y-92012122D01*
X18317873Y-91953736D01*
X18339019Y-91849377D01*
X18314193Y-91757432D01*
X18243395Y-91677900D01*
X18185009Y-91644340D01*
X18080650Y-91623193D01*
X17884346Y-91626872D01*
X17779988Y-91605726D01*
X17721602Y-91572166D01*
X17650804Y-91492634D01*
X17625978Y-91400688D01*
X17647124Y-91296330D01*
X17680684Y-91237944D01*
X17760216Y-91167145D01*
X17990080Y-91105080D01*
X18140411Y-91113814D01*
X18449807Y-90980950D02*
X18940344Y-91884312D01*
X18938040Y-91145070D01*
X19308126Y-91785008D01*
X19277316Y-90757516D01*
X19623951Y-90762571D02*
X19657511Y-90704185D01*
X19737043Y-90633386D01*
X19966907Y-90571321D01*
X20071266Y-90592468D01*
X20129651Y-90626028D01*
X20200450Y-90705560D01*
X20225276Y-90797506D01*
X20216542Y-90947837D01*
X19813826Y-91648465D01*
X20411471Y-91487096D01*
X20978307Y-90298235D02*
X20794416Y-90347887D01*
X20714884Y-90418686D01*
X20681324Y-90477072D01*
X20626617Y-90639816D01*
X20630297Y-90836120D01*
X20729601Y-91203901D01*
X20800399Y-91283434D01*
X20858785Y-91316994D01*
X20963144Y-91338140D01*
X21147035Y-91288488D01*
X21226567Y-91217690D01*
X21260127Y-91159304D01*
X21281273Y-91054945D01*
X21219208Y-90825082D01*
X21148410Y-90745549D01*
X21090024Y-90711990D01*
X20985666Y-90690843D01*
X20801775Y-90740495D01*
X20722242Y-90811294D01*
X20688682Y-90869679D01*
X20667536Y-90974038D01*
%TO.C,U2*%
X152183943Y-34356232D02*
X152072605Y-33564017D01*
X152261227Y-33537508D01*
X152379703Y-33559327D01*
X152465755Y-33624172D01*
X152514083Y-33694320D01*
X152573015Y-33839916D01*
X152588921Y-33953089D01*
X152572404Y-34109289D01*
X152545283Y-34190040D01*
X152480437Y-34276092D01*
X152372566Y-34329722D01*
X152183943Y-34356232D01*
X153015717Y-33431471D02*
X153091166Y-33420868D01*
X153171917Y-33447989D01*
X153214943Y-33480411D01*
X153263271Y-33550558D01*
X153322203Y-33696155D01*
X153348712Y-33884777D01*
X153332195Y-34040977D01*
X153305074Y-34121728D01*
X153272652Y-34164754D01*
X153202505Y-34213082D01*
X153127056Y-34223686D01*
X153046305Y-34196565D01*
X153003278Y-34164142D01*
X152954950Y-34093995D01*
X152896018Y-33948399D01*
X152869509Y-33759777D01*
X152886026Y-33603577D01*
X152913147Y-33522826D01*
X152945570Y-33479800D01*
X153015717Y-33431471D01*
X143494097Y-45335767D02*
X143612572Y-45357586D01*
X143655598Y-45390009D01*
X143703926Y-45460156D01*
X143719832Y-45573330D01*
X143692711Y-45654080D01*
X143660288Y-45697107D01*
X143590141Y-45745435D01*
X143288345Y-45787850D01*
X143177007Y-44995635D01*
X143441078Y-44958522D01*
X143521829Y-44985643D01*
X143564855Y-45018066D01*
X143613184Y-45088213D01*
X143623787Y-45163662D01*
X143596666Y-45244413D01*
X143564244Y-45287439D01*
X143494097Y-45335767D01*
X143230025Y-45372880D01*
X143893772Y-44894900D02*
X144384191Y-44825977D01*
X144162534Y-45164885D01*
X144275707Y-45148980D01*
X144356458Y-45176101D01*
X144399484Y-45208523D01*
X144447813Y-45278671D01*
X144474322Y-45467293D01*
X144447201Y-45548044D01*
X144414778Y-45591070D01*
X144344631Y-45639398D01*
X144118284Y-45671209D01*
X144037533Y-45644088D01*
X143994507Y-45611666D01*
X151340738Y-28688722D02*
X151259987Y-28661601D01*
X151146814Y-28677506D01*
X151038942Y-28731136D01*
X150974097Y-28817189D01*
X150946976Y-28897940D01*
X150930459Y-29054140D01*
X150946364Y-29167313D01*
X151005296Y-29312909D01*
X151053624Y-29383056D01*
X151139677Y-29447902D01*
X151258152Y-29469721D01*
X151333601Y-29459117D01*
X151441473Y-29405487D01*
X151473896Y-29362461D01*
X151436783Y-29098389D01*
X151285885Y-29119597D01*
X151824020Y-29390193D02*
X151712681Y-28597979D01*
X152276714Y-29326571D01*
X152165375Y-28534357D01*
X152653959Y-29273553D02*
X152542620Y-28481338D01*
X152731243Y-28454829D01*
X152849718Y-28476648D01*
X152935771Y-28541494D01*
X152984099Y-28611641D01*
X153043031Y-28757237D01*
X153058936Y-28870410D01*
X153042419Y-29026610D01*
X153015298Y-29107361D01*
X152950453Y-29193414D01*
X152842581Y-29247044D01*
X152653959Y-29273553D01*
X142501228Y-37860556D02*
X142237157Y-37897668D01*
X142295477Y-38312638D02*
X142184138Y-37520423D01*
X142561383Y-37467405D01*
X143202700Y-37377274D02*
X143051802Y-37398481D01*
X142981655Y-37446809D01*
X142949232Y-37489836D01*
X142889689Y-37613613D01*
X142873171Y-37769813D01*
X142915586Y-38071609D01*
X142963914Y-38141756D01*
X143006941Y-38174179D01*
X143087691Y-38201299D01*
X143238589Y-38180092D01*
X143308737Y-38131764D01*
X143341159Y-38088738D01*
X143368280Y-38007987D01*
X143341771Y-37819364D01*
X143293443Y-37749217D01*
X143250416Y-37716794D01*
X143169666Y-37689674D01*
X143018768Y-37710881D01*
X142948620Y-37759209D01*
X142916198Y-37802235D01*
X142889077Y-37882986D01*
X154516222Y-49035174D02*
X154634697Y-49056993D01*
X154677723Y-49089416D01*
X154726051Y-49159563D01*
X154741957Y-49272737D01*
X154714836Y-49353487D01*
X154682413Y-49396514D01*
X154612266Y-49444842D01*
X154310470Y-49487257D01*
X154199132Y-48695042D01*
X154463203Y-48657929D01*
X154543954Y-48685050D01*
X154586980Y-48717473D01*
X154635309Y-48787620D01*
X154645912Y-48863069D01*
X154618791Y-48943820D01*
X154586369Y-48986846D01*
X154516222Y-49035174D01*
X154252150Y-49072287D01*
X155368591Y-48530685D02*
X154991346Y-48583704D01*
X155006640Y-48966251D01*
X155039063Y-48923224D01*
X155109210Y-48874896D01*
X155297832Y-48848387D01*
X155378583Y-48875508D01*
X155421609Y-48907930D01*
X155469938Y-48978078D01*
X155496447Y-49166700D01*
X155469326Y-49247451D01*
X155436903Y-49290477D01*
X155366756Y-49338805D01*
X155178134Y-49365314D01*
X155097383Y-49338194D01*
X155054356Y-49305771D01*
X140606541Y-30127390D02*
X140981951Y-30882492D01*
X141134684Y-30053164D01*
X141952185Y-30669195D02*
X141919762Y-30712221D01*
X141811890Y-30765851D01*
X141736441Y-30776455D01*
X141617966Y-30754636D01*
X141531913Y-30689791D01*
X141483585Y-30619644D01*
X141424653Y-30474047D01*
X141408748Y-30360874D01*
X141425265Y-30204674D01*
X141452386Y-30123923D01*
X141517231Y-30037871D01*
X141625103Y-29984241D01*
X141700552Y-29973637D01*
X141819027Y-29995456D01*
X141862054Y-30027879D01*
X142744399Y-30557857D02*
X142711977Y-30600883D01*
X142604105Y-30654513D01*
X142528656Y-30665117D01*
X142410181Y-30643298D01*
X142324128Y-30578452D01*
X142275800Y-30508305D01*
X142216868Y-30362709D01*
X142200962Y-30249535D01*
X142217480Y-30093336D01*
X142244600Y-30012585D01*
X142309446Y-29926532D01*
X142417317Y-29872902D01*
X142492766Y-29862298D01*
X142611242Y-29884117D01*
X142654268Y-29916540D01*
X150775464Y-24334385D02*
X150664126Y-23542170D01*
X150852748Y-23515661D01*
X150971224Y-23537480D01*
X151057276Y-23602325D01*
X151105604Y-23672473D01*
X151164536Y-23818069D01*
X151180442Y-23931242D01*
X151163925Y-24087442D01*
X151136804Y-24168193D01*
X151071958Y-24254245D01*
X150964087Y-24307875D01*
X150775464Y-24334385D01*
X151429219Y-23511583D02*
X151461642Y-23468556D01*
X151531789Y-23420228D01*
X151720412Y-23393719D01*
X151801162Y-23420840D01*
X151844189Y-23453262D01*
X151892517Y-23523410D01*
X151903121Y-23598859D01*
X151881302Y-23717334D01*
X151492230Y-24233650D01*
X151982648Y-24164726D01*
X143162692Y-42977685D02*
X143281167Y-42999504D01*
X143324193Y-43031927D01*
X143372521Y-43102074D01*
X143388427Y-43215248D01*
X143361306Y-43295998D01*
X143328883Y-43339025D01*
X143258736Y-43387353D01*
X142956940Y-43429768D01*
X142845602Y-42637553D01*
X143109673Y-42600440D01*
X143190424Y-42627561D01*
X143233450Y-42659984D01*
X143281779Y-42730131D01*
X143292382Y-42805580D01*
X143265261Y-42886331D01*
X143232839Y-42929357D01*
X143162692Y-42977685D01*
X142898620Y-43014798D01*
X144164124Y-43260109D02*
X143711430Y-43323731D01*
X143937777Y-43291920D02*
X143826439Y-42499706D01*
X143766895Y-42623483D01*
X143702050Y-42709535D01*
X143631903Y-42757864D01*
X154157198Y-46480586D02*
X154275673Y-46502405D01*
X154318699Y-46534828D01*
X154367027Y-46604975D01*
X154382933Y-46718149D01*
X154355812Y-46798899D01*
X154323389Y-46841926D01*
X154253242Y-46890254D01*
X153951446Y-46932669D01*
X153840108Y-46140454D01*
X154104179Y-46103341D01*
X154184930Y-46130462D01*
X154227956Y-46162885D01*
X154276285Y-46233032D01*
X154286888Y-46308481D01*
X154259767Y-46389232D01*
X154227345Y-46432258D01*
X154157198Y-46480586D01*
X153893126Y-46517699D01*
X155008955Y-46245471D02*
X155083181Y-46773614D01*
X154777918Y-45970184D02*
X154668823Y-46562560D01*
X155159242Y-46493637D01*
X142860252Y-40415145D02*
X142596181Y-40452257D01*
X142654501Y-40867227D02*
X142543162Y-40075012D01*
X142920407Y-40021994D01*
X143146754Y-39990183D02*
X143674897Y-39915957D01*
X143446715Y-40755888D01*
X152542967Y-36910821D02*
X152431629Y-36118606D01*
X152620251Y-36092097D01*
X152738727Y-36113916D01*
X152824779Y-36178761D01*
X152873107Y-36248909D01*
X152932039Y-36394505D01*
X152947945Y-36507678D01*
X152931428Y-36663878D01*
X152904307Y-36744629D01*
X152839461Y-36830681D01*
X152731590Y-36884311D01*
X152542967Y-36910821D01*
X153600476Y-36223623D02*
X153674702Y-36751766D01*
X153369439Y-35948336D02*
X153260344Y-36540712D01*
X153750763Y-36471789D01*
X150416440Y-21779796D02*
X150305102Y-20987581D01*
X150493724Y-20961072D01*
X150612200Y-20982891D01*
X150698252Y-21047736D01*
X150746580Y-21117884D01*
X150805512Y-21263480D01*
X150821418Y-21376653D01*
X150804901Y-21532853D01*
X150777780Y-21613604D01*
X150712934Y-21699656D01*
X150605063Y-21753286D01*
X150416440Y-21779796D01*
X151021867Y-20886846D02*
X151512286Y-20817923D01*
X151290629Y-21156831D01*
X151403802Y-21140926D01*
X151484553Y-21168047D01*
X151527579Y-21200469D01*
X151575908Y-21270617D01*
X151602417Y-21459239D01*
X151575296Y-21539990D01*
X151542873Y-21583016D01*
X151472726Y-21631344D01*
X151246379Y-21663155D01*
X151165628Y-21636034D01*
X151122602Y-21603612D01*
X140150089Y-23184264D02*
X139832999Y-22844132D01*
X139697395Y-23247886D02*
X139586056Y-22455671D01*
X139887852Y-22413257D01*
X139968603Y-22440378D01*
X140011629Y-22472800D01*
X140059958Y-22542947D01*
X140075863Y-22656121D01*
X140048742Y-22736872D01*
X140016320Y-22779898D01*
X139946172Y-22828226D01*
X139644376Y-22870641D01*
X140420074Y-22915502D02*
X140797319Y-22862484D01*
X140376436Y-23152453D02*
X140529169Y-22323126D01*
X140904579Y-23078227D01*
X140981863Y-22259504D02*
X141281824Y-23025209D01*
X141353194Y-22438134D01*
X141583620Y-22982794D01*
X141660904Y-22164071D01*
X140981310Y-28277537D02*
X140664220Y-27937405D01*
X140528616Y-28341159D02*
X140417278Y-27548945D01*
X140719074Y-27506530D01*
X140799825Y-27533651D01*
X140842851Y-27566074D01*
X140891179Y-27636221D01*
X140907085Y-27749394D01*
X140879964Y-27830145D01*
X140847541Y-27873171D01*
X140777394Y-27921500D01*
X140475598Y-27963914D01*
X141277804Y-28197398D02*
X141396280Y-28219217D01*
X141584902Y-28192708D01*
X141655049Y-28144380D01*
X141687472Y-28101353D01*
X141714593Y-28020603D01*
X141703989Y-27945154D01*
X141655661Y-27875007D01*
X141612635Y-27842584D01*
X141531884Y-27815463D01*
X141375684Y-27798946D01*
X141294933Y-27771825D01*
X141251907Y-27739402D01*
X141203579Y-27669255D01*
X141192975Y-27593806D01*
X141220096Y-27513055D01*
X141252519Y-27470029D01*
X141322666Y-27421701D01*
X141511288Y-27395192D01*
X141629763Y-27417011D01*
X141850809Y-27347475D02*
X142303503Y-27283853D01*
X142188494Y-28107879D02*
X142077156Y-27315664D01*
X140346489Y-24992316D02*
X140265738Y-24965195D01*
X140152565Y-24981100D01*
X140044693Y-25034730D01*
X139979848Y-25120783D01*
X139952727Y-25201534D01*
X139936210Y-25357734D01*
X139952115Y-25470907D01*
X140011047Y-25616503D01*
X140059375Y-25686650D01*
X140145428Y-25751496D01*
X140263903Y-25773315D01*
X140339352Y-25762711D01*
X140447224Y-25709081D01*
X140479647Y-25666055D01*
X140442534Y-25401983D01*
X140291636Y-25423191D01*
X140829771Y-25693787D02*
X140718432Y-24901573D01*
X141282465Y-25630165D01*
X141171126Y-24837951D01*
X141659710Y-25577147D02*
X141548371Y-24784932D01*
X141736994Y-24758423D01*
X141855469Y-24780242D01*
X141941522Y-24845088D01*
X141989850Y-24915235D01*
X142048782Y-25060831D01*
X142064687Y-25174004D01*
X142048170Y-25330204D01*
X142021049Y-25410955D01*
X141956204Y-25497008D01*
X141848332Y-25550638D01*
X141659710Y-25577147D01*
X150940738Y-26137134D02*
X150859987Y-26110013D01*
X150746814Y-26125918D01*
X150638942Y-26179548D01*
X150574097Y-26265601D01*
X150546976Y-26346352D01*
X150530459Y-26502552D01*
X150546364Y-26615725D01*
X150605296Y-26761321D01*
X150653624Y-26831468D01*
X150739677Y-26896314D01*
X150858152Y-26918133D01*
X150933601Y-26907529D01*
X151041473Y-26853899D01*
X151073896Y-26810873D01*
X151036783Y-26546801D01*
X150885885Y-26568009D01*
X151424020Y-26838605D02*
X151312681Y-26046391D01*
X151876714Y-26774983D01*
X151765375Y-25982769D01*
X152253959Y-26721965D02*
X152142620Y-25929750D01*
X152331243Y-25903241D01*
X152449718Y-25925060D01*
X152535771Y-25989906D01*
X152584099Y-26060053D01*
X152643031Y-26205649D01*
X152658936Y-26318822D01*
X152642419Y-26475022D01*
X152615298Y-26555773D01*
X152550453Y-26641826D01*
X152442581Y-26695456D01*
X152253959Y-26721965D01*
X142142203Y-35305968D02*
X141878132Y-35343080D01*
X141936452Y-35758050D02*
X141825113Y-34965835D01*
X142202358Y-34912817D01*
X142881399Y-34817384D02*
X142504154Y-34870402D01*
X142519448Y-35252949D01*
X142551871Y-35209923D01*
X142622018Y-35161595D01*
X142810641Y-35135086D01*
X142891391Y-35162206D01*
X142934418Y-35194629D01*
X142982746Y-35264776D01*
X143009255Y-35453399D01*
X142982134Y-35534150D01*
X142949712Y-35577176D01*
X142879564Y-35625504D01*
X142690942Y-35652013D01*
X142610191Y-35624892D01*
X142567165Y-35592470D01*
X153571827Y-43957808D02*
X153835898Y-43920695D01*
X154007392Y-44319759D02*
X153630147Y-44372778D01*
X153518808Y-43580563D01*
X153896053Y-43527545D01*
X154575094Y-43432112D02*
X154424196Y-43453319D01*
X154354049Y-43501648D01*
X154321626Y-43544674D01*
X154262083Y-43668451D01*
X154245566Y-43824651D01*
X154287980Y-44126447D01*
X154336308Y-44196594D01*
X154379335Y-44229017D01*
X154460086Y-44256137D01*
X154610984Y-44234930D01*
X154681131Y-44186602D01*
X154713553Y-44143576D01*
X154740674Y-44062825D01*
X154714165Y-43874202D01*
X154665837Y-43804055D01*
X154622811Y-43771633D01*
X154542060Y-43744512D01*
X154391162Y-43765719D01*
X154321015Y-43814047D01*
X154288592Y-43857074D01*
X154261471Y-43937824D01*
X151852536Y-31998151D02*
X151741198Y-31205936D01*
X151929820Y-31179427D01*
X152048296Y-31201246D01*
X152134348Y-31266091D01*
X152182676Y-31336239D01*
X152241608Y-31481835D01*
X152257514Y-31595008D01*
X152240997Y-31751208D01*
X152213876Y-31831959D01*
X152149030Y-31918011D01*
X152041159Y-31971641D01*
X151852536Y-31998151D01*
X153059720Y-31828492D02*
X152607026Y-31892114D01*
X152833373Y-31860303D02*
X152722035Y-31068089D01*
X152662491Y-31191866D01*
X152597646Y-31277918D01*
X152527499Y-31326247D01*
X144212145Y-50444944D02*
X144330620Y-50466763D01*
X144373646Y-50499186D01*
X144421974Y-50569333D01*
X144437880Y-50682507D01*
X144410759Y-50763257D01*
X144378336Y-50806284D01*
X144308189Y-50854612D01*
X144006393Y-50897027D01*
X143895055Y-50104812D01*
X144159126Y-50067699D01*
X144239877Y-50094820D01*
X144282903Y-50127243D01*
X144331232Y-50197390D01*
X144341835Y-50272839D01*
X144314714Y-50353590D01*
X144282292Y-50396616D01*
X144212145Y-50444944D01*
X143948073Y-50482057D01*
X145026790Y-49945757D02*
X144875892Y-49966965D01*
X144805744Y-50015293D01*
X144773322Y-50058319D01*
X144713778Y-50182096D01*
X144697261Y-50338296D01*
X144739676Y-50640092D01*
X144788004Y-50710239D01*
X144831030Y-50742662D01*
X144911781Y-50769783D01*
X145062679Y-50748575D01*
X145132826Y-50700247D01*
X145165249Y-50657221D01*
X145192370Y-50576470D01*
X145165861Y-50387848D01*
X145117532Y-50317700D01*
X145074506Y-50285278D01*
X144993755Y-50258157D01*
X144842857Y-50279364D01*
X144772710Y-50327692D01*
X144740287Y-50370719D01*
X144713167Y-50451470D01*
X153344082Y-39326339D02*
X153311659Y-39369365D01*
X153203787Y-39422995D01*
X153128338Y-39433599D01*
X153009863Y-39411780D01*
X152923810Y-39346934D01*
X152875482Y-39276787D01*
X152816550Y-39131191D01*
X152800645Y-39018017D01*
X152817162Y-38861818D01*
X152844283Y-38781067D01*
X152909128Y-38695014D01*
X153017000Y-38641384D01*
X153092449Y-38630781D01*
X153210924Y-38652600D01*
X153253950Y-38685022D01*
X153922388Y-38514140D02*
X153771490Y-38535348D01*
X153701342Y-38583676D01*
X153668920Y-38626702D01*
X153609376Y-38750479D01*
X153592859Y-38906679D01*
X153635274Y-39208475D01*
X153683602Y-39278622D01*
X153726628Y-39311045D01*
X153807379Y-39338166D01*
X153958277Y-39316958D01*
X154028424Y-39268630D01*
X154060847Y-39225604D01*
X154087968Y-39144853D01*
X154061459Y-38956231D01*
X154013130Y-38886083D01*
X153970104Y-38853661D01*
X153889353Y-38826540D01*
X153738455Y-38847747D01*
X153668308Y-38896075D01*
X153635885Y-38939102D01*
X153608765Y-39019853D01*
X143853121Y-47890356D02*
X143971596Y-47912175D01*
X144014622Y-47944598D01*
X144062950Y-48014745D01*
X144078856Y-48127919D01*
X144051735Y-48208669D01*
X144019312Y-48251696D01*
X143949165Y-48300024D01*
X143647369Y-48342439D01*
X143536031Y-47550224D01*
X143800102Y-47513111D01*
X143880853Y-47540232D01*
X143923879Y-47572655D01*
X143972208Y-47642802D01*
X143982811Y-47718251D01*
X143955690Y-47799002D01*
X143923268Y-47842028D01*
X143853121Y-47890356D01*
X143589049Y-47927469D01*
X144301124Y-47519637D02*
X144333547Y-47476610D01*
X144403694Y-47428282D01*
X144592317Y-47401773D01*
X144673067Y-47428894D01*
X144716094Y-47461316D01*
X144764422Y-47531464D01*
X144775026Y-47606913D01*
X144753207Y-47725388D01*
X144364135Y-48241704D01*
X144854553Y-48172780D01*
X141810798Y-32947886D02*
X141546727Y-32984998D01*
X141605047Y-33399968D02*
X141493708Y-32607753D01*
X141870953Y-32554735D01*
X142549383Y-32728675D02*
X142623608Y-33256818D01*
X142318346Y-32453389D02*
X142209251Y-33045765D01*
X142699669Y-32976841D01*
X153261015Y-42019998D02*
X153149677Y-41227783D01*
X153338299Y-41201274D01*
X153456775Y-41223093D01*
X153542827Y-41287938D01*
X153591155Y-41358086D01*
X153650087Y-41503682D01*
X153665993Y-41616855D01*
X153649476Y-41773055D01*
X153622355Y-41853806D01*
X153557509Y-41939858D01*
X153449638Y-41993488D01*
X153261015Y-42019998D01*
X153866442Y-41127048D02*
X154394585Y-41052823D01*
X154166403Y-41892754D01*
%TO.C,SW33*%
X49511911Y-53461367D02*
X49660242Y-53487321D01*
X49895716Y-53452088D01*
X49982859Y-53390899D01*
X50022907Y-53336758D01*
X50055908Y-53235522D01*
X50041814Y-53141332D01*
X49980626Y-53054189D01*
X49926484Y-53014141D01*
X49825248Y-52981140D01*
X49629822Y-52962232D01*
X49528586Y-52929231D01*
X49474445Y-52889183D01*
X49413256Y-52802040D01*
X49399163Y-52707851D01*
X49432164Y-52606614D01*
X49472212Y-52552473D01*
X49559355Y-52491285D01*
X49794829Y-52456051D01*
X49943160Y-52482005D01*
X50265776Y-52385583D02*
X50649232Y-53339339D01*
X50731910Y-52604731D01*
X51025990Y-53282965D01*
X51113482Y-52258741D01*
X51396051Y-52216461D02*
X52008282Y-52124853D01*
X51734993Y-52550938D01*
X51876278Y-52529798D01*
X51977514Y-52562799D01*
X52031655Y-52602847D01*
X52092844Y-52689990D01*
X52128077Y-52925464D01*
X52095076Y-53026700D01*
X52055028Y-53080842D01*
X51967885Y-53142030D01*
X51685317Y-53184311D01*
X51584081Y-53151309D01*
X51529939Y-53111261D01*
X52337946Y-52075526D02*
X52950178Y-51983918D01*
X52676889Y-52410003D01*
X52818173Y-52388863D01*
X52919409Y-52421864D01*
X52973551Y-52461912D01*
X53034739Y-52549055D01*
X53069973Y-52784529D01*
X53036972Y-52885765D01*
X52996924Y-52939907D01*
X52909781Y-53001095D01*
X52627212Y-53043375D01*
X52525976Y-53010374D01*
X52471834Y-52970326D01*
%TO.C,LED_11*%
X12636807Y-87618221D02*
X12512596Y-87158516D01*
X13477978Y-86897674D01*
X13229430Y-87803384D02*
X13316377Y-88125178D01*
X12847964Y-88399721D02*
X12723754Y-87940015D01*
X13689136Y-87679174D01*
X13813346Y-88138879D01*
X12959753Y-88813456D02*
X13925135Y-88552614D01*
X13987240Y-88782467D01*
X13978533Y-88932800D01*
X13911434Y-89049583D01*
X13831913Y-89120395D01*
X13660452Y-89216050D01*
X13522541Y-89253313D01*
X13326237Y-89257027D01*
X13221875Y-89235898D01*
X13105092Y-89168799D01*
X13021858Y-89043308D01*
X12959753Y-88813456D01*
X13066549Y-89573827D02*
X13265285Y-90309355D01*
X13555963Y-91020042D02*
X13406910Y-90468396D01*
X13481436Y-90744219D02*
X14446818Y-90483377D01*
X14284064Y-90428699D01*
X14167281Y-90361600D01*
X14096469Y-90282080D01*
X13804383Y-91939453D02*
X13655331Y-91387807D01*
X13729857Y-91663630D02*
X14695238Y-91402788D01*
X14532485Y-91348110D01*
X14415702Y-91281011D01*
X14344889Y-91201491D01*
%TO.C,SW36*%
X67298415Y-27665502D02*
X67442862Y-27708056D01*
X67680809Y-27699663D01*
X67774310Y-27648717D01*
X67820221Y-27599449D01*
X67864453Y-27502591D01*
X67861096Y-27407412D01*
X67810150Y-27313912D01*
X67760882Y-27268001D01*
X67664025Y-27223769D01*
X67471988Y-27182893D01*
X67375131Y-27138661D01*
X67325863Y-27092750D01*
X67274916Y-26999249D01*
X67271559Y-26904070D01*
X67315792Y-26807213D01*
X67361703Y-26757945D01*
X67455203Y-26706999D01*
X67693151Y-26698606D01*
X67837597Y-26741160D01*
X68169045Y-26681821D02*
X68442241Y-27672807D01*
X68607421Y-26952251D01*
X68822956Y-27659379D01*
X69025655Y-26651608D01*
X69311192Y-26641537D02*
X69929855Y-26619717D01*
X69610157Y-27012182D01*
X69752925Y-27007147D01*
X69849783Y-27051379D01*
X69899051Y-27097290D01*
X69949997Y-27190790D01*
X69958389Y-27428738D01*
X69914157Y-27525595D01*
X69868246Y-27574863D01*
X69774746Y-27625809D01*
X69489209Y-27635880D01*
X69392351Y-27591648D01*
X69343083Y-27545737D01*
X70786465Y-26589504D02*
X70596107Y-26596218D01*
X70502607Y-26647164D01*
X70456696Y-26696432D01*
X70366553Y-26842558D01*
X70325677Y-27034594D01*
X70339105Y-27415310D01*
X70390052Y-27508810D01*
X70439319Y-27554721D01*
X70536177Y-27598954D01*
X70726535Y-27592240D01*
X70820035Y-27541293D01*
X70865946Y-27492025D01*
X70910179Y-27395168D01*
X70901786Y-27157221D01*
X70850840Y-27063720D01*
X70801572Y-27017809D01*
X70704714Y-26973577D01*
X70514356Y-26980291D01*
X70420856Y-27031237D01*
X70374945Y-27080505D01*
X70330713Y-27177362D01*
%TO.C,LED_8*%
X120625638Y-11923218D02*
X120154082Y-11856945D01*
X120293255Y-10866677D01*
X121028628Y-11450897D02*
X121358717Y-11497288D01*
X121427284Y-12035882D02*
X120955727Y-11969609D01*
X121094901Y-10979341D01*
X121566457Y-11045614D01*
X121851684Y-12095528D02*
X121990857Y-11105260D01*
X122226636Y-11138396D01*
X122361475Y-11205434D01*
X122442532Y-11313000D01*
X122476433Y-11413938D01*
X122497079Y-11609188D01*
X122477197Y-11750655D01*
X122403533Y-11932650D01*
X122343122Y-12020334D01*
X122235557Y-12101391D01*
X122087462Y-12128664D01*
X121851684Y-12095528D01*
X122592920Y-12295876D02*
X123347410Y-12401912D01*
X123817437Y-11794752D02*
X123729753Y-11734342D01*
X123689224Y-11680559D01*
X123655323Y-11579620D01*
X123661951Y-11532465D01*
X123722361Y-11444781D01*
X123776144Y-11404252D01*
X123877082Y-11370351D01*
X124065705Y-11396861D01*
X124153389Y-11457271D01*
X124193917Y-11511054D01*
X124227818Y-11611992D01*
X124221191Y-11659148D01*
X124160781Y-11746832D01*
X124106998Y-11787360D01*
X124006059Y-11821261D01*
X123817437Y-11794752D01*
X123716498Y-11828653D01*
X123662715Y-11869181D01*
X123602305Y-11956865D01*
X123575796Y-12145488D01*
X123609697Y-12246426D01*
X123650225Y-12300209D01*
X123737909Y-12360619D01*
X123926532Y-12387129D01*
X124027470Y-12353228D01*
X124081253Y-12312699D01*
X124141663Y-12225015D01*
X124168173Y-12036393D01*
X124134271Y-11935454D01*
X124093743Y-11881671D01*
X124006059Y-11821261D01*
%TO.C,SW47*%
X128499736Y-60860739D02*
X128649946Y-60871361D01*
X128880571Y-60812189D01*
X128960987Y-60742396D01*
X128995278Y-60684436D01*
X129017734Y-60580352D01*
X128994066Y-60488102D01*
X128924272Y-60407686D01*
X128866313Y-60373395D01*
X128762228Y-60350939D01*
X128565894Y-60352151D01*
X128461809Y-60329695D01*
X128403850Y-60295404D01*
X128334056Y-60214988D01*
X128310387Y-60122738D01*
X128332844Y-60018653D01*
X128367134Y-59960694D01*
X128447550Y-59890900D01*
X128678176Y-59831729D01*
X128828385Y-59842351D01*
X129139426Y-59713385D02*
X129618573Y-60622840D01*
X129625558Y-59883627D01*
X129987573Y-60528166D01*
X129969678Y-59500367D01*
X130836644Y-59622059D02*
X131002325Y-60267810D01*
X130511344Y-59312230D02*
X130458234Y-60063278D01*
X131057860Y-59909432D01*
X131168930Y-59192675D02*
X131814681Y-59026994D01*
X131648076Y-60102130D01*
%TO.C,SW38*%
X71105065Y-67783703D02*
X71255084Y-67796735D01*
X71486630Y-67741274D01*
X71568156Y-67672781D01*
X71603373Y-67615379D01*
X71627498Y-67511669D01*
X71605313Y-67419051D01*
X71536820Y-67337525D01*
X71479419Y-67302308D01*
X71375708Y-67278183D01*
X71179379Y-67276243D01*
X71075669Y-67252118D01*
X71018267Y-67216901D01*
X70949774Y-67135375D01*
X70927590Y-67042757D01*
X70951714Y-66939046D01*
X70986931Y-66881645D01*
X71068457Y-66813151D01*
X71300003Y-66757690D01*
X71450023Y-66770723D01*
X71763094Y-66646768D02*
X72227576Y-67563799D01*
X72246430Y-66824793D01*
X72598050Y-67475062D01*
X72596659Y-66447109D01*
X72874514Y-66380555D02*
X73476533Y-66236357D01*
X73241106Y-66684475D01*
X73380034Y-66651199D01*
X73483744Y-66675323D01*
X73541146Y-66710540D01*
X73609639Y-66792066D01*
X73665100Y-67023612D01*
X73640975Y-67127323D01*
X73605759Y-67184724D01*
X73524232Y-67253218D01*
X73246378Y-67319771D01*
X73142667Y-67295646D01*
X73085266Y-67260429D01*
X74132072Y-66520033D02*
X74028362Y-66495908D01*
X73970960Y-66460691D01*
X73902467Y-66379165D01*
X73891375Y-66332856D01*
X73915499Y-66229145D01*
X73950716Y-66171744D01*
X74032243Y-66103250D01*
X74217479Y-66058882D01*
X74321190Y-66083006D01*
X74378591Y-66118223D01*
X74447084Y-66199749D01*
X74458177Y-66246058D01*
X74434052Y-66349769D01*
X74398835Y-66407170D01*
X74317309Y-66475664D01*
X74132072Y-66520033D01*
X74050546Y-66588526D01*
X74015329Y-66645928D01*
X73991205Y-66749638D01*
X74035573Y-66934875D01*
X74104067Y-67016401D01*
X74161468Y-67051618D01*
X74265179Y-67075742D01*
X74450415Y-67031374D01*
X74531941Y-66962880D01*
X74567158Y-66905479D01*
X74591283Y-66801768D01*
X74546914Y-66616532D01*
X74478421Y-66535006D01*
X74421019Y-66499789D01*
X74317309Y-66475664D01*
%TO.C,SW37*%
X68213654Y-47793153D02*
X68361564Y-47821409D01*
X68597557Y-47789837D01*
X68685640Y-47730009D01*
X68726524Y-47676496D01*
X68761094Y-47575785D01*
X68748465Y-47481388D01*
X68688638Y-47393305D01*
X68635125Y-47352421D01*
X68534413Y-47317851D01*
X68339305Y-47295910D01*
X68238593Y-47261341D01*
X68185080Y-47220456D01*
X68125253Y-47132374D01*
X68112624Y-47037977D01*
X68147194Y-46937265D01*
X68188078Y-46883752D01*
X68276161Y-46823925D01*
X68512153Y-46792353D01*
X68660063Y-46820608D01*
X68984139Y-46729209D02*
X69352734Y-47688806D01*
X69446812Y-46955571D01*
X69730322Y-47638291D01*
X69833712Y-46615550D01*
X70116904Y-46577663D02*
X70730485Y-46495576D01*
X70450610Y-46917365D01*
X70592206Y-46898422D01*
X70692917Y-46932992D01*
X70746430Y-46973876D01*
X70806257Y-47061959D01*
X70837829Y-47297951D01*
X70803260Y-47398663D01*
X70762376Y-47452176D01*
X70674293Y-47512003D01*
X70391102Y-47549889D01*
X70290390Y-47515320D01*
X70236877Y-47474436D01*
X71060874Y-46451375D02*
X71721654Y-46362974D01*
X71429469Y-47410973D01*
%TO.C,SW44*%
X108649201Y-58998989D02*
X108798468Y-59018865D01*
X109032307Y-58974046D01*
X109116878Y-58909351D01*
X109154682Y-58853620D01*
X109183523Y-58751120D01*
X109165595Y-58657585D01*
X109100900Y-58573013D01*
X109045169Y-58535209D01*
X108942669Y-58506369D01*
X108746634Y-58495456D01*
X108644135Y-58466616D01*
X108588404Y-58428811D01*
X108523708Y-58344240D01*
X108505781Y-58250704D01*
X108534621Y-58148205D01*
X108572425Y-58092473D01*
X108656997Y-58027778D01*
X108890836Y-57982959D01*
X109040103Y-58002836D01*
X109358514Y-57893322D02*
X109780591Y-58830627D01*
X109833206Y-58093255D01*
X110154733Y-58758917D01*
X110200334Y-57731975D01*
X111058132Y-57906966D02*
X111183624Y-58561715D01*
X110752583Y-57577642D02*
X110653201Y-58323978D01*
X111261182Y-58207449D01*
X111993488Y-57727691D02*
X112118980Y-58382440D01*
X111687939Y-57398367D02*
X111588556Y-58144703D01*
X112196537Y-58028174D01*
%TO.C,RE3*%
X12580051Y-83408995D02*
X12161065Y-83006106D01*
X12019370Y-83519301D02*
X11826334Y-82538110D01*
X12200121Y-82464572D01*
X12302760Y-82492911D01*
X12358676Y-82530443D01*
X12423784Y-82614697D01*
X12451360Y-82754867D01*
X12423021Y-82857506D01*
X12385490Y-82913422D01*
X12301235Y-82978530D01*
X11927448Y-83052067D01*
X12899448Y-82812308D02*
X13226511Y-82747963D01*
X13467796Y-83234344D02*
X13000562Y-83326266D01*
X12807526Y-82345074D01*
X13274760Y-82253152D01*
X13601824Y-82188807D02*
X14209228Y-82069309D01*
X13955702Y-82507441D01*
X14095872Y-82479865D01*
X14198511Y-82508204D01*
X14254427Y-82545735D01*
X14319534Y-82629990D01*
X14365495Y-82863607D01*
X14337156Y-82966246D01*
X14299625Y-83022161D01*
X14215370Y-83087269D01*
X13935030Y-83142422D01*
X13832391Y-83114083D01*
X13776475Y-83076552D01*
%TO.C,SW30*%
X40903697Y-86079748D02*
X41054030Y-86088456D01*
X41283883Y-86026350D01*
X41363403Y-85955538D01*
X41396952Y-85897146D01*
X41418081Y-85792784D01*
X41393239Y-85700843D01*
X41322426Y-85621323D01*
X41264034Y-85587773D01*
X41159672Y-85566645D01*
X40963369Y-85570358D01*
X40859007Y-85549230D01*
X40800615Y-85515680D01*
X40729803Y-85436160D01*
X40704961Y-85344219D01*
X40726089Y-85239857D01*
X40759639Y-85181466D01*
X40839159Y-85110653D01*
X41069012Y-85048548D01*
X41219344Y-85057255D01*
X41528717Y-84924338D02*
X42019411Y-85827614D01*
X42016978Y-85088372D01*
X42387176Y-85728246D01*
X42356187Y-84700759D01*
X42632010Y-84626233D02*
X43229628Y-84464760D01*
X43007202Y-84919471D01*
X43145114Y-84882208D01*
X43249476Y-84903337D01*
X43307867Y-84936886D01*
X43378680Y-85016406D01*
X43440785Y-85246259D01*
X43419657Y-85350621D01*
X43386107Y-85409013D01*
X43306587Y-85479825D01*
X43030764Y-85554352D01*
X42926402Y-85533223D01*
X42868010Y-85499674D01*
X43827245Y-84303286D02*
X43919186Y-84278444D01*
X44023548Y-84299573D01*
X44081940Y-84333122D01*
X44152752Y-84412642D01*
X44248407Y-84584104D01*
X44310512Y-84813956D01*
X44314226Y-85010260D01*
X44293097Y-85114622D01*
X44259548Y-85173013D01*
X44180028Y-85243826D01*
X44088086Y-85268668D01*
X43983724Y-85247540D01*
X43925333Y-85213990D01*
X43854520Y-85134470D01*
X43758865Y-84963009D01*
X43696760Y-84733156D01*
X43693047Y-84536853D01*
X43714175Y-84432491D01*
X43747725Y-84374099D01*
X43827245Y-84303286D01*
%TO.C,SW_RESET2*%
X163167110Y-43134287D02*
X162741945Y-43530649D01*
X163246638Y-43700154D02*
X162256370Y-43839327D01*
X162203351Y-43462082D01*
X162237252Y-43361144D01*
X162277781Y-43307361D01*
X162365465Y-43246951D01*
X162506932Y-43227069D01*
X162607870Y-43260970D01*
X162661653Y-43301498D01*
X162722063Y-43389182D01*
X162775082Y-43766427D01*
X162588753Y-42782786D02*
X162542362Y-42452697D01*
X163041192Y-42238330D02*
X163107465Y-42709886D01*
X162117197Y-42849059D01*
X162050924Y-42377503D01*
X162941018Y-41867712D02*
X162968292Y-41719618D01*
X162935155Y-41483840D01*
X162874745Y-41396156D01*
X162820962Y-41355628D01*
X162720023Y-41321727D01*
X162625712Y-41334981D01*
X162538028Y-41395391D01*
X162497500Y-41449174D01*
X162463599Y-41550113D01*
X162442952Y-41745363D01*
X162409051Y-41846301D01*
X162368523Y-41900084D01*
X162280839Y-41960494D01*
X162186528Y-41973749D01*
X162085589Y-41939848D01*
X162031806Y-41899319D01*
X161971396Y-41811636D01*
X161938260Y-41575857D01*
X161965533Y-41427763D01*
X162330288Y-40943717D02*
X162283897Y-40613628D01*
X162782727Y-40399261D02*
X162849000Y-40870817D01*
X161858732Y-41009990D01*
X161792459Y-40538434D01*
X161752696Y-40255500D02*
X161673168Y-39689633D01*
X162703200Y-39833393D02*
X161712932Y-39972566D01*
%TO.C,SW45*%
X124898895Y-20380655D02*
X125042656Y-20425472D01*
X125280705Y-20420819D01*
X125374995Y-20371347D01*
X125421674Y-20322806D01*
X125467422Y-20226656D01*
X125465561Y-20131436D01*
X125416089Y-20037147D01*
X125367548Y-19990467D01*
X125271398Y-19944719D01*
X125080027Y-19900832D01*
X124983876Y-19855084D01*
X124935336Y-19808405D01*
X124885864Y-19714116D01*
X124884003Y-19618896D01*
X124929751Y-19522745D01*
X124976430Y-19474204D01*
X125070719Y-19424733D01*
X125308769Y-19420079D01*
X125452530Y-19464896D01*
X125784868Y-19410771D02*
X126042465Y-20405926D01*
X126218943Y-19688054D01*
X126423344Y-20398480D01*
X126641848Y-19394017D01*
X127457732Y-19711463D02*
X127470763Y-20378002D01*
X127212236Y-19335238D02*
X126988148Y-20054041D01*
X127607078Y-20041940D01*
X128451026Y-19358647D02*
X127974926Y-19367955D01*
X127936624Y-19844985D01*
X127983303Y-19796444D01*
X128077592Y-19746973D01*
X128315642Y-19742319D01*
X128411793Y-19788067D01*
X128460333Y-19834747D01*
X128509805Y-19929036D01*
X128514459Y-20167085D01*
X128468711Y-20263236D01*
X128422031Y-20311777D01*
X128327742Y-20361248D01*
X128089692Y-20365902D01*
X127993542Y-20320154D01*
X127945001Y-20273475D01*
%TO.C,LED_9*%
X55855638Y-3795218D02*
X55384082Y-3728945D01*
X55523255Y-2738677D01*
X56258628Y-3322897D02*
X56588717Y-3369288D01*
X56657284Y-3907882D02*
X56185727Y-3841609D01*
X56324901Y-2851341D01*
X56796457Y-2917614D01*
X57081684Y-3967528D02*
X57220857Y-2977260D01*
X57456636Y-3010396D01*
X57591475Y-3077434D01*
X57672532Y-3185000D01*
X57706433Y-3285938D01*
X57727079Y-3481188D01*
X57707197Y-3622655D01*
X57633533Y-3804650D01*
X57573122Y-3892334D01*
X57465557Y-3973391D01*
X57317462Y-4000664D01*
X57081684Y-3967528D01*
X57822920Y-4167876D02*
X58577410Y-4273912D01*
X58873598Y-4219365D02*
X59062220Y-4245874D01*
X59163159Y-4211973D01*
X59216942Y-4171445D01*
X59331135Y-4043232D01*
X59404800Y-3861237D01*
X59457818Y-3483992D01*
X59423917Y-3383054D01*
X59383389Y-3329271D01*
X59295705Y-3268861D01*
X59107082Y-3242351D01*
X59006144Y-3276252D01*
X58952361Y-3316781D01*
X58891951Y-3404465D01*
X58858814Y-3640243D01*
X58892715Y-3741181D01*
X58933244Y-3794964D01*
X59020928Y-3855374D01*
X59209550Y-3881884D01*
X59310489Y-3847983D01*
X59364271Y-3807454D01*
X59424682Y-3719770D01*
%TO.C,SW40*%
X86658263Y-34817726D02*
X86804467Y-34853786D01*
X87041802Y-34834774D01*
X87132933Y-34779702D01*
X87176598Y-34728432D01*
X87216460Y-34629696D01*
X87208855Y-34534762D01*
X87153783Y-34443631D01*
X87102514Y-34399966D01*
X87003778Y-34360104D01*
X86810107Y-34327847D01*
X86711371Y-34287984D01*
X86660101Y-34244320D01*
X86605029Y-34153188D01*
X86597425Y-34058254D01*
X86637287Y-33959518D01*
X86680951Y-33908248D01*
X86772083Y-33853177D01*
X87009418Y-33834165D01*
X87155621Y-33870224D01*
X87484088Y-33796140D02*
X87801274Y-34773935D01*
X87934105Y-34046720D01*
X88181010Y-34743515D01*
X88338494Y-33727697D01*
X89172049Y-33995324D02*
X89225283Y-34659862D01*
X88904295Y-33634600D02*
X88723997Y-34365617D01*
X89341067Y-34316186D01*
X89857437Y-33606019D02*
X89952371Y-33598414D01*
X90051108Y-33638276D01*
X90102377Y-33681941D01*
X90157449Y-33773072D01*
X90220126Y-33959138D01*
X90239138Y-34196473D01*
X90206881Y-34390143D01*
X90167018Y-34488880D01*
X90123354Y-34540149D01*
X90032222Y-34595221D01*
X89937288Y-34602826D01*
X89838552Y-34562964D01*
X89787282Y-34519299D01*
X89732211Y-34428167D01*
X89669534Y-34242102D01*
X89650522Y-34004767D01*
X89682779Y-33811097D01*
X89722641Y-33712360D01*
X89766306Y-33661091D01*
X89857437Y-33606019D01*
%TO.C,TRRS2*%
X156696993Y-24658529D02*
X157262860Y-24579001D01*
X157119099Y-25609033D02*
X156979926Y-24618765D01*
X158297990Y-25443351D02*
X157901628Y-25018185D01*
X157732123Y-25522878D02*
X157592949Y-24532610D01*
X157970194Y-24479592D01*
X158071133Y-24513493D01*
X158124916Y-24554021D01*
X158185326Y-24641705D01*
X158205208Y-24783172D01*
X158171307Y-24884110D01*
X158130779Y-24937893D01*
X158043095Y-24998304D01*
X157665850Y-25051322D01*
X159288258Y-25304178D02*
X158891896Y-24879012D01*
X158722391Y-25383705D02*
X158583218Y-24393437D01*
X158960463Y-24340419D01*
X159061401Y-24374320D01*
X159115184Y-24414848D01*
X159175594Y-24502532D01*
X159195476Y-24643999D01*
X159161575Y-24744937D01*
X159121047Y-24798720D01*
X159033363Y-24859130D01*
X158656118Y-24912149D01*
X159658876Y-25204004D02*
X159806970Y-25231277D01*
X160042748Y-25198141D01*
X160130432Y-25137731D01*
X160170960Y-25083948D01*
X160204861Y-24983009D01*
X160191607Y-24888698D01*
X160131197Y-24801014D01*
X160077414Y-24760486D01*
X159976475Y-24726585D01*
X159781225Y-24705938D01*
X159680287Y-24672037D01*
X159626504Y-24631509D01*
X159566094Y-24543825D01*
X159552839Y-24449514D01*
X159586740Y-24348575D01*
X159627269Y-24294792D01*
X159714952Y-24234382D01*
X159950731Y-24201246D01*
X160098825Y-24228519D01*
%TO.C,SW42*%
X105830123Y-18991022D02*
X105973219Y-19037917D01*
X106211311Y-19036712D01*
X106306307Y-18988612D01*
X106353684Y-18940752D01*
X106400821Y-18845274D01*
X106400339Y-18750038D01*
X106352238Y-18655042D01*
X106304379Y-18607664D01*
X106208901Y-18560528D01*
X106018186Y-18513874D01*
X105922708Y-18466737D01*
X105874849Y-18419360D01*
X105826748Y-18324364D01*
X105826266Y-18229127D01*
X105873403Y-18133649D01*
X105920780Y-18085790D01*
X106015776Y-18037689D01*
X106253868Y-18036484D01*
X106396964Y-18083379D01*
X106730052Y-18034074D02*
X106973206Y-19032856D01*
X107160065Y-18317615D01*
X107354154Y-19030928D01*
X107587184Y-18029735D01*
X108398385Y-18358967D02*
X108401759Y-19025625D01*
X108158365Y-17979225D02*
X107923888Y-18694706D01*
X108542927Y-18691573D01*
X108873364Y-18118465D02*
X108920742Y-18070605D01*
X109015737Y-18022505D01*
X109253830Y-18021300D01*
X109349308Y-18068436D01*
X109397167Y-18115814D01*
X109445267Y-18210809D01*
X109445750Y-18306046D01*
X109398854Y-18449143D01*
X108830325Y-19023456D01*
X109449365Y-19020323D01*
%TO.C,SW34*%
X52687358Y-73337483D02*
X52837492Y-73349127D01*
X53068515Y-73291527D01*
X53149404Y-73222282D01*
X53184088Y-73164557D01*
X53207252Y-73060628D01*
X53184212Y-72968219D01*
X53114968Y-72887330D01*
X53057243Y-72852645D01*
X52953314Y-72829481D01*
X52756975Y-72829357D01*
X52653046Y-72806192D01*
X52595322Y-72771508D01*
X52526077Y-72690619D01*
X52503037Y-72598210D01*
X52526201Y-72494281D01*
X52560885Y-72436556D01*
X52641774Y-72367311D01*
X52872797Y-72309711D01*
X53022931Y-72321355D01*
X53334843Y-72194510D02*
X53807788Y-73107205D01*
X53819804Y-72368056D01*
X54177424Y-73015044D01*
X54166525Y-71987148D01*
X54443752Y-71918028D02*
X55044412Y-71768266D01*
X54813140Y-72218544D01*
X54951754Y-72183983D01*
X55055683Y-72207148D01*
X55113408Y-72241832D01*
X55182653Y-72322721D01*
X55240253Y-72553744D01*
X55217089Y-72657673D01*
X55182404Y-72715398D01*
X55101515Y-72784643D01*
X54824288Y-72853763D01*
X54720359Y-72830599D01*
X54662634Y-72795914D01*
X55956734Y-71884337D02*
X56118015Y-72531201D01*
X55633551Y-71572301D02*
X55575329Y-72322970D01*
X56175989Y-72173208D01*
%TO.C,LED_14*%
X153414018Y-77098214D02*
X152950984Y-77209378D01*
X152717539Y-76237008D01*
X153615860Y-76511062D02*
X153939983Y-76433247D01*
X154201174Y-76909234D02*
X153738141Y-77020399D01*
X153504696Y-76048029D01*
X153967729Y-75936864D01*
X154617904Y-76809186D02*
X154384459Y-75836816D01*
X154615975Y-75781234D01*
X154766002Y-75794188D01*
X154880841Y-75864562D01*
X154949378Y-75946052D01*
X155040147Y-76120149D01*
X155073496Y-76259059D01*
X155071659Y-76455388D01*
X155047588Y-76559112D01*
X154977214Y-76673951D01*
X154849421Y-76753604D01*
X154617904Y-76809186D01*
X155380990Y-76723930D02*
X156121844Y-76546066D01*
X156840464Y-76275597D02*
X156284824Y-76408994D01*
X156562644Y-76342295D02*
X156329199Y-75369925D01*
X156269941Y-75531068D01*
X156199568Y-75645908D01*
X156118077Y-75714444D01*
X157518294Y-75427254D02*
X157673924Y-76075501D01*
X157197845Y-75112410D02*
X157133075Y-75862542D01*
X157735019Y-75718028D01*
%TO.C,SW28*%
X29531713Y-45374794D02*
X29678436Y-45408680D01*
X29915462Y-45386150D01*
X30005767Y-45329732D01*
X30048666Y-45277820D01*
X30087059Y-45178503D01*
X30078047Y-45083693D01*
X30021629Y-44993388D01*
X29969718Y-44950489D01*
X29870401Y-44912096D01*
X29676273Y-44882715D01*
X29576956Y-44844322D01*
X29525045Y-44801423D01*
X29468627Y-44711118D01*
X29459615Y-44616308D01*
X29498008Y-44516991D01*
X29540907Y-44465079D01*
X29631211Y-44408662D01*
X29868238Y-44386131D01*
X30014960Y-44420018D01*
X30342292Y-44341069D02*
X30673948Y-45314051D01*
X30795977Y-44584946D01*
X31053191Y-45278001D01*
X31195588Y-44259958D01*
X31536438Y-44323226D02*
X31579337Y-44271314D01*
X31669642Y-44214896D01*
X31906669Y-44192365D01*
X32005985Y-44230758D01*
X32057897Y-44273658D01*
X32114315Y-44363962D01*
X32123327Y-44458773D01*
X32089440Y-44605495D01*
X31574650Y-45228434D01*
X32190920Y-45169853D01*
X32705710Y-44546915D02*
X32606393Y-44508522D01*
X32554481Y-44465623D01*
X32498064Y-44375318D01*
X32493558Y-44327913D01*
X32531951Y-44228596D01*
X32574850Y-44176684D01*
X32665154Y-44120267D01*
X32854776Y-44102242D01*
X32954093Y-44140635D01*
X33006004Y-44183534D01*
X33062422Y-44273839D01*
X33066928Y-44321244D01*
X33028535Y-44420561D01*
X32985636Y-44472473D01*
X32895331Y-44528890D01*
X32705710Y-44546915D01*
X32615405Y-44603333D01*
X32572506Y-44655244D01*
X32534113Y-44754561D01*
X32552138Y-44944183D01*
X32608555Y-45034487D01*
X32660467Y-45077386D01*
X32759784Y-45115779D01*
X32949405Y-45097755D01*
X33039710Y-45041337D01*
X33082609Y-44989425D01*
X33121002Y-44890109D01*
X33102977Y-44700487D01*
X33046560Y-44610183D01*
X32994648Y-44567283D01*
X32895331Y-44528890D01*
%TO.C,SW32*%
X48077412Y-33503929D02*
X48222991Y-33542433D01*
X48460611Y-33527400D01*
X48552653Y-33473863D01*
X48597170Y-33423332D01*
X48638681Y-33325278D01*
X48632668Y-33230230D01*
X48579130Y-33138188D01*
X48528600Y-33093671D01*
X48430545Y-33052160D01*
X48237442Y-33016662D01*
X48139388Y-32975152D01*
X48088857Y-32930634D01*
X48035320Y-32838593D01*
X48029307Y-32743545D01*
X48070817Y-32645490D01*
X48115335Y-32594959D01*
X48207376Y-32541422D01*
X48444996Y-32526389D01*
X48590575Y-32564893D01*
X48920237Y-32496323D02*
X49220996Y-33479294D01*
X49365993Y-32754407D01*
X49601188Y-33455242D01*
X49775669Y-32442204D01*
X50060814Y-32424164D02*
X50678626Y-32385078D01*
X50370011Y-32786317D01*
X50512583Y-32777297D01*
X50610638Y-32818808D01*
X50661168Y-32863325D01*
X50714705Y-32955366D01*
X50729739Y-33192987D01*
X50688228Y-33291041D01*
X50643710Y-33341572D01*
X50551669Y-33395109D01*
X50266525Y-33413149D01*
X50168470Y-33371638D01*
X50117939Y-33327121D01*
X51064832Y-32456073D02*
X51109349Y-32405543D01*
X51201390Y-32352005D01*
X51439011Y-32336972D01*
X51537065Y-32378483D01*
X51587596Y-32423000D01*
X51641133Y-32515042D01*
X51647146Y-32610090D01*
X51608642Y-32755669D01*
X51074433Y-33362036D01*
X51692246Y-33322951D01*
%TO.C,SW41*%
X88505070Y-54976158D02*
X88654271Y-54996529D01*
X88888257Y-54952486D01*
X88973043Y-54888072D01*
X89011031Y-54832466D01*
X89040211Y-54730063D01*
X89022594Y-54636468D01*
X88958180Y-54551683D01*
X88902574Y-54513694D01*
X88800171Y-54484514D01*
X88604173Y-54472951D01*
X88501770Y-54443771D01*
X88446164Y-54405782D01*
X88381750Y-54320996D01*
X88364133Y-54227402D01*
X88393313Y-54124999D01*
X88431301Y-54069393D01*
X88516087Y-54004979D01*
X88750073Y-53960936D01*
X88899274Y-53981307D01*
X89218046Y-53872850D02*
X89637013Y-54811549D01*
X89692073Y-54074356D01*
X90011391Y-54741080D01*
X90060396Y-53714295D01*
X90917610Y-53892129D02*
X91040930Y-54547291D01*
X90613155Y-53561794D02*
X90511297Y-54307796D01*
X91119662Y-54193284D01*
X92070470Y-54353502D02*
X91508903Y-54459205D01*
X91789686Y-54406353D02*
X91604706Y-53423611D01*
X91537537Y-53581620D01*
X91461560Y-53692832D01*
X91376774Y-53757246D01*
%TO.C,SW29*%
X31647144Y-65423212D02*
X31796490Y-65442489D01*
X32030147Y-65396732D01*
X32114459Y-65331698D01*
X32152039Y-65275815D01*
X32180467Y-65173201D01*
X32162164Y-65079738D01*
X32097130Y-64995426D01*
X32041247Y-64957846D01*
X31938633Y-64929418D01*
X31742556Y-64919292D01*
X31639942Y-64890863D01*
X31584059Y-64853283D01*
X31519025Y-64768972D01*
X31500722Y-64675509D01*
X31529151Y-64572895D01*
X31566731Y-64517012D01*
X31651042Y-64451978D01*
X31884699Y-64406221D01*
X32034045Y-64425498D01*
X32352013Y-64314707D02*
X32777850Y-65250310D01*
X32827505Y-64512733D01*
X33151701Y-65177098D01*
X33193179Y-64149982D01*
X33538602Y-64179385D02*
X33576182Y-64123502D01*
X33660493Y-64058468D01*
X33894150Y-64012711D01*
X33996765Y-64041139D01*
X34052647Y-64078719D01*
X34117682Y-64163031D01*
X34135984Y-64256493D01*
X34116707Y-64405839D01*
X33665747Y-65076433D01*
X34273255Y-64957465D01*
X34740570Y-64865951D02*
X34927495Y-64829345D01*
X35011807Y-64764311D01*
X35049387Y-64708428D01*
X35115395Y-64549931D01*
X35125521Y-64353854D01*
X35052310Y-63980003D01*
X34987276Y-63895691D01*
X34931393Y-63858111D01*
X34828779Y-63829683D01*
X34641853Y-63866288D01*
X34557542Y-63931322D01*
X34519962Y-63987205D01*
X34491533Y-64089819D01*
X34537290Y-64323477D01*
X34602324Y-64407788D01*
X34658207Y-64445368D01*
X34760821Y-64473797D01*
X34947747Y-64437191D01*
X35032058Y-64372157D01*
X35069638Y-64316274D01*
X35098067Y-64213660D01*
%TO.C,LED_10*%
X8691619Y-37266809D02*
X8691619Y-36790619D01*
X9691619Y-36790619D01*
X9215428Y-37600142D02*
X9215428Y-37933476D01*
X8691619Y-38076333D02*
X8691619Y-37600142D01*
X9691619Y-37600142D01*
X9691619Y-38076333D01*
X8691619Y-38504904D02*
X9691619Y-38504904D01*
X9691619Y-38743000D01*
X9644000Y-38885857D01*
X9548761Y-38981095D01*
X9453523Y-39028714D01*
X9263047Y-39076333D01*
X9120190Y-39076333D01*
X8929714Y-39028714D01*
X8834476Y-38981095D01*
X8739238Y-38885857D01*
X8691619Y-38743000D01*
X8691619Y-38504904D01*
X8596380Y-39266809D02*
X8596380Y-40028714D01*
X8691619Y-40790619D02*
X8691619Y-40219190D01*
X8691619Y-40504904D02*
X9691619Y-40504904D01*
X9548761Y-40409666D01*
X9453523Y-40314428D01*
X9405904Y-40219190D01*
X9691619Y-41409666D02*
X9691619Y-41504904D01*
X9644000Y-41600142D01*
X9596380Y-41647761D01*
X9501142Y-41695380D01*
X9310666Y-41743000D01*
X9072571Y-41743000D01*
X8882095Y-41695380D01*
X8786857Y-41647761D01*
X8739238Y-41600142D01*
X8691619Y-41504904D01*
X8691619Y-41409666D01*
X8739238Y-41314428D01*
X8786857Y-41266809D01*
X8882095Y-41219190D01*
X9072571Y-41171571D01*
X9310666Y-41171571D01*
X9501142Y-41219190D01*
X9596380Y-41266809D01*
X9644000Y-41314428D01*
X9691619Y-41409666D01*
%TO.C,SW31*%
X48593993Y-13339138D02*
X48735055Y-13391837D01*
X48972998Y-13400354D01*
X49069879Y-13356172D01*
X49119171Y-13310287D01*
X49170166Y-13216813D01*
X49173573Y-13121636D01*
X49129391Y-13024755D01*
X49083506Y-12975463D01*
X48990032Y-12924468D01*
X48801381Y-12870066D01*
X48707907Y-12819070D01*
X48662022Y-12769778D01*
X48617841Y-12672898D01*
X48621247Y-12577721D01*
X48672243Y-12484247D01*
X48721535Y-12438362D01*
X48818415Y-12394180D01*
X49056358Y-12402697D01*
X49197420Y-12455396D01*
X49532244Y-12419731D02*
X49734415Y-13427608D01*
X49950321Y-12720593D01*
X50115124Y-13441235D01*
X50388838Y-12450393D01*
X50674370Y-12460613D02*
X51293021Y-12482757D01*
X50946274Y-12851542D01*
X51089039Y-12856652D01*
X51182513Y-12907648D01*
X51228398Y-12956940D01*
X51272580Y-13053820D01*
X51264063Y-13291763D01*
X51213068Y-13385237D01*
X51163776Y-13431122D01*
X51066895Y-13475304D01*
X50781364Y-13465083D01*
X50687890Y-13414088D01*
X50642005Y-13364796D01*
X52209021Y-13516186D02*
X51637958Y-13495745D01*
X51923489Y-13505965D02*
X51959261Y-12506605D01*
X51858974Y-12645964D01*
X51760390Y-12737734D01*
X51663509Y-12781916D01*
%TO.C,LED_13*%
X102324018Y-89166214D02*
X101860984Y-89277378D01*
X101627539Y-88305008D01*
X102525860Y-88579062D02*
X102849983Y-88501247D01*
X103111174Y-88977234D02*
X102648141Y-89088399D01*
X102414696Y-88116029D01*
X102877729Y-88004864D01*
X103527904Y-88877186D02*
X103294459Y-87904816D01*
X103525975Y-87849234D01*
X103676002Y-87862188D01*
X103790841Y-87932562D01*
X103859378Y-88014052D01*
X103950147Y-88188149D01*
X103983496Y-88327059D01*
X103981659Y-88523388D01*
X103957588Y-88627112D01*
X103887214Y-88741951D01*
X103759421Y-88821604D01*
X103527904Y-88877186D01*
X104290990Y-88791930D02*
X105031844Y-88614066D01*
X105750464Y-88343597D02*
X105194824Y-88476994D01*
X105472644Y-88410295D02*
X105239199Y-87437925D01*
X105179941Y-87599068D01*
X105109568Y-87713908D01*
X105028077Y-87782444D01*
X105841142Y-87293412D02*
X106443085Y-87148898D01*
X106207893Y-87597140D01*
X106346803Y-87563790D01*
X106450527Y-87587861D01*
X106507946Y-87623048D01*
X106576483Y-87704538D01*
X106632065Y-87936054D01*
X106607994Y-88039778D01*
X106572807Y-88097197D01*
X106491317Y-88165734D01*
X106213497Y-88232432D01*
X106109774Y-88208362D01*
X106052354Y-88173175D01*
%TO.C,SW43*%
X106173321Y-39260244D02*
X106320678Y-39291257D01*
X106557219Y-39264097D01*
X106646404Y-39205925D01*
X106688280Y-39153185D01*
X106724724Y-39053137D01*
X106713860Y-38958520D01*
X106655688Y-38869336D01*
X106602948Y-38827459D01*
X106502900Y-38791015D01*
X106308235Y-38765434D01*
X106208187Y-38728990D01*
X106155447Y-38687114D01*
X106097274Y-38597929D01*
X106086411Y-38503313D01*
X106122855Y-38403264D01*
X106164731Y-38350524D01*
X106253916Y-38292352D01*
X106490457Y-38265192D01*
X106637814Y-38296205D01*
X106963539Y-38210873D02*
X107314151Y-39177186D01*
X107421905Y-38445835D01*
X107692616Y-39133731D01*
X107815087Y-38113099D01*
X108657350Y-38351914D02*
X108733397Y-39014229D01*
X108377354Y-38000608D02*
X108222292Y-38737391D01*
X108837299Y-38666776D01*
X109045101Y-37971869D02*
X109660108Y-37901254D01*
X109372406Y-38317743D01*
X109514330Y-38301448D01*
X109614379Y-38337892D01*
X109667119Y-38379768D01*
X109725291Y-38468953D01*
X109752451Y-38705494D01*
X109716006Y-38805542D01*
X109674130Y-38858282D01*
X109584945Y-38916454D01*
X109301096Y-38949046D01*
X109201048Y-38912602D01*
X109148307Y-38870725D01*
%TO.C,SW48*%
X151796869Y-52762232D02*
X151944963Y-52789506D01*
X152180741Y-52756370D01*
X152268425Y-52695959D01*
X152308953Y-52642177D01*
X152342854Y-52541238D01*
X152329600Y-52446927D01*
X152269190Y-52359243D01*
X152215407Y-52318714D01*
X152114468Y-52284813D01*
X151919218Y-52264167D01*
X151818280Y-52230266D01*
X151764497Y-52189738D01*
X151704087Y-52102054D01*
X151690832Y-52007742D01*
X151724733Y-51906804D01*
X151765262Y-51853021D01*
X151852946Y-51792611D01*
X152088724Y-51759474D01*
X152236818Y-51786748D01*
X152560280Y-51693201D02*
X152935231Y-52650333D01*
X153024444Y-51916489D01*
X153312476Y-52597315D01*
X153409081Y-51573910D01*
X154257118Y-51791336D02*
X154349900Y-52451514D01*
X153968321Y-51447227D02*
X153831952Y-52187698D01*
X154444976Y-52101543D01*
X154930551Y-51792865D02*
X154829612Y-51758964D01*
X154775829Y-51718435D01*
X154715419Y-51630751D01*
X154708792Y-51583596D01*
X154742693Y-51482657D01*
X154783221Y-51428874D01*
X154870905Y-51368464D01*
X155059528Y-51341955D01*
X155160466Y-51375856D01*
X155214249Y-51416384D01*
X155274659Y-51504068D01*
X155281287Y-51551224D01*
X155247386Y-51652162D01*
X155206857Y-51705945D01*
X155119173Y-51766356D01*
X154930551Y-51792865D01*
X154842867Y-51853275D01*
X154802339Y-51907058D01*
X154768438Y-52007996D01*
X154794947Y-52196619D01*
X154855357Y-52284303D01*
X154909140Y-52324831D01*
X155010078Y-52358732D01*
X155198701Y-52332223D01*
X155286385Y-52271813D01*
X155326913Y-52218030D01*
X155360814Y-52117091D01*
X155334305Y-51928469D01*
X155273895Y-51840785D01*
X155220112Y-51800257D01*
X155119173Y-51766356D01*
%TO.C,SW35*%
X67848174Y-7835004D02*
X67989301Y-7887530D01*
X68227254Y-7895756D01*
X68324080Y-7851456D01*
X68373316Y-7805511D01*
X68424197Y-7711975D01*
X68427488Y-7616794D01*
X68383188Y-7519967D01*
X68337243Y-7470731D01*
X68243707Y-7419850D01*
X68054989Y-7365678D01*
X67961453Y-7314797D01*
X67915508Y-7265561D01*
X67871208Y-7168735D01*
X67874499Y-7073554D01*
X67925380Y-6980018D01*
X67974616Y-6934072D01*
X68071442Y-6889772D01*
X68309395Y-6897999D01*
X68450522Y-6950525D01*
X68785301Y-6914451D02*
X68988704Y-7922081D01*
X69203745Y-7214802D01*
X69369429Y-7935243D01*
X69641932Y-6944066D01*
X69927476Y-6953938D02*
X70546154Y-6975326D01*
X70199858Y-7344534D01*
X70342630Y-7349470D01*
X70436166Y-7400351D01*
X70482111Y-7449587D01*
X70526411Y-7546414D01*
X70518185Y-7784367D01*
X70467303Y-7877903D01*
X70418068Y-7923848D01*
X70321241Y-7968148D01*
X70035697Y-7958277D01*
X69942161Y-7907395D01*
X69896216Y-7858159D01*
X71450376Y-7006586D02*
X70974470Y-6990134D01*
X70910426Y-7464395D01*
X70959662Y-7418449D01*
X71056489Y-7374149D01*
X71294442Y-7382375D01*
X71387978Y-7433257D01*
X71433923Y-7482493D01*
X71478223Y-7579319D01*
X71469997Y-7817272D01*
X71419116Y-7910808D01*
X71369880Y-7956753D01*
X71273053Y-8001053D01*
X71035100Y-7992827D01*
X70941564Y-7941946D01*
X70895619Y-7892710D01*
%TO.C,SW46*%
X125542346Y-40684668D02*
X125690231Y-40713052D01*
X125926251Y-40681686D01*
X126014386Y-40621936D01*
X126055317Y-40568458D01*
X126089974Y-40467777D01*
X126077428Y-40373369D01*
X126017677Y-40285234D01*
X125964200Y-40244303D01*
X125863519Y-40209646D01*
X125668430Y-40187535D01*
X125567748Y-40152877D01*
X125514271Y-40111946D01*
X125454521Y-40023811D01*
X125441974Y-39929403D01*
X125476632Y-39828722D01*
X125517563Y-39775245D01*
X125605698Y-39715494D01*
X125841718Y-39684128D01*
X125989603Y-39712513D01*
X126313758Y-39621396D02*
X126681516Y-40581315D01*
X126776234Y-39848161D01*
X127059148Y-40531129D01*
X127163431Y-39508478D01*
X128009812Y-39732262D02*
X128097636Y-40393118D01*
X127723606Y-39385996D02*
X127581684Y-40125422D01*
X128195336Y-40043871D01*
X128909980Y-39276370D02*
X128721164Y-39301462D01*
X128633029Y-39361213D01*
X128592098Y-39414690D01*
X128516509Y-39568849D01*
X128494398Y-39763938D01*
X128544584Y-40141570D01*
X128604334Y-40229705D01*
X128657812Y-40270636D01*
X128758493Y-40305294D01*
X128947309Y-40280201D01*
X129035444Y-40220450D01*
X129076375Y-40166973D01*
X129111032Y-40066292D01*
X129079666Y-39830272D01*
X129019916Y-39742137D01*
X128966439Y-39701206D01*
X128865757Y-39666548D01*
X128676941Y-39691641D01*
X128588806Y-39751392D01*
X128547876Y-39804869D01*
X128513218Y-39905550D01*
%TO.C,RE4*%
X150459768Y-65720449D02*
X150063405Y-65295283D01*
X149893900Y-65799976D02*
X149754727Y-64809708D01*
X150131972Y-64756690D01*
X150232911Y-64790591D01*
X150286694Y-64831119D01*
X150347104Y-64918803D01*
X150366986Y-65060270D01*
X150333085Y-65161209D01*
X150292556Y-65214991D01*
X150204872Y-65275402D01*
X149827627Y-65328420D01*
X150811268Y-65142091D02*
X151141357Y-65095700D01*
X151355724Y-65594530D02*
X150884168Y-65660803D01*
X150744995Y-64670535D01*
X151216551Y-64604262D01*
X152111744Y-64815060D02*
X152204526Y-65475239D01*
X151822947Y-64470952D02*
X151686578Y-65211422D01*
X152299602Y-65125268D01*
%TO.C,SW27*%
X28724415Y-25668502D02*
X28868862Y-25711056D01*
X29106809Y-25702663D01*
X29200310Y-25651717D01*
X29246221Y-25602449D01*
X29290453Y-25505591D01*
X29287096Y-25410412D01*
X29236150Y-25316912D01*
X29186882Y-25271001D01*
X29090025Y-25226769D01*
X28897988Y-25185893D01*
X28801131Y-25141661D01*
X28751863Y-25095750D01*
X28700916Y-25002249D01*
X28697559Y-24907070D01*
X28741792Y-24810213D01*
X28787703Y-24760945D01*
X28881203Y-24709999D01*
X29119151Y-24701606D01*
X29263597Y-24744160D01*
X29595045Y-24684821D02*
X29868241Y-25675807D01*
X30033421Y-24955251D01*
X30248956Y-25662379D01*
X30451655Y-24654608D01*
X30788139Y-24738038D02*
X30834050Y-24688770D01*
X30927550Y-24637823D01*
X31165497Y-24629431D01*
X31262355Y-24673663D01*
X31311623Y-24719574D01*
X31362569Y-24813075D01*
X31365926Y-24908254D01*
X31323372Y-25052700D01*
X30772440Y-25643916D01*
X31391103Y-25622095D01*
X31688981Y-24610967D02*
X32355234Y-24587469D01*
X31962177Y-25601954D01*
%TO.C,SW25*%
X13207617Y-70397102D02*
X13356980Y-70416249D01*
X13590597Y-70370288D01*
X13674851Y-70305181D01*
X13712383Y-70249265D01*
X13740722Y-70146626D01*
X13722337Y-70053179D01*
X13657230Y-69968924D01*
X13601314Y-69931393D01*
X13498675Y-69903054D01*
X13302589Y-69893099D01*
X13199950Y-69864760D01*
X13144035Y-69827229D01*
X13078927Y-69742974D01*
X13060542Y-69649528D01*
X13088881Y-69546889D01*
X13126413Y-69490973D01*
X13210667Y-69425865D01*
X13444284Y-69379904D01*
X13593647Y-69399051D01*
X13911519Y-69287983D02*
X14338171Y-70223213D01*
X14387182Y-69485593D01*
X14711959Y-70149676D01*
X14752540Y-69122523D01*
X15097988Y-69151625D02*
X15135520Y-69095709D01*
X15219774Y-69030602D01*
X15453391Y-68984641D01*
X15556030Y-69012980D01*
X15611946Y-69050511D01*
X15677054Y-69134766D01*
X15695438Y-69228213D01*
X15676291Y-69377575D01*
X15225916Y-70048562D01*
X15833321Y-69929064D01*
X16528030Y-68773221D02*
X16060796Y-68865142D01*
X16105994Y-69341569D01*
X16143525Y-69285653D01*
X16227780Y-69220545D01*
X16461397Y-69174584D01*
X16564036Y-69202924D01*
X16619952Y-69240455D01*
X16685059Y-69324709D01*
X16731020Y-69558327D01*
X16702681Y-69660966D01*
X16665150Y-69716881D01*
X16580895Y-69781989D01*
X16347278Y-69827950D01*
X16244639Y-69799611D01*
X16188724Y-69762079D01*
%TO.C,LED_15*%
X161623010Y-51493999D02*
X161689283Y-51965555D01*
X160699015Y-52104728D01*
X161057908Y-51236809D02*
X161011517Y-50906720D01*
X161510347Y-50692353D02*
X161576619Y-51163909D01*
X160586351Y-51303082D01*
X160520078Y-50831526D01*
X161450701Y-50267952D02*
X160460433Y-50407125D01*
X160427296Y-50171347D01*
X160454570Y-50023253D01*
X160535627Y-49915687D01*
X160623311Y-49855277D01*
X160805306Y-49781612D01*
X160946773Y-49761731D01*
X161142023Y-49782377D01*
X161242961Y-49816278D01*
X161350527Y-49897335D01*
X161417564Y-50032174D01*
X161450701Y-50267952D01*
X161438976Y-49500208D02*
X161332939Y-48745718D01*
X161132591Y-48004483D02*
X161212118Y-48570350D01*
X161172355Y-48287416D02*
X160182087Y-48426589D01*
X160336808Y-48501019D01*
X160444374Y-48582075D01*
X160504784Y-48669759D01*
X160016404Y-47247699D02*
X160082677Y-47719255D01*
X160560861Y-47700138D01*
X160507078Y-47659609D01*
X160446668Y-47571925D01*
X160413531Y-47336147D01*
X160447432Y-47235209D01*
X160487961Y-47181426D01*
X160575645Y-47121016D01*
X160811423Y-47087879D01*
X160912361Y-47121780D01*
X160966144Y-47162309D01*
X161026554Y-47249993D01*
X161059691Y-47485771D01*
X161025790Y-47586709D01*
X160985261Y-47640492D01*
%TO.C,SW39*%
X86821359Y-14661651D02*
X86963311Y-14711905D01*
X87201366Y-14716309D01*
X87297468Y-14670460D01*
X87345960Y-14623730D01*
X87395333Y-14529389D01*
X87397095Y-14434168D01*
X87351246Y-14338065D01*
X87304516Y-14289573D01*
X87210175Y-14240200D01*
X87020612Y-14189066D01*
X86926271Y-14139693D01*
X86879541Y-14091201D01*
X86833692Y-13995098D01*
X86835454Y-13899877D01*
X86884827Y-13805536D01*
X86933319Y-13758806D01*
X87029422Y-13712957D01*
X87267476Y-13717361D01*
X87409428Y-13767615D01*
X87743585Y-13726171D02*
X87963140Y-14730404D01*
X88166798Y-14019764D01*
X88344027Y-14737451D01*
X88600581Y-13742027D01*
X88886247Y-13747313D02*
X89505188Y-13758765D01*
X89164865Y-14133486D01*
X89307697Y-14136128D01*
X89402038Y-14185501D01*
X89448768Y-14233993D01*
X89494617Y-14330096D01*
X89490213Y-14568150D01*
X89440840Y-14662491D01*
X89392348Y-14709221D01*
X89296245Y-14755070D01*
X89010580Y-14749784D01*
X88916239Y-14700412D01*
X88869509Y-14651920D01*
X89962798Y-14767403D02*
X90153241Y-14770927D01*
X90249344Y-14725078D01*
X90297836Y-14678348D01*
X90395701Y-14537277D01*
X90446835Y-14347714D01*
X90453883Y-13966827D01*
X90408034Y-13870724D01*
X90361304Y-13822232D01*
X90266963Y-13772860D01*
X90076519Y-13769336D01*
X89980416Y-13815185D01*
X89931925Y-13861915D01*
X89882552Y-13956256D01*
X89878147Y-14194310D01*
X89923996Y-14290413D01*
X89970726Y-14338905D01*
X90065067Y-14388278D01*
X90255511Y-14391801D01*
X90351613Y-14345952D01*
X90400105Y-14299222D01*
X90449478Y-14204881D01*
%TO.C,LED_12*%
X54445018Y-100977214D02*
X53981984Y-101088378D01*
X53748539Y-100116008D01*
X54646860Y-100390062D02*
X54970983Y-100312247D01*
X55232174Y-100788234D02*
X54769141Y-100899399D01*
X54535696Y-99927029D01*
X54998729Y-99815864D01*
X55648904Y-100688186D02*
X55415459Y-99715816D01*
X55646975Y-99660234D01*
X55797002Y-99673188D01*
X55911841Y-99743562D01*
X55980378Y-99825052D01*
X56071147Y-99999149D01*
X56104496Y-100138059D01*
X56102659Y-100334388D01*
X56078588Y-100438112D01*
X56008214Y-100552951D01*
X55880421Y-100632604D01*
X55648904Y-100688186D01*
X56411990Y-100602930D02*
X57152844Y-100425066D01*
X57871464Y-100154597D02*
X57315824Y-100287994D01*
X57593644Y-100221295D02*
X57360199Y-99248925D01*
X57300941Y-99410068D01*
X57230568Y-99524908D01*
X57149077Y-99593444D01*
X58030678Y-99185902D02*
X58065865Y-99128482D01*
X58147355Y-99059946D01*
X58378872Y-99004364D01*
X58482595Y-99028434D01*
X58540015Y-99063621D01*
X58608551Y-99145111D01*
X58630784Y-99237718D01*
X58617830Y-99387744D01*
X58195587Y-100076782D01*
X58797531Y-99932268D01*
%TO.C,SW26*%
X30233701Y-104299279D02*
X29973028Y-103333852D01*
X13328972Y-95398148D02*
X13068299Y-94432721D01*
X16717721Y-107948701D02*
X17683148Y-107688028D01*
X29268274Y-104559952D02*
X30233701Y-104299279D01*
X13068299Y-94432721D02*
X14033726Y-94172048D01*
X16457048Y-106983274D02*
X16717721Y-107948701D01*
X26584279Y-90783299D02*
X25618852Y-91043972D01*
X26584279Y-90783299D02*
X26844952Y-91748726D01*
%TO.C,U2*%
X141664750Y-17227547D02*
X148345981Y-16288562D01*
X141058466Y-52228351D02*
X136462970Y-19529700D01*
X154069936Y-17055202D02*
X158665432Y-49753854D01*
X158665432Y-49753854D02*
X141058466Y-52228351D01*
X148345981Y-16288562D02*
X148562507Y-17829221D01*
X141881275Y-18768207D02*
X141664750Y-17227547D01*
X136462970Y-19529700D02*
X154069936Y-17055202D01*
D13*
X158665432Y-49753854D02*
X156204616Y-50099699D01*
X156204616Y-50099699D02*
X151955383Y-19864834D01*
X151955383Y-19864834D02*
X154416199Y-19518989D01*
X154416199Y-19518989D02*
X158665432Y-49753854D01*
X136804281Y-21994183D02*
X139180925Y-21660167D01*
X139180925Y-21660167D02*
X143425704Y-51863343D01*
X143425704Y-51863343D02*
X141049061Y-52197359D01*
X141049061Y-52197359D02*
X136804281Y-21994183D01*
D10*
%TO.C,SW33*%
X60440805Y-66970056D02*
X60292823Y-65981066D01*
X46446962Y-68052814D02*
X46594944Y-69041805D01*
X59451814Y-67118038D02*
X60440805Y-66970056D01*
X58369056Y-53124195D02*
X58517038Y-54113186D01*
X44523195Y-55195944D02*
X45512186Y-55047962D01*
X44671177Y-56184934D02*
X44523195Y-55195944D01*
X46594944Y-69041805D02*
X47583934Y-68893823D01*
X58369056Y-53124195D02*
X57380066Y-53272177D01*
D13*
%TO.C,LED_11*%
X9930373Y-86743222D02*
X8385762Y-87160568D01*
X13992238Y-93725432D02*
X11957674Y-86195455D01*
X8385762Y-87160568D02*
X10420326Y-94690545D01*
G36*
X8654967Y-88075626D02*
G01*
X8385762Y-87160568D01*
X9158067Y-86951895D01*
X8654967Y-88075626D01*
G37*
X8654967Y-88075626D02*
X8385762Y-87160568D01*
X9158067Y-86951895D01*
X8654967Y-88075626D01*
D10*
%TO.C,SW36*%
X76136912Y-28331611D02*
X75137533Y-28366860D01*
X76136912Y-28331611D02*
X76172160Y-29330990D01*
X75631010Y-42358160D02*
X76630389Y-42322912D01*
X62603840Y-41817010D02*
X62639088Y-42816389D01*
X62180860Y-29824467D02*
X62145611Y-28825088D01*
X62145611Y-28825088D02*
X63144990Y-28789840D01*
X62639088Y-42816389D02*
X63638467Y-42781140D01*
X76630389Y-42322912D02*
X76595140Y-41323533D01*
D13*
%TO.C,LED_8*%
X117569161Y-13894792D02*
X117346484Y-15479221D01*
X117346484Y-15479221D02*
X125070575Y-16564771D01*
X125585516Y-12900779D02*
X117861425Y-11815229D01*
G36*
X118293754Y-15590943D02*
G01*
X117346484Y-15479221D01*
X117457823Y-14687006D01*
X118293754Y-15590943D01*
G37*
X118293754Y-15590943D02*
X117346484Y-15479221D01*
X117457823Y-14687006D01*
X118293754Y-15590943D01*
D10*
%TO.C,SW47*%
X137275740Y-59617968D02*
X137524261Y-60586595D01*
X140755032Y-73178740D02*
X140506511Y-72210113D01*
X137275740Y-59617968D02*
X136307113Y-59866489D01*
X126945739Y-75689405D02*
X127194260Y-76658032D01*
X139786405Y-73427261D02*
X140755032Y-73178740D01*
X127194260Y-76658032D02*
X128162887Y-76409511D01*
X123963489Y-64065887D02*
X123714968Y-63097260D01*
X123714968Y-63097260D02*
X124683595Y-62848739D01*
%TO.C,SW38*%
X66517939Y-70915601D02*
X66285002Y-69943109D01*
X69313173Y-82585506D02*
X69546109Y-83557998D01*
X82188506Y-80529827D02*
X83160998Y-80296891D01*
X79899891Y-66682002D02*
X78927399Y-66914939D01*
X83160998Y-80296891D02*
X82928061Y-79324399D01*
X69546109Y-83557998D02*
X70518601Y-83325061D01*
X66285002Y-69943109D02*
X67257494Y-69710173D01*
X79899891Y-66682002D02*
X80132827Y-67654494D01*
%TO.C,SW37*%
X65055031Y-63326402D02*
X66046201Y-63193799D01*
X63331201Y-50441201D02*
X63198598Y-49450031D01*
X64922429Y-62335233D02*
X65055031Y-63326402D01*
X63198598Y-49450031D02*
X64189767Y-49317429D01*
X77074969Y-47593598D02*
X77207571Y-48584767D01*
X77940233Y-61602571D02*
X78931402Y-61469969D01*
X78931402Y-61469969D02*
X78798799Y-60478799D01*
X77074969Y-47593598D02*
X76083799Y-47726201D01*
%TO.C,SW44*%
X120120533Y-72050193D02*
X119932294Y-71068070D01*
X106182567Y-73703408D02*
X106370806Y-74685532D01*
X106370806Y-74685532D02*
X107352929Y-74497293D01*
X117485194Y-58300466D02*
X117673433Y-59282590D01*
X103923706Y-61917928D02*
X103735467Y-60935805D01*
X119138409Y-72238432D02*
X120120533Y-72050193D01*
X117485194Y-58300466D02*
X116503071Y-58488705D01*
X103735467Y-60935805D02*
X104717591Y-60747566D01*
D13*
%TO.C,RE3*%
X23180692Y-81151452D02*
X23489549Y-82721359D01*
X19564606Y-71059677D02*
X21134513Y-70750820D01*
X11602630Y-83429274D02*
X11911487Y-84999180D01*
X11911487Y-84999180D02*
X13481394Y-84690323D01*
X21919642Y-83030216D02*
X23489549Y-82721359D01*
X21134513Y-70750820D02*
X21443370Y-72320726D01*
X19523000Y-77875000D02*
G75*
G03*
X19523000Y-77875000I-3000000J0D01*
G01*
D10*
%TO.C,SW30*%
X31457438Y-89467219D02*
X32422820Y-89206378D01*
X31718279Y-90432601D02*
X31457438Y-89467219D01*
X34848378Y-102017180D02*
X35109219Y-102982562D01*
X44972781Y-85815438D02*
X44007399Y-86076279D01*
X44972781Y-85815438D02*
X45233622Y-86780820D01*
X48624562Y-99330781D02*
X48363721Y-98365399D01*
X35109219Y-102982562D02*
X36074601Y-102721721D01*
X47659180Y-99591622D02*
X48624562Y-99330781D01*
%TO.C,SW_RESET2*%
X163704786Y-38714059D02*
X163457219Y-38748852D01*
X164498072Y-44358587D02*
X163704786Y-38714059D01*
X161329214Y-44803941D02*
X161576781Y-44769148D01*
X164498072Y-44358587D02*
X164250505Y-44393380D01*
X160535928Y-39159413D02*
X160783495Y-39124620D01*
X161329214Y-44803941D02*
X160535928Y-39159413D01*
%TO.C,SW45*%
X133725838Y-21185512D02*
X132726029Y-21205059D01*
X133725838Y-21185512D02*
X133745384Y-22185321D01*
X119748059Y-22458971D02*
X119728512Y-21459162D01*
X119728512Y-21459162D02*
X120728321Y-21439616D01*
X132999679Y-35202384D02*
X133999488Y-35182838D01*
X119982616Y-34456679D02*
X120002162Y-35456488D01*
X133999488Y-35182838D02*
X133979941Y-34183029D01*
X120002162Y-35456488D02*
X121001971Y-35436941D01*
%TO.C,LED_9*%
G36*
X53200754Y-7630943D02*
G01*
X52253484Y-7519221D01*
X52364823Y-6727006D01*
X53200754Y-7630943D01*
G37*
D13*
X53200754Y-7630943D02*
X52253484Y-7519221D01*
X52364823Y-6727006D01*
X53200754Y-7630943D01*
X60492516Y-4940779D02*
X52768425Y-3855229D01*
X52476161Y-5934792D02*
X52253484Y-7519221D01*
X52253484Y-7519221D02*
X59977575Y-8604771D01*
D10*
%TO.C,SW40*%
X95517691Y-35088395D02*
X94520884Y-35168246D01*
X82600458Y-49164798D02*
X82680309Y-50161605D01*
X82680309Y-50161605D02*
X83677116Y-50081754D01*
X81642246Y-37203116D02*
X81562395Y-36206309D01*
X81562395Y-36206309D02*
X82559202Y-36126458D01*
X96635605Y-49043691D02*
X96555754Y-48046884D01*
X95638798Y-49123542D02*
X96635605Y-49043691D01*
X95517691Y-35088395D02*
X95597542Y-36085202D01*
%TO.C,TRRS2*%
X155512099Y-19016142D02*
X161255653Y-18208938D01*
X162890937Y-29844588D02*
X157147383Y-30651792D01*
X161255653Y-18208938D02*
X162890937Y-29844588D01*
X157147383Y-30651792D02*
X155512099Y-19016142D01*
%TO.C,SW42*%
X100649721Y-20994507D02*
X100644660Y-19994520D01*
X113715353Y-33928542D02*
X114715340Y-33923480D01*
X114644480Y-19923660D02*
X114649542Y-20923647D01*
X100710458Y-32994353D02*
X100715520Y-33994340D01*
X100715520Y-33994340D02*
X101715507Y-33989279D01*
X114644480Y-19923660D02*
X113644493Y-19928721D01*
X114715340Y-33923480D02*
X114710279Y-32923493D01*
X100644660Y-19994520D02*
X101644647Y-19989458D01*
%TO.C,SW34*%
X63888228Y-85980539D02*
X64858523Y-85738617D01*
X61471617Y-72154477D02*
X60501321Y-72396399D01*
X48129399Y-76511679D02*
X47887477Y-75541383D01*
X51032461Y-88155228D02*
X51274383Y-89125523D01*
X64858523Y-85738617D02*
X64616601Y-84768321D01*
X51274383Y-89125523D02*
X52244679Y-88883601D01*
X47887477Y-75541383D02*
X48857772Y-75299461D01*
X61471617Y-72154477D02*
X61713539Y-73124772D01*
D13*
%TO.C,LED_14*%
X157923369Y-70658679D02*
X150338883Y-72479553D01*
X151202631Y-76077321D02*
X158787117Y-74256447D01*
X150829119Y-74521529D02*
X151202631Y-76077321D01*
G36*
X152124934Y-75834094D02*
G01*
X151202631Y-76077321D01*
X151015875Y-75299425D01*
X152124934Y-75834094D01*
G37*
X152124934Y-75834094D02*
X151202631Y-76077321D01*
X151015875Y-75299425D01*
X152124934Y-75834094D01*
D10*
%TO.C,SW28*%
X38394181Y-45514005D02*
X37398668Y-45608635D01*
X24551635Y-47834332D02*
X24457005Y-46838819D01*
X24457005Y-46838819D02*
X25452518Y-46744190D01*
X25781819Y-60775995D02*
X26777332Y-60681365D01*
X38723482Y-59545810D02*
X39718995Y-59451181D01*
X39718995Y-59451181D02*
X39624365Y-58455668D01*
X38394181Y-45514005D02*
X38488810Y-46509518D01*
X25687190Y-59780482D02*
X25781819Y-60775995D01*
%TO.C,SW32*%
X56931061Y-33922995D02*
X56994200Y-34920999D01*
X43842939Y-48779005D02*
X44840944Y-48715867D01*
X56931061Y-33922995D02*
X55933056Y-33986133D01*
X43022133Y-35804944D02*
X42958995Y-34806939D01*
X57815005Y-47895061D02*
X57751867Y-46897056D01*
X42958995Y-34806939D02*
X43956999Y-34743800D01*
X56817001Y-47958200D02*
X57815005Y-47895061D01*
X43779800Y-47781001D02*
X43842939Y-48779005D01*
%TO.C,SW41*%
X86174669Y-70655059D02*
X87157411Y-70470079D01*
X85989688Y-69672317D02*
X86174669Y-70655059D01*
X83584941Y-56896669D02*
X84567683Y-56711688D01*
X97343331Y-54306941D02*
X97528312Y-55289683D01*
X98950317Y-68250312D02*
X99933059Y-68065331D01*
X99933059Y-68065331D02*
X99748079Y-67082589D01*
X83769921Y-57879411D02*
X83584941Y-56896669D01*
X97343331Y-54306941D02*
X96360589Y-54491921D01*
%TO.C,SW29*%
X43170775Y-78428263D02*
X42978595Y-77446903D01*
X29431737Y-81118775D02*
X30413097Y-80926595D01*
X40480263Y-64689225D02*
X40672442Y-65670585D01*
X40480263Y-64689225D02*
X39498903Y-64881405D01*
X26741225Y-67379737D02*
X27722585Y-67187558D01*
X42189415Y-78620442D02*
X43170775Y-78428263D01*
X29239558Y-80137415D02*
X29431737Y-81118775D01*
X26933405Y-68361097D02*
X26741225Y-67379737D01*
D13*
%TO.C,LED_10*%
X8172000Y-43297000D02*
X8172000Y-35497000D01*
X4472000Y-35497000D02*
X4472000Y-43297000D01*
X6072000Y-35497000D02*
X4472000Y-35497000D01*
G36*
X4493200Y-36450600D02*
G01*
X4472000Y-35497000D01*
X5272000Y-35497000D01*
X4493200Y-36450600D01*
G37*
X4493200Y-36450600D02*
X4472000Y-35497000D01*
X5272000Y-35497000D01*
X4493200Y-36450600D01*
%TO.C,J4*%
X31435195Y-86566441D02*
X30683971Y-83786142D01*
X31889326Y-80694715D02*
X32999515Y-80394747D01*
X32999515Y-80394747D02*
X33273399Y-81408398D01*
X34033443Y-88630152D02*
X35143632Y-88330184D01*
X34869749Y-87316534D02*
X35825476Y-87058301D01*
X35143632Y-88330184D02*
X34869749Y-87316534D01*
%TO.C,J2*%
X7643602Y-76195771D02*
X8753791Y-75895803D01*
X7131357Y-69891129D02*
X7405240Y-70904780D01*
X5306195Y-75097441D02*
X4554971Y-72317142D01*
X8753791Y-75895803D02*
X8479907Y-74882152D01*
X6021168Y-70191097D02*
X7131357Y-69891129D01*
X8479907Y-74882152D02*
X9435635Y-74623919D01*
D10*
%TO.C,SW31*%
X42906850Y-27121759D02*
X42871079Y-28121119D01*
X57362921Y-14630881D02*
X56363561Y-14595110D01*
X43371881Y-14130079D02*
X44371241Y-14165850D01*
X42871079Y-28121119D02*
X43870439Y-28156890D01*
X57362921Y-14630881D02*
X57327150Y-15630241D01*
X43336110Y-15129439D02*
X43371881Y-14130079D01*
X56862119Y-28621921D02*
X56897890Y-27622561D01*
X55862759Y-28586150D02*
X56862119Y-28621921D01*
D13*
%TO.C,BAT2*%
X160640307Y-42057259D02*
X160278457Y-39482562D01*
X160640307Y-42057259D02*
X158006194Y-42427460D01*
X160278457Y-39482562D02*
X157644344Y-39852763D01*
X160817057Y-43314900D02*
X161002157Y-44631956D01*
X161002157Y-44631956D02*
X159685100Y-44817057D01*
X158006194Y-42427460D02*
X157644344Y-39852763D01*
%TO.C,LED_13*%
X100234631Y-88284321D02*
X107819117Y-86463447D01*
X106955369Y-82865679D02*
X99370883Y-84686553D01*
X99861119Y-86728529D02*
X100234631Y-88284321D01*
G36*
X101156934Y-88041094D02*
G01*
X100234631Y-88284321D01*
X100047875Y-87506425D01*
X101156934Y-88041094D01*
G37*
X101156934Y-88041094D02*
X100234631Y-88284321D01*
X100047875Y-87506425D01*
X101156934Y-88041094D01*
D10*
%TO.C,SW43*%
X116633800Y-53134817D02*
X116519730Y-52141345D01*
X115036817Y-39226200D02*
X115150887Y-40219672D01*
X101128200Y-40823183D02*
X102121672Y-40709113D01*
X115036817Y-39226200D02*
X114043345Y-39340270D01*
X115640328Y-53248887D02*
X116633800Y-53134817D01*
X102611113Y-53738328D02*
X102725183Y-54731800D01*
X101242270Y-41816655D02*
X101128200Y-40823183D01*
X102725183Y-54731800D02*
X103718655Y-54617730D01*
%TO.C,SW48*%
X160656665Y-52503912D02*
X160795838Y-53494180D01*
X146792912Y-54452335D02*
X147783180Y-54313162D01*
X162605088Y-66367665D02*
X162465915Y-65377397D01*
X148602162Y-67325820D02*
X148741335Y-68316088D01*
X161614820Y-66506838D02*
X162605088Y-66367665D01*
X160656665Y-52503912D02*
X159666397Y-52643085D01*
X148741335Y-68316088D02*
X149731603Y-68176915D01*
X146932085Y-55442603D02*
X146792912Y-54452335D01*
%TO.C,SW35*%
X76618675Y-9116034D02*
X75619272Y-9081483D01*
X62143325Y-22623966D02*
X63142728Y-22658517D01*
X62627034Y-8632325D02*
X63626437Y-8666876D01*
X62592483Y-9631728D02*
X62627034Y-8632325D01*
X76618675Y-9116034D02*
X76584124Y-10115437D01*
X76134966Y-23107675D02*
X76169517Y-22108272D01*
X62177876Y-21624563D02*
X62143325Y-22623966D01*
X75135563Y-23073124D02*
X76134966Y-23107675D01*
%TO.C,SW46*%
X122370169Y-56215154D02*
X123361454Y-56083417D01*
X134403831Y-40492846D02*
X134535568Y-41484130D01*
X120657583Y-43328454D02*
X120525846Y-42337169D01*
X134403831Y-40492846D02*
X133412546Y-40624583D01*
X122238432Y-55223870D02*
X122370169Y-56215154D01*
X120525846Y-42337169D02*
X121517130Y-42205432D01*
X135256870Y-54502568D02*
X136248154Y-54370831D01*
X136248154Y-54370831D02*
X136116417Y-53379546D01*
D13*
%TO.C,RE4*%
X159692626Y-53548243D02*
X159915303Y-55132672D01*
X149705374Y-67271757D02*
X151289803Y-67049080D01*
X148007462Y-55190486D02*
X149591891Y-54967809D01*
X158108197Y-53770920D02*
X159692626Y-53548243D01*
X161167861Y-64045085D02*
X161390538Y-65629514D01*
X159806109Y-65852191D02*
X161390538Y-65629514D01*
X148230139Y-56774915D02*
X148007462Y-55190486D01*
X149482697Y-65687328D02*
X149705374Y-67271757D01*
X157699000Y-60410000D02*
G75*
G03*
X157699000Y-60410000I-3000000J0D01*
G01*
%TO.C,G\u002A\u002A\u002A*%
G36*
X36250343Y-15701905D02*
G01*
X36429274Y-15704530D01*
X36560064Y-15710519D01*
X36655452Y-15721141D01*
X36728179Y-15737671D01*
X36790983Y-15761380D01*
X36837952Y-15783986D01*
X36988409Y-15885919D01*
X37083731Y-16017433D01*
X37130817Y-16191304D01*
X37138797Y-16341142D01*
X37109961Y-16606065D01*
X37026442Y-16822047D01*
X36887712Y-16990027D01*
X36708551Y-17104048D01*
X36639898Y-17130626D01*
X36558684Y-17149487D01*
X36451473Y-17161883D01*
X36304828Y-17169065D01*
X36105315Y-17172283D01*
X35970152Y-17172815D01*
X35728239Y-17174393D01*
X35549571Y-17180385D01*
X35423782Y-17193815D01*
X35340506Y-17217703D01*
X35289377Y-17255075D01*
X35260030Y-17308952D01*
X35242099Y-17382357D01*
X35241556Y-17385290D01*
X35219522Y-17504928D01*
X37019636Y-17504928D01*
X36792102Y-17817826D01*
X36564568Y-18130725D01*
X34591884Y-18130725D01*
X34592558Y-18047899D01*
X34598564Y-17963892D01*
X34613740Y-17831920D01*
X34635131Y-17672068D01*
X34659780Y-17504418D01*
X34684730Y-17349056D01*
X34707026Y-17226063D01*
X34723711Y-17155525D01*
X34724076Y-17154477D01*
X34808622Y-17001999D01*
X34937991Y-16862533D01*
X35084567Y-16765498D01*
X35153159Y-16739069D01*
X35232989Y-16720182D01*
X35337304Y-16707626D01*
X35479352Y-16700191D01*
X35672380Y-16696669D01*
X35846976Y-16695881D01*
X36075581Y-16694818D01*
X36241974Y-16691553D01*
X36357559Y-16684931D01*
X36433739Y-16673794D01*
X36481919Y-16656988D01*
X36513501Y-16633355D01*
X36518787Y-16627754D01*
X36571924Y-16528450D01*
X36569406Y-16426778D01*
X36535536Y-16371131D01*
X36493600Y-16355011D01*
X36400592Y-16342819D01*
X36251186Y-16334276D01*
X36040055Y-16329105D01*
X35761875Y-16327027D01*
X35689710Y-16326957D01*
X34888057Y-16326957D01*
X35117289Y-16014270D01*
X35346522Y-15701583D01*
X36010533Y-15701371D01*
X36250343Y-15701905D01*
G37*
G36*
X33693495Y-15709513D02*
G01*
X33721162Y-15709768D01*
X34741367Y-15719566D01*
X34518434Y-16023261D01*
X34295501Y-16326957D01*
X33725866Y-16326957D01*
X33502674Y-16328138D01*
X33343660Y-16332239D01*
X33239409Y-16340097D01*
X33180505Y-16352548D01*
X33157532Y-16370429D01*
X33156232Y-16377573D01*
X33149310Y-16448390D01*
X33133387Y-16542415D01*
X33110541Y-16656640D01*
X33809933Y-16666654D01*
X34509324Y-16676667D01*
X34302519Y-16961957D01*
X34095715Y-17247247D01*
X33573237Y-17247247D01*
X33365607Y-17248100D01*
X33220146Y-17251568D01*
X33125409Y-17259015D01*
X33069951Y-17271807D01*
X33042328Y-17291307D01*
X33032850Y-17311667D01*
X33021025Y-17374122D01*
X33003510Y-17490808D01*
X32983030Y-17642812D01*
X32969199Y-17753406D01*
X32923457Y-18130725D01*
X32634917Y-18130725D01*
X32475742Y-18126602D01*
X32382143Y-18113426D01*
X32346492Y-18089982D01*
X32345642Y-18084711D01*
X32350180Y-18025212D01*
X32363640Y-17906469D01*
X32384528Y-17739135D01*
X32411350Y-17533861D01*
X32442612Y-17301299D01*
X32476821Y-17052100D01*
X32512482Y-16796916D01*
X32548102Y-16546399D01*
X32582186Y-16311200D01*
X32613242Y-16101971D01*
X32639774Y-15929364D01*
X32660290Y-15804030D01*
X32673296Y-15736621D01*
X32676132Y-15728174D01*
X32718042Y-15721157D01*
X32823901Y-15715476D01*
X32984041Y-15711301D01*
X33188797Y-15708802D01*
X33428504Y-15708149D01*
X33693495Y-15709513D01*
G37*
G36*
X23150520Y-16546691D02*
G01*
X23091645Y-16766425D01*
X22688036Y-16776764D01*
X22284427Y-16787102D01*
X22111726Y-17431305D01*
X21939024Y-18075508D01*
X21567351Y-18085981D01*
X21195678Y-18096453D01*
X21246758Y-17920328D01*
X21275604Y-17817552D01*
X21317680Y-17663426D01*
X21367604Y-17477832D01*
X21419999Y-17280652D01*
X21426383Y-17256450D01*
X21554927Y-16768696D01*
X20758432Y-16768696D01*
X20817611Y-16547826D01*
X20876790Y-16326957D01*
X23209394Y-16326957D01*
X23150520Y-16546691D01*
G37*
G36*
X18229641Y-16920986D02*
G01*
X18336236Y-16700078D01*
X18445223Y-16561322D01*
X18540990Y-16475780D01*
X18641781Y-16412218D01*
X18761273Y-16366791D01*
X18913139Y-16335657D01*
X19111054Y-16314972D01*
X19368693Y-16300895D01*
X19372440Y-16300740D01*
X19726094Y-16296653D01*
X20014398Y-16317806D01*
X20241988Y-16366584D01*
X20413499Y-16445372D01*
X20533567Y-16556557D01*
X20606827Y-16702521D01*
X20637917Y-16885651D01*
X20639715Y-16952754D01*
X20614472Y-17258884D01*
X20542096Y-17527460D01*
X20426409Y-17751609D01*
X20271233Y-17924460D01*
X20080388Y-18039140D01*
X20024702Y-18058793D01*
X19902193Y-18083028D01*
X19725539Y-18101106D01*
X19513853Y-18112792D01*
X19286246Y-18117852D01*
X19061832Y-18116051D01*
X18859724Y-18107154D01*
X18699035Y-18090926D01*
X18624619Y-18075992D01*
X18418662Y-18002544D01*
X18276478Y-17909468D01*
X18188612Y-17784726D01*
X18145606Y-17616280D01*
X18137101Y-17455416D01*
X18142409Y-17394567D01*
X18883838Y-17394567D01*
X18910986Y-17534821D01*
X18989030Y-17629178D01*
X19032189Y-17651917D01*
X19161065Y-17679956D01*
X19324379Y-17684159D01*
X19487280Y-17665574D01*
X19593862Y-17635012D01*
X19710166Y-17548503D01*
X19804147Y-17401085D01*
X19869863Y-17203627D01*
X19889700Y-17093703D01*
X19890932Y-16943454D01*
X19842447Y-16839004D01*
X19738058Y-16773922D01*
X19571577Y-16741773D01*
X19549436Y-16739988D01*
X19332593Y-16743370D01*
X19168819Y-16791551D01*
X19050123Y-16888191D01*
X18983905Y-16999089D01*
X18908004Y-17214096D01*
X18883838Y-17394567D01*
X18142409Y-17394567D01*
X18161245Y-17178621D01*
X18229641Y-16920986D01*
G37*
G36*
X26645771Y-16297527D02*
G01*
X26768647Y-16333303D01*
X26832627Y-16387469D01*
X26926526Y-16503567D01*
X27047383Y-16677656D01*
X27162630Y-16857868D01*
X27293225Y-17067122D01*
X27390781Y-17220279D01*
X27460671Y-17324048D01*
X27508269Y-17385138D01*
X27538951Y-17410257D01*
X27558091Y-17406116D01*
X27571064Y-17379423D01*
X27573684Y-17370989D01*
X27594834Y-17296851D01*
X27629839Y-17171089D01*
X27673364Y-17013161D01*
X27720075Y-16842521D01*
X27764641Y-16678627D01*
X27801726Y-16540933D01*
X27817005Y-16483406D01*
X27858200Y-16326957D01*
X28151274Y-16326957D01*
X28287658Y-16330150D01*
X28390210Y-16338631D01*
X28441477Y-16350757D01*
X28444264Y-16354566D01*
X28434608Y-16406183D01*
X28408151Y-16515462D01*
X28368493Y-16669327D01*
X28319233Y-16854699D01*
X28263972Y-17058499D01*
X28206309Y-17267652D01*
X28149845Y-17469079D01*
X28098178Y-17649702D01*
X28054910Y-17796443D01*
X28023639Y-17896225D01*
X28009617Y-17933571D01*
X27927724Y-18017448D01*
X27795247Y-18081370D01*
X27633501Y-18121226D01*
X27463798Y-18132908D01*
X27307454Y-18112306D01*
X27230847Y-18083720D01*
X27177503Y-18035109D01*
X27094622Y-17932376D01*
X26989354Y-17785229D01*
X26868848Y-17603376D01*
X26818151Y-17523364D01*
X26708498Y-17350624D01*
X26610694Y-17201187D01*
X26531965Y-17085728D01*
X26479532Y-17014922D01*
X26462416Y-16997666D01*
X26438464Y-17025401D01*
X26403415Y-17109107D01*
X26363391Y-17233177D01*
X26347075Y-17291680D01*
X26298740Y-17472269D01*
X26247655Y-17662597D01*
X26204192Y-17824025D01*
X26200896Y-17836232D01*
X26136271Y-18075508D01*
X25833283Y-18086247D01*
X25684783Y-18090161D01*
X25596291Y-18087179D01*
X25554314Y-18074677D01*
X25545360Y-18050031D01*
X25549425Y-18031030D01*
X25564397Y-17976355D01*
X25594969Y-17862444D01*
X25637953Y-17701246D01*
X25690164Y-17504713D01*
X25748417Y-17284794D01*
X25758347Y-17247247D01*
X25819427Y-17024003D01*
X25878566Y-16821993D01*
X25931918Y-16653295D01*
X25975635Y-16529993D01*
X26005870Y-16464165D01*
X26009070Y-16459920D01*
X26125573Y-16374389D01*
X26287115Y-16316048D01*
X26468810Y-16289045D01*
X26645771Y-16297527D01*
G37*
G36*
X37522964Y-17098803D02*
G01*
X37677610Y-16946789D01*
X37853558Y-16776720D01*
X38042496Y-16596444D01*
X38236115Y-16413812D01*
X38426106Y-16236672D01*
X38604158Y-16072876D01*
X38761963Y-15930273D01*
X38891210Y-15816712D01*
X38983589Y-15740043D01*
X39023341Y-15711667D01*
X39157326Y-15668800D01*
X39287105Y-15685652D01*
X39375957Y-15744913D01*
X39413336Y-15797834D01*
X39437193Y-15868446D01*
X39447538Y-15966665D01*
X39444380Y-16102408D01*
X39427727Y-16285592D01*
X39397590Y-16526133D01*
X39376815Y-16675606D01*
X39350518Y-16862582D01*
X39328425Y-17023140D01*
X39312413Y-17143369D01*
X39304360Y-17209359D01*
X39303768Y-17216964D01*
X39337471Y-17231707D01*
X39426174Y-17245088D01*
X39551263Y-17254375D01*
X39561757Y-17254837D01*
X39819745Y-17265653D01*
X39624315Y-17541740D01*
X39507762Y-17695586D01*
X39417287Y-17789353D01*
X39346812Y-17829190D01*
X39338717Y-17830741D01*
X39247330Y-17863454D01*
X39202976Y-17937785D01*
X39193897Y-18029493D01*
X39193333Y-18130725D01*
X38641159Y-18130725D01*
X38641159Y-17836232D01*
X37358097Y-17836232D01*
X37281802Y-17739239D01*
X37217461Y-17620802D01*
X37216569Y-17498042D01*
X37269927Y-17368011D01*
X37310813Y-17317264D01*
X37378960Y-17245019D01*
X38144203Y-17245019D01*
X38740125Y-17247247D01*
X38782643Y-16946591D01*
X38801136Y-16807569D01*
X38813189Y-16700353D01*
X38816906Y-16642558D01*
X38815986Y-16637341D01*
X38787233Y-16657543D01*
X38715465Y-16718904D01*
X38611266Y-16812112D01*
X38485223Y-16927854D01*
X38475507Y-16936883D01*
X38144203Y-17245019D01*
X37378960Y-17245019D01*
X37397928Y-17224911D01*
X37522964Y-17098803D01*
G37*
G36*
X23125583Y-16920986D02*
G01*
X23232178Y-16700078D01*
X23341165Y-16561322D01*
X23436932Y-16475780D01*
X23537723Y-16412218D01*
X23657215Y-16366791D01*
X23809081Y-16335657D01*
X24006996Y-16314972D01*
X24264635Y-16300895D01*
X24268382Y-16300740D01*
X24622036Y-16296653D01*
X24910340Y-16317806D01*
X25137930Y-16366584D01*
X25309441Y-16445372D01*
X25429509Y-16556557D01*
X25502769Y-16702521D01*
X25533859Y-16885651D01*
X25535657Y-16952754D01*
X25510414Y-17258884D01*
X25438038Y-17527460D01*
X25322351Y-17751609D01*
X25167175Y-17924460D01*
X24976330Y-18039140D01*
X24920644Y-18058793D01*
X24798135Y-18083028D01*
X24621481Y-18101106D01*
X24409795Y-18112792D01*
X24182188Y-18117852D01*
X23957774Y-18116051D01*
X23755666Y-18107154D01*
X23594977Y-18090926D01*
X23520561Y-18075992D01*
X23314604Y-18002544D01*
X23172420Y-17909468D01*
X23084554Y-17784726D01*
X23041548Y-17616280D01*
X23033043Y-17455416D01*
X23038351Y-17394567D01*
X23779780Y-17394567D01*
X23806928Y-17534821D01*
X23884972Y-17629178D01*
X23928131Y-17651917D01*
X24057007Y-17679956D01*
X24220321Y-17684159D01*
X24383222Y-17665574D01*
X24489804Y-17635012D01*
X24606109Y-17548503D01*
X24700089Y-17401085D01*
X24765805Y-17203627D01*
X24785642Y-17093703D01*
X24786874Y-16943454D01*
X24738389Y-16839004D01*
X24634000Y-16773922D01*
X24467519Y-16741773D01*
X24445378Y-16739988D01*
X24228535Y-16743370D01*
X24064761Y-16791551D01*
X23946065Y-16888191D01*
X23879847Y-16999089D01*
X23803946Y-17214096D01*
X23779780Y-17394567D01*
X23038351Y-17394567D01*
X23057187Y-17178621D01*
X23125583Y-16920986D01*
G37*
G36*
X29422559Y-16335664D02*
G01*
X29480255Y-16347025D01*
X29494752Y-16367086D01*
X29493554Y-16371691D01*
X29479138Y-16420273D01*
X29449558Y-16525993D01*
X29408063Y-16676803D01*
X29357904Y-16860655D01*
X29302329Y-17065500D01*
X29244588Y-17279291D01*
X29187931Y-17489979D01*
X29135607Y-17685516D01*
X29090866Y-17853853D01*
X29056958Y-17982942D01*
X29037131Y-18060735D01*
X29033333Y-18078024D01*
X28999118Y-18084688D01*
X28906852Y-18089977D01*
X28772105Y-18093220D01*
X28664516Y-18093913D01*
X28295699Y-18093913D01*
X28318966Y-18001209D01*
X28335186Y-17939192D01*
X28367456Y-17817915D01*
X28412612Y-17649191D01*
X28467491Y-17444830D01*
X28528929Y-17216644D01*
X28553124Y-17126933D01*
X28764014Y-16345363D01*
X29137285Y-16334879D01*
X29311593Y-16331963D01*
X29422559Y-16335664D01*
G37*
G36*
X18105524Y-16542727D02*
G01*
X18047816Y-16764223D01*
X17389937Y-16775662D01*
X16732057Y-16787102D01*
X16629553Y-16901916D01*
X16553023Y-17020787D01*
X16492762Y-17174457D01*
X16457331Y-17333408D01*
X16455297Y-17468124D01*
X16459374Y-17488474D01*
X16509131Y-17572503D01*
X16612324Y-17625403D01*
X16775484Y-17649796D01*
X16866868Y-17652174D01*
X17005067Y-17643546D01*
X17095986Y-17608298D01*
X17155354Y-17532390D01*
X17198897Y-17401780D01*
X17212663Y-17343435D01*
X17258903Y-17136812D01*
X17624379Y-17136812D01*
X17778306Y-17138286D01*
X17900233Y-17142258D01*
X17974519Y-17148055D01*
X17989855Y-17152561D01*
X17979684Y-17207525D01*
X17952993Y-17312889D01*
X17915517Y-17448870D01*
X17872990Y-17595691D01*
X17831145Y-17733570D01*
X17795717Y-17842726D01*
X17772439Y-17903380D01*
X17771910Y-17904391D01*
X17727913Y-17969287D01*
X17668098Y-18017755D01*
X17582169Y-18051994D01*
X17459829Y-18074206D01*
X17290782Y-18086590D01*
X17064732Y-18091346D01*
X16896538Y-18091451D01*
X16587991Y-18086362D01*
X16349601Y-18073882D01*
X16182575Y-18054092D01*
X16118679Y-18039235D01*
X15933255Y-17955540D01*
X15806266Y-17834577D01*
X15732716Y-17669029D01*
X15707611Y-17451579D01*
X15707536Y-17437010D01*
X15726104Y-17221550D01*
X15776762Y-17002937D01*
X15851946Y-16805042D01*
X15944087Y-16651740D01*
X15963713Y-16628720D01*
X16067178Y-16538438D01*
X16197542Y-16453305D01*
X16250198Y-16426256D01*
X16311010Y-16400340D01*
X16374104Y-16380359D01*
X16450161Y-16365363D01*
X16549861Y-16354402D01*
X16683886Y-16346523D01*
X16862915Y-16340775D01*
X17097629Y-16336209D01*
X17294296Y-16333296D01*
X18163231Y-16321230D01*
X18105524Y-16542727D01*
G37*
G36*
X12378027Y-15554559D02*
G01*
X12650895Y-15556395D01*
X12890629Y-15559267D01*
X13088843Y-15563022D01*
X13237149Y-15567509D01*
X13327162Y-15572573D01*
X13351594Y-15577094D01*
X13342480Y-15621100D01*
X13318255Y-15717596D01*
X13283595Y-15848157D01*
X13272196Y-15889992D01*
X13192797Y-16179711D01*
X12339205Y-16179711D01*
X12051010Y-16180085D01*
X11827618Y-16182686D01*
X11660207Y-16189731D01*
X11539957Y-16203438D01*
X11458048Y-16226025D01*
X11405659Y-16259708D01*
X11373969Y-16306705D01*
X11354157Y-16369234D01*
X11341198Y-16430604D01*
X11317754Y-16547826D01*
X12187427Y-16547826D01*
X12431634Y-16548941D01*
X12649332Y-16552072D01*
X12830385Y-16556895D01*
X12964654Y-16563090D01*
X13042004Y-16570335D01*
X13056958Y-16575435D01*
X13047523Y-16622543D01*
X13022948Y-16719261D01*
X12989205Y-16842319D01*
X12921595Y-17081595D01*
X11149151Y-17101295D01*
X11124612Y-17246543D01*
X11114406Y-17348350D01*
X11119647Y-17420135D01*
X11123658Y-17429954D01*
X11169173Y-17443506D01*
X11285285Y-17454226D01*
X11469018Y-17461986D01*
X11717396Y-17466657D01*
X12007376Y-17468116D01*
X12867509Y-17468116D01*
X12784906Y-17771812D01*
X12702304Y-18075508D01*
X11434848Y-18083856D01*
X11039357Y-18085385D01*
X10715414Y-18084250D01*
X10460993Y-18080403D01*
X10274064Y-18073793D01*
X10152599Y-18064374D01*
X10094572Y-18052096D01*
X10093768Y-18051671D01*
X9978061Y-17955283D01*
X9930207Y-17831502D01*
X9928873Y-17801588D01*
X9939127Y-17729948D01*
X9967075Y-17600707D01*
X10009429Y-17425753D01*
X10062900Y-17216969D01*
X10124203Y-16986242D01*
X10190050Y-16745456D01*
X10257153Y-16506498D01*
X10322224Y-16281253D01*
X10381978Y-16081607D01*
X10433125Y-15919444D01*
X10472379Y-15806650D01*
X10493993Y-15758388D01*
X10530827Y-15706848D01*
X10572117Y-15664767D01*
X10625279Y-15631190D01*
X10697727Y-15605159D01*
X10796877Y-15585720D01*
X10930143Y-15571917D01*
X11104942Y-15562794D01*
X11328688Y-15557396D01*
X11608797Y-15554765D01*
X11952683Y-15553948D01*
X12080412Y-15553913D01*
X12378027Y-15554559D01*
G37*
G36*
X14972269Y-16332629D02*
G01*
X15156786Y-16341152D01*
X15295640Y-16357481D01*
X15398116Y-16382972D01*
X15473505Y-16418981D01*
X15531093Y-16466863D01*
X15558315Y-16498459D01*
X15617317Y-16628410D01*
X15632357Y-16802215D01*
X15603453Y-17004686D01*
X15557570Y-17154038D01*
X15455068Y-17348011D01*
X15314029Y-17480292D01*
X15130587Y-17554139D01*
X15069766Y-17564971D01*
X14898831Y-17588401D01*
X15122917Y-17841157D01*
X15347002Y-18093913D01*
X14535420Y-18093913D01*
X14312331Y-17827029D01*
X14196567Y-17681318D01*
X14126246Y-17572796D01*
X14093467Y-17487910D01*
X14088534Y-17443179D01*
X14119118Y-17317240D01*
X14211120Y-17229781D01*
X14362293Y-17182315D01*
X14489527Y-17173624D01*
X14668409Y-17157198D01*
X14789242Y-17104595D01*
X14860664Y-17010831D01*
X14880295Y-16948110D01*
X14889348Y-16872256D01*
X14869935Y-16821274D01*
X14811428Y-16790356D01*
X14703200Y-16774695D01*
X14534625Y-16769487D01*
X14484846Y-16769260D01*
X14324869Y-16771268D01*
X14223189Y-16779804D01*
X14164578Y-16797615D01*
X14133807Y-16827445D01*
X14130656Y-16833116D01*
X14110364Y-16889125D01*
X14075498Y-17003031D01*
X14029931Y-17161457D01*
X13977539Y-17351027D01*
X13938711Y-17495725D01*
X13780150Y-18093913D01*
X13418626Y-18093913D01*
X13265611Y-18091533D01*
X13144679Y-18085123D01*
X13071553Y-18075778D01*
X13057101Y-18068746D01*
X13066283Y-18027245D01*
X13091955Y-17925459D01*
X13131308Y-17774152D01*
X13181533Y-17584088D01*
X13239823Y-17366031D01*
X13261229Y-17286499D01*
X13335986Y-17014719D01*
X13397147Y-16805999D01*
X13447723Y-16651676D01*
X13490729Y-16543085D01*
X13529176Y-16471563D01*
X13556479Y-16437392D01*
X13588347Y-16406918D01*
X13622300Y-16383886D01*
X13668645Y-16367070D01*
X13737691Y-16355243D01*
X13839745Y-16347180D01*
X13985115Y-16341652D01*
X14184110Y-16337435D01*
X14429090Y-16333573D01*
X14732800Y-16330554D01*
X14972269Y-16332629D01*
G37*
G36*
X31630880Y-16456329D02*
G01*
X31606423Y-16583579D01*
X31580557Y-16670569D01*
X31540161Y-16724940D01*
X31472113Y-16754334D01*
X31363290Y-16766393D01*
X31200571Y-16768760D01*
X31094511Y-16768696D01*
X30837031Y-16774122D01*
X30641867Y-16794206D01*
X30498259Y-16834661D01*
X30395446Y-16901197D01*
X30322667Y-16999528D01*
X30269162Y-17135363D01*
X30246335Y-17218883D01*
X30219122Y-17363011D01*
X30223626Y-17471973D01*
X30266992Y-17550420D01*
X30356365Y-17602999D01*
X30498892Y-17634359D01*
X30701717Y-17649149D01*
X30912364Y-17652174D01*
X31344757Y-17652174D01*
X31285578Y-17873044D01*
X31226399Y-18093913D01*
X30636025Y-18091451D01*
X30341383Y-18086249D01*
X30110480Y-18073529D01*
X29947050Y-18053551D01*
X29886215Y-18039235D01*
X29700791Y-17955540D01*
X29573802Y-17834577D01*
X29500252Y-17669029D01*
X29475147Y-17451579D01*
X29475072Y-17437010D01*
X29493640Y-17221550D01*
X29544298Y-17002937D01*
X29619482Y-16805042D01*
X29711624Y-16651740D01*
X29731249Y-16628720D01*
X29819660Y-16540745D01*
X29911219Y-16472699D01*
X30016960Y-16421852D01*
X30147918Y-16385472D01*
X30315128Y-16360827D01*
X30529624Y-16345186D01*
X30802441Y-16335817D01*
X30924662Y-16333316D01*
X31656425Y-16320160D01*
X31630880Y-16456329D01*
G37*
D10*
%TO.C,SW27*%
X37057010Y-40361160D02*
X38056389Y-40325912D01*
X37562912Y-26334611D02*
X36563533Y-26369860D01*
X24065088Y-40819389D02*
X25064467Y-40784140D01*
X38056389Y-40325912D02*
X38021140Y-39326533D01*
X23606860Y-27827467D02*
X23571611Y-26828088D01*
X37562912Y-26334611D02*
X37598160Y-27333990D01*
X24029840Y-39820010D02*
X24065088Y-40819389D01*
X23571611Y-26828088D02*
X24570990Y-26792840D01*
%TO.C,SW25*%
X23761401Y-83585128D02*
X24742592Y-83392092D01*
X11005908Y-86094592D02*
X11987100Y-85901557D01*
X10812872Y-85113401D02*
X11005908Y-86094592D01*
X24742592Y-83392092D02*
X24549557Y-82410900D01*
D13*
%TO.C,LED_15*%
X166084771Y-53901575D02*
X164999221Y-46177484D01*
X161335229Y-46692425D02*
X162420779Y-54416516D01*
X164500342Y-54124252D02*
X166084771Y-53901575D01*
G36*
X166084771Y-53901575D02*
G01*
X165292557Y-54012914D01*
X165931062Y-52960206D01*
X166084771Y-53901575D01*
G37*
X166084771Y-53901575D02*
X165292557Y-54012914D01*
X165931062Y-52960206D01*
X166084771Y-53901575D01*
D10*
%TO.C,SW39*%
X81595195Y-16542531D02*
X81613694Y-15542702D01*
X81373201Y-28540477D02*
X81354702Y-29540306D01*
X95611298Y-15801694D02*
X94611469Y-15783195D01*
X95611298Y-15801694D02*
X95592799Y-16801523D01*
X95352306Y-29799298D02*
X95370805Y-28799469D01*
X81354702Y-29540306D02*
X82354531Y-29558805D01*
X94352477Y-29780799D02*
X95352306Y-29799298D01*
X81613694Y-15542702D02*
X82613523Y-15561201D01*
D13*
%TO.C,LED_12*%
X58604369Y-94467679D02*
X51019883Y-96288553D01*
X51510119Y-98330529D02*
X51883631Y-99886321D01*
X51883631Y-99886321D02*
X59468117Y-98065447D01*
G36*
X52805934Y-99643094D02*
G01*
X51883631Y-99886321D01*
X51696875Y-99108425D01*
X52805934Y-99643094D01*
G37*
X52805934Y-99643094D02*
X51883631Y-99886321D01*
X51696875Y-99108425D01*
X52805934Y-99643094D01*
%TD*%
D14*
%TO.C,U2*%
X153334029Y-21006070D03*
X153687529Y-23521351D03*
X154041028Y-26036632D03*
X154394528Y-28551913D03*
X154748028Y-31067194D03*
X155101527Y-33582474D03*
X155455027Y-36097755D03*
X155808527Y-38613036D03*
X156162026Y-41128317D03*
X156515526Y-43643598D03*
X156869026Y-46158879D03*
X157222525Y-48674160D03*
X142150645Y-50792374D03*
X141797146Y-48277094D03*
X141443646Y-45761813D03*
X141090146Y-43246532D03*
X140736647Y-40731251D03*
X140383147Y-38215970D03*
X140029647Y-35700689D03*
X139676148Y-33185408D03*
X139322648Y-30670127D03*
X138969148Y-28154846D03*
X138615649Y-25639566D03*
X138262149Y-23124285D03*
X137908649Y-20609004D03*
X152980529Y-18490789D03*
%TD*%
M02*
