M48
; DRILL file {KiCad (6.0.5)} date Tue Jul 12 17:30:20 2022
; FORMAT={-:-/ absolute / inch / decimal}
; #@! TF.CreationDate,2022-07-12T17:30:20+09:00
; #@! TF.GenerationSoftware,Kicad,Pcbnew,(6.0.5)
; #@! TF.FileFunction,Plated,1,2,PTH
FMAT,2
INCH
; #@! TA.AperFunction,Plated,PTH,ViaDrill
T1C0.0157
; #@! TA.AperFunction,Plated,PTH,ComponentDrill
T2C0.0320
; #@! TA.AperFunction,Plated,PTH,ComponentDrill
T3C0.0394
; #@! TA.AperFunction,Plated,PTH,ComponentDrill
T4C0.0512
; #@! TA.AperFunction,Plated,PTH,ComponentDrill
T5C0.0591
%
G90
G05
T1
X0.175Y-1.435
X0.2079Y-2.8674
X0.2202Y-2.9048
X0.35Y-3.4
X0.425Y-2.435
X0.6378Y-1.1732
X0.815Y-3.52
X0.82Y-2.1
X0.975Y-1.95
X1.4921Y-0.563
X1.7Y-1.46
X2.01Y-3.5
X2.04Y-0.255
X2.45Y-1.2389
X2.58Y-3.56
X2.615Y-3.66
X2.8017Y-3.1132
X2.805Y-3.305
X2.8228Y-3.405
X2.8504Y-3.5
X2.875Y-3.595
X3.0866Y-3.2362
X3.1102Y-3.3346
X3.1339Y-3.4291
X3.15Y-3.53
X3.215Y-1.525
X3.3701Y-3.1693
X3.39Y-3.27
X3.4134Y-3.3622
X3.44Y-3.46
X3.57Y-3.015
X3.655Y-3.115
X3.68Y-3.2
X3.7008Y-3.2953
X3.9331Y-3.0354
X3.9567Y-3.1299
X3.98Y-1.7
X3.98Y-3.23
X4.2165Y-2.9646
X4.2441Y-3.063
X4.2638Y-3.1575
X4.415Y-3.115
X4.495Y-3.2
X4.755Y-1.755
X5.395Y-1.245
X5.395Y-1.345
X5.4Y-1.445
X5.4Y-1.645
X5.4Y-1.74
X5.4Y-1.835
X5.405Y-1.54
X5.61Y-2.475
X5.79Y-2.23
T2
X5.4295Y-0.8114
X5.4434Y-0.9104
X5.4573Y-1.0094
X5.4712Y-1.1085
X5.4851Y-1.2075
X5.4991Y-1.3065
X5.513Y-1.4055
X5.5269Y-1.5046
X5.5408Y-1.6036
X5.5547Y-1.7026
X5.5686Y-1.8016
X5.5826Y-1.9007
X5.5965Y-1.9997
X6.0229Y-0.728
X6.0368Y-0.827
X6.0507Y-0.926
X6.0646Y-1.0251
X6.0785Y-1.1241
X6.0924Y-1.2231
X6.1064Y-1.3221
X6.1203Y-1.4212
X6.1342Y-1.5202
X6.1481Y-1.6192
X6.162Y-1.7183
X6.1759Y-1.8173
X6.1899Y-1.9163
T3
X0.1961Y-2.7871
X0.2537Y-3.0
X0.5007Y-2.8145
X0.6109Y-3.3747
X0.6939Y-2.7765
X0.7075Y-3.3557
X0.8041Y-3.3367
X1.2146Y-3.2007
X1.2926Y-3.4895
X5.9547Y-2.1191
X6.0341Y-2.6844
X6.1316Y-2.6707
X6.1496Y-2.0917
X6.2291Y-2.6571
X6.2656Y-1.6136
X6.2795Y-1.7126
T4
X6.3805Y-1.5173
X6.4161Y-1.7708
T3
G00X6.2162Y-1.1887
M15
G01X6.2189Y-1.2082
M16
G05
G00X6.3333Y-0.8343
M15
G01X6.3361Y-0.8538
M16
G05
G00X6.3498Y-0.9513
M15
G01X6.3525Y-0.9708
M16
G05
G00X6.3717Y-1.1072
M15
G01X6.3744Y-1.1267
M16
G05
T5
G00X0.4391Y-3.1336
M15
G01X0.4292Y-3.0834
M16
G05
G00X0.8718Y-3.0485
M15
G01X0.8619Y-2.9983
M16
G05
G00X5.8757Y-2.4344
M15
G01X5.8686Y-2.3837
M16
G05
G00X6.3124Y-2.373
M15
G01X6.3053Y-2.3223
M16
G05
T0
M30
