%TF.GenerationSoftware,KiCad,Pcbnew,(6.0.5)*%
%TF.CreationDate,2022-07-12T17:30:17+09:00*%
%TF.ProjectId,ergotonic_f24-pcb-right,6572676f-746f-46e6-9963-5f6632342d70,rev?*%
%TF.SameCoordinates,Original*%
%TF.FileFunction,Profile,NP*%
%FSLAX46Y46*%
G04 Gerber Fmt 4.6, Leading zero omitted, Abs format (unit mm)*
G04 Created by KiCad (PCBNEW (6.0.5)) date 2022-07-12 17:30:17*
%MOMM*%
%LPD*%
G01*
G04 APERTURE LIST*
%ADD10C,0.090000*%
%TA.AperFunction,Profile*%
%ADD11C,0.090000*%
%TD*%
%TA.AperFunction,Profile*%
%ADD12C,0.120000*%
%TD*%
G04 APERTURE END LIST*
D10*
X2131524Y-27959878D02*
X2087412Y-28046773D01*
X2052089Y-28137186D01*
X2025731Y-28230449D01*
X2008517Y-28325898D01*
X2000622Y-28422866D01*
X2000093Y-28455412D01*
D11*
X130596213Y-19617091D02*
X128194132Y-19285436D01*
D10*
X141322446Y-23272094D02*
X140577595Y-17972180D01*
D11*
X135974847Y-77867495D02*
X136654983Y-75539963D01*
D10*
X13438801Y-111849310D02*
X13472246Y-111949798D01*
X13515726Y-112045404D01*
X13568691Y-112135458D01*
X13630590Y-112219288D01*
X13700872Y-112296227D01*
X13778987Y-112365602D01*
X13864383Y-112426746D01*
X13956512Y-112478987D01*
X134320548Y-12188726D02*
X55285428Y-1369124D01*
X140577595Y-17972180D02*
X135959509Y-18621215D01*
D11*
X7686835Y-58230867D02*
X5586834Y-59443296D01*
X31074132Y-105604723D02*
X31697030Y-103261224D01*
D10*
X53265117Y-103315894D02*
X54518851Y-101591000D01*
X52718272Y-103693003D02*
X52819263Y-103659727D01*
X52915568Y-103616213D01*
X53006456Y-103562964D01*
X53091196Y-103500486D01*
X53169058Y-103429281D01*
X53239310Y-103349854D01*
X53265117Y-103315894D01*
X169130202Y-66411622D02*
X162728181Y-19980628D01*
D11*
X35756090Y-104340117D02*
X35133191Y-106683616D01*
X3486844Y-55805987D02*
X5586845Y-54593558D01*
D10*
X154600705Y-18828502D02*
X154211065Y-16056126D01*
X54829405Y-1412597D02*
X46794646Y-4130196D01*
X13956512Y-112478987D02*
X15872502Y-113435109D01*
X135959509Y-18621215D02*
X135175168Y-13040311D01*
D11*
X16968980Y-12998171D02*
X14545588Y-13082792D01*
X3486838Y-58230857D02*
X3486844Y-55805987D01*
X131170656Y-15456564D02*
X132084475Y-17702655D01*
D10*
X135175168Y-13040311D02*
X135150251Y-12918364D01*
X135111163Y-12802390D01*
X135058856Y-12693337D01*
X134994281Y-12592154D01*
X134918390Y-12499789D01*
X134832135Y-12417190D01*
X134736468Y-12345306D01*
X134632342Y-12285085D01*
X134520706Y-12237475D01*
X134402514Y-12203424D01*
X134320548Y-12188726D01*
D11*
X7686841Y-55805997D02*
X7686835Y-58230867D01*
D10*
X55285428Y-1369124D02*
X55184536Y-1360484D01*
X55083619Y-1362070D01*
X54983449Y-1373810D01*
X54884797Y-1395630D01*
X54829405Y-1412597D01*
X149803582Y-16675554D02*
X150548433Y-21975467D01*
X161974179Y-17792217D02*
X154600705Y-18828502D01*
X163072734Y-75283303D02*
X163443601Y-75184934D01*
X163806052Y-75070194D01*
X164159758Y-74939566D01*
X164504389Y-74793533D01*
X164839615Y-74632578D01*
X165165106Y-74457184D01*
X165480531Y-74267835D01*
X165785562Y-74065013D01*
X166079869Y-73849201D01*
X166363121Y-73620883D01*
X166634988Y-73380542D01*
X166895141Y-73128661D01*
X167143250Y-72865723D01*
X167378985Y-72592211D01*
X167602016Y-72308608D01*
X167812014Y-72015398D01*
X168008647Y-71713063D01*
X168191587Y-71402087D01*
X168360504Y-71082953D01*
X168515068Y-70756143D01*
X168654948Y-70422141D01*
X168779815Y-70081431D01*
X168889340Y-69734494D01*
X168983192Y-69381815D01*
X169061041Y-69023877D01*
X169122557Y-68661162D01*
X169167412Y-68294154D01*
X169195273Y-67923335D01*
X169205813Y-67549190D01*
X169198701Y-67172200D01*
X169173607Y-66792850D01*
X169130202Y-66411622D01*
X16581072Y-113505410D02*
X52718272Y-103693003D01*
D11*
X128194132Y-19285436D02*
X127280313Y-17039345D01*
X128768575Y-15124909D02*
X131170656Y-15456564D01*
X147789817Y-74603961D02*
G75*
G03*
X147789817Y-74603961I-1100000J0D01*
G01*
X136654983Y-75539963D02*
X139010753Y-74965213D01*
X5586845Y-54593558D02*
X7686841Y-55805997D01*
D10*
X55094312Y-101206592D02*
X163072734Y-75283303D01*
X15408448Y-4687397D02*
X2131524Y-27959878D01*
X2035879Y-70375183D02*
X13438801Y-111849310D01*
X54518851Y-101591000D02*
X54589010Y-101504959D01*
X54667719Y-101427715D01*
X54754138Y-101359830D01*
X54847425Y-101301866D01*
X54946741Y-101254385D01*
X55051245Y-101217948D01*
X55094312Y-101206592D01*
D11*
X32792212Y-107315919D02*
X31074132Y-105604723D01*
D10*
X2000093Y-28455412D02*
X2000093Y-70110083D01*
D11*
X61725647Y-25768284D02*
G75*
G03*
X61725647Y-25768284I-1100000J0D01*
G01*
X16822412Y-8800733D02*
X18107392Y-10857142D01*
X127280313Y-17039345D02*
X128768575Y-15124909D01*
D10*
X16277043Y-4182927D02*
X16176874Y-4187943D01*
X16078783Y-4202751D01*
X15983393Y-4226989D01*
X15891325Y-4260296D01*
X15803204Y-4302310D01*
X15719651Y-4352669D01*
X15641290Y-4411012D01*
X15568743Y-4476977D01*
X15502634Y-4550202D01*
X15443584Y-4630326D01*
X15408448Y-4687397D01*
D11*
X132084475Y-17702655D02*
X130596213Y-19617091D01*
X14399020Y-8885354D02*
X16822412Y-8800733D01*
X137650480Y-79620276D02*
X135974847Y-77867495D01*
D10*
X150548433Y-21975467D02*
X141322446Y-23272094D01*
D11*
X18107392Y-10857142D02*
X16968980Y-12998171D01*
X140006250Y-79045526D02*
X137650480Y-79620276D01*
D10*
X162728181Y-19980628D02*
X162705950Y-19832979D01*
X162680180Y-19686585D01*
X162650916Y-19541489D01*
X162618207Y-19397733D01*
X162582100Y-19255356D01*
X162542642Y-19114402D01*
X162499880Y-18974911D01*
X162453862Y-18836925D01*
X162404635Y-18700487D01*
X162352247Y-18565636D01*
X162296745Y-18432416D01*
X162238176Y-18300867D01*
X162176587Y-18171031D01*
X162112027Y-18042949D01*
X162044541Y-17916664D01*
X161974179Y-17792217D01*
D11*
X166668988Y-70054061D02*
G75*
G03*
X166668988Y-70054061I-1100000J0D01*
G01*
D10*
X15872502Y-113435109D02*
X15956272Y-113472226D01*
X16042539Y-113501361D01*
X16130739Y-113522458D01*
X16220311Y-113535460D01*
X16310693Y-113540312D01*
X16401321Y-113536958D01*
X16491635Y-113525342D01*
X16581072Y-113505410D01*
D11*
X119480411Y-38811769D02*
G75*
G03*
X119480411Y-38811769I-1100000J0D01*
G01*
X5586834Y-59443296D02*
X3486838Y-58230857D01*
X162035290Y-33451413D02*
G75*
G03*
X162035290Y-33451413I-1100000J0D01*
G01*
X31697030Y-103261224D02*
X34038009Y-102628921D01*
X13260608Y-11026383D02*
X14399020Y-8885354D01*
X140686387Y-76717994D02*
X140006250Y-79045526D01*
X34038009Y-102628921D02*
X35756090Y-104340117D01*
X139010753Y-74965213D02*
X140686387Y-76717994D01*
X14545588Y-13082792D02*
X13260608Y-11026383D01*
X35133191Y-106683616D02*
X32792212Y-107315919D01*
D10*
X2000093Y-70110083D02*
X2004346Y-70202212D01*
X2017055Y-70293469D01*
X2035879Y-70375183D01*
X46794646Y-4130196D02*
X46706469Y-4155585D01*
X46616479Y-4172759D01*
X46525254Y-4181625D01*
X46474252Y-4182927D01*
X46474252Y-4182927D02*
X16277043Y-4182927D01*
X154211065Y-16056126D02*
X149803582Y-16675554D01*
D11*
X44100000Y-82000000D02*
G75*
G03*
X44100000Y-82000000I-1100000J0D01*
G01*
D12*
%TO.C,LED_11*%
X12215827Y-88301009D02*
X9223144Y-89109617D01*
X9223144Y-89109617D02*
X10162173Y-92584991D01*
X10162173Y-92584991D02*
X13154856Y-91776383D01*
X13154856Y-91776383D02*
X12215827Y-88301009D01*
%TO.C,LED_8*%
X123464201Y-12905596D02*
X119899236Y-12404573D01*
X119899236Y-12404573D02*
X119467799Y-15474404D01*
X123032764Y-15975427D02*
X123464201Y-12905596D01*
X119467799Y-15474404D02*
X123032764Y-15975427D01*
%TO.C,LED_9*%
X54374799Y-7514404D02*
X57939764Y-8015427D01*
X54806236Y-4444573D02*
X54374799Y-7514404D01*
X57939764Y-8015427D02*
X58371201Y-4945596D01*
X58371201Y-4945596D02*
X54806236Y-4444573D01*
%TO.C,LED_14*%
X156675106Y-74454972D02*
X155951426Y-71440625D01*
X152450894Y-72281028D02*
X153174574Y-75295375D01*
X155951426Y-71440625D02*
X152450894Y-72281028D01*
X153174574Y-75295375D02*
X156675106Y-74454972D01*
%TO.C,LED_10*%
X7872000Y-37597000D02*
X4772000Y-37597000D01*
X7872000Y-41197000D02*
X7872000Y-37597000D01*
X4772000Y-37597000D02*
X4772000Y-41197000D01*
X4772000Y-41197000D02*
X7872000Y-41197000D01*
%TO.C,LED_13*%
X104983426Y-83647625D02*
X101482894Y-84488028D01*
X102206574Y-87502375D02*
X105707106Y-86661972D01*
X101482894Y-84488028D02*
X102206574Y-87502375D01*
X105707106Y-86661972D02*
X104983426Y-83647625D01*
%TO.C,LED_15*%
X164994404Y-48298799D02*
X161924573Y-48730236D01*
X161924573Y-48730236D02*
X162425596Y-52295201D01*
X165495427Y-51863764D02*
X164994404Y-48298799D01*
X162425596Y-52295201D02*
X165495427Y-51863764D01*
%TO.C,LED_12*%
X53131894Y-96090028D02*
X53855574Y-99104375D01*
X56632426Y-95249625D02*
X53131894Y-96090028D01*
X57356106Y-98263972D02*
X56632426Y-95249625D01*
X53855574Y-99104375D02*
X57356106Y-98263972D01*
%TD*%
M02*
