%TF.GenerationSoftware,KiCad,Pcbnew,(6.0.5)*%
%TF.CreationDate,2022-08-05T18:45:46+09:00*%
%TF.ProjectId,ergotonic_f24_exre,6572676f-746f-46e6-9963-5f6632345f65,rev?*%
%TF.SameCoordinates,Original*%
%TF.FileFunction,Profile,NP*%
%FSLAX46Y46*%
G04 Gerber Fmt 4.6, Leading zero omitted, Abs format (unit mm)*
G04 Created by KiCad (PCBNEW (6.0.5)) date 2022-08-05 18:45:46*
%MOMM*%
%LPD*%
G01*
G04 APERTURE LIST*
%TA.AperFunction,Profile*%
%ADD10C,0.090000*%
%TD*%
%ADD11C,0.090000*%
%TA.AperFunction,Profile*%
%ADD12C,0.120000*%
%TD*%
G04 APERTURE END LIST*
D10*
X1099949Y-83000000D02*
G75*
G03*
X1099949Y-83000000I-1099997J0D01*
G01*
X10799997Y-103000000D02*
G75*
G03*
X10799997Y-103000000I-1099997J0D01*
G01*
X-8600003Y-103000000D02*
G75*
G03*
X-8600003Y-103000000I-1099997J0D01*
G01*
X1099886Y-43522532D02*
G75*
G03*
X1099886Y-43522532I-1099998J0D01*
G01*
X10799934Y-61522532D02*
G75*
G03*
X10799934Y-61522532I-1099997J0D01*
G01*
X-8600066Y-61522532D02*
G75*
G03*
X-8600066Y-61522532I-1099997J0D01*
G01*
D11*
X24253881Y-107986217D02*
X14364541Y-72141721D01*
X23289901Y-109252181D02*
X23411520Y-109244959D01*
X23528192Y-109223903D01*
X23639223Y-109189921D01*
X23743920Y-109143924D01*
X23841589Y-109086823D01*
X23931538Y-109019529D01*
X24013074Y-108942951D01*
X24085502Y-108858000D01*
X24148130Y-108765587D01*
X24200264Y-108666621D01*
X24241211Y-108562014D01*
X24270279Y-108452675D01*
X24286772Y-108339516D01*
X24289999Y-108223446D01*
X24279267Y-108105376D01*
X24253881Y-107986217D01*
X-23290030Y-109252117D02*
X23289901Y-109252181D01*
X-24254011Y-107986152D02*
X-24279393Y-108105311D01*
X-24290123Y-108223381D01*
X-24286894Y-108339451D01*
X-24270399Y-108452610D01*
X-24241331Y-108561949D01*
X-24200384Y-108666556D01*
X-24148250Y-108765522D01*
X-24085623Y-108857936D01*
X-24013196Y-108942887D01*
X-23931662Y-109019465D01*
X-23841714Y-109086759D01*
X-23744046Y-109143860D01*
X-23639350Y-109189857D01*
X-23528320Y-109223838D01*
X-23411649Y-109244895D01*
X-23290030Y-109252117D01*
X-14364649Y-72141721D02*
X-24254011Y-107986152D01*
X-13882637Y-71774710D02*
X-13985631Y-71785391D01*
X-14082055Y-71816159D01*
X-14169399Y-71865104D01*
X-14245152Y-71930311D01*
X-14306805Y-72009870D01*
X-14351846Y-72101867D01*
X-14364649Y-72141721D01*
X-5500052Y-71774710D02*
X-13882637Y-71774710D01*
X-5500052Y-67774674D02*
X-5500052Y-71774710D01*
X-23290094Y-67774653D02*
X-5500052Y-67774674D01*
X-24254075Y-66508710D02*
X-24279457Y-66627869D01*
X-24290187Y-66745938D01*
X-24286958Y-66862007D01*
X-24270463Y-66975165D01*
X-24241395Y-67084502D01*
X-24200448Y-67189107D01*
X-24148314Y-67288071D01*
X-24085687Y-67380483D01*
X-24013260Y-67465431D01*
X-23931726Y-67542008D01*
X-23841778Y-67609300D01*
X-23744110Y-67666399D01*
X-23639414Y-67712395D01*
X-23528384Y-67746375D01*
X-23411713Y-67767432D01*
X-23290094Y-67774653D01*
X-13050409Y-25900551D02*
X-24254075Y-66508710D01*
X-12999982Y-25528265D02*
X-13003155Y-25622460D01*
X-13012648Y-25716119D01*
X-13028413Y-25808922D01*
X-13050409Y-25900551D01*
X-12999939Y16340863D02*
X-12999982Y-25528265D01*
X-25845236Y38853959D02*
X-12999939Y16340863D01*
X-24976684Y40349540D02*
X-25045725Y40230658D01*
X-25108864Y40121939D01*
X-25166943Y40021932D01*
X-25220806Y39929184D01*
X-25271296Y39842244D01*
X-25319256Y39759659D01*
X-25365529Y39679978D01*
X-25410959Y39601749D01*
X-25456389Y39523520D01*
X-25502663Y39443839D01*
X-25550623Y39361254D01*
X-25601112Y39274314D01*
X-25654975Y39181566D01*
X-25713055Y39081559D01*
X-25776194Y38972840D01*
X-25845236Y38853959D01*
X24976533Y40349497D02*
X-24976684Y40349540D01*
X25845106Y38853916D02*
X25776063Y38972797D01*
X25712924Y39081516D01*
X25654844Y39181523D01*
X25600980Y39274271D01*
X25550488Y39361211D01*
X25502526Y39443796D01*
X25456251Y39523477D01*
X25410819Y39601706D01*
X25365387Y39679935D01*
X25319112Y39759616D01*
X25271150Y39842200D01*
X25220659Y39929141D01*
X25166794Y40021888D01*
X25108714Y40121896D01*
X25045575Y40230615D01*
X24976533Y40349497D01*
X12999788Y16340863D02*
X25845106Y38853916D01*
X12999766Y-25528244D02*
X12999788Y16340863D01*
X13050172Y-25900486D02*
X13028180Y-25808858D01*
X13012421Y-25716060D01*
X13002936Y-25622414D01*
X12999766Y-25528244D01*
X24253817Y-66508731D02*
X13050172Y-25900486D01*
X23289836Y-67774696D02*
X23411455Y-67767474D01*
X23528127Y-67746417D01*
X23639158Y-67712436D01*
X23743855Y-67666439D01*
X23841524Y-67609338D01*
X23931474Y-67542044D01*
X24013009Y-67465466D01*
X24085437Y-67380515D01*
X24148065Y-67288101D01*
X24200200Y-67189135D01*
X24241147Y-67084528D01*
X24270214Y-66975189D01*
X24286708Y-66862030D01*
X24289935Y-66745960D01*
X24279203Y-66627890D01*
X24253817Y-66508731D01*
X5499944Y-67774674D02*
X23289836Y-67774696D01*
X5499944Y-71774710D02*
X5499944Y-67774674D01*
X13882551Y-71774710D02*
X5499944Y-71774710D01*
X14364541Y-72141721D02*
X14326847Y-72045283D01*
X14271539Y-71960519D01*
X14201126Y-71889342D01*
X14118120Y-71833663D01*
X14025032Y-71795395D01*
X13924372Y-71776449D01*
X13882551Y-71774710D01*
X9756058Y28154117D02*
X9761737Y28266586D01*
X9778405Y28375807D01*
X9805510Y28481225D01*
X9842500Y28582289D01*
X9888820Y28678445D01*
X9943918Y28769139D01*
X10007241Y28853821D01*
X10078236Y28931935D01*
X10156351Y29002931D01*
X10241032Y29066254D01*
X10331727Y29121352D01*
X10427883Y29167672D01*
X10528946Y29204661D01*
X10634365Y29231766D01*
X10743586Y29248434D01*
X10856056Y29254114D01*
X10856056Y27054120D02*
X10743586Y27059799D01*
X10634365Y27076468D01*
X10528946Y27103574D01*
X10427883Y27140564D01*
X10331727Y27186886D01*
X10241032Y27241985D01*
X10156351Y27305309D01*
X10078236Y27376306D01*
X10007241Y27454421D01*
X9943918Y27539103D01*
X9888820Y27629798D01*
X9842500Y27725953D01*
X9805510Y27827015D01*
X9778405Y27932432D01*
X9761737Y28041650D01*
X9756058Y28154117D01*
X11956053Y28154117D02*
X11950373Y28041650D01*
X11933705Y27932432D01*
X11906600Y27827015D01*
X11869611Y27725953D01*
X11823291Y27629798D01*
X11768193Y27539103D01*
X11704870Y27454421D01*
X11633874Y27376306D01*
X11555760Y27305309D01*
X11471078Y27241985D01*
X11380384Y27186886D01*
X11284228Y27140564D01*
X11183164Y27103574D01*
X11077746Y27076468D01*
X10968525Y27059799D01*
X10856056Y27054120D01*
X10856056Y29254114D02*
X10968525Y29248434D01*
X11077746Y29231766D01*
X11183164Y29204661D01*
X11284228Y29167672D01*
X11380384Y29121352D01*
X11471078Y29066254D01*
X11555760Y29002931D01*
X11633874Y28931935D01*
X11704870Y28853821D01*
X11768193Y28769139D01*
X11823291Y28678445D01*
X11869611Y28582289D01*
X11906600Y28481225D01*
X11933705Y28375807D01*
X11950373Y28266586D01*
X11956053Y28154117D01*
X9756037Y-6845878D02*
X9761716Y-6733408D01*
X9778384Y-6624187D01*
X9805489Y-6518769D01*
X9842478Y-6417705D01*
X9888798Y-6321549D01*
X9943896Y-6230855D01*
X10007219Y-6146173D01*
X10078215Y-6068059D01*
X10156329Y-5997063D01*
X10241011Y-5933740D01*
X10331705Y-5878642D01*
X10427861Y-5832322D01*
X10528925Y-5795333D01*
X10634343Y-5768228D01*
X10743564Y-5751560D01*
X10856034Y-5745881D01*
X10856034Y-7945876D02*
X10743564Y-7940196D01*
X10634343Y-7923528D01*
X10528925Y-7896423D01*
X10427861Y-7859433D01*
X10331705Y-7813113D01*
X10241011Y-7758015D01*
X10156329Y-7694692D01*
X10078215Y-7623697D01*
X10007219Y-7545582D01*
X9943896Y-7460901D01*
X9888798Y-7370206D01*
X9842478Y-7274050D01*
X9805489Y-7172987D01*
X9778384Y-7067568D01*
X9761716Y-6958347D01*
X9756037Y-6845878D01*
X11956032Y-6845878D02*
X11950352Y-6958347D01*
X11933684Y-7067568D01*
X11906579Y-7172987D01*
X11869589Y-7274050D01*
X11823269Y-7370206D01*
X11768171Y-7460901D01*
X11704848Y-7545582D01*
X11633853Y-7623697D01*
X11555738Y-7694692D01*
X11471057Y-7758015D01*
X11380362Y-7813113D01*
X11284206Y-7859433D01*
X11183143Y-7896423D01*
X11077724Y-7923528D01*
X10968503Y-7940196D01*
X10856034Y-7945876D01*
X10856034Y-5745881D02*
X10968503Y-5751560D01*
X11077724Y-5768228D01*
X11183143Y-5795333D01*
X11284206Y-5832322D01*
X11380362Y-5878642D01*
X11471057Y-5933740D01*
X11555738Y-5997063D01*
X11633853Y-6068059D01*
X11704848Y-6146173D01*
X11768171Y-6230855D01*
X11823269Y-6321549D01*
X11869589Y-6417705D01*
X11906579Y-6518769D01*
X11933684Y-6624187D01*
X11950352Y-6733408D01*
X11956032Y-6845878D01*
X-9755994Y-6845857D02*
X-9761673Y-6958326D01*
X-9778342Y-7067547D01*
X-9805448Y-7172965D01*
X-9842439Y-7274029D01*
X-9888760Y-7370185D01*
X-9943860Y-7460879D01*
X-10007185Y-7545561D01*
X-10078183Y-7623675D01*
X-10156299Y-7694671D01*
X-10240983Y-7757994D01*
X-10331679Y-7813092D01*
X-10427837Y-7859412D01*
X-10528902Y-7896401D01*
X-10634321Y-7923506D01*
X-10743542Y-7940174D01*
X-10856013Y-7945854D01*
X-10856013Y-5745859D02*
X-10743542Y-5751538D01*
X-10634321Y-5768206D01*
X-10528902Y-5795311D01*
X-10427837Y-5832301D01*
X-10331679Y-5878621D01*
X-10240983Y-5933719D01*
X-10156299Y-5997042D01*
X-10078183Y-6068037D01*
X-10007185Y-6146152D01*
X-9943860Y-6230833D01*
X-9888760Y-6321528D01*
X-9842439Y-6417684D01*
X-9805448Y-6518747D01*
X-9778342Y-6624166D01*
X-9761673Y-6733387D01*
X-9755994Y-6845857D01*
X-11956010Y-6845857D02*
X-11950330Y-6733387D01*
X-11933661Y-6624166D01*
X-11906555Y-6518747D01*
X-11869565Y-6417684D01*
X-11823243Y-6321528D01*
X-11768144Y-6230833D01*
X-11704820Y-6146152D01*
X-11633823Y-6068037D01*
X-11555708Y-5997042D01*
X-11471026Y-5933719D01*
X-11380331Y-5878621D01*
X-11284176Y-5832301D01*
X-11183113Y-5795311D01*
X-11077697Y-5768206D01*
X-10968479Y-5751538D01*
X-10856013Y-5745859D01*
X-10856013Y-7945854D02*
X-10968479Y-7940174D01*
X-11077697Y-7923506D01*
X-11183113Y-7896401D01*
X-11284176Y-7859412D01*
X-11380331Y-7813092D01*
X-11471026Y-7757994D01*
X-11555708Y-7694671D01*
X-11633823Y-7623675D01*
X-11704820Y-7545561D01*
X-11768144Y-7460879D01*
X-11823243Y-7370185D01*
X-11869565Y-7274029D01*
X-11906555Y-7172965D01*
X-11933661Y-7067547D01*
X-11950330Y-6958326D01*
X-11956010Y-6845857D01*
X-9755972Y28154117D02*
X-9761651Y28041650D01*
X-9778320Y27932432D01*
X-9805426Y27827015D01*
X-9842417Y27725953D01*
X-9888738Y27629798D01*
X-9943838Y27539103D01*
X-10007163Y27454421D01*
X-10078161Y27376306D01*
X-10156277Y27305309D01*
X-10240961Y27241985D01*
X-10331657Y27186886D01*
X-10427815Y27140564D01*
X-10528880Y27103574D01*
X-10634299Y27076468D01*
X-10743520Y27059799D01*
X-10855991Y27054120D01*
X-10855991Y29254114D02*
X-10743520Y29248434D01*
X-10634299Y29231766D01*
X-10528880Y29204661D01*
X-10427815Y29167672D01*
X-10331657Y29121352D01*
X-10240961Y29066254D01*
X-10156277Y29002931D01*
X-10078161Y28931935D01*
X-10007163Y28853821D01*
X-9943838Y28769139D01*
X-9888738Y28678445D01*
X-9842417Y28582289D01*
X-9805426Y28481225D01*
X-9778320Y28375807D01*
X-9761651Y28266586D01*
X-9755972Y28154117D01*
X-11955989Y28154117D02*
X-11950309Y28266586D01*
X-11933640Y28375807D01*
X-11906534Y28481225D01*
X-11869544Y28582289D01*
X-11823222Y28678445D01*
X-11768123Y28769139D01*
X-11704799Y28853821D01*
X-11633802Y28931935D01*
X-11555686Y29002931D01*
X-11471005Y29066254D01*
X-11380309Y29121352D01*
X-11284154Y29167672D01*
X-11183092Y29204661D01*
X-11077675Y29231766D01*
X-10968457Y29248434D01*
X-10855991Y29254114D01*
X-10855991Y27054120D02*
X-10968457Y27059799D01*
X-11077675Y27076468D01*
X-11183092Y27103574D01*
X-11284154Y27140564D01*
X-11380309Y27186886D01*
X-11471005Y27241985D01*
X-11555686Y27305309D01*
X-11633802Y27376306D01*
X-11704799Y27454421D01*
X-11768123Y27539103D01*
X-11823222Y27629798D01*
X-11869544Y27725953D01*
X-11906534Y27827015D01*
X-11933640Y27932432D01*
X-11950309Y28041650D01*
X-11955989Y28154117D01*
X6929874Y-61452537D02*
X-6930111Y-61452515D01*
X6929896Y-47592551D02*
X6929874Y-61452537D01*
X-6930089Y-47592530D02*
X6929896Y-47592551D01*
X-6930111Y-61452515D02*
X-6930089Y-47592530D01*
D12*
%TO.C,LED_X1*%
X-1800000Y-105150000D02*
X-1800000Y-108250000D01*
X-1800000Y-108250000D02*
X1800000Y-108250000D01*
X1800000Y-105150000D02*
X-1800000Y-105150000D01*
X1800000Y-108250000D02*
X1800000Y-105150000D01*
%TD*%
M02*
