M48
; DRILL file {KiCad (6.0.5)} date Fri Aug  5 18:45:49 2022
; FORMAT={-:-/ absolute / inch / decimal}
; #@! TF.CreationDate,2022-08-05T18:45:49+09:00
; #@! TF.GenerationSoftware,Kicad,Pcbnew,(6.0.5)
; #@! TF.FileFunction,NonPlated,1,2,NPTH
FMAT,2
INCH
; #@! TA.AperFunction,NonPlated,NPTH,ComponentDrill
T1C0.0236
%
G90
G05
T1
X-0.1949Y-2.6811
X-0.1929Y-2.813
X-0.1594Y-2.6811
X-0.1575Y-2.813
X-0.124Y-2.6811
X-0.122Y-2.813
X-0.0886Y-2.6811
X-0.0866Y-2.813
X-0.0531Y-2.6811
X-0.0512Y-2.813
X-0.0177Y-2.6811
X-0.0157Y-2.813
X0.0177Y-2.6811
X0.0197Y-2.813
X0.0531Y-2.6811
X0.0551Y-2.813
X0.0886Y-2.6811
X0.0906Y-2.813
X0.124Y-2.6811
X0.126Y-2.813
X0.1594Y-2.6811
X0.1614Y-2.813
X0.1949Y-2.6811
X0.1969Y-2.813
T0
M30
