%TF.GenerationSoftware,KiCad,Pcbnew,(6.0.5)*%
%TF.CreationDate,2022-08-05T18:45:46+09:00*%
%TF.ProjectId,ergotonic_f24_exre,6572676f-746f-46e6-9963-5f6632345f65,rev?*%
%TF.SameCoordinates,Original*%
%TF.FileFunction,Copper,L1,Top*%
%TF.FilePolarity,Positive*%
%FSLAX46Y46*%
G04 Gerber Fmt 4.6, Leading zero omitted, Abs format (unit mm)*
G04 Created by KiCad (PCBNEW (6.0.5)) date 2022-08-05 18:45:46*
%MOMM*%
%LPD*%
G01*
G04 APERTURE LIST*
G04 Aperture macros list*
%AMRoundRect*
0 Rectangle with rounded corners*
0 $1 Rounding radius*
0 $2 $3 $4 $5 $6 $7 $8 $9 X,Y pos of 4 corners*
0 Add a 4 corners polygon primitive as box body*
4,1,4,$2,$3,$4,$5,$6,$7,$8,$9,$2,$3,0*
0 Add four circle primitives for the rounded corners*
1,1,$1+$1,$2,$3*
1,1,$1+$1,$4,$5*
1,1,$1+$1,$6,$7*
1,1,$1+$1,$8,$9*
0 Add four rect primitives between the rounded corners*
20,1,$1+$1,$2,$3,$4,$5,0*
20,1,$1+$1,$4,$5,$6,$7,0*
20,1,$1+$1,$6,$7,$8,$9,0*
20,1,$1+$1,$8,$9,$2,$3,0*%
G04 Aperture macros list end*
%TA.AperFunction,ComponentPad*%
%ADD10C,2.000000*%
%TD*%
%TA.AperFunction,ComponentPad*%
%ADD11O,1.500000X2.800000*%
%TD*%
%TA.AperFunction,SMDPad,CuDef*%
%ADD12R,1.700000X1.000000*%
%TD*%
%TA.AperFunction,SMDPad,CuDef*%
%ADD13RoundRect,0.150000X-0.150000X-0.625000X0.150000X-0.625000X0.150000X0.625000X-0.150000X0.625000X0*%
%TD*%
%TA.AperFunction,ComponentPad*%
%ADD14RoundRect,0.249600X-0.350400X-0.650400X0.350400X-0.650400X0.350400X0.650400X-0.350400X0.650400X0*%
%TD*%
%TA.AperFunction,Conductor*%
%ADD15C,0.250000*%
%TD*%
%TA.AperFunction,Conductor*%
%ADD16C,0.500000*%
%TD*%
G04 APERTURE END LIST*
D10*
%TO.P,REX1,A,A*%
%TO.N,ENC_A*%
X2500000Y-88500000D03*
%TO.P,REX1,B,B*%
%TO.N,ENC_B*%
X-2500000Y-88500000D03*
%TO.P,REX1,C,C*%
%TO.N,GND*%
X0Y-88500000D03*
D11*
%TO.P,REX1,MP*%
%TO.N,N/C*%
X5600000Y-96000000D03*
X-5600000Y-96000000D03*
D10*
%TO.P,REX1,S1,S1*%
%TO.N,ENC_PUSH*%
X-2500000Y-103000000D03*
%TO.P,REX1,S2,S2*%
%TO.N,GND*%
X2500000Y-103000000D03*
%TD*%
D12*
%TO.P,LED_X1,1,VDD*%
%TO.N,VCC*%
X2750000Y-106000000D03*
%TO.P,LED_X1,2,DOUT*%
%TO.N,unconnected-(LED_X1-Pad2)*%
X2750000Y-107400000D03*
%TO.P,LED_X1,3,VSS*%
%TO.N,GND*%
X-2750000Y-107400000D03*
%TO.P,LED_X1,4,DIN*%
%TO.N,LED_EXT*%
X-2750000Y-106000000D03*
%TD*%
D13*
%TO.P,JX1,1,Pin_1*%
%TO.N,VCC*%
X-2500000Y-75625000D03*
%TO.P,JX1,2,Pin_2*%
%TO.N,ENC_PUSH*%
X-1500000Y-75625000D03*
%TO.P,JX1,3,Pin_3*%
%TO.N,ENC_B*%
X-500000Y-75625000D03*
%TO.P,JX1,4,Pin_4*%
%TO.N,ENC_A*%
X500000Y-75625000D03*
%TO.P,JX1,5,Pin_5*%
%TO.N,GND*%
X1500000Y-75625000D03*
%TO.P,JX1,6,Pin_6*%
%TO.N,LED_EXT*%
X2500000Y-75625000D03*
D14*
%TO.P,JX1,MP*%
%TO.N,N/C*%
X-3800000Y-73100000D03*
X3800000Y-73100000D03*
%TD*%
D15*
%TO.N,ENC_A*%
X500000Y-76100012D02*
X500000Y-75625000D01*
X3300000Y-78900012D02*
X500000Y-76100012D01*
X3300000Y-87700000D02*
X3300000Y-78900012D01*
X2500000Y-88500000D02*
X3300000Y-87700000D01*
D16*
%TO.N,GND*%
X1500000Y-76247849D02*
X1500000Y-75625000D01*
X3450000Y-78237530D02*
X3450000Y-78197849D01*
X3450000Y-78197849D02*
X1500000Y-76247849D01*
X3949511Y-89100408D02*
X3949511Y-78737041D01*
X1449511Y-89949511D02*
X3100408Y-89949511D01*
X3100408Y-89949511D02*
X3949511Y-89100408D01*
X3949511Y-78737041D02*
X3450000Y-78237530D01*
X0Y-88500000D02*
X1449511Y-89949511D01*
D15*
%TO.N,ENC_B*%
X-500000Y-76550000D02*
X-500000Y-75625000D01*
X-3350000Y-79400000D02*
X-500000Y-76550000D01*
X-3350000Y-87650000D02*
X-3350000Y-79400000D01*
X-2500000Y-88500000D02*
X-3350000Y-87650000D01*
%TO.N,ENC_PUSH*%
X-3950000Y-101550000D02*
X-3950000Y-78521072D01*
X-2500000Y-103000000D02*
X-3950000Y-101550000D01*
X-1500000Y-76071072D02*
X-1500000Y-75625000D01*
X-3950000Y-78521072D02*
X-1500000Y-76071072D01*
%TO.N,LED_EXT*%
X-7800000Y-100600000D02*
X-2750000Y-105650000D01*
X-3050000Y-74400000D02*
X-7800000Y-79150000D01*
X1721072Y-74400000D02*
X-3050000Y-74400000D01*
X2500000Y-75178928D02*
X1721072Y-74400000D01*
X2500000Y-75625000D02*
X2500000Y-75178928D01*
D16*
%TO.N,VCC*%
X-6869520Y-100717998D02*
X-6869520Y-79569520D01*
X-6869520Y-79569520D02*
X-2925000Y-75625000D01*
X2199511Y-104449511D02*
X-3138007Y-104449511D01*
X-2925000Y-75625000D02*
X-2500000Y-75625000D01*
X2750000Y-105000000D02*
X2199511Y-104449511D01*
D15*
%TO.N,LED_EXT*%
X-7800000Y-79150000D02*
X-7800000Y-100600000D01*
D16*
%TO.N,VCC*%
X-3138007Y-104449511D02*
X-6869520Y-100717998D01*
X2750000Y-106000000D02*
X2750000Y-105000000D01*
D15*
%TO.N,LED_EXT*%
X-2750000Y-105650000D02*
X-2750000Y-106000000D01*
D16*
%TO.N,GND*%
X3750000Y-101750000D02*
X3750000Y-92250000D01*
X2500000Y-103000000D02*
X3750000Y-101750000D01*
X3750000Y-92250000D02*
X0Y-88500000D01*
X4049511Y-104549511D02*
X2500000Y-103000000D01*
X3899002Y-108500020D02*
X4049511Y-108349511D01*
X-2649980Y-108500020D02*
X3899002Y-108500020D01*
X4049511Y-108349511D02*
X4049511Y-104549511D01*
X-2750000Y-108400000D02*
X-2649980Y-108500020D01*
X-2750000Y-107400000D02*
X-2750000Y-108400000D01*
%TD*%
M02*
