%TF.GenerationSoftware,KiCad,Pcbnew,(6.0.5)*%
%TF.CreationDate,2022-07-11T13:34:44+09:00*%
%TF.ProjectId,ergotonic_f24_top,6572676f-746f-46e6-9963-5f6632345f74,rev?*%
%TF.SameCoordinates,Original*%
%TF.FileFunction,Profile,NP*%
%FSLAX46Y46*%
G04 Gerber Fmt 4.6, Leading zero omitted, Abs format (unit mm)*
G04 Created by KiCad (PCBNEW (6.0.5)) date 2022-07-11 13:34:44*
%MOMM*%
%LPD*%
G01*
G04 APERTURE LIST*
%TA.AperFunction,Profile*%
%ADD10C,0.090000*%
%TD*%
%ADD11C,0.090000*%
G04 APERTURE END LIST*
D10*
X-41900000Y-82000000D02*
G75*
G03*
X-41900000Y-82000000I-1100000J0D01*
G01*
X-32420321Y-104992094D02*
G75*
G03*
X-32420321Y-104992094I-1000000J0D01*
G01*
X-21985831Y-69738421D02*
X-24660219Y-83337653D01*
X-8386599Y-72412808D02*
X-21985831Y-69738421D01*
X-11060986Y-86012041D02*
X-8386599Y-72412808D01*
X-24660219Y-83337653D02*
X-11060986Y-86012041D01*
X-14684000Y-10941762D02*
G75*
G03*
X-14684000Y-10941762I-1000000J0D01*
G01*
X-137230513Y-77292745D02*
G75*
G03*
X-137230513Y-77292745I-1100000J0D01*
G01*
X-128582290Y-17371000D02*
G75*
G03*
X-128582290Y-17371000I-1100000J0D01*
G01*
X-117280307Y-38811769D02*
G75*
G03*
X-117280307Y-38811769I-1100000J0D01*
G01*
X-29487207Y-81037293D02*
X-26822743Y-67436057D01*
X-43088443Y-78372828D02*
X-29487207Y-81037293D01*
X-40423978Y-64771593D02*
X-43088443Y-78372828D01*
X-26822743Y-67436057D02*
X-40423978Y-64771593D01*
X-24132808Y-40747140D02*
X-23643805Y-26895993D01*
X-37983955Y-40258136D02*
X-24132808Y-40747140D01*
X-37494951Y-26406990D02*
X-37983955Y-40258136D01*
X-23643805Y-26895993D02*
X-37494951Y-26406990D01*
X-25844970Y-60699520D02*
X-24533700Y-46901411D01*
X-39643080Y-59388249D02*
X-25844970Y-60699520D01*
X-38331809Y-45590140D02*
X-39643080Y-59388249D01*
X-24533700Y-46901411D02*
X-38331809Y-45590140D01*
X-16768320Y-107863130D02*
X-13154261Y-94482849D01*
X-30148601Y-104249071D02*
X-16768320Y-107863130D01*
X-26534542Y-90868790D02*
X-30148601Y-104249071D01*
X-13154261Y-94482849D02*
X-26534542Y-90868790D01*
X-35158039Y-102895962D02*
X-31543951Y-89515710D01*
X-48538291Y-99281874D02*
X-35158039Y-102895962D01*
X-44924204Y-85901622D02*
X-48538291Y-99281874D01*
X-31543951Y-89515710D02*
X-44924204Y-85901622D01*
X-127244803Y-76573241D02*
X-123799538Y-63147917D01*
X-140670128Y-73127976D02*
X-127244803Y-76573241D01*
X-137224863Y-59702651D02*
X-140670128Y-73127976D01*
X-123799538Y-63147917D02*
X-137224863Y-59702651D01*
X-122430140Y-56137343D02*
X-120603791Y-42397922D01*
X-136169561Y-54310995D02*
X-122430140Y-56137343D01*
X-134343213Y-40571573D02*
X-136169561Y-54310995D01*
X-120603791Y-42397922D02*
X-134343213Y-40571573D01*
X-120070888Y-35385201D02*
X-119799510Y-21528290D01*
X-133927800Y-35113822D02*
X-120070888Y-35385201D01*
X-133656421Y-21256911D02*
X-133927800Y-35113822D01*
X-119799510Y-21528290D02*
X-133656421Y-21256911D01*
X-65114490Y-63246954D02*
X-63277360Y-49509404D01*
X-78852040Y-61409825D02*
X-65114490Y-63246954D01*
X-77014910Y-47672274D02*
X-78852040Y-61409825D01*
X-63277360Y-49509404D02*
X-77014910Y-47672274D01*
X-106426952Y-74603903D02*
X-103817965Y-60991739D01*
X-120039115Y-71994916D02*
X-106426952Y-74603903D01*
X-117430128Y-58382753D02*
X-120039115Y-71994916D01*
X-103817965Y-60991739D02*
X-117430128Y-58382753D01*
X-69598097Y-83473686D02*
X-66369393Y-69995151D01*
X-83076633Y-80244981D02*
X-69598097Y-83473686D01*
X-79847928Y-66766446D02*
X-83076633Y-80244981D01*
X-66369393Y-69995151D02*
X-79847928Y-66766446D01*
X-51324387Y-89040190D02*
X-47972439Y-75591838D01*
X-64772739Y-85688242D02*
X-51324387Y-89040190D01*
X-61420792Y-72239890D02*
X-64772739Y-85688242D01*
X-47972439Y-75591838D02*
X-61420792Y-72239890D01*
X-43908561Y-48704759D02*
X-43033012Y-34872868D01*
X-57740452Y-47829210D02*
X-43908561Y-48704759D01*
X-56864903Y-33997319D02*
X-57740452Y-47829210D01*
X-43033012Y-34872868D02*
X-56864903Y-33997319D01*
X-58310501Y-53204013D02*
X-60360814Y-66911531D01*
X-44602984Y-55254326D02*
X-58310501Y-53204013D01*
X-46653296Y-68961843D02*
X-44602984Y-55254326D01*
X-60360814Y-66911531D02*
X-46653296Y-68961843D01*
X-81426491Y-29471930D02*
X-81682353Y-15614352D01*
X-95284069Y-29727792D02*
X-81426491Y-29471930D01*
X-95539931Y-15870214D02*
X-95284069Y-29727792D01*
X-81682353Y-15614352D02*
X-95539931Y-15870214D01*
X-102786076Y-54653918D02*
X-101205912Y-40884131D01*
X-116555862Y-53073754D02*
X-102786076Y-54653918D01*
X-114975699Y-39303968D02*
X-116555862Y-53073754D01*
X-101205912Y-40884131D02*
X-114975699Y-39303968D01*
X-100784696Y-33923390D02*
X-100715678Y-20063107D01*
X-114644978Y-33854372D02*
X-100784696Y-33923390D01*
X-114575961Y-19994090D02*
X-114644978Y-33854372D01*
X-100715678Y-20063107D02*
X-114575961Y-19994090D01*
X-62216056Y-22556742D02*
X-62694451Y-8704887D01*
X-76067910Y-23035137D02*
X-62216056Y-22556742D01*
X-76546306Y-9183282D02*
X-76067910Y-23035137D01*
X-62694451Y-8704887D02*
X-76546306Y-9183282D01*
X-62707050Y-42743610D02*
X-62218053Y-28892457D01*
X-76558203Y-42254612D02*
X-62707050Y-42743610D01*
X-76069205Y-28403460D02*
X-76558203Y-42254612D01*
X-62218053Y-28892457D02*
X-76069205Y-28403460D01*
X-163703675Y-71603573D02*
X-163294363Y-69213499D01*
X-165978196Y-72444135D02*
X-163703675Y-71603573D01*
X-167843405Y-70894624D02*
X-165978196Y-72444135D01*
X-167434093Y-68504550D02*
X-167843405Y-70894624D01*
X-165159572Y-67663987D02*
X-167434093Y-68504550D01*
X-163294363Y-69213499D02*
X-165159572Y-67663987D01*
X-144333943Y-75178711D02*
X-145014079Y-72851179D01*
X-146009576Y-76931492D02*
X-144333943Y-75178711D01*
X-148365346Y-76356742D02*
X-146009576Y-76931492D01*
X-149045483Y-74029210D02*
X-148365346Y-76356742D01*
X-147369849Y-72276429D02*
X-149045483Y-74029210D01*
X-145014079Y-72851179D02*
X-147369849Y-72276429D01*
X-82744907Y-50087128D02*
X-81637026Y-36271749D01*
X-96560286Y-48979248D02*
X-82744907Y-50087128D01*
X-95452405Y-35163868D02*
X-96560286Y-48979248D01*
X-81637026Y-36271749D02*
X-95452405Y-35163868D01*
X-86230969Y-70573537D02*
X-83666784Y-56953202D01*
X-99851304Y-68009352D02*
X-86230969Y-70573537D01*
X-97287119Y-54389017D02*
X-99851304Y-68009352D01*
X-83666784Y-56953202D02*
X-97287119Y-54389017D01*
X-4586736Y-57018427D02*
G75*
G03*
X-4586736Y-57018427I-1000000J0D01*
G01*
X-148725385Y-68165155D02*
X-146892539Y-54426891D01*
X-162463649Y-66332309D02*
X-148725385Y-68165155D01*
X-160630803Y-52594045D02*
X-162463649Y-66332309D01*
X-146892539Y-54426891D02*
X-160630803Y-52594045D01*
X-59525543Y-25768284D02*
G75*
G03*
X-59525543Y-25768284I-1100000J0D01*
G01*
X-42943294Y-28053946D02*
X-43439855Y-14202438D01*
X-56794802Y-28550508D02*
X-42943294Y-28053946D01*
X-57291364Y-14698999D02*
X-56794802Y-28550508D01*
X-43439855Y-14202438D02*
X-57291364Y-14698999D01*
D11*
X-1999986Y-70110083D02*
X-1999986Y-29164930D01*
X-2035772Y-70375183D02*
X-2015445Y-70285224D01*
X-2003502Y-70193864D01*
X-1999986Y-70110083D01*
X-13438693Y-111849310D02*
X-2035772Y-70375183D01*
X-13956405Y-112478987D02*
X-13864276Y-112426746D01*
X-13778879Y-112365602D01*
X-13700764Y-112296227D01*
X-13630482Y-112219288D01*
X-13568583Y-112135458D01*
X-13515618Y-112045404D01*
X-13472138Y-111949798D01*
X-13438693Y-111849310D01*
X-15872395Y-113435109D02*
X-13956405Y-112478987D01*
X-16580965Y-113505410D02*
X-16491528Y-113525342D01*
X-16401214Y-113536958D01*
X-16310585Y-113540312D01*
X-16220204Y-113535460D01*
X-16130632Y-113522458D01*
X-16042431Y-113501361D01*
X-15956165Y-113472226D01*
X-15872395Y-113435109D01*
X-52718143Y-103693003D02*
X-16580965Y-113505410D01*
X-53265009Y-103315894D02*
X-53198005Y-103398468D01*
X-53123099Y-103473023D01*
X-53041021Y-103539052D01*
X-52952501Y-103596053D01*
X-52858270Y-103643522D01*
X-52759058Y-103680953D01*
X-52718143Y-103693003D01*
X-54518744Y-101591000D02*
X-53265009Y-103315894D01*
X-55094204Y-101206592D02*
X-54987859Y-101238453D01*
X-54886367Y-101281584D01*
X-54790568Y-101335423D01*
X-54701301Y-101399406D01*
X-54619408Y-101472974D01*
X-54545728Y-101555563D01*
X-54518744Y-101591000D01*
X-163072626Y-75283303D02*
X-55094204Y-101206592D01*
X-169130094Y-66411622D02*
X-169173499Y-66792850D01*
X-169198593Y-67172200D01*
X-169205706Y-67549190D01*
X-169195166Y-67923335D01*
X-169167304Y-68294154D01*
X-169122450Y-68661162D01*
X-169060933Y-69023877D01*
X-168983084Y-69381815D01*
X-168889232Y-69734494D01*
X-168779708Y-70081431D01*
X-168654841Y-70422141D01*
X-168514960Y-70756143D01*
X-168360397Y-71082953D01*
X-168191480Y-71402087D01*
X-168008540Y-71713063D01*
X-167811906Y-72015398D01*
X-167601909Y-72308608D01*
X-167378878Y-72592211D01*
X-167143143Y-72865723D01*
X-166895034Y-73128661D01*
X-166634881Y-73380542D01*
X-166363013Y-73620883D01*
X-166079761Y-73849201D01*
X-165785455Y-74065013D01*
X-165480424Y-74267835D01*
X-165164998Y-74457184D01*
X-164839507Y-74632578D01*
X-164504282Y-74793533D01*
X-164159651Y-74939566D01*
X-163805944Y-75070194D01*
X-163443493Y-75184934D01*
X-163072626Y-75283303D01*
X-166903292Y-50261682D02*
X-169130094Y-66411622D01*
X-140918875Y-53717759D02*
X-166903292Y-50261682D01*
X-135175470Y-13039751D02*
X-140918875Y-53717759D01*
X-134320936Y-12188812D02*
X-134442911Y-12213275D01*
X-134558971Y-12251917D01*
X-134668165Y-12303791D01*
X-134769542Y-12367949D01*
X-134862152Y-12443446D01*
X-134945045Y-12529335D01*
X-135017270Y-12624670D01*
X-135077878Y-12728505D01*
X-135125916Y-12839892D01*
X-135160436Y-12957885D01*
X-135175470Y-13039751D01*
X-55285321Y-1369124D02*
X-134320936Y-12188812D01*
X-54829276Y-1412597D02*
X-54926723Y-1385049D01*
X-55026126Y-1367540D01*
X-55126714Y-1360143D01*
X-55227716Y-1362930D01*
X-55285321Y-1369124D01*
X-46794538Y-4130196D02*
X-54829276Y-1412597D01*
X-46474144Y-4182927D02*
X-46565806Y-4178716D01*
X-46656554Y-4166147D01*
X-46745809Y-4145310D01*
X-46794538Y-4130196D01*
X-16276935Y-4182927D02*
X-46474144Y-4182927D01*
X-15408340Y-4687397D02*
X-15462336Y-4602874D01*
X-15523808Y-4525009D01*
X-15592133Y-4454164D01*
X-15666687Y-4390700D01*
X-15746848Y-4334978D01*
X-15831993Y-4287360D01*
X-15921499Y-4248209D01*
X-16014744Y-4217885D01*
X-16111103Y-4196749D01*
X-16209956Y-4185165D01*
X-16276935Y-4182927D01*
X-2131394Y-27959878D02*
X-15408340Y-4687397D01*
X-1999986Y-28455412D02*
X-2004734Y-28358085D01*
X-2018860Y-28262056D01*
X-2042187Y-28167990D01*
X-2074535Y-28076553D01*
X-2115728Y-27988411D01*
X-2131394Y-27959878D01*
X-1999986Y-29164930D02*
X-1999986Y-28455412D01*
M02*
