M48
; DRILL file {KiCad (6.0.1)} date Sun Feb 27 14:41:55 2022
; FORMAT={-:-/ absolute / inch / decimal}
; #@! TF.CreationDate,2022-02-27T14:41:55+09:00
; #@! TF.GenerationSoftware,Kicad,Pcbnew,(6.0.1)
; #@! TF.FileFunction,NonPlated,1,2,NPTH
FMAT,2
INCH
; #@! TA.AperFunction,NonPlated,NPTH,ComponentDrill
T1C0.0236
%
G90
G05
T1
X-0.0669Y-1.1725
X-0.0669Y-1.208
X-0.0669Y-1.2434
X-0.0669Y-1.2788
X-0.0669Y-1.3143
X-0.0669Y-1.3497
X-0.0669Y-1.3851
X-0.0669Y-1.4206
X-0.0669Y-1.456
X-0.0669Y-1.4914
X-0.0669Y-1.5269
X-0.0669Y-1.5623
X-0.0669Y-2.2959
X-0.0669Y-2.3314
X-0.0669Y-2.3668
X-0.0669Y-2.4022
X-0.0669Y-2.4377
X-0.0669Y-2.4731
X-0.0669Y-2.5085
X-0.0669Y-2.544
X-0.0669Y-2.5794
X-0.0669Y-2.6148
X-0.0669Y-2.6503
X-0.0669Y-2.6857
X0.0669Y-1.1725
X0.0669Y-1.208
X0.0669Y-1.2434
X0.0669Y-1.2788
X0.0669Y-1.3143
X0.0669Y-1.3497
X0.0669Y-1.3851
X0.0669Y-1.4206
X0.0669Y-1.456
X0.0669Y-1.4914
X0.0669Y-1.5269
X0.0669Y-1.5623
X0.0669Y-2.2959
X0.0669Y-2.3314
X0.0669Y-2.3668
X0.0669Y-2.4022
X0.0669Y-2.4377
X0.0669Y-2.4731
X0.0669Y-2.5085
X0.0669Y-2.544
X0.0669Y-2.5794
X0.0669Y-2.6148
X0.0669Y-2.6503
X0.0669Y-2.6857
T0
M30
