M48
; DRILL file {KiCad (6.0.5)} date Mon Jul 11 13:48:05 2022
; FORMAT={-:-/ absolute / inch / decimal}
; #@! TF.CreationDate,2022-07-11T13:48:05+09:00
; #@! TF.GenerationSoftware,Kicad,Pcbnew,(6.0.5)
; #@! TF.FileFunction,NonPlated,1,2,NPTH
FMAT,2
INCH
; #@! TA.AperFunction,NonPlated,NPTH,ComponentDrill
T1C0.0236
%
G90
G05
T1
X-3.8092Y-0.2433
X-3.8092Y-4.5236
X-3.7738Y-0.2433
X-3.7738Y-4.5236
X-3.7383Y-0.2433
X-3.7383Y-4.5236
X-3.7029Y-0.2433
X-3.7029Y-4.5236
X-3.6675Y-0.2433
X-3.6675Y-4.5236
X-3.632Y-0.2433
X-3.632Y-4.5236
X-3.5966Y-0.2433
X-3.5966Y-4.5236
X-3.5612Y-0.2433
X-3.5612Y-4.5236
X-3.5257Y-0.2433
X-3.5257Y-4.5236
X-3.4903Y-0.2433
X-3.4903Y-4.5236
X-3.4549Y-0.2433
X-3.4549Y-4.5236
X-3.4194Y-0.2433
X-3.4194Y-4.5236
X-2.3189Y-2.5717
X-2.3189Y-3.2732
X-2.2835Y-2.5717
X-2.2835Y-3.2732
X-2.2481Y-2.5717
X-2.2481Y-3.2732
X-2.2126Y-2.5717
X-2.2126Y-3.2732
X-2.1772Y-2.5717
X-2.1772Y-3.2732
X-2.1418Y-2.5717
X-2.1418Y-3.2732
X-2.1063Y-2.5717
X-2.1063Y-3.2732
X-2.0709Y-2.5717
X-2.0709Y-3.2732
X-2.0355Y-2.5717
X-2.0355Y-3.2732
X-2.0Y-2.5717
X-2.0Y-3.2732
X-1.9646Y-2.5717
X-1.9646Y-3.2732
X-1.9292Y-2.5717
X-1.9292Y-3.2732
X-1.885Y0.0638
X-1.885Y-0.2433
X-1.8496Y0.0638
X-1.8496Y-0.2433
X-1.8141Y0.0638
X-1.8141Y-0.2433
X-1.7787Y0.0638
X-1.7787Y-0.2433
X-1.7433Y0.0638
X-1.7433Y-0.2433
X-1.7078Y0.0638
X-1.7078Y-0.2433
X-1.6724Y0.0638
X-1.6724Y-0.2433
X-1.637Y0.0638
X-1.637Y-0.2433
X-1.6286Y-4.3306
X-1.6286Y-4.5236
X-1.6015Y0.0638
X-1.6015Y-0.2433
X-1.5931Y-4.3306
X-1.5931Y-4.5236
X-1.5661Y0.0638
X-1.5661Y-0.2433
X-1.5577Y-4.3306
X-1.5577Y-4.5236
X-1.5307Y0.0638
X-1.5307Y-0.2433
X-1.5223Y-4.3306
X-1.5223Y-4.5236
X-1.4952Y0.0638
X-1.4952Y-0.2433
X-1.4869Y-4.3306
X-1.4869Y-4.5236
X-1.4514Y-4.3306
X-1.4514Y-4.5236
X-1.416Y-4.3306
X-1.416Y-4.5236
X-1.3806Y-4.3306
X-1.3806Y-4.5236
X-1.3451Y-4.3306
X-1.3451Y-4.5236
X-1.3097Y-4.3306
X-1.3097Y-4.5236
X-1.2743Y-4.3306
X-1.2743Y-4.5236
X-1.2388Y-4.3306
X-1.2388Y-4.5236
X-0.9007Y-0.2433
X-0.9007Y-0.8817
X-0.9007Y-3.2102
X-0.9007Y-3.2732
X-0.8653Y-0.2433
X-0.8653Y-0.8817
X-0.8653Y-3.2102
X-0.8653Y-3.2732
X-0.8299Y-0.2433
X-0.8299Y-0.8817
X-0.8299Y-3.2102
X-0.8299Y-3.2732
X-0.7944Y-0.2433
X-0.7944Y-0.8817
X-0.7944Y-3.2102
X-0.7944Y-3.2732
X-0.759Y-0.2433
X-0.759Y-0.8817
X-0.759Y-3.2102
X-0.759Y-3.2732
X-0.7236Y-0.2433
X-0.7236Y-0.8817
X-0.7236Y-3.2102
X-0.7236Y-3.2732
X-0.6881Y-0.2433
X-0.6881Y-0.8817
X-0.6881Y-3.2102
X-0.6881Y-3.2732
X-0.6527Y-0.2433
X-0.6527Y-0.8817
X-0.6527Y-3.2102
X-0.6527Y-3.2732
X-0.6173Y-0.2433
X-0.6173Y-0.8817
X-0.6173Y-3.2102
X-0.6173Y-3.2732
X-0.5819Y-0.2433
X-0.5819Y-0.8817
X-0.5819Y-3.2102
X-0.5819Y-3.2732
X-0.5464Y-0.2433
X-0.5464Y-0.8817
X-0.5464Y-3.2102
X-0.5464Y-3.2732
X-0.511Y-0.2433
X-0.511Y-0.8817
X-0.511Y-3.2102
X-0.511Y-3.2732
T0
M30
